<svg width="21" height="21" viewBox="0 0 21 21" fill="none" xmlns="http://www.w3.org/2000/svg">
<path d="M8.5 0C9.82 0 11.14 0 12.5 0C12.5 0.33 12.5 0.66 12.5 1C12.83 1 13.16 1 13.5 1C13.5 1.66 13.5 2.32 13.5 3C13.83 3 14.16 3 14.5 3C14.5 2.67 14.5 2.34 14.5 2C14.83 2 15.16 2 15.5 2C15.5 1.67 15.5 1.34 15.5 1C16.16 1 16.82 1 17.5 1C17.5 1.33 17.5 1.66 17.5 2C17.83 2 18.16 2 18.5 2C18.5 2.33 18.5 2.66 18.5 3C18.83 3 19.16 3 19.5 3C19.5 3.33 19.5 3.66 19.5 4C19.83 4 20.16 4 20.5 4C20.5 5.98 20.5 7.96 20.5 10C20.17 10 19.84 10 19.5 10C19.5 10.33 19.5 10.66 19.5 11C19.17 11 18.84 11 18.5 11C18.5 11.66 18.5 12.32 18.5 13C18.83 13 19.16 13 19.5 13C19.5 13.33 19.5 13.66 19.5 14C19.83 14 20.16 14 20.5 14C20.5 15.65 20.5 17.3 20.5 19C20.17 19 19.84 19 19.5 19C19.5 19.33 19.5 19.66 19.5 20C18.51 20 17.52 20 16.5 20C16.5 20.33 16.5 20.66 16.5 21C12.54 21 8.58 21 4.5 21C4.5 20.67 4.5 20.34 4.5 20C3.51 20 2.52 20 1.5 20C1.5 19.67 1.5 19.34 1.5 19C1.17 19 0.84 19 0.5 19C0.5 17.35 0.5 15.7 0.5 14C0.83 14 1.16 14 1.5 14C1.5 13.67 1.5 13.34 1.5 13C1.83 13 2.16 13 2.5 13C2.5 12.34 2.5 11.68 2.5 11C2.17 11 1.84 11 1.5 11C1.5 10.67 1.5 10.34 1.5 10C1.17 10 0.84 10 0.5 10C0.5 8.02 0.5 6.04 0.5 4C0.83 4 1.16 4 1.5 4C1.5 3.67 1.5 3.34 1.5 3C1.83 3 2.16 3 2.5 3C2.5 2.67 2.5 2.34 2.5 2C2.83 2 3.16 2 3.5 2C3.5 1.67 3.5 1.34 3.5 1C4.16 1 4.82 1 5.5 1C5.5 1.33 5.5 1.66 5.5 2C5.83 2 6.16 2 6.5 2C6.5 2.33 6.5 2.66 6.5 3C6.83 3 7.16 3 7.5 3C7.5 2.34 7.5 1.68 7.5 1C7.83 1 8.16 1 8.5 1C8.5 0.67 8.5 0.34 8.5 0Z" fill="#C38015"/>
<path d="M3.5 1C4.16 1 4.82 1 5.5 1C5.5 1.33 5.5 1.66 5.5 2C5.83 2 6.16 2 6.5 2C6.5 2.33 6.5 2.66 6.5 3C6.83 3 7.16 3 7.5 3C7.5 3.33 7.5 3.66 7.5 4C6.84 4 6.18 4 5.5 4C5.5 4.33 5.5 4.66 5.5 5C5.17 5 4.84 5 4.5 5C4.5 5.33 4.5 5.66 4.5 6C4.17 6 3.84 6 3.5 6C3.5 6.99 3.5 7.98 3.5 9C4.49 9 5.48 9 6.5 9C6.5 9.33 6.5 9.66 6.5 10C7.16 10 7.82 10 8.5 10C8.5 10.33 8.5 10.66 8.5 11C6.85 11 5.2 11 3.5 11C3.5 13.64 3.5 16.28 3.5 19C4.16 19 4.82 19 5.5 19C5.5 18.01 5.5 17.02 5.5 16C5.83 16 6.16 16 6.5 16C6.5 16.99 6.5 17.98 6.5 19C7.16 19 7.82 19 8.5 19C8.5 19.33 8.5 19.66 8.5 20C9.82 20 11.14 20 12.5 20C12.5 19.67 12.5 19.34 12.5 19C13.16 19 13.82 19 14.5 19C14.5 18.01 14.5 17.02 14.5 16C14.83 16 15.16 16 15.5 16C15.5 16.66 15.5 17.32 15.5 18C15.83 18 16.16 18 16.5 18C16.5 17.34 16.5 16.68 16.5 16C16.83 16 17.16 16 17.5 16C17.5 14.02 17.5 12.04 17.5 10C16.51 10 15.52 10 14.5 10C14.5 9.67 14.5 9.34 14.5 9C15.49 9 16.48 9 17.5 9C17.5 8.01 17.5 7.02 17.5 6C17.17 6 16.84 6 16.5 6C16.5 5.67 16.5 5.34 16.5 5C16.17 5 15.84 5 15.5 5C15.5 4.67 15.5 4.34 15.5 4C14.84 4 14.18 4 13.5 4C13.5 3.67 13.5 3.34 13.5 3C13.83 3 14.16 3 14.5 3C14.5 2.67 14.5 2.34 14.5 2C14.83 2 15.16 2 15.5 2C15.5 1.67 15.5 1.34 15.5 1C16.16 1 16.82 1 17.5 1C17.5 1.33 17.5 1.66 17.5 2C17.83 2 18.16 2 18.5 2C18.5 2.33 18.5 2.66 18.5 3C18.83 3 19.16 3 19.5 3C19.5 3.33 19.5 3.66 19.5 4C19.83 4 20.16 4 20.5 4C20.5 5.98 20.5 7.96 20.5 10C20.17 10 19.84 10 19.5 10C19.5 10.33 19.5 10.66 19.5 11C19.17 11 18.84 11 18.5 11C18.5 11.66 18.5 12.32 18.5 13C18.83 13 19.16 13 19.5 13C19.5 13.33 19.5 13.66 19.5 14C19.83 14 20.16 14 20.5 14C20.5 15.65 20.5 17.3 20.5 19C20.17 19 19.84 19 19.5 19C19.5 19.33 19.5 19.66 19.5 20C18.51 20 17.52 20 16.5 20C16.5 20.33 16.5 20.66 16.5 21C12.54 21 8.58 21 4.5 21C4.5 20.67 4.5 20.34 4.5 20C3.51 20 2.52 20 1.5 20C1.5 19.67 1.5 19.34 1.5 19C1.17 19 0.84 19 0.5 19C0.5 17.35 0.5 15.7 0.5 14C0.83 14 1.16 14 1.5 14C1.5 13.67 1.5 13.34 1.5 13C1.83 13 2.16 13 2.5 13C2.5 12.34 2.5 11.68 2.5 11C2.17 11 1.84 11 1.5 11C1.5 10.67 1.5 10.34 1.5 10C1.17 10 0.84 10 0.5 10C0.5 8.02 0.5 6.04 0.5 4C0.83 4 1.16 4 1.5 4C1.5 3.67 1.5 3.34 1.5 3C1.83 3 2.16 3 2.5 3C2.5 2.67 2.5 2.34 2.5 2C2.83 2 3.16 2 3.5 2C3.5 1.67 3.5 1.34 3.5 1Z" fill="black"/>
<path d="M15.5 1C16.16 1 16.82 1 17.5 1C17.5 1.33 17.5 1.66 17.5 2C17.83 2 18.16 2 18.5 2C18.5 2.33 18.5 2.66 18.5 3C18.83 3 19.16 3 19.5 3C19.5 3.33 19.5 3.66 19.5 4C19.83 4 20.16 4 20.5 4C20.5 5.98 20.5 7.96 20.5 10C20.17 10 19.84 10 19.5 10C19.5 10.33 19.5 10.66 19.5 11C19.17 11 18.84 11 18.5 11C18.5 11.66 18.5 12.32 18.5 13C18.83 13 19.16 13 19.5 13C19.5 13.33 19.5 13.66 19.5 14C19.83 14 20.16 14 20.5 14C20.5 15.65 20.5 17.3 20.5 19C20.17 19 19.84 19 19.5 19C19.5 19.33 19.5 19.66 19.5 20C17.19 20 14.88 20 12.5 20C12.5 19.67 12.5 19.34 12.5 19C13.16 19 13.82 19 14.5 19C14.5 18.01 14.5 17.02 14.5 16C14.83 16 15.16 16 15.5 16C15.5 16.66 15.5 17.32 15.5 18C15.83 18 16.16 18 16.5 18C16.5 17.34 16.5 16.68 16.5 16C16.83 16 17.16 16 17.5 16C17.5 14.02 17.5 12.04 17.5 10C16.51 10 15.52 10 14.5 10C14.5 9.67 14.5 9.34 14.5 9C15.49 9 16.48 9 17.5 9C17.5 8.01 17.5 7.02 17.5 6C17.17 6 16.84 6 16.5 6C16.5 5.67 16.5 5.34 16.5 5C16.17 5 15.84 5 15.5 5C15.5 4.67 15.5 4.34 15.5 4C14.84 4 14.18 4 13.5 4C13.5 3.67 13.5 3.34 13.5 3C13.83 3 14.16 3 14.5 3C14.5 2.67 14.5 2.34 14.5 2C14.83 2 15.16 2 15.5 2C15.5 1.67 15.5 1.34 15.5 1Z" fill="black"/>
<path d="M8.5 0C9.82 0 11.14 0 12.5 0C12.5 0.33 12.5 0.66 12.5 1C12.83 1 13.16 1 13.5 1C13.5 1.99 13.5 2.98 13.5 4C14.16 4 14.82 4 15.5 4C15.5 4.33 15.5 4.66 15.5 5C15.83 5 16.16 5 16.5 5C16.5 5.33 16.5 5.66 16.5 6C16.83 6 17.16 6 17.5 6C17.5 6.99 17.5 7.98 17.5 9C16.84 9 16.18 9 15.5 9C15.5 8.67 15.5 8.34 15.5 8C15.17 8 14.84 8 14.5 8C14.5 7.67 14.5 7.34 14.5 7C14.17 7 13.84 7 13.5 7C13.5 6.67 13.5 6.34 13.5 6C12.51 6 11.52 6 10.5 6C10.5 5.67 10.5 5.34 10.5 5C9.84 5 9.18 5 8.5 5C8.5 4.67 8.5 4.34 8.5 4C8.17 4 7.84 4 7.5 4C7.5 3.01 7.5 2.02 7.5 1C7.83 1 8.16 1 8.5 1C8.5 0.67 8.5 0.34 8.5 0Z" fill="#CC8719"/>
<path d="M15.5 1C16.16 1 16.82 1 17.5 1C17.5 1.33 17.5 1.66 17.5 2C17.83 2 18.16 2 18.5 2C18.5 2.33 18.5 2.66 18.5 3C18.83 3 19.16 3 19.5 3C19.5 3.33 19.5 3.66 19.5 4C19.83 4 20.16 4 20.5 4C20.5 5.98 20.5 7.96 20.5 10C19.84 10 19.18 10 18.5 10C18.5 8.68 18.5 7.36 18.5 6C17.84 6 17.18 6 16.5 6C16.5 5.67 16.5 5.34 16.5 5C16.17 5 15.84 5 15.5 5C15.5 4.67 15.5 4.34 15.5 4C14.84 4 14.18 4 13.5 4C13.5 3.67 13.5 3.34 13.5 3C13.83 3 14.16 3 14.5 3C14.5 2.67 14.5 2.34 14.5 2C14.83 2 15.16 2 15.5 2C15.5 1.67 15.5 1.34 15.5 1Z" fill="#A6590D"/>
<path d="M3.5 1C4.16 1 4.82 1 5.5 1C5.5 1.33 5.5 1.66 5.5 2C5.83 2 6.16 2 6.5 2C6.5 2.33 6.5 2.66 6.5 3C6.83 3 7.16 3 7.5 3C7.5 3.33 7.5 3.66 7.5 4C6.84 4 6.18 4 5.5 4C5.5 4.33 5.5 4.66 5.5 5C5.17 5 4.84 5 4.5 5C4.5 5.33 4.5 5.66 4.5 6C3.84 6 3.18 6 2.5 6C2.5 7.32 2.5 8.64 2.5 10C1.84 10 1.18 10 0.5 10C0.5 8.02 0.5 6.04 0.5 4C0.83 4 1.16 4 1.5 4C1.5 3.67 1.5 3.34 1.5 3C1.83 3 2.16 3 2.5 3C2.5 2.67 2.5 2.34 2.5 2C2.83 2 3.16 2 3.5 2C3.5 1.67 3.5 1.34 3.5 1Z" fill="#C38015"/>
<path d="M6.5 16C9.14 16 11.78 16 14.5 16C14.5 16.99 14.5 17.98 14.5 19C13.84 19 13.18 19 12.5 19C12.5 19.33 12.5 19.66 12.5 20C11.18 20 9.86 20 8.5 20C8.5 19.67 8.5 19.34 8.5 19C7.84 19 7.18 19 6.5 19C6.5 18.01 6.5 17.02 6.5 16Z" fill="#D28C1D"/>
<path d="M14.5 10C15.49 10 16.48 10 17.5 10C17.5 11.98 17.5 13.96 17.5 16C17.17 16 16.84 16 16.5 16C16.5 16.66 16.5 17.32 16.5 18C16.17 18 15.84 18 15.5 18C15.5 17.34 15.5 16.68 15.5 16C15.17 16 14.84 16 14.5 16C14.5 15.34 14.5 14.68 14.5 14C14.83 14 15.16 14 15.5 14C15.5 13.67 15.5 13.34 15.5 13C15.17 13 14.84 13 14.5 13C14.5 12.01 14.5 11.02 14.5 10Z" fill="#D08A1C"/>
<path d="M8.5 0C9.82 0 11.14 0 12.5 0C12.5 0.33 12.5 0.66 12.5 1C12.83 1 13.16 1 13.5 1C13.5 1.66 13.5 2.32 13.5 3C11.52 3 9.54 3 7.5 3C7.5 2.34 7.5 1.68 7.5 1C7.83 1 8.16 1 8.5 1C8.5 0.67 8.5 0.34 8.5 0Z" fill="#A6590D"/>
<path d="M6.5 16C7.16 16 7.82 16 8.5 16C8.5 16.33 8.5 16.66 8.5 17C8.83 17 9.16 17 9.5 17C9.5 17.33 9.5 17.66 9.5 18C9.83 18 10.16 18 10.5 18C10.5 18.33 10.5 18.66 10.5 19C10.83 19 11.16 19 11.5 19C11.5 18.67 11.5 18.34 11.5 18C11.83 18 12.16 18 12.5 18C12.5 18.66 12.5 19.32 12.5 20C11.18 20 9.86 20 8.5 20C8.5 19.67 8.5 19.34 8.5 19C7.84 19 7.18 19 6.5 19C6.5 18.01 6.5 17.02 6.5 16Z" fill="#C38015"/>
<path d="M0.5 4C1.49 4 2.48 4 3.5 4C3.5 4.66 3.5 5.32 3.5 6C3.17 6 2.84 6 2.5 6C2.5 7.32 2.5 8.64 2.5 10C1.84 10 1.18 10 0.5 10C0.5 8.02 0.5 6.04 0.5 4Z" fill="#C38015"/>
<path d="M4.5 20C8.46 20 12.42 20 16.5 20C16.5 20.33 16.5 20.66 16.5 21C12.54 21 8.58 21 4.5 21C4.5 20.67 4.5 20.34 4.5 20Z" fill="black"/>
<path d="M14.5 16C14.83 16 15.16 16 15.5 16C15.5 16.66 15.5 17.32 15.5 18C15.83 18 16.16 18 16.5 18C16.5 17.34 16.5 16.68 16.5 16C16.83 16 17.16 16 17.5 16C17.5 16.99 17.5 17.98 17.5 19C17.17 19 16.84 19 16.5 19C16.5 19.33 16.5 19.66 16.5 20C15.18 20 13.86 20 12.5 20C12.5 19.67 12.5 19.34 12.5 19C13.16 19 13.82 19 14.5 19C14.5 18.01 14.5 17.02 14.5 16Z" fill="#A6590D"/>
<path d="M18.5 14C19.16 14 19.82 14 20.5 14C20.5 15.65 20.5 17.3 20.5 19C19.84 19 19.18 19 18.5 19C18.5 17.35 18.5 15.7 18.5 14Z" fill="#A6590D"/>
<path d="M0.5 14C1.16 14 1.82 14 2.5 14C2.5 15.65 2.5 17.3 2.5 19C1.84 19 1.18 19 0.5 19C0.5 17.35 0.5 15.7 0.5 14Z" fill="#A6590D"/>
<path d="M3.5 13C3.83 13 4.16 13 4.5 13C4.5 13.66 4.5 14.32 4.5 15C4.83 15 5.16 15 5.5 15C5.5 16.32 5.5 17.64 5.5 19C4.84 19 4.18 19 3.5 19C3.5 17.02 3.5 15.04 3.5 13Z" fill="#A6590D"/>
<path d="M6.5 15C9.14 15 11.78 15 14.5 15C14.5 15.33 14.5 15.66 14.5 16C11.86 16 9.22 16 6.5 16C6.5 15.67 6.5 15.34 6.5 15Z" fill="black"/>
<path d="M15.5 1C16.16 1 16.82 1 17.5 1C17.5 1.33 17.5 1.66 17.5 2C17.83 2 18.16 2 18.5 2C18.5 2.33 18.5 2.66 18.5 3C17.51 3 16.52 3 15.5 3C15.5 3.33 15.5 3.66 15.5 4C14.84 4 14.18 4 13.5 4C13.5 3.67 13.5 3.34 13.5 3C13.83 3 14.16 3 14.5 3C14.5 2.67 14.5 2.34 14.5 2C14.83 2 15.16 2 15.5 2C15.5 1.67 15.5 1.34 15.5 1Z" fill="#C38015"/>
<path d="M7.5 1C7.83 1 8.16 1 8.5 1C8.5 1.33 8.5 1.66 8.5 2C9.82 2 11.14 2 12.5 2C12.5 1.67 12.5 1.34 12.5 1C12.83 1 13.16 1 13.5 1C13.5 1.66 13.5 2.32 13.5 3C11.52 3 9.54 3 7.5 3C7.5 2.34 7.5 1.68 7.5 1Z" fill="black"/>
<path d="M5.5 16C5.83 16 6.16 16 6.5 16C6.5 16.99 6.5 17.98 6.5 19C7.16 19 7.82 19 8.5 19C8.5 19.33 8.5 19.66 8.5 20C7.18 20 5.86 20 4.5 20C4.5 19.67 4.5 19.34 4.5 19C4.83 19 5.16 19 5.5 19C5.5 18.01 5.5 17.02 5.5 16Z" fill="#A6590D"/>
<path d="M19.5 4C19.83 4 20.16 4 20.5 4C20.5 5.98 20.5 7.96 20.5 10C20.17 10 19.84 10 19.5 10C19.5 8.02 19.5 6.04 19.5 4Z" fill="black"/>
<path d="M18.5 4C18.83 4 19.16 4 19.5 4C19.5 5.98 19.5 7.96 19.5 10C19.17 10 18.84 10 18.5 10C18.5 8.02 18.5 6.04 18.5 4Z" fill="#C38015"/>
<path d="M0.5 4C0.83 4 1.16 4 1.5 4C1.5 5.98 1.5 7.96 1.5 10C1.17 10 0.84 10 0.5 10C0.5 8.02 0.5 6.04 0.5 4Z" fill="black"/>
<path d="M19.5 14C19.83 14 20.16 14 20.5 14C20.5 15.65 20.5 17.3 20.5 19C20.17 19 19.84 19 19.5 19C19.5 17.35 19.5 15.7 19.5 14Z" fill="black"/>
<path d="M0.5 14C0.83 14 1.16 14 1.5 14C1.5 15.65 1.5 17.3 1.5 19C1.17 19 0.84 19 0.5 19C0.5 17.35 0.5 15.7 0.5 14Z" fill="black"/>
<path d="M12.5 10C13.16 10 13.82 10 14.5 10C14.5 10.66 14.5 11.32 14.5 12C13.51 12 12.52 12 11.5 12C11.5 11.67 11.5 11.34 11.5 11C11.83 11 12.16 11 12.5 11C12.5 10.67 12.5 10.34 12.5 10Z" fill="#A6590D"/>
<path d="M9.5 10C9.83 10 10.16 10 10.5 10C10.5 10.66 10.5 11.32 10.5 12C10.83 12 11.16 12 11.5 12C11.5 12.33 11.5 12.66 11.5 13C10.84 13 10.18 13 9.5 13C9.5 12.67 9.5 12.34 9.5 12C9.17 12 8.84 12 8.5 12C8.5 11.67 8.5 11.34 8.5 11C8.83 11 9.16 11 9.5 11C9.5 10.67 9.5 10.34 9.5 10Z" fill="#494949"/>
<path d="M3.5 10C5.15 10 6.8 10 8.5 10C8.5 10.33 8.5 10.66 8.5 11C6.85 11 5.2 11 3.5 11C3.5 10.67 3.5 10.34 3.5 10Z" fill="#A6590D"/>
<path d="M16.5 6C16.83 6 17.16 6 17.5 6C17.5 6.99 17.5 7.98 17.5 9C16.84 9 16.18 9 15.5 9C15.5 8.67 15.5 8.34 15.5 8C15.83 8 16.16 8 16.5 8C16.5 7.34 16.5 6.68 16.5 6Z" fill="#D28C1D"/>
<path d="M8.5 0C9.82 0 11.14 0 12.5 0C12.5 0.33 12.5 0.66 12.5 1C11.18 1 9.86 1 8.5 1C8.5 0.67 8.5 0.34 8.5 0Z" fill="black"/>
<path d="M14.5 16C14.83 16 15.16 16 15.5 16C15.5 16.99 15.5 17.98 15.5 19C15.17 19 14.84 19 14.5 19C14.5 18.01 14.5 17.02 14.5 16Z" fill="black"/>
<path d="M5.5 16C5.83 16 6.16 16 6.5 16C6.5 16.99 6.5 17.98 6.5 19C6.17 19 5.84 19 5.5 19C5.5 18.01 5.5 17.02 5.5 16Z" fill="black"/>
<path d="M14.5 10C15.49 10 16.48 10 17.5 10C17.5 10.33 17.5 10.66 17.5 11C16.51 11 15.52 11 14.5 11C14.5 10.67 14.5 10.34 14.5 10Z" fill="#A6590D"/>
<path d="M13.5 6C14.16 6 14.82 6 15.5 6C15.5 6.66 15.5 7.32 15.5 8C15.17 8 14.84 8 14.5 8C14.5 7.67 14.5 7.34 14.5 7C14.17 7 13.84 7 13.5 7C13.5 6.67 13.5 6.34 13.5 6Z" fill="#D28C1D"/>
<path d="M10.5 5C11.49 5 12.48 5 13.5 5C13.5 5.33 13.5 5.66 13.5 6C12.51 6 11.52 6 10.5 6C10.5 5.67 10.5 5.34 10.5 5Z" fill="#D28C1D"/>
<path d="M15.5 4C16.16 4 16.82 4 17.5 4C17.5 4.66 17.5 5.32 17.5 6C17.17 6 16.84 6 16.5 6C16.5 5.67 16.5 5.34 16.5 5C16.17 5 15.84 5 15.5 5C15.5 4.67 15.5 4.34 15.5 4Z" fill="black"/>
<path d="M3.5 4C4.16 4 4.82 4 5.5 4C5.5 4.33 5.5 4.66 5.5 5C5.17 5 4.84 5 4.5 5C4.5 5.33 4.5 5.66 4.5 6C4.17 6 3.84 6 3.5 6C3.5 5.34 3.5 4.68 3.5 4Z" fill="black"/>
<path d="M14.5 2C14.83 2 15.16 2 15.5 2C15.5 2.66 15.5 3.32 15.5 4C14.84 4 14.18 4 13.5 4C13.5 3.67 13.5 3.34 13.5 3C13.83 3 14.16 3 14.5 3C14.5 2.67 14.5 2.34 14.5 2Z" fill="black"/>
<path d="M5.5 2C5.83 2 6.16 2 6.5 2C6.5 2.33 6.5 2.66 6.5 3C6.83 3 7.16 3 7.5 3C7.5 3.33 7.5 3.66 7.5 4C6.84 4 6.18 4 5.5 4C5.5 3.34 5.5 2.68 5.5 2Z" fill="black"/>
<path d="M15.5 16C15.83 16 16.16 16 16.5 16C16.5 16.66 16.5 17.32 16.5 18C16.17 18 15.84 18 15.5 18C15.5 17.34 15.5 16.68 15.5 16Z" fill="#C38015"/>
<path d="M12.5 10C13.16 10 13.82 10 14.5 10C14.5 10.33 14.5 10.66 14.5 11C13.84 11 13.18 11 12.5 11C12.5 10.67 12.5 10.34 12.5 10Z" fill="black"/>
<path d="M10.5 10C10.83 10 11.16 10 11.5 10C11.5 10.66 11.5 11.32 11.5 12C11.17 12 10.84 12 10.5 12C10.5 11.34 10.5 10.68 10.5 10Z" fill="#8F8F8F"/>
<path d="M6.5 10C7.16 10 7.82 10 8.5 10C8.5 10.33 8.5 10.66 8.5 11C7.84 11 7.18 11 6.5 11C6.5 10.67 6.5 10.34 6.5 10Z" fill="black"/>
<path d="M18.5 8C18.83 8 19.16 8 19.5 8C19.5 8.66 19.5 9.32 19.5 10C19.17 10 18.84 10 18.5 10C18.5 9.34 18.5 8.68 18.5 8Z" fill="#A6590D"/>
<path d="M1.5 8C1.83 8 2.16 8 2.5 8C2.5 8.66 2.5 9.32 2.5 10C2.17 10 1.84 10 1.5 10C1.5 9.34 1.5 8.68 1.5 8Z" fill="#A6590D"/>
<path d="M15.5 6C15.83 6 16.16 6 16.5 6C16.5 6.66 16.5 7.32 16.5 8C16.17 8 15.84 8 15.5 8C15.5 7.34 15.5 6.68 15.5 6Z" fill="#C38015"/>
<path d="M17.5 4C17.83 4 18.16 4 18.5 4C18.5 4.66 18.5 5.32 18.5 6C18.17 6 17.84 6 17.5 6C17.5 5.34 17.5 4.68 17.5 4Z" fill="#A6590D"/>
<path d="M13.5 4C14.16 4 14.82 4 15.5 4C15.5 4.33 15.5 4.66 15.5 5C14.84 5 14.18 5 13.5 5C13.5 4.67 13.5 4.34 13.5 4Z" fill="#D28C1D"/>
<path d="M5.5 4C6.16 4 6.82 4 7.5 4C7.5 4.33 7.5 4.66 7.5 5C6.84 5 6.18 5 5.5 5C5.5 4.67 5.5 4.34 5.5 4Z" fill="#D28C1D"/>
<path d="M2.5 4C2.83 4 3.16 4 3.5 4C3.5 4.66 3.5 5.32 3.5 6C3.17 6 2.84 6 2.5 6C2.5 5.34 2.5 4.68 2.5 4Z" fill="#A6590D"/>
<path d="M3.5 3C4.16 3 4.82 3 5.5 3C5.5 3.33 5.5 3.66 5.5 4C4.84 4 4.18 4 3.5 4C3.5 3.67 3.5 3.34 3.5 3Z" fill="#A6590D"/>
<path d="M1.5 3C2.16 3 2.82 3 3.5 3C3.5 3.33 3.5 3.66 3.5 4C2.84 4 2.18 4 1.5 4C1.5 3.67 1.5 3.34 1.5 3Z" fill="#C38015"/>
<path d="M15.5 1C16.16 1 16.82 1 17.5 1C17.5 1.33 17.5 1.66 17.5 2C16.84 2 16.18 2 15.5 2C15.5 1.67 15.5 1.34 15.5 1Z" fill="black"/>
<path d="M3.5 1C4.16 1 4.82 1 5.5 1C5.5 1.33 5.5 1.66 5.5 2C4.84 2 4.18 2 3.5 2C3.5 1.67 3.5 1.34 3.5 1Z" fill="black"/>
<path d="M4.5 18C4.83 18 5.16 18 5.5 18C5.5 18.33 5.5 18.66 5.5 19C5.17 19 4.84 19 4.5 19C4.5 18.67 4.5 18.34 4.5 18Z" fill="#C38015"/>
<path d="M12.5 17C12.83 17 13.16 17 13.5 17C13.5 17.33 13.5 17.66 13.5 18C13.17 18 12.84 18 12.5 18C12.5 17.67 12.5 17.34 12.5 17Z" fill="#C38015"/>
<path d="M10.5 17C10.83 17 11.16 17 11.5 17C11.5 17.33 11.5 17.66 11.5 18C11.17 18 10.84 18 10.5 18C10.5 17.67 10.5 17.34 10.5 17Z" fill="#C38015"/>
<path d="M4.5 16C4.83 16 5.16 16 5.5 16C5.5 16.33 5.5 16.66 5.5 17C5.17 17 4.84 17 4.5 17C4.5 16.67 4.5 16.34 4.5 16Z" fill="#C38015"/>
<path d="M14.5 15C14.83 15 15.16 15 15.5 15C15.5 15.33 15.5 15.66 15.5 16C15.17 16 14.84 16 14.5 16C14.5 15.67 14.5 15.34 14.5 15Z" fill="#C38015"/>
<path d="M18.5 14C18.83 14 19.16 14 19.5 14C19.5 14.33 19.5 14.66 19.5 15C19.17 15 18.84 15 18.5 15C18.5 14.67 18.5 14.34 18.5 14Z" fill="#C38015"/>
<path d="M14.5 14C14.83 14 15.16 14 15.5 14C15.5 14.33 15.5 14.66 15.5 15C15.17 15 14.84 15 14.5 15C14.5 14.67 14.5 14.34 14.5 14Z" fill="#D28C1D"/>
<path d="M1.5 14C1.83 14 2.16 14 2.5 14C2.5 14.33 2.5 14.66 2.5 15C2.17 15 1.84 15 1.5 15C1.5 14.67 1.5 14.34 1.5 14Z" fill="#C38015"/>
<path d="M15.5 12C15.83 12 16.16 12 16.5 12C16.5 12.33 16.5 12.66 16.5 13C16.17 13 15.84 13 15.5 13C15.5 12.67 15.5 12.34 15.5 12Z" fill="#C38015"/>
<path d="M11.5 12C11.83 12 12.16 12 12.5 12C12.5 12.33 12.5 12.66 12.5 13C12.17 13 11.84 13 11.5 13C11.5 12.67 11.5 12.34 11.5 12Z" fill="#A6590D"/>
<path d="M8.5 12C8.83 12 9.16 12 9.5 12C9.5 12.33 9.5 12.66 9.5 13C9.17 13 8.84 13 8.5 13C8.5 12.67 8.5 12.34 8.5 12Z" fill="#A6590D"/>
<path d="M14.5 11C14.83 11 15.16 11 15.5 11C15.5 11.33 15.5 11.66 15.5 12C15.17 12 14.84 12 14.5 12C14.5 11.67 14.5 11.34 14.5 11Z" fill="#C38015"/>
<path d="M11.5 11C11.83 11 12.16 11 12.5 11C12.5 11.33 12.5 11.66 12.5 12C12.17 12 11.84 12 11.5 12C11.5 11.67 11.5 11.34 11.5 11Z" fill="black"/>
<path d="M8.5 11C8.83 11 9.16 11 9.5 11C9.5 11.33 9.5 11.66 9.5 12C9.17 12 8.84 12 8.5 12C8.5 11.67 8.5 11.34 8.5 11Z" fill="black"/>
<path d="M7.5 11C7.83 11 8.16 11 8.5 11C8.5 11.33 8.5 11.66 8.5 12C8.17 12 7.84 12 7.5 12C7.5 11.67 7.5 11.34 7.5 11Z" fill="#A6590D"/>
<path d="M18.5 7C18.83 7 19.16 7 19.5 7C19.5 7.33 19.5 7.66 19.5 8C19.17 8 18.84 8 18.5 8C18.5 7.67 18.5 7.34 18.5 7Z" fill="#C38015"/>
<path d="M1.5 7C1.83 7 2.16 7 2.5 7C2.5 7.33 2.5 7.66 2.5 8C2.17 8 1.84 8 1.5 8C1.5 7.67 1.5 7.34 1.5 7Z" fill="#C38015"/>
<path d="M18.5 6C18.83 6 19.16 6 19.5 6C19.5 6.33 19.5 6.66 19.5 7C19.17 7 18.84 7 18.5 7C18.5 6.67 18.5 6.34 18.5 6Z" fill="#A6590D"/>
<path d="M1.5 6C1.83 6 2.16 6 2.5 6C2.5 6.33 2.5 6.66 2.5 7C2.17 7 1.84 7 1.5 7C1.5 6.67 1.5 6.34 1.5 6Z" fill="#A6590D"/>
<path d="M15.5 5C15.83 5 16.16 5 16.5 5C16.5 5.33 16.5 5.66 16.5 6C16.17 6 15.84 6 15.5 6C15.5 5.67 15.5 5.34 15.5 5Z" fill="#D28C1D"/>
<path d="M18.5 3C18.83 3 19.16 3 19.5 3C19.5 3.33 19.5 3.66 19.5 4C19.17 4 18.84 4 18.5 4C18.5 3.67 18.5 3.34 18.5 3Z" fill="black"/>
<path d="M17.5 3C17.83 3 18.16 3 18.5 3C18.5 3.33 18.5 3.66 18.5 4C18.17 4 17.84 4 17.5 4C17.5 3.67 17.5 3.34 17.5 3Z" fill="#C38015"/>
<path d="M1.5 3C1.83 3 2.16 3 2.5 3C2.5 3.33 2.5 3.66 2.5 4C2.17 4 1.84 4 1.5 4C1.5 3.67 1.5 3.34 1.5 3Z" fill="black"/>
<path d="M17.5 2C17.83 2 18.16 2 18.5 2C18.5 2.33 18.5 2.66 18.5 3C18.17 3 17.84 3 17.5 3C17.5 2.67 17.5 2.34 17.5 2Z" fill="black"/>
<path d="M2.5 2C2.83 2 3.16 2 3.5 2C3.5 2.33 3.5 2.66 3.5 3C3.17 3 2.84 3 2.5 3C2.5 2.67 2.5 2.34 2.5 2Z" fill="black"/>
<path d="M11.5 1C11.83 1 12.16 1 12.5 1C12.5 1.33 12.5 1.66 12.5 2C12.17 2 11.84 2 11.5 2C11.5 1.67 11.5 1.34 11.5 1Z" fill="#C38015"/>
</svg>
