<svg width="23" height="14" viewBox="0 0 23 14" fill="none" xmlns="http://www.w3.org/2000/svg">
<path d="M11.5 0C10.235 0 8.97 0 7.66667 0C7.66667 0.66 7.66667 1.32 7.66667 2C6.40167 2 5.13667 2 3.83333 2C3.83333 2.66 3.83333 3.32 3.83333 4C3.20083 4 2.56833 4 1.91667 4C1.91667 4.66 1.91667 5.32 1.91667 6C1.28417 6 0.651667 6 0 6C0 6.66 0 7.32 0 8C0.6325 8 1.265 8 1.91667 8C1.91667 8.66 1.91667 9.32 1.91667 10C2.54917 10 3.18167 10 3.83333 10C3.83333 10.66 3.83333 11.32 3.83333 12C5.09833 12 6.36333 12 7.66667 12C7.66667 12.66 7.66667 13.32 7.66667 14C8.93167 14 10.1967 14 11.5 14C11.5 13.34 11.5 12.68 11.5 12C12.765 12 14.03 12 15.3333 12C15.3333 11.34 15.3333 10.68 15.3333 10C15.9658 10 16.5983 10 17.25 10C17.25 10.66 17.25 11.32 17.25 12C17.8825 12 18.515 12 19.1667 12C19.1667 11.34 19.1667 10.68 19.1667 10C19.7992 10 20.4317 10 21.0833 10C21.0833 9.34 21.0833 8.68 21.0833 8C21.7158 8 22.3483 8 23 8C23 7.34 23 6.68 23 6C22.3675 6 21.735 6 21.0833 6C21.0833 5.34 21.0833 4.68 21.0833 4C20.4508 4 19.8183 4 19.1667 4C19.1667 3.34 19.1667 2.68 19.1667 2C18.5342 2 17.9017 2 17.25 2C17.25 2.66 17.25 3.32 17.25 4C16.6175 4 15.985 4 15.3333 4C15.3333 3.34 15.3333 2.68 15.3333 2C14.0683 2 12.8033 2 11.5 2C11.5 1.34 11.5 0.68 11.5 0Z" fill="#959595"/>
<path d="M19.1667 2C18.5342 2 17.9017 2 17.25 2C17.25 2.66 17.25 3.32 17.25 4C16.6175 4 15.985 4 15.3333 4C15.3333 5.32 15.3333 6.64 15.3333 8C13.4358 8 11.5383 8 9.58333 8C9.58333 8.66 9.58333 9.32 9.58333 10C10.2158 10 10.8483 10 11.5 10C11.5 10.66 11.5 11.32 11.5 12C12.765 12 14.03 12 15.3333 12C15.3333 11.34 15.3333 10.68 15.3333 10C15.9658 10 16.5983 10 17.25 10C17.25 10.66 17.25 11.32 17.25 12C17.8825 12 18.515 12 19.1667 12C19.1667 11.34 19.1667 10.68 19.1667 10C19.7992 10 20.4317 10 21.0833 10C21.0833 9.34 21.0833 8.68 21.0833 8C21.7158 8 22.3483 8 23 8C23 7.34 23 6.68 23 6C22.3675 6 21.735 6 21.0833 6C21.0833 5.34 21.0833 4.68 21.0833 4C20.4508 4 19.8183 4 19.1667 4C19.1667 3.34 19.1667 2.68 19.1667 2Z" fill="#959595"/>
<path d="M11.5 0C10.235 0 8.97 0 7.66666 0C7.66666 0.66 7.66666 1.32 7.66666 2C6.40166 2 5.13666 2 3.83333 2C3.83333 2.66 3.83333 3.32 3.83333 4C5.73083 4 7.62833 4 9.58333 4C9.58333 4.66 9.58333 5.32 9.58333 6C10.8483 6 12.1133 6 13.4167 6C13.4167 5.34 13.4167 4.68 13.4167 4C14.0492 4 14.6817 4 15.3333 4C15.3333 3.34 15.3333 2.68 15.3333 2C14.0683 2 12.8033 2 11.5 2C11.5 1.34 11.5 0.68 11.5 0Z" fill="#A0A0A0"/>
<path d="M7.66667 4C5.76917 4 3.87167 4 1.91667 4C1.91667 4.66 1.91667 5.32 1.91667 6C1.28417 6 0.651671 6 4.76837e-06 6C4.76837e-06 6.66 4.76837e-06 7.32 4.76837e-06 8C0.632505 8 1.265 8 1.91667 8C1.91667 8.66 1.91667 9.32 1.91667 10C2.54917 10 3.18167 10 3.83334 10C3.83334 9.34 3.83334 8.68 3.83334 8C4.46584 8 5.09834 8 5.75001 8C5.75001 7.34 5.75001 6.68 5.75001 6C6.38251 6 7.01501 6 7.66667 6C7.66667 5.34 7.66667 4.68 7.66667 4Z" fill="#A0A0A0"/>
<path d="M19.1667 2C18.5342 2 17.9017 2 17.25 2C17.25 2.66 17.25 3.32 17.25 4C16.6175 4 15.985 4 15.3333 4C15.3333 4.66 15.3333 5.32 15.3333 6C16.5983 6 17.8633 6 19.1667 6C19.1667 7.32 19.1667 8.64 19.1667 10C19.7992 10 20.4317 10 21.0833 10C21.0833 9.34 21.0833 8.68 21.0833 8C21.7158 8 22.3483 8 23 8C23 7.34 23 6.68 23 6C22.3675 6 21.735 6 21.0833 6C21.0833 5.34 21.0833 4.68 21.0833 4C20.4508 4 19.8183 4 19.1667 4C19.1667 3.34 19.1667 2.68 19.1667 2Z" fill="#919191"/>
<path d="M13.4167 8C12.1517 8 10.8867 8 9.58333 8C9.58333 8.66 9.58333 9.32 9.58333 10C10.2158 10 10.8483 10 11.5 10C11.5 10.66 11.5 11.32 11.5 12C12.765 12 14.03 12 15.3333 12C15.3333 11.34 15.3333 10.68 15.3333 10C14.7008 10 14.0683 10 13.4167 10C13.4167 9.34 13.4167 8.68 13.4167 8Z" fill="black"/>
<path d="M15.3333 2C14.0683 2 12.8033 2 11.5 2C11.5 2.66 11.5 3.32 11.5 4C10.8675 4 10.235 4 9.58333 4C9.58333 4.66 9.58333 5.32 9.58333 6C10.8483 6 12.1133 6 13.4167 6C13.4167 5.34 13.4167 4.68 13.4167 4C14.0492 4 14.6817 4 15.3333 4C15.3333 3.34 15.3333 2.68 15.3333 2Z" fill="black"/>
<path d="M11.5 12C10.235 12 8.97 12 7.66667 12C7.66667 12.66 7.66667 13.32 7.66667 14C8.93167 14 10.1967 14 11.5 14C11.5 13.34 11.5 12.68 11.5 12Z" fill="black"/>
<path d="M7.66667 10C6.40167 10 5.13667 10 3.83334 10C3.83334 10.66 3.83334 11.32 3.83334 12C5.09834 12 6.36334 12 7.66667 12C7.66667 11.34 7.66667 10.68 7.66667 10Z" fill="black"/>
<path d="M11.5 10C10.235 10 8.97 10 7.66667 10C7.66667 10.66 7.66667 11.32 7.66667 12C8.93167 12 10.1967 12 11.5 12C11.5 11.34 11.5 10.68 11.5 10Z" fill="#838383"/>
<path d="M7.66667 8C6.40167 8 5.13667 8 3.83334 8C3.83334 8.66 3.83334 9.32 3.83334 10C5.09834 10 6.36334 10 7.66667 10C7.66667 9.34 7.66667 8.68 7.66667 8Z" fill="#838383"/>
<path d="M17.25 8C15.985 8 14.72 8 13.4167 8C13.4167 8.66 13.4167 9.32 13.4167 10C14.6817 10 15.9467 10 17.25 10C17.25 9.34 17.25 8.68 17.25 8Z" fill="#838383"/>
<path d="M15.3333 4C14.7008 4 14.0683 4 13.4167 4C13.4167 5.32 13.4167 6.64 13.4167 8C14.0492 8 14.6817 8 15.3333 8C15.3333 6.68 15.3333 5.36 15.3333 4Z" fill="#6CF2FB"/>
<path d="M7.66667 2C6.40167 2 5.13667 2 3.83334 2C3.83334 2.66 3.83334 3.32 3.83334 4C5.09834 4 6.36334 4 7.66667 4C7.66667 3.34 7.66667 2.68 7.66667 2Z" fill="black"/>
<path d="M11.5 0C10.235 0 8.97 0 7.66667 0C7.66667 0.66 7.66667 1.32 7.66667 2C8.93167 2 10.1967 2 11.5 2C11.5 1.34 11.5 0.68 11.5 0Z" fill="black"/>
<path d="M19.1667 10C18.5342 10 17.9017 10 17.25 10C17.25 10.66 17.25 11.32 17.25 12C17.8825 12 18.515 12 19.1667 12C19.1667 11.34 19.1667 10.68 19.1667 10Z" fill="black"/>
<path d="M3.83333 8C3.20083 8 2.56833 8 1.91666 8C1.91666 8.66 1.91666 9.32 1.91666 10C2.54916 10 3.18166 10 3.83333 10C3.83333 9.34 3.83333 8.68 3.83333 8Z" fill="black"/>
<path d="M17.25 8C16.6175 8 15.985 8 15.3333 8C15.3333 8.66 15.3333 9.32 15.3333 10C15.9658 10 16.5983 10 17.25 10C17.25 9.34 17.25 8.68 17.25 8Z" fill="black"/>
<path d="M19.1667 8C18.5342 8 17.9017 8 17.25 8C17.25 8.66 17.25 9.32 17.25 10C17.8825 10 18.515 10 19.1667 10C19.1667 9.34 19.1667 8.68 19.1667 8Z" fill="#838383"/>
<path d="M21.0833 8C20.4508 8 19.8183 8 19.1667 8C19.1667 8.66 19.1667 9.32 19.1667 10C19.7992 10 20.4317 10 21.0833 10C21.0833 9.34 21.0833 8.68 21.0833 8Z" fill="black"/>
<path d="M1.91667 6C1.28417 6 0.651672 6 5.00679e-06 6C5.00679e-06 6.66 5.00679e-06 7.32 5.00679e-06 8C0.632505 8 1.26501 8 1.91667 8C1.91667 7.34 1.91667 6.68 1.91667 6Z" fill="black"/>
<path d="M7.66667 6C7.03417 6 6.40167 6 5.75001 6C5.75001 6.66 5.75001 7.32 5.75001 8C6.38251 8 7.01501 8 7.66667 8C7.66667 7.34 7.66667 6.68 7.66667 6Z" fill="#6CF2FB"/>
<path d="M13.4167 6C12.7842 6 12.1517 6 11.5 6C11.5 6.66 11.5 7.32 11.5 8C12.1325 8 12.765 8 13.4167 8C13.4167 7.34 13.4167 6.68 13.4167 6Z" fill="#A0A0A0"/>
<path d="M23 6C22.3675 6 21.735 6 21.0833 6C21.0833 6.66 21.0833 7.32 21.0833 8C21.7158 8 22.3483 8 23 8C23 7.34 23 6.68 23 6Z" fill="black"/>
<path d="M3.83333 4C3.20083 4 2.56833 4 1.91666 4C1.91666 4.66 1.91666 5.32 1.91666 6C2.54916 6 3.18166 6 3.83333 6C3.83333 5.34 3.83333 4.68 3.83333 4Z" fill="black"/>
<path d="M15.3333 4C14.7008 4 14.0683 4 13.4167 4C13.4167 4.66 13.4167 5.32 13.4167 6C14.0492 6 14.6817 6 15.3333 6C15.3333 5.34 15.3333 4.68 15.3333 4Z" fill="#A0A0A0"/>
<path d="M17.25 4C16.6175 4 15.985 4 15.3333 4C15.3333 4.66 15.3333 5.32 15.3333 6C15.9658 6 16.5983 6 17.25 6C17.25 5.34 17.25 4.68 17.25 4Z" fill="black"/>
<path d="M21.0833 4C20.4508 4 19.8183 4 19.1667 4C19.1667 4.66 19.1667 5.32 19.1667 6C19.7992 6 20.4317 6 21.0833 6C21.0833 5.34 21.0833 4.68 21.0833 4Z" fill="black"/>
<path d="M19.1667 2C18.5342 2 17.9017 2 17.25 2C17.25 2.66 17.25 3.32 17.25 4C17.8825 4 18.515 4 19.1667 4C19.1667 3.34 19.1667 2.68 19.1667 2Z" fill="black"/>
</svg>
