<svg width="65" height="80" viewBox="0 0 65 80" fill="none" xmlns="http://www.w3.org/2000/svg">
<path d="M27.5 0C30.8 0 34.1 0 37.5 0C37.5 0.825 37.5 1.65 37.5 2.5C38.325 2.5 39.15 2.5 40 2.5C40 3.325 40 4.15 40 5C41.65 5 43.3 5 45 5C45 5.825 45 6.65 45 7.5C47.475 7.5 49.95 7.5 52.5 7.5C52.5 8.325 52.5 9.15 52.5 10C56.625 10 60.75 10 65 10C65 24.025 65 38.05 65 52.5C64.175 52.5 63.35 52.5 62.5 52.5C62.5 54.15 62.5 55.8 62.5 57.5C61.675 57.5 60.85 57.5 60 57.5C60 59.15 60 60.8 60 62.5C59.175 62.5 58.35 62.5 57.5 62.5C57.5 63.325 57.5 64.15 57.5 65C56.675 65 55.85 65 55 65C55 65.825 55 66.65 55 67.5C54.175 67.5 53.35 67.5 52.5 67.5C52.5 68.325 52.5 69.15 52.5 70C51.675 70 50.85 70 50 70C50 70.825 50 71.65 50 72.5C49.175 72.5 48.35 72.5 47.5 72.5C47.5 73.325 47.5 74.15 47.5 75C46.675 75 45.85 75 45 75C45 75.825 45 76.65 45 77.5C43.35 77.5 41.7 77.5 40 77.5C40 78.325 40 79.15 40 80C35.05 80 30.1 80 25 80C25 79.175 25 78.35 25 77.5C23.35 77.5 21.7 77.5 20 77.5C20 76.675 20 75.85 20 75C19.175 75 18.35 75 17.5 75C17.5 74.175 17.5 73.35 17.5 72.5C16.675 72.5 15.85 72.5 15 72.5C15 71.675 15 70.85 15 70C14.175 70 13.35 70 12.5 70C12.5 69.175 12.5 68.35 12.5 67.5C11.675 67.5 10.85 67.5 10 67.5C10 66.675 10 65.85 10 65C9.175 65 8.35 65 7.5 65C7.5 64.175 7.5 63.35 7.5 62.5C6.675 62.5 5.85 62.5 5 62.5C5 60.85 5 59.2 5 57.5C4.175 57.5 3.35 57.5 2.5 57.5C2.5 55.85 2.5 54.2 2.5 52.5C1.675 52.5 0.85 52.5 0 52.5C0 38.475 0 24.45 0 10C4.125 10 8.25 10 12.5 10C12.5 9.175 12.5 8.35 12.5 7.5C14.975 7.5 17.45 7.5 20 7.5C20 6.675 20 5.85 20 5C21.65 5 23.3 5 25 5C25 4.175 25 3.35 25 2.5C25.825 2.5 26.65 2.5 27.5 2.5C27.5 1.675 27.5 0.85 27.5 0Z" fill="#402210"/>
<path d="M52.5 12.5C55.8 12.5 59.1 12.5 62.5 12.5C62.5 27.35 62.5 42.2 62.5 57.5C61.675 57.5 60.85 57.5 60 57.5C60 59.15 60 60.8 60 62.5C59.175 62.5 58.35 62.5 57.5 62.5C57.5 63.325 57.5 64.15 57.5 65C56.675 65 55.85 65 55 65C55 65.825 55 66.65 55 67.5C54.175 67.5 53.35 67.5 52.5 67.5C52.5 68.325 52.5 69.15 52.5 70C50.85 70 49.2 70 47.5 70C47.5 69.175 47.5 68.35 47.5 67.5C46.675 67.5 45.85 67.5 45 67.5C45 50.175 45 32.85 45 15C46.65 15 48.3 15 50 15C50 16.65 50 18.3 50 20C50.825 20 51.65 20 52.5 20C52.5 34.025 52.5 48.05 52.5 62.5C53.325 62.5 54.15 62.5 55 62.5C55 60.85 55 59.2 55 57.5C55.825 57.5 56.65 57.5 57.5 57.5C57.5 55.85 57.5 54.2 57.5 52.5C58.325 52.5 59.15 52.5 60 52.5C60 40.125 60 27.75 60 15C57.525 15 55.05 15 52.5 15C52.5 14.175 52.5 13.35 52.5 12.5Z" fill="#3D2112"/>
<path d="M12.5 12.5C14.975 12.5 17.45 12.5 20 12.5C20 13.325 20 14.15 20 15C18.35 15 16.7 15 15 15C15 24.075 15 33.15 15 42.5C15.825 42.5 16.65 42.5 17.5 42.5C17.5 44.975 17.5 47.45 17.5 50C16.675 50 15.85 50 15 50C15 51.65 15 53.3 15 55C15.825 55 16.65 55 17.5 55C17.5 58.3 17.5 61.6 17.5 65C18.325 65 19.15 65 20 65C20 66.65 20 68.3 20 70C19.175 70 18.35 70 17.5 70C17.5 69.175 17.5 68.35 17.5 67.5C16.675 67.5 15.85 67.5 15 67.5C15 66.675 15 65.85 15 65C14.175 65 13.35 65 12.5 65C12.5 64.175 12.5 63.35 12.5 62.5C11.675 62.5 10.85 62.5 10 62.5C10 60.85 10 59.2 10 57.5C9.175 57.5 8.35 57.5 7.5 57.5C7.5 55.85 7.5 54.2 7.5 52.5C6.675 52.5 5.85 52.5 5 52.5C5 40.125 5 27.75 5 15C7.475 15 9.95 15 12.5 15C12.5 14.175 12.5 13.35 12.5 12.5Z" fill="#311A0F"/>
<path d="M45 12.5C47.475 12.5 49.95 12.5 52.5 12.5C52.5 13.325 52.5 14.15 52.5 15C54.975 15 57.45 15 60 15C60 27.375 60 39.75 60 52.5C59.175 52.5 58.35 52.5 57.5 52.5C57.5 54.15 57.5 55.8 57.5 57.5C56.675 57.5 55.85 57.5 55 57.5C55 59.15 55 60.8 55 62.5C54.175 62.5 53.35 62.5 52.5 62.5C52.5 48.475 52.5 34.45 52.5 20C51.675 20 50.85 20 50 20C50 18.35 50 16.7 50 15C48.35 15 46.7 15 45 15C45 14.175 45 13.35 45 12.5Z" fill="#301A0F"/>
<path d="M20 12.5C20.825 12.5 21.65 12.5 22.5 12.5C22.5 31.475 22.5 50.45 22.5 70C21.675 70 20.85 70 20 70C20 68.35 20 66.7 20 65C19.175 65 18.35 65 17.5 65C17.5 61.7 17.5 58.4 17.5 55C16.675 55 15.85 55 15 55C15 53.35 15 51.7 15 50C15.825 50 16.65 50 17.5 50C17.5 47.525 17.5 45.05 17.5 42.5C16.675 42.5 15.85 42.5 15 42.5C15 33.425 15 24.35 15 15C16.65 15 18.3 15 20 15C20 14.175 20 13.35 20 12.5Z" fill="#3C2112"/>
<path d="M2.5 12.5C5.8 12.5 9.1 12.5 12.5 12.5C12.5 13.325 12.5 14.15 12.5 15C10.025 15 7.55 15 5 15C5 27.375 5 39.75 5 52.5C5.825 52.5 6.65 52.5 7.5 52.5C7.5 54.15 7.5 55.8 7.5 57.5C8.325 57.5 9.15 57.5 10 57.5C10 59.15 10 60.8 10 62.5C10.825 62.5 11.65 62.5 12.5 62.5C12.5 63.325 12.5 64.15 12.5 65C13.325 65 14.15 65 15 65C15 65.825 15 66.65 15 67.5C15.825 67.5 16.65 67.5 17.5 67.5C17.5 68.325 17.5 69.15 17.5 70C18.325 70 19.15 70 20 70C20 70.825 20 71.65 20 72.5C21.65 72.5 23.3 72.5 25 72.5C25 73.325 25 74.15 25 75C29.95 75 34.9 75 40 75C40 76.65 40 78.3 40 80C35.05 80 30.1 80 25 80C25 79.175 25 78.35 25 77.5C23.35 77.5 21.7 77.5 20 77.5C20 76.675 20 75.85 20 75C19.175 75 18.35 75 17.5 75C17.5 74.175 17.5 73.35 17.5 72.5C16.675 72.5 15.85 72.5 15 72.5C15 71.675 15 70.85 15 70C14.175 70 13.35 70 12.5 70C12.5 69.175 12.5 68.35 12.5 67.5C11.675 67.5 10.85 67.5 10 67.5C10 66.675 10 65.85 10 65C9.175 65 8.35 65 7.5 65C7.5 64.175 7.5 63.35 7.5 62.5C6.675 62.5 5.85 62.5 5 62.5C5 60.85 5 59.2 5 57.5C4.175 57.5 3.35 57.5 2.5 57.5C2.5 42.65 2.5 27.8 2.5 12.5Z" fill="#B89233"/>
<path d="M27.5 5C30.8 5 34.1 5 37.5 5C37.5 5.825 37.5 6.65 37.5 7.5C36.675 7.5 35.85 7.5 35 7.5C35 9.975 35 12.45 35 15C35.825 15 36.65 15 37.5 15C37.5 17.475 37.5 19.95 37.5 22.5C36.675 22.5 35.85 22.5 35 22.5C35 39 35 55.5 35 72.5C36.65 72.5 38.3 72.5 40 72.5C40 73.325 40 74.15 40 75C35.05 75 30.1 75 25 75C25 74.175 25 73.35 25 72.5C27.475 72.5 29.95 72.5 32.5 72.5C32.5 70.85 32.5 69.2 32.5 67.5C31.675 67.5 30.85 67.5 30 67.5C30 65.025 30 62.55 30 60C30.825 60 31.65 60 32.5 60C32.5 42.675 32.5 25.35 32.5 7.5C30.85 7.5 29.2 7.5 27.5 7.5C27.5 6.675 27.5 5.85 27.5 5Z" fill="#301A0F"/>
<path d="M7.5 17.5C9.15 17.5 10.8 17.5 12.5 17.5C12.5 30.7 12.5 43.9 12.5 57.5C10.85 57.5 9.2 57.5 7.5 57.5C7.5 44.3 7.5 31.1 7.5 17.5Z" fill="#3B2012"/>
<path d="M20 10C21.65 10 23.3 10 25 10C25 22.375 25 34.75 25 47.5C25.825 47.5 26.65 47.5 27.5 47.5C27.5 49.15 27.5 50.8 27.5 52.5C28.325 52.5 29.15 52.5 30 52.5C30 54.15 30 55.8 30 57.5C29.175 57.5 28.35 57.5 27.5 57.5C27.5 56.675 27.5 55.85 27.5 55C26.675 55 25.85 55 25 55C25 60.775 25 66.55 25 72.5C23.35 72.5 21.7 72.5 20 72.5C20 71.675 20 70.85 20 70C20.825 70 21.65 70 22.5 70C22.5 51.025 22.5 32.05 22.5 12.5C21.675 12.5 20.85 12.5 20 12.5C20 11.675 20 10.85 20 10Z" fill="#301A0F"/>
<path d="M25 40C26.65 40 28.3 40 30 40C30 40.825 30 41.65 30 42.5C30.825 42.5 31.65 42.5 32.5 42.5C32.5 48.275 32.5 54.05 32.5 60C31.675 60 30.85 60 30 60C30 62.475 30 64.95 30 67.5C30.825 67.5 31.65 67.5 32.5 67.5C32.5 69.15 32.5 70.8 32.5 72.5C30.025 72.5 27.55 72.5 25 72.5C25 66.725 25 60.95 25 55C25.825 55 26.65 55 27.5 55C27.5 55.825 27.5 56.65 27.5 57.5C28.325 57.5 29.15 57.5 30 57.5C30 55.85 30 54.2 30 52.5C29.175 52.5 28.35 52.5 27.5 52.5C27.5 50.85 27.5 49.2 27.5 47.5C26.675 47.5 25.85 47.5 25 47.5C25 45.025 25 42.55 25 40Z" fill="#592E0B"/>
<path d="M52.5 12.5C55.8 12.5 59.1 12.5 62.5 12.5C62.5 27.35 62.5 42.2 62.5 57.5C61.675 57.5 60.85 57.5 60 57.5C60 59.15 60 60.8 60 62.5C58.35 62.5 56.7 62.5 55 62.5C55 60.85 55 59.2 55 57.5C55.825 57.5 56.65 57.5 57.5 57.5C57.5 55.85 57.5 54.2 57.5 52.5C58.325 52.5 59.15 52.5 60 52.5C60 40.125 60 27.75 60 15C57.525 15 55.05 15 52.5 15C52.5 14.175 52.5 13.35 52.5 12.5Z" fill="#FFD56A"/>
<path d="M15 40C16.65 40 18.3 40 20 40C20 41.65 20 43.3 20 45C20.825 45 21.65 45 22.5 45C22.5 53.25 22.5 61.5 22.5 70C21.675 70 20.85 70 20 70C20 68.35 20 66.7 20 65C19.175 65 18.35 65 17.5 65C17.5 61.7 17.5 58.4 17.5 55C16.675 55 15.85 55 15 55C15 53.35 15 51.7 15 50C15.825 50 16.65 50 17.5 50C17.5 47.525 17.5 45.05 17.5 42.5C16.675 42.5 15.85 42.5 15 42.5C15 41.675 15 40.85 15 40Z" fill="#592E0B"/>
<path d="M2.5 12.5C5.8 12.5 9.1 12.5 12.5 12.5C12.5 13.325 12.5 14.15 12.5 15C10.025 15 7.55 15 5 15C5 27.375 5 39.75 5 52.5C5.825 52.5 6.65 52.5 7.5 52.5C7.5 54.15 7.5 55.8 7.5 57.5C5.85 57.5 4.2 57.5 2.5 57.5C2.5 42.65 2.5 27.8 2.5 12.5Z" fill="#B89233"/>
<path d="M45 15C46.65 15 48.3 15 50 15C50 16.65 50 18.3 50 20C50.825 20 51.65 20 52.5 20C52.5 26.6 52.5 33.2 52.5 40C51.675 40 50.85 40 50 40C50 35.875 50 31.75 50 27.5C49.175 27.5 48.35 27.5 47.5 27.5C47.5 31.625 47.5 35.75 47.5 40C46.675 40 45.85 40 45 40C45 31.75 45 23.5 45 15Z" fill="#592E0B"/>
<path d="M52.5 10C56.625 10 60.75 10 65 10C65 24.025 65 38.05 65 52.5C64.175 52.5 63.35 52.5 62.5 52.5C62.5 39.3 62.5 26.1 62.5 12.5C59.2 12.5 55.9 12.5 52.5 12.5C52.5 11.675 52.5 10.85 52.5 10Z" fill="black"/>
<path d="M0 10C4.125 10 8.25 10 12.5 10C12.5 10.825 12.5 11.65 12.5 12.5C9.2 12.5 5.9 12.5 2.5 12.5C2.5 25.7 2.5 38.9 2.5 52.5C1.675 52.5 0.85 52.5 0 52.5C0 38.475 0 24.45 0 10Z" fill="black"/>
<path d="M27.5 0C30.8 0 34.1 0 37.5 0C37.5 1.65 37.5 3.3 37.5 5C34.2 5 30.9 5 27.5 5C27.5 5.825 27.5 6.65 27.5 7.5C26.675 7.5 25.85 7.5 25 7.5C25 8.325 25 9.15 25 10C23.35 10 21.7 10 20 10C20 10.825 20 11.65 20 12.5C17.525 12.5 15.05 12.5 12.5 12.5C12.5 10.85 12.5 9.2 12.5 7.5C14.975 7.5 17.45 7.5 20 7.5C20 6.675 20 5.85 20 5C21.65 5 23.3 5 25 5C25 4.175 25 3.35 25 2.5C25.825 2.5 26.65 2.5 27.5 2.5C27.5 1.675 27.5 0.85 27.5 0Z" fill="#D9B353"/>
<path d="M52.5 15C54.975 15 57.45 15 60 15C60 27.375 60 39.75 60 52.5C59.175 52.5 58.35 52.5 57.5 52.5C57.5 40.95 57.5 29.4 57.5 17.5C55.85 17.5 54.2 17.5 52.5 17.5C52.5 16.675 52.5 15.85 52.5 15Z" fill="black"/>
<path d="M5 15C7.475 15 9.95 15 12.5 15C12.5 15.825 12.5 16.65 12.5 17.5C10.85 17.5 9.2 17.5 7.5 17.5C7.5 29.05 7.5 40.6 7.5 52.5C6.675 52.5 5.85 52.5 5 52.5C5 40.125 5 27.75 5 15Z" fill="black"/>
<path d="M2.5 12.5C5.8 12.5 9.1 12.5 12.5 12.5C12.5 13.325 12.5 14.15 12.5 15C10.025 15 7.55 15 5 15C5 19.125 5 23.25 5 27.5C4.175 27.5 3.35 27.5 2.5 27.5C2.5 22.55 2.5 17.6 2.5 12.5Z" fill="#CCA645"/>
<path d="M55 17.5C55.825 17.5 56.65 17.5 57.5 17.5C57.5 24.1 57.5 30.7 57.5 37.5C56.675 37.5 55.85 37.5 55 37.5C55 30.9 55 24.3 55 17.5Z" fill="#592E0B"/>
<path d="M10 40C10.825 40 11.65 40 12.5 40C12.5 45.775 12.5 51.55 12.5 57.5C11.675 57.5 10.85 57.5 10 57.5C10 51.725 10 45.95 10 40Z" fill="#592E0B"/>
<path d="M25 77.5C29.95 77.5 34.9 77.5 40 77.5C40 78.325 40 79.15 40 80C35.05 80 30.1 80 25 80C25 79.175 25 78.35 25 77.5Z" fill="black"/>
<path d="M25 75C29.95 75 34.9 75 40 75C40 75.825 40 76.65 40 77.5C35.05 77.5 30.1 77.5 25 77.5C25 76.675 25 75.85 25 75Z" fill="#FFD56A"/>
<path d="M25 72.5C29.95 72.5 34.9 72.5 40 72.5C40 73.325 40 74.15 40 75C35.05 75 30.1 75 25 75C25 74.175 25 73.35 25 72.5Z" fill="black"/>
<path d="M55 37.5C55.825 37.5 56.65 37.5 57.5 37.5C57.5 42.45 57.5 47.4 57.5 52.5C56.675 52.5 55.85 52.5 55 52.5C55 47.55 55 42.6 55 37.5Z" fill="#3A2012"/>
<path d="M25 47.5C25.825 47.5 26.65 47.5 27.5 47.5C27.5 49.15 27.5 50.8 27.5 52.5C28.325 52.5 29.15 52.5 30 52.5C30 54.15 30 55.8 30 57.5C29.175 57.5 28.35 57.5 27.5 57.5C27.5 56.675 27.5 55.85 27.5 55C26.675 55 25.85 55 25 55C25 52.525 25 50.05 25 47.5Z" fill="#381F13"/>
<path d="M52.5 12.5C55.8 12.5 59.1 12.5 62.5 12.5C62.5 14.15 62.5 15.8 62.5 17.5C61.675 17.5 60.85 17.5 60 17.5C60 16.675 60 15.85 60 15C57.525 15 55.05 15 52.5 15C52.5 14.175 52.5 13.35 52.5 12.5Z" fill="#FFE196"/>
<path d="M27.5 5C30.8 5 34.1 5 37.5 5C37.5 5.825 37.5 6.65 37.5 7.5C34.2 7.5 30.9 7.5 27.5 7.5C27.5 6.675 27.5 5.85 27.5 5Z" fill="black"/>
<path d="M27.5 0C30.8 0 34.1 0 37.5 0C37.5 0.825 37.5 1.65 37.5 2.5C34.2 2.5 30.9 2.5 27.5 2.5C27.5 1.675 27.5 0.85 27.5 0Z" fill="black"/>
<path d="M30 60C30.825 60 31.65 60 32.5 60C32.5 62.475 32.5 64.95 32.5 67.5C31.675 67.5 30.85 67.5 30 67.5C30 65.025 30 62.55 30 60Z" fill="#381F13"/>
<path d="M15 42.5C15.825 42.5 16.65 42.5 17.5 42.5C17.5 44.975 17.5 47.45 17.5 50C16.675 50 15.85 50 15 50C15 47.525 15 45.05 15 42.5Z" fill="#381F13"/>
<path d="M35 15C35.825 15 36.65 15 37.5 15C37.5 17.475 37.5 19.95 37.5 22.5C36.675 22.5 35.85 22.5 35 22.5C35 20.025 35 17.55 35 15Z" fill="#381F13"/>
<path d="M45 12.5C47.475 12.5 49.95 12.5 52.5 12.5C52.5 13.325 52.5 14.15 52.5 15C50.025 15 47.55 15 45 15C45 14.175 45 13.35 45 12.5Z" fill="black"/>
<path d="M12.5 12.5C14.975 12.5 17.45 12.5 20 12.5C20 13.325 20 14.15 20 15C17.525 15 15.05 15 12.5 15C12.5 14.175 12.5 13.35 12.5 12.5Z" fill="black"/>
<path d="M45 10C47.475 10 49.95 10 52.5 10C52.5 10.825 52.5 11.65 52.5 12.5C50.025 12.5 47.55 12.5 45 12.5C45 11.675 45 10.85 45 10Z" fill="#D9B353"/>
<path d="M12.5 10C14.975 10 17.45 10 20 10C20 10.825 20 11.65 20 12.5C17.525 12.5 15.05 12.5 12.5 12.5C12.5 11.675 12.5 10.85 12.5 10Z" fill="#BE9837"/>
<path d="M45 7.5C47.475 7.5 49.95 7.5 52.5 7.5C52.5 8.325 52.5 9.15 52.5 10C50.025 10 47.55 10 45 10C45 9.175 45 8.35 45 7.5Z" fill="black"/>
<path d="M12.5 7.5C14.975 7.5 17.45 7.5 20 7.5C20 8.325 20 9.15 20 10C17.525 10 15.05 10 12.5 10C12.5 9.175 12.5 8.35 12.5 7.5Z" fill="black"/>
<path d="M30 2.5C32.475 2.5 34.95 2.5 37.5 2.5C37.5 3.325 37.5 4.15 37.5 5C35.025 5 32.55 5 30 5C30 4.175 30 3.35 30 2.5Z" fill="#FFE196"/>
<path d="M40 75C41.65 75 43.3 75 45 75C45 75.825 45 76.65 45 77.5C43.35 77.5 41.7 77.5 40 77.5C40 76.675 40 75.85 40 75Z" fill="black"/>
<path d="M35 75C36.65 75 38.3 75 40 75C40 75.825 40 76.65 40 77.5C38.35 77.5 36.7 77.5 35 77.5C35 76.675 35 75.85 35 75Z" fill="#FFE196"/>
<path d="M25 75C26.65 75 28.3 75 30 75C30 75.825 30 76.65 30 77.5C28.35 77.5 26.7 77.5 25 77.5C25 76.675 25 75.85 25 75Z" fill="#D9B353"/>
<path d="M20 75C21.65 75 23.3 75 25 75C25 75.825 25 76.65 25 77.5C23.35 77.5 21.7 77.5 20 77.5C20 76.675 20 75.85 20 75Z" fill="black"/>
<path d="M40 72.5C41.65 72.5 43.3 72.5 45 72.5C45 73.325 45 74.15 45 75C43.35 75 41.7 75 40 75C40 74.175 40 73.35 40 72.5Z" fill="#D9B353"/>
<path d="M20 72.5C21.65 72.5 23.3 72.5 25 72.5C25 73.325 25 74.15 25 75C23.35 75 21.7 75 20 75C20 74.175 20 73.35 20 72.5Z" fill="#B89233"/>
<path d="M40 70C41.65 70 43.3 70 45 70C45 70.825 45 71.65 45 72.5C43.35 72.5 41.7 72.5 40 72.5C40 71.675 40 70.85 40 70Z" fill="black"/>
<path d="M20 70C21.65 70 23.3 70 25 70C25 70.825 25 71.65 25 72.5C23.35 72.5 21.7 72.5 20 72.5C20 71.675 20 70.85 20 70Z" fill="black"/>
<path d="M55 57.5C55.825 57.5 56.65 57.5 57.5 57.5C57.5 59.15 57.5 60.8 57.5 62.5C56.675 62.5 55.85 62.5 55 62.5C55 60.85 55 59.2 55 57.5Z" fill="#FFE196"/>
<path d="M57.5 57.5C58.325 57.5 59.15 57.5 60 57.5C60 59.15 60 60.8 60 62.5C59.175 62.5 58.35 62.5 57.5 62.5C57.5 60.85 57.5 59.2 57.5 57.5Z" fill="black"/>
<path d="M52.5 57.5C53.325 57.5 54.15 57.5 55 57.5C55 59.15 55 60.8 55 62.5C54.175 62.5 53.35 62.5 52.5 62.5C52.5 60.85 52.5 59.2 52.5 57.5Z" fill="black"/>
<path d="M10 57.5C10.825 57.5 11.65 57.5 12.5 57.5C12.5 59.15 12.5 60.8 12.5 62.5C11.675 62.5 10.85 62.5 10 62.5C10 60.85 10 59.2 10 57.5Z" fill="black"/>
<path d="M5 57.5C5.825 57.5 6.65 57.5 7.5 57.5C7.5 59.15 7.5 60.8 7.5 62.5C6.675 62.5 5.85 62.5 5 62.5C5 60.85 5 59.2 5 57.5Z" fill="black"/>
<path d="M57.5 52.5C58.325 52.5 59.15 52.5 60 52.5C60 54.15 60 55.8 60 57.5C59.175 57.5 58.35 57.5 57.5 57.5C57.5 55.85 57.5 54.2 57.5 52.5Z" fill="#FFE196"/>
<path d="M60 52.5C60.825 52.5 61.65 52.5 62.5 52.5C62.5 54.15 62.5 55.8 62.5 57.5C61.675 57.5 60.85 57.5 60 57.5C60 55.85 60 54.2 60 52.5Z" fill="black"/>
<path d="M55 52.5C55.825 52.5 56.65 52.5 57.5 52.5C57.5 54.15 57.5 55.8 57.5 57.5C56.675 57.5 55.85 57.5 55 57.5C55 55.85 55 54.2 55 52.5Z" fill="black"/>
<path d="M7.5 52.5C8.325 52.5 9.15 52.5 10 52.5C10 54.15 10 55.8 10 57.5C9.175 57.5 8.35 57.5 7.5 57.5C7.5 55.85 7.5 54.2 7.5 52.5Z" fill="black"/>
<path d="M5 52.5C5.825 52.5 6.65 52.5 7.5 52.5C7.5 54.15 7.5 55.8 7.5 57.5C6.675 57.5 5.85 57.5 5 57.5C5 55.85 5 54.2 5 52.5Z" fill="#D1AB49"/>
<path d="M2.5 52.5C3.325 52.5 4.15 52.5 5 52.5C5 54.15 5 55.8 5 57.5C4.175 57.5 3.35 57.5 2.5 57.5C2.5 55.85 2.5 54.2 2.5 52.5Z" fill="black"/>
<path d="M60 47.5C60.825 47.5 61.65 47.5 62.5 47.5C62.5 49.15 62.5 50.8 62.5 52.5C61.675 52.5 60.85 52.5 60 52.5C60 50.85 60 49.2 60 47.5Z" fill="#FFE196"/>
<path d="M50 15C50.825 15 51.65 15 52.5 15C52.5 16.65 52.5 18.3 52.5 20C51.675 20 50.85 20 50 20C50 18.35 50 16.7 50 15Z" fill="#381F13"/>
<path d="M52.5 12.5C54.15 12.5 55.8 12.5 57.5 12.5C57.5 13.325 57.5 14.15 57.5 15C55.85 15 54.2 15 52.5 15C52.5 14.175 52.5 13.35 52.5 12.5Z" fill="#FFD56A"/>
<path d="M40 10C41.65 10 43.3 10 45 10C45 10.825 45 11.65 45 12.5C43.35 12.5 41.7 12.5 40 12.5C40 11.675 40 10.85 40 10Z" fill="black"/>
<path d="M20 10C21.65 10 23.3 10 25 10C25 10.825 25 11.65 25 12.5C23.35 12.5 21.7 12.5 20 12.5C20 11.675 20 10.85 20 10Z" fill="black"/>
<path d="M40 7.5C41.65 7.5 43.3 7.5 45 7.5C45 8.325 45 9.15 45 10C43.35 10 41.7 10 40 10C40 9.175 40 8.35 40 7.5Z" fill="#D9B353"/>
<path d="M20 7.5C21.65 7.5 23.3 7.5 25 7.5C25 8.325 25 9.15 25 10C23.35 10 21.7 10 20 10C20 9.175 20 8.35 20 7.5Z" fill="#D9B353"/>
<path d="M40 5C41.65 5 43.3 5 45 5C45 5.825 45 6.65 45 7.5C43.35 7.5 41.7 7.5 40 7.5C40 6.675 40 5.85 40 5Z" fill="black"/>
<path d="M37.5 2.5C38.325 2.5 39.15 2.5 40 2.5C40 4.15 40 5.8 40 7.5C39.175 7.5 38.35 7.5 37.5 7.5C37.5 5.85 37.5 4.2 37.5 2.5Z" fill="#FFD56A"/>
<path d="M20 5C21.65 5 23.3 5 25 5C25 5.825 25 6.65 25 7.5C23.35 7.5 21.7 7.5 20 7.5C20 6.675 20 5.85 20 5Z" fill="black"/>
<path d="M45 72.5C45.825 72.5 46.65 72.5 47.5 72.5C47.5 73.325 47.5 74.15 47.5 75C46.675 75 45.85 75 45 75C45 74.175 45 73.35 45 72.5Z" fill="black"/>
<path d="M17.5 72.5C18.325 72.5 19.15 72.5 20 72.5C20 73.325 20 74.15 20 75C19.175 75 18.35 75 17.5 75C17.5 74.175 17.5 73.35 17.5 72.5Z" fill="black"/>
<path d="M47.5 70C48.325 70 49.15 70 50 70C50 70.825 50 71.65 50 72.5C49.175 72.5 48.35 72.5 47.5 72.5C47.5 71.675 47.5 70.85 47.5 70Z" fill="black"/>
<path d="M45 70C45.825 70 46.65 70 47.5 70C47.5 70.825 47.5 71.65 47.5 72.5C46.675 72.5 45.85 72.5 45 72.5C45 71.675 45 70.85 45 70Z" fill="#D9B353"/>
<path d="M17.5 70C18.325 70 19.15 70 20 70C20 70.825 20 71.65 20 72.5C19.175 72.5 18.35 72.5 17.5 72.5C17.5 71.675 17.5 70.85 17.5 70Z" fill="#B89233"/>
<path d="M15 70C15.825 70 16.65 70 17.5 70C17.5 70.825 17.5 71.65 17.5 72.5C16.675 72.5 15.85 72.5 15 72.5C15 71.675 15 70.85 15 70Z" fill="black"/>
<path d="M50 67.5C50.825 67.5 51.65 67.5 52.5 67.5C52.5 68.325 52.5 69.15 52.5 70C51.675 70 50.85 70 50 70C50 69.175 50 68.35 50 67.5Z" fill="black"/>
<path d="M47.5 67.5C48.325 67.5 49.15 67.5 50 67.5C50 68.325 50 69.15 50 70C49.175 70 48.35 70 47.5 70C47.5 69.175 47.5 68.35 47.5 67.5Z" fill="#D9B353"/>
<path d="M45 67.5C45.825 67.5 46.65 67.5 47.5 67.5C47.5 68.325 47.5 69.15 47.5 70C46.675 70 45.85 70 45 70C45 69.175 45 68.35 45 67.5Z" fill="black"/>
<path d="M17.5 67.5C18.325 67.5 19.15 67.5 20 67.5C20 68.325 20 69.15 20 70C19.175 70 18.35 70 17.5 70C17.5 69.175 17.5 68.35 17.5 67.5Z" fill="black"/>
<path d="M15 67.5C15.825 67.5 16.65 67.5 17.5 67.5C17.5 68.325 17.5 69.15 17.5 70C16.675 70 15.85 70 15 70C15 69.175 15 68.35 15 67.5Z" fill="#B89233"/>
<path d="M12.5 67.5C13.325 67.5 14.15 67.5 15 67.5C15 68.325 15 69.15 15 70C14.175 70 13.35 70 12.5 70C12.5 69.175 12.5 68.35 12.5 67.5Z" fill="black"/>
<path d="M52.5 65C53.325 65 54.15 65 55 65C55 65.825 55 66.65 55 67.5C54.175 67.5 53.35 67.5 52.5 67.5C52.5 66.675 52.5 65.85 52.5 65Z" fill="black"/>
<path d="M50 65C50.825 65 51.65 65 52.5 65C52.5 65.825 52.5 66.65 52.5 67.5C51.675 67.5 50.85 67.5 50 67.5C50 66.675 50 65.85 50 65Z" fill="#D9B353"/>
<path d="M47.5 65C48.325 65 49.15 65 50 65C50 65.825 50 66.65 50 67.5C49.175 67.5 48.35 67.5 47.5 67.5C47.5 66.675 47.5 65.85 47.5 65Z" fill="black"/>
<path d="M17.5 65C18.325 65 19.15 65 20 65C20 65.825 20 66.65 20 67.5C19.175 67.5 18.35 67.5 17.5 67.5C17.5 66.675 17.5 65.85 17.5 65Z" fill="#381F13"/>
<path d="M15 65C15.825 65 16.65 65 17.5 65C17.5 65.825 17.5 66.65 17.5 67.5C16.675 67.5 15.85 67.5 15 67.5C15 66.675 15 65.85 15 65Z" fill="black"/>
<path d="M12.5 65C13.325 65 14.15 65 15 65C15 65.825 15 66.65 15 67.5C14.175 67.5 13.35 67.5 12.5 67.5C12.5 66.675 12.5 65.85 12.5 65Z" fill="#D1AB49"/>
<path d="M10 65C10.825 65 11.65 65 12.5 65C12.5 65.825 12.5 66.65 12.5 67.5C11.675 67.5 10.85 67.5 10 67.5C10 66.675 10 65.85 10 65Z" fill="black"/>
<path d="M55 62.5C55.825 62.5 56.65 62.5 57.5 62.5C57.5 63.325 57.5 64.15 57.5 65C56.675 65 55.85 65 55 65C55 64.175 55 63.35 55 62.5Z" fill="black"/>
<path d="M52.5 62.5C53.325 62.5 54.15 62.5 55 62.5C55 63.325 55 64.15 55 65C54.175 65 53.35 65 52.5 65C52.5 64.175 52.5 63.35 52.5 62.5Z" fill="#D9B353"/>
<path d="M50 62.5C50.825 62.5 51.65 62.5 52.5 62.5C52.5 63.325 52.5 64.15 52.5 65C51.675 65 50.85 65 50 65C50 64.175 50 63.35 50 62.5Z" fill="black"/>
<path d="M12.5 62.5C13.325 62.5 14.15 62.5 15 62.5C15 63.325 15 64.15 15 65C14.175 65 13.35 65 12.5 65C12.5 64.175 12.5 63.35 12.5 62.5Z" fill="black"/>
<path d="M10 62.5C10.825 62.5 11.65 62.5 12.5 62.5C12.5 63.325 12.5 64.15 12.5 65C11.675 65 10.85 65 10 65C10 64.175 10 63.35 10 62.5Z" fill="#D1AB49"/>
<path d="M7.5 62.5C8.325 62.5 9.15 62.5 10 62.5C10 63.325 10 64.15 10 65C9.175 65 8.35 65 7.5 65C7.5 64.175 7.5 63.35 7.5 62.5Z" fill="black"/>
<path d="M55 57.5C55.825 57.5 56.65 57.5 57.5 57.5C57.5 58.325 57.5 59.15 57.5 60C56.675 60 55.85 60 55 60C55 59.175 55 58.35 55 57.5Z" fill="#FFD56A"/>
<path d="M57.5 52.5C58.325 52.5 59.15 52.5 60 52.5C60 53.325 60 54.15 60 55C59.175 55 58.35 55 57.5 55C57.5 54.175 57.5 53.35 57.5 52.5Z" fill="#FFD56A"/>
<path d="M2.5 50C3.325 50 4.15 50 5 50C5 50.825 5 51.65 5 52.5C4.175 52.5 3.35 52.5 2.5 52.5C2.5 51.675 2.5 50.85 2.5 50Z" fill="#D1AB49"/>
<path d="M10 12.5C10.825 12.5 11.65 12.5 12.5 12.5C12.5 13.325 12.5 14.15 12.5 15C11.675 15 10.85 15 10 15C10 14.175 10 13.35 10 12.5Z" fill="#BE9837"/>
<path d="M2.5 12.5C3.325 12.5 4.15 12.5 5 12.5C5 13.325 5 14.15 5 15C4.175 15 3.35 15 2.5 15C2.5 14.175 2.5 13.35 2.5 12.5Z" fill="#D9B353"/>
<path d="M40 7.5C40.825 7.5 41.65 7.5 42.5 7.5C42.5 8.325 42.5 9.15 42.5 10C41.675 10 40.85 10 40 10C40 9.175 40 8.35 40 7.5Z" fill="#FFD56A"/>
<path d="M37.5 7.5C38.325 7.5 39.15 7.5 40 7.5C40 8.325 40 9.15 40 10C39.175 10 38.35 10 37.5 10C37.5 9.175 37.5 8.35 37.5 7.5Z" fill="black"/>
<path d="M25 7.5C25.825 7.5 26.65 7.5 27.5 7.5C27.5 8.325 27.5 9.15 27.5 10C26.675 10 25.85 10 25 10C25 9.175 25 8.35 25 7.5Z" fill="black"/>
<path d="M20 7.5C20.825 7.5 21.65 7.5 22.5 7.5C22.5 8.325 22.5 9.15 22.5 10C21.675 10 20.85 10 20 10C20 9.175 20 8.35 20 7.5Z" fill="#BE9837"/>
<path d="M25 5C25.825 5 26.65 5 27.5 5C27.5 5.825 27.5 6.65 27.5 7.5C26.675 7.5 25.85 7.5 25 7.5C25 6.675 25 5.85 25 5Z" fill="#D9B353"/>
<path d="M37.5 2.5C38.325 2.5 39.15 2.5 40 2.5C40 3.325 40 4.15 40 5C39.175 5 38.35 5 37.5 5C37.5 4.175 37.5 3.35 37.5 2.5Z" fill="black"/>
<path d="M30 2.5C30.825 2.5 31.65 2.5 32.5 2.5C32.5 3.325 32.5 4.15 32.5 5C31.675 5 30.85 5 30 5C30 4.175 30 3.35 30 2.5Z" fill="#FFD56A"/>
<path d="M25 2.5C25.825 2.5 26.65 2.5 27.5 2.5C27.5 3.325 27.5 4.15 27.5 5C26.675 5 25.85 5 25 5C25 4.175 25 3.35 25 2.5Z" fill="black"/>
</svg>
