<svg width="21" height="21" viewBox="0 0 21 21" fill="none" xmlns="http://www.w3.org/2000/svg">
<path d="M9.28847 0C10.0881 0 10.8877 0 11.7115 0C11.7115 0.266538 11.7115 0.533077 11.7115 0.807692C11.9781 0.807692 12.2446 0.807692 12.5192 0.807692C12.5192 1.07423 12.5192 1.34077 12.5192 1.61538C13.0523 1.61538 13.5854 1.61538 14.1346 1.61538C14.1346 1.88192 14.1346 2.14846 14.1346 2.42308C14.6677 2.42308 15.2008 2.42308 15.75 2.42308C15.75 2.68962 15.75 2.95615 15.75 3.23077C16.2831 3.23077 16.8162 3.23077 17.3654 3.23077C17.3654 3.49731 17.3654 3.76385 17.3654 4.03846C17.6319 4.03846 17.8985 4.03846 18.1731 4.03846C18.1731 4.305 18.1731 4.57154 18.1731 4.84615C18.4396 4.84615 18.7062 4.84615 18.9808 4.84615C18.9808 5.11269 18.9808 5.37923 18.9808 5.65385C19.2473 5.65385 19.5139 5.65385 19.7885 5.65385C19.7885 8.85231 19.7885 12.0508 19.7885 15.3462C19.5219 15.3462 19.2554 15.3462 18.9808 15.3462C18.9808 15.6127 18.9808 15.8792 18.9808 16.1538C18.7142 16.1538 18.4477 16.1538 18.1731 16.1538C18.1731 16.4204 18.1731 16.6869 18.1731 16.9615C17.9065 16.9615 17.64 16.9615 17.3654 16.9615C17.3654 17.2281 17.3654 17.4946 17.3654 17.7692C16.8323 17.7692 16.2992 17.7692 15.75 17.7692C15.75 18.0358 15.75 18.3023 15.75 18.5769C15.2169 18.5769 14.6839 18.5769 14.1346 18.5769C14.1346 18.8435 14.1346 19.11 14.1346 19.3846C13.6015 19.3846 13.0685 19.3846 12.5192 19.3846C12.5192 19.6512 12.5192 19.9177 12.5192 20.1923C12.2527 20.1923 11.9862 20.1923 11.7115 20.1923C11.7115 20.4588 11.7115 20.7254 11.7115 21C10.9119 21 10.1123 21 9.28847 21C9.28847 20.7335 9.28847 20.4669 9.28847 20.1923C9.02193 20.1923 8.75539 20.1923 8.48078 20.1923C8.48078 19.9258 8.48078 19.6592 8.48078 19.3846C7.9477 19.3846 7.41463 19.3846 6.86539 19.3846C6.86539 19.1181 6.86539 18.8515 6.86539 18.5769C6.33232 18.5769 5.79924 18.5769 5.25001 18.5769C5.25001 18.3104 5.25001 18.0438 5.25001 17.7692C4.71693 17.7692 4.18386 17.7692 3.63462 17.7692C3.63462 17.5027 3.63462 17.2362 3.63462 16.9615C3.36809 16.9615 3.10155 16.9615 2.82693 16.9615C2.82693 16.695 2.82693 16.4285 2.82693 16.1538C2.56039 16.1538 2.29386 16.1538 2.01924 16.1538C2.01924 15.8873 2.01924 15.6208 2.01924 15.3462C1.7527 15.3462 1.48616 15.3462 1.21155 15.3462C1.21155 12.1477 1.21155 8.94923 1.21155 5.65385C1.47809 5.65385 1.74462 5.65385 2.01924 5.65385C2.01924 5.38731 2.01924 5.12077 2.01924 4.84615C2.28578 4.84615 2.55232 4.84615 2.82693 4.84615C2.82693 4.57962 2.82693 4.31308 2.82693 4.03846C3.09347 4.03846 3.36001 4.03846 3.63462 4.03846C3.63462 3.77192 3.63462 3.50538 3.63462 3.23077C4.1677 3.23077 4.70078 3.23077 5.25001 3.23077C5.25001 2.96423 5.25001 2.69769 5.25001 2.42308C5.78309 2.42308 6.31616 2.42308 6.86539 2.42308C6.86539 2.15654 6.86539 1.89 6.86539 1.61538C7.39847 1.61538 7.93155 1.61538 8.48078 1.61538C8.48078 1.34885 8.48078 1.08231 8.48078 0.807692C8.74732 0.807692 9.01386 0.807692 9.28847 0.807692C9.28847 0.541154 9.28847 0.274615 9.28847 0Z" fill="#7D0000"/>
<path d="M9.28846 0C10.0881 0 10.8877 0 11.7115 0C11.7115 0.266538 11.7115 0.533077 11.7115 0.807692C11.9781 0.807692 12.2446 0.807692 12.5192 0.807692C12.5192 1.07423 12.5192 1.34077 12.5192 1.61538C13.0523 1.61538 13.5854 1.61538 14.1346 1.61538C14.1346 1.88192 14.1346 2.14846 14.1346 2.42308C14.6677 2.42308 15.2008 2.42308 15.75 2.42308C15.75 2.68962 15.75 2.95615 15.75 3.23077C16.2831 3.23077 16.8162 3.23077 17.3654 3.23077C17.3654 3.49731 17.3654 3.76385 17.3654 4.03846C17.6319 4.03846 17.8985 4.03846 18.1731 4.03846C18.1731 5.10462 18.1731 6.17077 18.1731 7.26923C18.4396 7.26923 18.7062 7.26923 18.9808 7.26923C18.9808 9.66808 18.9808 12.0669 18.9808 14.5385C18.7142 14.5385 18.4477 14.5385 18.1731 14.5385C18.1731 14.2719 18.1731 14.0054 18.1731 13.7308C17.9065 13.7308 17.64 13.7308 17.3654 13.7308C17.3654 13.4642 17.3654 13.1977 17.3654 12.9231C17.0988 12.9231 16.8323 12.9231 16.5577 12.9231C16.5577 12.1235 16.5577 11.3238 16.5577 10.5C16.0246 10.5 15.4915 10.5 14.9423 10.5C14.9423 10.2335 14.9423 9.96692 14.9423 9.69231C14.6758 9.69231 14.4092 9.69231 14.1346 9.69231C14.1346 9.15923 14.1346 8.62615 14.1346 8.07692C13.8681 8.07692 13.6015 8.07692 13.3269 8.07692C13.3269 7.81038 13.3269 7.54385 13.3269 7.26923C13.0604 7.26923 12.7938 7.26923 12.5192 7.26923C12.5192 6.73615 12.5192 6.20308 12.5192 5.65385C11.7196 5.65385 10.92 5.65385 10.0962 5.65385C10.0962 6.45346 10.0962 7.25308 10.0962 8.07692C10.3627 8.07692 10.6292 8.07692 10.9038 8.07692C10.9038 8.34346 10.9038 8.61 10.9038 8.88461C11.1704 8.88461 11.4369 8.88461 11.7115 8.88461C11.7115 9.15115 11.7115 9.41769 11.7115 9.69231C11.9781 9.69231 12.2446 9.69231 12.5192 9.69231C12.5192 9.95885 12.5192 10.2254 12.5192 10.5C12.2527 10.5 11.9862 10.5 11.7115 10.5C11.7115 11.0331 11.7115 11.5662 11.7115 12.1154C11.445 12.1154 11.1785 12.1154 10.9038 12.1154C10.9038 12.3819 10.9038 12.6485 10.9038 12.9231C9.03807 12.9231 7.1723 12.9231 5.25 12.9231C5.25 12.6565 5.25 12.39 5.25 12.1154C4.98346 12.1154 4.71692 12.1154 4.4423 12.1154C4.4423 11.5823 4.4423 11.0492 4.4423 10.5C4.17576 10.5 3.90923 10.5 3.63461 10.5C3.63461 9.96692 3.63461 9.43385 3.63461 8.88461C3.36807 8.88461 3.10153 8.88461 2.82692 8.88461C2.82692 8.35154 2.82692 7.81846 2.82692 7.26923C2.56038 7.26923 2.29384 7.26923 2.01923 7.26923C2.01923 6.46962 2.01923 5.67 2.01923 4.84615C2.28576 4.84615 2.5523 4.84615 2.82692 4.84615C2.82692 4.57962 2.82692 4.31308 2.82692 4.03846C3.09346 4.03846 3.36 4.03846 3.63461 4.03846C3.63461 3.77192 3.63461 3.50538 3.63461 3.23077C4.16769 3.23077 4.70076 3.23077 5.25 3.23077C5.25 2.96423 5.25 2.69769 5.25 2.42308C5.78307 2.42308 6.31615 2.42308 6.86538 2.42308C6.86538 2.15654 6.86538 1.89 6.86538 1.61538C7.39846 1.61538 7.93153 1.61538 8.48077 1.61538C8.48077 1.34885 8.48077 1.08231 8.48077 0.807692C8.7473 0.807692 9.01384 0.807692 9.28846 0.807692C9.28846 0.541154 9.28846 0.274615 9.28846 0Z" fill="#9B0000"/>
<path d="M5.25 13.7307C8.715 13.7307 12.18 13.7307 15.75 13.7307C15.75 13.9973 15.75 14.2638 15.75 14.5384C15.4835 14.5384 15.2169 14.5384 14.9423 14.5384C14.9423 14.8049 14.9423 15.0715 14.9423 15.3461C14.6758 15.3461 14.4092 15.3461 14.1346 15.3461C14.1346 15.8792 14.1346 16.4123 14.1346 16.9615C13.8681 16.9615 13.6015 16.9615 13.3269 16.9615C13.3269 17.4946 13.3269 18.0276 13.3269 18.5769C13.0604 18.5769 12.7938 18.5769 12.5192 18.5769C12.5192 19.1099 12.5192 19.643 12.5192 20.1923C12.2527 20.1923 11.9862 20.1923 11.7115 20.1923C11.7115 20.4588 11.7115 20.7253 11.7115 20.9999C10.9119 20.9999 10.1123 20.9999 9.28846 20.9999C9.28846 20.7334 9.28846 20.4669 9.28846 20.1923C9.02192 20.1923 8.75538 20.1923 8.48077 20.1923C8.48077 19.3926 8.48077 18.593 8.48077 17.7692C8.21423 17.7692 7.94769 17.7692 7.67308 17.7692C7.67308 17.5026 7.67308 17.2361 7.67308 16.9615C7.40654 16.9615 7.14 16.9615 6.86538 16.9615C6.86538 16.4284 6.86538 15.8953 6.86538 15.3461C6.59885 15.3461 6.33231 15.3461 6.05769 15.3461C6.05769 15.0796 6.05769 14.813 6.05769 14.5384C5.79115 14.5384 5.52462 14.5384 5.25 14.5384C5.25 14.2719 5.25 14.0053 5.25 13.7307Z" fill="#9B0000"/>
<path d="M1.21155 5.65381C1.47809 5.65381 1.74462 5.65381 2.01924 5.65381C2.01924 6.18689 2.01924 6.71996 2.01924 7.26919C2.28578 7.26919 2.55232 7.26919 2.82693 7.26919C2.82693 7.80227 2.82693 8.33535 2.82693 8.88458C3.09347 8.88458 3.36001 8.88458 3.63462 8.88458C3.63462 9.41765 3.63462 9.95073 3.63462 10.5C3.90116 10.5 4.1677 10.5 4.44232 10.5C4.44232 11.033 4.44232 11.5661 4.44232 12.1153C4.70886 12.1153 4.97539 12.1153 5.25001 12.1153C5.25001 12.915 5.25001 13.7146 5.25001 14.5384C5.51655 14.5384 5.78309 14.5384 6.0577 14.5384C6.0577 14.805 6.0577 15.0715 6.0577 15.3461C6.32424 15.3461 6.59078 15.3461 6.86539 15.3461C6.86539 15.8792 6.86539 16.4123 6.86539 16.9615C7.13193 16.9615 7.39847 16.9615 7.67309 16.9615C7.67309 17.228 7.67309 17.4946 7.67309 17.7692C7.93962 17.7692 8.20616 17.7692 8.48078 17.7692C8.48078 18.3023 8.48078 18.8353 8.48078 19.3846C7.9477 19.3846 7.41462 19.3846 6.86539 19.3846C6.86539 19.118 6.86539 18.8515 6.86539 18.5769C6.33232 18.5769 5.79924 18.5769 5.25001 18.5769C5.25001 18.3103 5.25001 18.0438 5.25001 17.7692C4.71693 17.7692 4.18386 17.7692 3.63462 17.7692C3.63462 17.5027 3.63462 17.2361 3.63462 16.9615C3.36809 16.9615 3.10155 16.9615 2.82693 16.9615C2.82693 16.695 2.82693 16.4284 2.82693 16.1538C2.56039 16.1538 2.29386 16.1538 2.01924 16.1538C2.01924 15.8873 2.01924 15.6207 2.01924 15.3461C1.7527 15.3461 1.48616 15.3461 1.21155 15.3461C1.21155 12.1477 1.21155 8.94919 1.21155 5.65381Z" fill="#7D0000"/>
<path d="M10.0962 4.84619C12.7616 4.84619 15.427 4.84619 18.1731 4.84619C18.1731 5.64581 18.1731 6.44542 18.1731 7.26927C18.4397 7.26927 18.7062 7.26927 18.9808 7.26927C18.9808 9.66811 18.9808 12.067 18.9808 14.5385C18.7143 14.5385 18.4477 14.5385 18.1731 14.5385C18.1731 14.272 18.1731 14.0054 18.1731 13.7308C17.9066 13.7308 17.64 13.7308 17.3654 13.7308C17.3654 13.4643 17.3654 13.1977 17.3654 12.9231C17.0989 12.9231 16.8323 12.9231 16.5577 12.9231C16.5577 12.1235 16.5577 11.3239 16.5577 10.5C16.0247 10.5 15.4916 10.5 14.9423 10.5C14.9423 10.2335 14.9423 9.96696 14.9423 9.69235C14.6758 9.69235 14.4093 9.69235 14.1347 9.69235C14.1347 9.15927 14.1347 8.62619 14.1347 8.07696C13.8681 8.07696 13.6016 8.07696 13.327 8.07696C13.327 7.81042 13.327 7.54388 13.327 7.26927C13.0604 7.26927 12.7939 7.26927 12.5193 7.26927C12.5193 6.73619 12.5193 6.20311 12.5193 5.65388C11.7197 5.65388 10.92 5.65388 10.0962 5.65388C10.0962 5.38735 10.0962 5.12081 10.0962 4.84619Z" fill="#C94040"/>
<path d="M9.28849 0C10.0881 0 10.8877 0 11.7116 0C11.7116 0.266538 11.7116 0.533077 11.7116 0.807692C11.9781 0.807692 12.2446 0.807692 12.5193 0.807692C12.5193 1.07423 12.5193 1.34077 12.5193 1.61538C13.0523 1.61538 13.5854 1.61538 14.1346 1.61538C14.1346 1.88192 14.1346 2.14846 14.1346 2.42308C14.6677 2.42308 15.2008 2.42308 15.75 2.42308C15.75 2.68962 15.75 2.95615 15.75 3.23077C16.2831 3.23077 16.8162 3.23077 17.3654 3.23077C17.3654 3.49731 17.3654 3.76385 17.3654 4.03846C17.632 4.03846 17.8985 4.03846 18.1731 4.03846C18.1731 4.305 18.1731 4.57154 18.1731 4.84615C15.5077 4.84615 12.8423 4.84615 10.0962 4.84615C10.0962 4.57962 10.0962 4.31308 10.0962 4.03846C7.96387 4.03846 5.83157 4.03846 3.63464 4.03846C3.63464 3.77192 3.63464 3.50538 3.63464 3.23077C4.16772 3.23077 4.7008 3.23077 5.25003 3.23077C5.25003 2.96423 5.25003 2.69769 5.25003 2.42308C5.78311 2.42308 6.31618 2.42308 6.86541 2.42308C6.86541 2.15654 6.86541 1.89 6.86541 1.61538C7.39849 1.61538 7.93157 1.61538 8.4808 1.61538C8.4808 1.34885 8.4808 1.08231 8.4808 0.807692C8.74734 0.807692 9.01387 0.807692 9.28849 0.807692C9.28849 0.541154 9.28849 0.274615 9.28849 0Z" fill="#7D0000"/>
<path d="M10.0962 5.65381C10.8958 5.65381 11.6954 5.65381 12.5193 5.65381C12.5193 6.18689 12.5193 6.71996 12.5193 7.26919C12.7858 7.26919 13.0523 7.26919 13.327 7.26919C13.327 7.53573 13.327 7.80227 13.327 8.07689C13.5935 8.07689 13.86 8.07689 14.1347 8.07689C14.1347 8.60996 14.1347 9.14304 14.1347 9.69227C14.4012 9.69227 14.6677 9.69227 14.9423 9.69227C14.9423 9.95881 14.9423 10.2253 14.9423 10.5C15.4754 10.5 16.0085 10.5 16.5577 10.5C16.5577 11.2996 16.5577 12.0992 16.5577 12.923C16.2912 12.923 16.0247 12.923 15.75 12.923C15.75 12.6565 15.75 12.39 15.75 12.1153C15.4835 12.1153 15.217 12.1153 14.9423 12.1153C14.9423 12.3819 14.9423 12.6484 14.9423 12.923C13.6097 12.923 12.277 12.923 10.9039 12.923C10.9039 12.6565 10.9039 12.39 10.9039 12.1153C11.1704 12.1153 11.437 12.1153 11.7116 12.1153C11.7116 11.5823 11.7116 11.0492 11.7116 10.5C11.9781 10.5 12.2447 10.5 12.5193 10.5C12.5193 10.2334 12.5193 9.96689 12.5193 9.69227C12.2527 9.69227 11.9862 9.69227 11.7116 9.69227C11.7116 9.42573 11.7116 9.15919 11.7116 8.88458C11.445 8.88458 11.1785 8.88458 10.9039 8.88458C10.9039 8.61804 10.9039 8.3515 10.9039 8.07689C10.6373 8.07689 10.3708 8.07689 10.0962 8.07689C10.0962 7.27727 10.0962 6.47765 10.0962 5.65381Z" fill="#980000"/>
<path d="M7.67308 8.0769C7.93962 8.0769 8.20615 8.0769 8.48077 8.0769C8.48077 8.87652 8.48077 9.67614 8.48077 10.5C8.74731 10.5 9.01385 10.5 9.28846 10.5C9.28846 9.9669 9.28846 9.43383 9.28846 8.8846C9.555 8.8846 9.82154 8.8846 10.0962 8.8846C10.0962 8.61806 10.0962 8.35152 10.0962 8.0769C10.3627 8.0769 10.6292 8.0769 10.9038 8.0769C10.9038 8.34344 10.9038 8.60998 10.9038 8.8846C11.1704 8.8846 11.4369 8.8846 11.7115 8.8846C11.7115 9.15114 11.7115 9.41767 11.7115 9.69229C11.9781 9.69229 12.2446 9.69229 12.5192 9.69229C12.5192 9.95883 12.5192 10.2254 12.5192 10.5C12.2527 10.5 11.9862 10.5 11.7115 10.5C11.7115 11.0331 11.7115 11.5661 11.7115 12.1154C11.445 12.1154 11.1785 12.1154 10.9038 12.1154C10.9038 12.3819 10.9038 12.6484 10.9038 12.9231C9.03808 12.9231 7.17231 12.9231 5.25 12.9231C5.25 12.6565 5.25 12.39 5.25 12.1154C5.51654 12.1154 5.78308 12.1154 6.05769 12.1154C6.05769 11.5823 6.05769 11.0492 6.05769 10.5C6.32423 10.5 6.59077 10.5 6.86538 10.5C6.86538 10.2334 6.86538 9.9669 6.86538 9.69229C7.13192 9.69229 7.39846 9.69229 7.67308 9.69229C7.67308 9.15921 7.67308 8.62614 7.67308 8.0769Z" fill="#9B0000"/>
<path d="M15.75 13.7307C16.0165 13.7307 16.2831 13.7307 16.5577 13.7307C16.5577 13.9973 16.5577 14.2638 16.5577 14.5384C16.8242 14.5384 17.0908 14.5384 17.3654 14.5384C17.3654 14.8049 17.3654 15.0715 17.3654 15.3461C17.6319 15.3461 17.8985 15.3461 18.1731 15.3461C18.1731 15.8792 18.1731 16.4123 18.1731 16.9615C17.9065 16.9615 17.64 16.9615 17.3654 16.9615C17.3654 17.228 17.3654 17.4946 17.3654 17.7692C16.8323 17.7692 16.2992 17.7692 15.75 17.7692C15.75 18.0357 15.75 18.3023 15.75 18.5769C15.2169 18.5769 14.6838 18.5769 14.1346 18.5769C14.1346 18.8434 14.1346 19.1099 14.1346 19.3846C13.6015 19.3846 13.0685 19.3846 12.5192 19.3846C12.5192 19.118 12.5192 18.8515 12.5192 18.5769C12.7858 18.5769 13.0523 18.5769 13.3269 18.5769C13.3269 18.0438 13.3269 17.5107 13.3269 16.9615C13.5935 16.9615 13.86 16.9615 14.1346 16.9615C14.1346 16.4284 14.1346 15.8953 14.1346 15.3461C14.4011 15.3461 14.6677 15.3461 14.9423 15.3461C14.9423 15.0796 14.9423 14.813 14.9423 14.5384C15.2088 14.5384 15.4754 14.5384 15.75 14.5384C15.75 14.2719 15.75 14.0053 15.75 13.7307Z" fill="#9B0000"/>
<path d="M9.28849 0C10.0881 0 10.8877 0 11.7116 0C11.7116 0.266538 11.7116 0.533077 11.7116 0.807692C11.1785 0.807692 10.6454 0.807692 10.0962 0.807692C10.0962 1.87385 10.0962 2.94 10.0962 4.03846C7.96387 4.03846 5.83157 4.03846 3.63464 4.03846C3.63464 3.77192 3.63464 3.50538 3.63464 3.23077C4.16772 3.23077 4.7008 3.23077 5.25003 3.23077C5.25003 2.96423 5.25003 2.69769 5.25003 2.42308C5.78311 2.42308 6.31618 2.42308 6.86541 2.42308C6.86541 2.15654 6.86541 1.89 6.86541 1.61538C7.39849 1.61538 7.93157 1.61538 8.4808 1.61538C8.4808 1.34885 8.4808 1.08231 8.4808 0.807692C8.74734 0.807692 9.01387 0.807692 9.28849 0.807692C9.28849 0.541154 9.28849 0.274615 9.28849 0Z" fill="#9B0000"/>
<path d="M18.1731 7.26929C18.4396 7.26929 18.7061 7.26929 18.9808 7.26929C18.9808 9.66813 18.9808 12.067 18.9808 14.5385C18.7142 14.5385 18.4477 14.5385 18.1731 14.5385C18.1731 14.272 18.1731 14.0054 18.1731 13.7308C17.9065 13.7308 17.64 13.7308 17.3654 13.7308C17.3654 13.4643 17.3654 13.1977 17.3654 12.9231C17.0988 12.9231 16.8323 12.9231 16.5577 12.9231C16.5577 12.1235 16.5577 11.3239 16.5577 10.5001C16.8242 10.5001 17.0908 10.5001 17.3654 10.5001C17.3654 9.96698 17.3654 9.4339 17.3654 8.88467C17.6319 8.88467 17.8984 8.88467 18.1731 8.88467C18.1731 8.35159 18.1731 7.81852 18.1731 7.26929Z" fill="#C94040"/>
<path d="M10.0961 8.0769C10.3627 8.0769 10.6292 8.0769 10.9038 8.0769C10.9038 8.34344 10.9038 8.60998 10.9038 8.8846C11.1704 8.8846 11.4369 8.8846 11.7115 8.8846C11.7115 9.15114 11.7115 9.41767 11.7115 9.69229C11.9781 9.69229 12.2446 9.69229 12.5192 9.69229C12.5192 9.95883 12.5192 10.2254 12.5192 10.5C12.2527 10.5 11.9861 10.5 11.7115 10.5C11.7115 11.0331 11.7115 11.5661 11.7115 12.1154C11.445 12.1154 11.1785 12.1154 10.9038 12.1154C10.9038 12.3819 10.9038 12.6484 10.9038 12.9231C10.6373 12.9231 10.3708 12.9231 10.0961 12.9231C10.0961 12.6565 10.0961 12.39 10.0961 12.1154C9.82961 12.1154 9.56307 12.1154 9.28845 12.1154C9.28845 11.0492 9.28845 9.98306 9.28845 8.8846C9.55499 8.8846 9.82153 8.8846 10.0961 8.8846C10.0961 8.61806 10.0961 8.35152 10.0961 8.0769Z" fill="#C38015"/>
<path d="M18.1731 4.84619C18.4396 4.84619 18.7062 4.84619 18.9808 4.84619C18.9808 5.11273 18.9808 5.37927 18.9808 5.65388C19.2473 5.65388 19.5139 5.65388 19.7885 5.65388C19.7885 8.85234 19.7885 12.0508 19.7885 15.3462C19.5219 15.3462 19.2554 15.3462 18.9808 15.3462C18.9808 12.6808 18.9808 10.0154 18.9808 7.26927C18.7142 7.26927 18.4477 7.26927 18.1731 7.26927C18.1731 6.46965 18.1731 5.67004 18.1731 4.84619Z" fill="black"/>
<path d="M10.9039 0.807617C11.4369 0.807617 11.97 0.807617 12.5193 0.807617C12.5193 1.07416 12.5193 1.34069 12.5193 1.61531C13.0523 1.61531 13.5854 1.61531 14.1346 1.61531C14.1346 1.88185 14.1346 2.14839 14.1346 2.423C14.6677 2.423 15.2008 2.423 15.75 2.423C15.75 2.95608 15.75 3.48916 15.75 4.03839C14.6839 4.03839 13.6177 4.03839 12.5193 4.03839C12.5193 3.77185 12.5193 3.50531 12.5193 3.23069C12.2527 3.23069 11.9862 3.23069 11.7116 3.23069C11.7116 2.96416 11.7116 2.69762 11.7116 2.423C11.445 2.423 11.1785 2.423 10.9039 2.423C10.9039 1.88992 10.9039 1.35685 10.9039 0.807617Z" fill="#C94040"/>
<path d="M1.21155 5.65381C1.47809 5.65381 1.74462 5.65381 2.01924 5.65381C2.01924 8.85227 2.01924 12.0507 2.01924 15.3461C1.7527 15.3461 1.48616 15.3461 1.21155 15.3461C1.21155 12.1477 1.21155 8.94919 1.21155 5.65381Z" fill="black"/>
<path d="M3.63464 4.03857C5.76695 4.03857 7.89926 4.03857 10.0962 4.03857C10.0962 4.30511 10.0962 4.57165 10.0962 4.84627C7.96387 4.84627 5.83157 4.84627 3.63464 4.84627C3.63464 4.57973 3.63464 4.31319 3.63464 4.03857Z" fill="#C94040"/>
<path d="M10.0962 0.807617C10.3627 0.807617 10.6293 0.807617 10.9039 0.807617C10.9039 1.34069 10.9039 1.87377 10.9039 2.423C11.1704 2.423 11.437 2.423 11.7116 2.423C11.7116 2.68954 11.7116 2.95608 11.7116 3.23069C11.9781 3.23069 12.2447 3.23069 12.5193 3.23069C12.5193 3.49723 12.5193 3.76377 12.5193 4.03839C11.9862 4.03839 11.4531 4.03839 10.9039 4.03839C10.9039 4.30492 10.9039 4.57146 10.9039 4.84608C10.6373 4.84608 10.3708 4.84608 10.0962 4.84608C10.0962 3.51339 10.0962 2.18069 10.0962 0.807617Z" fill="#7D0000"/>
<path d="M10.0962 8.0769C10.3627 8.0769 10.6293 8.0769 10.9039 8.0769C10.9039 8.34344 10.9039 8.60998 10.9039 8.8846C11.1704 8.8846 11.437 8.8846 11.7116 8.8846C11.7116 9.15114 11.7116 9.41767 11.7116 9.69229C11.9781 9.69229 12.2447 9.69229 12.5193 9.69229C12.5193 9.95883 12.5193 10.2254 12.5193 10.5C12.2527 10.5 11.9862 10.5 11.7116 10.5C11.7116 11.0331 11.7116 11.5661 11.7116 12.1154C11.445 12.1154 11.1785 12.1154 10.9039 12.1154C10.9039 11.3158 10.9039 10.5161 10.9039 9.69229C10.6373 9.69229 10.3708 9.69229 10.0962 9.69229C10.0962 9.15921 10.0962 8.62614 10.0962 8.0769Z" fill="#D28C1D"/>
<path d="M8.48077 19.3845C9.01385 19.3845 9.54693 19.3845 10.0962 19.3845C10.0962 19.6511 10.0962 19.9176 10.0962 20.1922C10.6292 20.1922 11.1623 20.1922 11.7115 20.1922C11.7115 20.4588 11.7115 20.7253 11.7115 20.9999C10.9119 20.9999 10.1123 20.9999 9.28847 20.9999C9.28847 20.7334 9.28847 20.4668 9.28847 20.1922C9.02193 20.1922 8.75539 20.1922 8.48077 20.1922C8.48077 19.9257 8.48077 19.6591 8.48077 19.3845Z" fill="black"/>
<path d="M8.48077 8.0769C9.01385 8.0769 9.54693 8.0769 10.0962 8.0769C10.0962 8.34344 10.0962 8.60998 10.0962 8.8846C9.82962 8.8846 9.56308 8.8846 9.28847 8.8846C9.28847 9.41767 9.28847 9.95075 9.28847 10.5C9.02193 10.5 8.75539 10.5 8.48077 10.5C8.48077 9.70037 8.48077 8.90075 8.48077 8.0769Z" fill="#9B0000"/>
<path d="M9.28847 5.65381C9.555 5.65381 9.82154 5.65381 10.0962 5.65381C10.0962 6.45342 10.0962 7.25304 10.0962 8.07689C9.56308 8.07689 9.03 8.07689 8.48077 8.07689C8.48077 7.81035 8.48077 7.54381 8.48077 7.26919C8.74731 7.26919 9.01385 7.26919 9.28847 7.26919C9.28847 6.73612 9.28847 6.20304 9.28847 5.65381Z" fill="#9B0000"/>
<path d="M8.4808 0.807617C8.74734 0.807617 9.01388 0.807617 9.28849 0.807617C9.28849 1.34069 9.28849 1.87377 9.28849 2.423C8.48888 2.423 7.68926 2.423 6.86542 2.423C6.86542 2.15646 6.86542 1.88992 6.86542 1.61531C7.39849 1.61531 7.93157 1.61531 8.4808 1.61531C8.4808 1.34877 8.4808 1.08223 8.4808 0.807617Z" fill="#7D0000"/>
<path d="M10.0962 8.0769C10.3627 8.0769 10.6293 8.0769 10.9039 8.0769C10.9039 8.34344 10.9039 8.60998 10.9039 8.8846C11.1704 8.8846 11.437 8.8846 11.7116 8.8846C11.7116 9.15114 11.7116 9.41767 11.7116 9.69229C11.1785 9.69229 10.6454 9.69229 10.0962 9.69229C10.0962 9.15921 10.0962 8.62614 10.0962 8.0769Z" fill="#8F8F8F"/>
<path d="M18.1731 4.84619C18.4396 4.84619 18.7062 4.84619 18.9808 4.84619C18.9808 5.64581 18.9808 6.44542 18.9808 7.26927C18.7142 7.26927 18.4477 7.26927 18.1731 7.26927C18.1731 6.46965 18.1731 5.67004 18.1731 4.84619Z" fill="#7D0000"/>
<path d="M10.9039 2.4231C11.1704 2.4231 11.4369 2.4231 11.7116 2.4231C11.7116 2.68963 11.7116 2.95617 11.7116 3.23079C11.9781 3.23079 12.2446 3.23079 12.5193 3.23079C12.5193 3.49733 12.5193 3.76386 12.5193 4.03848C11.9862 4.03848 11.4531 4.03848 10.9039 4.03848C10.9039 3.5054 10.9039 2.97233 10.9039 2.4231Z" fill="#9B0000"/>
<path d="M9.28845 0C10.0881 0 10.8877 0 11.7115 0C11.7115 0.266538 11.7115 0.533077 11.7115 0.807692C10.9119 0.807692 10.1123 0.807692 9.28845 0.807692C9.28845 0.541154 9.28845 0.274615 9.28845 0Z" fill="black"/>
<path d="M8.48077 19.3845C9.01385 19.3845 9.54693 19.3845 10.0962 19.3845C10.0962 19.6511 10.0962 19.9176 10.0962 20.1922C9.56308 20.1922 9.03 20.1922 8.48077 20.1922C8.48077 19.9257 8.48077 19.6591 8.48077 19.3845Z" fill="#7D0000"/>
<path d="M12.5192 18.5769C13.0523 18.5769 13.5854 18.5769 14.1346 18.5769C14.1346 18.8434 14.1346 19.11 14.1346 19.3846C13.6015 19.3846 13.0685 19.3846 12.5192 19.3846C12.5192 19.1181 12.5192 18.8515 12.5192 18.5769Z" fill="black"/>
<path d="M6.86542 18.5769C7.39849 18.5769 7.93157 18.5769 8.4808 18.5769C8.4808 18.8434 8.4808 19.11 8.4808 19.3846C7.94773 19.3846 7.41465 19.3846 6.86542 19.3846C6.86542 19.1181 6.86542 18.8515 6.86542 18.5769Z" fill="black"/>
<path d="M14.1346 17.7693C14.6677 17.7693 15.2008 17.7693 15.75 17.7693C15.75 18.0358 15.75 18.3024 15.75 18.577C15.217 18.577 14.6839 18.577 14.1346 18.577C14.1346 18.3104 14.1346 18.0439 14.1346 17.7693Z" fill="black"/>
<path d="M5.25 17.7693C5.78308 17.7693 6.31615 17.7693 6.86538 17.7693C6.86538 18.0358 6.86538 18.3024 6.86538 18.577C6.33231 18.577 5.79923 18.577 5.25 18.577C5.25 18.3104 5.25 18.0439 5.25 17.7693Z" fill="black"/>
<path d="M15.75 16.9614C16.2831 16.9614 16.8162 16.9614 17.3654 16.9614C17.3654 17.228 17.3654 17.4945 17.3654 17.7691C16.8323 17.7691 16.2992 17.7691 15.75 17.7691C15.75 17.5026 15.75 17.236 15.75 16.9614Z" fill="black"/>
<path d="M3.63464 16.9614C4.16772 16.9614 4.7008 16.9614 5.25003 16.9614C5.25003 17.228 5.25003 17.4945 5.25003 17.7691C4.71695 17.7691 4.18387 17.7691 3.63464 17.7691C3.63464 17.5026 3.63464 17.236 3.63464 16.9614Z" fill="black"/>
<path d="M13.3269 15.3462C13.5934 15.3462 13.86 15.3462 14.1346 15.3462C14.1346 15.8793 14.1346 16.4123 14.1346 16.9616C13.8681 16.9616 13.6015 16.9616 13.3269 16.9616C13.3269 16.4285 13.3269 15.8954 13.3269 15.3462Z" fill="#C94040"/>
<path d="M6.86542 15.3462C7.13196 15.3462 7.39849 15.3462 7.67311 15.3462C7.67311 15.8793 7.67311 16.4123 7.67311 16.9616C7.40657 16.9616 7.14003 16.9616 6.86542 16.9616C6.86542 16.4285 6.86542 15.8954 6.86542 15.3462Z" fill="#C94040"/>
<path d="M14.1346 10.5C14.4012 10.5 14.6677 10.5 14.9423 10.5C14.9423 11.0331 14.9423 11.5662 14.9423 12.1154C14.6758 12.1154 14.4093 12.1154 14.1346 12.1154C14.1346 11.5823 14.1346 11.0492 14.1346 10.5Z" fill="#7D0000"/>
<path d="M10.0962 9.69238C10.3627 9.69238 10.6293 9.69238 10.9039 9.69238C10.9039 10.2255 10.9039 10.7585 10.9039 11.3078C10.6373 11.3078 10.3708 11.3078 10.0962 11.3078C10.0962 10.7747 10.0962 10.2416 10.0962 9.69238Z" fill="black"/>
<path d="M6.05768 10.5C6.32422 10.5 6.59076 10.5 6.86537 10.5C6.86537 11.0331 6.86537 11.5662 6.86537 12.1154C6.59883 12.1154 6.33229 12.1154 6.05768 12.1154C6.05768 11.5823 6.05768 11.0492 6.05768 10.5Z" fill="#C94040"/>
<path d="M4.44232 10.5C4.70886 10.5 4.9754 10.5 5.25001 10.5C5.25001 11.0331 5.25001 11.5662 5.25001 12.1154C4.98348 12.1154 4.71694 12.1154 4.44232 12.1154C4.44232 11.5823 4.44232 11.0492 4.44232 10.5Z" fill="#C94040"/>
<path d="M16.5577 8.88452C16.8242 8.88452 17.0908 8.88452 17.3654 8.88452C17.3654 9.4176 17.3654 9.95068 17.3654 10.4999C17.0988 10.4999 16.8323 10.4999 16.5577 10.4999C16.5577 9.96683 16.5577 9.43375 16.5577 8.88452Z" fill="#7D0000"/>
<path d="M3.63464 8.88452C3.90118 8.88452 4.16772 8.88452 4.44234 8.88452C4.44234 9.4176 4.44234 9.95068 4.44234 10.4999C4.1758 10.4999 3.90926 10.4999 3.63464 10.4999C3.63464 9.96683 3.63464 9.43375 3.63464 8.88452Z" fill="#C94040"/>
<path d="M12.5192 8.0769C12.7858 8.0769 13.0523 8.0769 13.3269 8.0769C13.3269 8.60998 13.3269 9.14306 13.3269 9.69229C13.0604 9.69229 12.7938 9.69229 12.5192 9.69229C12.5192 9.15921 12.5192 8.62614 12.5192 8.0769Z" fill="#7D0000"/>
<path d="M7.6731 8.0769C7.93963 8.0769 8.20617 8.0769 8.48079 8.0769C8.48079 8.60998 8.48079 9.14306 8.48079 9.69229C8.21425 9.69229 7.94771 9.69229 7.6731 9.69229C7.6731 9.15921 7.6731 8.62614 7.6731 8.0769Z" fill="#C94040"/>
<path d="M17.3654 7.26929C17.632 7.26929 17.8985 7.26929 18.1731 7.26929C18.1731 7.80236 18.1731 8.33544 18.1731 8.88467C17.9066 8.88467 17.64 8.88467 17.3654 8.88467C17.3654 8.35159 17.3654 7.81852 17.3654 7.26929Z" fill="#7D0000"/>
<path d="M2.8269 7.26929C3.09344 7.26929 3.35998 7.26929 3.6346 7.26929C3.6346 7.80236 3.6346 8.33544 3.6346 8.88467C3.36806 8.88467 3.10152 8.88467 2.8269 8.88467C2.8269 8.35159 2.8269 7.81852 2.8269 7.26929Z" fill="#C94040"/>
<path d="M11.7115 5.65381C11.9781 5.65381 12.2446 5.65381 12.5192 5.65381C12.5192 6.18689 12.5192 6.71996 12.5192 7.26919C12.2527 7.26919 11.9862 7.26919 11.7115 7.26919C11.7115 6.73612 11.7115 6.20304 11.7115 5.65381Z" fill="#9B0000"/>
<path d="M10.9039 5.65381C11.1704 5.65381 11.4369 5.65381 11.7116 5.65381C11.7116 6.18689 11.7116 6.71996 11.7116 7.26919C11.445 7.26919 11.1785 7.26919 10.9039 7.26919C10.9039 6.73612 10.9039 6.20304 10.9039 5.65381Z" fill="#7D0000"/>
<path d="M9.28845 5.65381C9.55499 5.65381 9.82153 5.65381 10.0961 5.65381C10.0961 6.18689 10.0961 6.71996 10.0961 7.26919C9.82961 7.26919 9.56307 7.26919 9.28845 7.26919C9.28845 6.73612 9.28845 6.20304 9.28845 5.65381Z" fill="#C94040"/>
<path d="M2.01923 5.65381C2.28576 5.65381 2.5523 5.65381 2.82692 5.65381C2.82692 6.18689 2.82692 6.71996 2.82692 7.26919C2.56038 7.26919 2.29384 7.26919 2.01923 7.26919C2.01923 6.73612 2.01923 6.20304 2.01923 5.65381Z" fill="#C94040"/>
<path d="M10.0962 4.84619C10.6293 4.84619 11.1623 4.84619 11.7116 4.84619C11.7116 5.11273 11.7116 5.37927 11.7116 5.65388C11.1785 5.65388 10.6454 5.65388 10.0962 5.65388C10.0962 5.38735 10.0962 5.12081 10.0962 4.84619Z" fill="#9B0000"/>
<path d="M15.75 3.23071C16.2831 3.23071 16.8162 3.23071 17.3654 3.23071C17.3654 3.49725 17.3654 3.76379 17.3654 4.03841C16.8323 4.03841 16.2992 4.03841 15.75 4.03841C15.75 3.77187 15.75 3.50533 15.75 3.23071Z" fill="black"/>
<path d="M3.63464 3.23071C4.16772 3.23071 4.7008 3.23071 5.25003 3.23071C5.25003 3.49725 5.25003 3.76379 5.25003 4.03841C4.71695 4.03841 4.18387 4.03841 3.63464 4.03841C3.63464 3.77187 3.63464 3.50533 3.63464 3.23071Z" fill="black"/>
<path d="M14.1346 2.4231C14.6677 2.4231 15.2008 2.4231 15.75 2.4231C15.75 2.68963 15.75 2.95617 15.75 3.23079C15.217 3.23079 14.6839 3.23079 14.1346 3.23079C14.1346 2.96425 14.1346 2.69771 14.1346 2.4231Z" fill="black"/>
<path d="M5.25 2.4231C5.78308 2.4231 6.31615 2.4231 6.86538 2.4231C6.86538 2.68963 6.86538 2.95617 6.86538 3.23079C6.33231 3.23079 5.79923 3.23079 5.25 3.23079C5.25 2.96425 5.25 2.69771 5.25 2.4231Z" fill="black"/>
<path d="M12.5192 1.61548C13.0523 1.61548 13.5854 1.61548 14.1346 1.61548C14.1346 1.88202 14.1346 2.14856 14.1346 2.42317C13.6015 2.42317 13.0685 2.42317 12.5192 2.42317C12.5192 2.15663 12.5192 1.89009 12.5192 1.61548Z" fill="black"/>
<path d="M6.86542 1.61548C7.39849 1.61548 7.93157 1.61548 8.4808 1.61548C8.4808 1.88202 8.4808 2.14856 8.4808 2.42317C7.94773 2.42317 7.41465 2.42317 6.86542 2.42317C6.86542 2.15663 6.86542 1.89009 6.86542 1.61548Z" fill="black"/>
<path d="M11.7115 19.3845C11.9781 19.3845 12.2446 19.3845 12.5192 19.3845C12.5192 19.6511 12.5192 19.9176 12.5192 20.1922C12.2527 20.1922 11.9862 20.1922 11.7115 20.1922C11.7115 19.9257 11.7115 19.6591 11.7115 19.3845Z" fill="black"/>
<path d="M10.9039 19.3845C11.1704 19.3845 11.4369 19.3845 11.7116 19.3845C11.7116 19.6511 11.7116 19.9176 11.7116 20.1922C11.445 20.1922 11.1785 20.1922 10.9039 20.1922C10.9039 19.9257 10.9039 19.6591 10.9039 19.3845Z" fill="#9B0000"/>
<path d="M10.0962 19.3845C10.3627 19.3845 10.6293 19.3845 10.9039 19.3845C10.9039 19.6511 10.9039 19.9176 10.9039 20.1922C10.6373 20.1922 10.3708 20.1922 10.0962 20.1922C10.0962 19.9257 10.0962 19.6591 10.0962 19.3845Z" fill="#C94040"/>
<path d="M8.48077 19.3845C8.74731 19.3845 9.01385 19.3845 9.28847 19.3845C9.28847 19.6511 9.28847 19.9176 9.28847 20.1922C9.02193 20.1922 8.75539 20.1922 8.48077 20.1922C8.48077 19.9257 8.48077 19.6591 8.48077 19.3845Z" fill="black"/>
<path d="M11.7115 18.5769C11.9781 18.5769 12.2446 18.5769 12.5192 18.5769C12.5192 18.8434 12.5192 19.11 12.5192 19.3846C12.2527 19.3846 11.9862 19.3846 11.7115 19.3846C11.7115 19.1181 11.7115 18.8515 11.7115 18.5769Z" fill="#9B0000"/>
<path d="M10.9039 18.5769C11.1704 18.5769 11.4369 18.5769 11.7116 18.5769C11.7116 18.8434 11.7116 19.11 11.7116 19.3846C11.445 19.3846 11.1785 19.3846 10.9039 19.3846C10.9039 19.1181 10.9039 18.8515 10.9039 18.5769Z" fill="#C94040"/>
<path d="M9.28845 18.5769C9.55499 18.5769 9.82153 18.5769 10.0961 18.5769C10.0961 18.8434 10.0961 19.11 10.0961 19.3846C9.82961 19.3846 9.56307 19.3846 9.28845 19.3846C9.28845 19.1181 9.28845 18.8515 9.28845 18.5769Z" fill="#C94040"/>
<path d="M8.48077 18.5769C8.74731 18.5769 9.01385 18.5769 9.28847 18.5769C9.28847 18.8434 9.28847 19.11 9.28847 19.3846C9.02193 19.3846 8.75539 19.3846 8.48077 19.3846C8.48077 19.1181 8.48077 18.8515 8.48077 18.5769Z" fill="#7D0000"/>
<path d="M13.3269 17.7693C13.5934 17.7693 13.86 17.7693 14.1346 17.7693C14.1346 18.0358 14.1346 18.3024 14.1346 18.577C13.8681 18.577 13.6015 18.577 13.3269 18.577C13.3269 18.3104 13.3269 18.0439 13.3269 17.7693Z" fill="#7D0000"/>
<path d="M12.5192 17.7693C12.7858 17.7693 13.0523 17.7693 13.3269 17.7693C13.3269 18.0358 13.3269 18.3024 13.3269 18.577C13.0604 18.577 12.7938 18.577 12.5192 18.577C12.5192 18.3104 12.5192 18.0439 12.5192 17.7693Z" fill="#9B0000"/>
<path d="M11.7115 17.7693C11.9781 17.7693 12.2446 17.7693 12.5192 17.7693C12.5192 18.0358 12.5192 18.3024 12.5192 18.577C12.2527 18.577 11.9862 18.577 11.7115 18.577C11.7115 18.3104 11.7115 18.0439 11.7115 17.7693Z" fill="#C94040"/>
<path d="M8.48077 17.7693C8.74731 17.7693 9.01385 17.7693 9.28847 17.7693C9.28847 18.0358 9.28847 18.3024 9.28847 18.577C9.02193 18.577 8.75539 18.577 8.48077 18.577C8.48077 18.3104 8.48077 18.0439 8.48077 17.7693Z" fill="#C94040"/>
<path d="M14.9423 16.9614C15.2089 16.9614 15.4754 16.9614 15.75 16.9614C15.75 17.228 15.75 17.4945 15.75 17.7691C15.4835 17.7691 15.2169 17.7691 14.9423 17.7691C14.9423 17.5026 14.9423 17.236 14.9423 16.9614Z" fill="#7D0000"/>
<path d="M12.5192 16.9614C12.7858 16.9614 13.0523 16.9614 13.3269 16.9614C13.3269 17.228 13.3269 17.4945 13.3269 17.7691C13.0604 17.7691 12.7938 17.7691 12.5192 17.7691C12.5192 17.5026 12.5192 17.236 12.5192 16.9614Z" fill="#C94040"/>
<path d="M7.6731 16.9614C7.93963 16.9614 8.20617 16.9614 8.48079 16.9614C8.48079 17.228 8.48079 17.4945 8.48079 17.7691C8.21425 17.7691 7.94771 17.7691 7.6731 17.7691C7.6731 17.5026 7.6731 17.236 7.6731 16.9614Z" fill="#C94040"/>
<path d="M17.3654 16.1538C17.632 16.1538 17.8985 16.1538 18.1731 16.1538C18.1731 16.4203 18.1731 16.6869 18.1731 16.9615C17.9066 16.9615 17.64 16.9615 17.3654 16.9615C17.3654 16.695 17.3654 16.4284 17.3654 16.1538Z" fill="black"/>
<path d="M16.5577 16.1538C16.8242 16.1538 17.0908 16.1538 17.3654 16.1538C17.3654 16.4203 17.3654 16.6869 17.3654 16.9615C17.0988 16.9615 16.8323 16.9615 16.5577 16.9615C16.5577 16.695 16.5577 16.4284 16.5577 16.1538Z" fill="#7D0000"/>
<path d="M2.8269 16.1538C3.09344 16.1538 3.35998 16.1538 3.6346 16.1538C3.6346 16.4203 3.6346 16.6869 3.6346 16.9615C3.36806 16.9615 3.10152 16.9615 2.8269 16.9615C2.8269 16.695 2.8269 16.4284 2.8269 16.1538Z" fill="black"/>
<path d="M18.1731 15.3462C18.4396 15.3462 18.7062 15.3462 18.9808 15.3462C18.9808 15.6127 18.9808 15.8793 18.9808 16.1539C18.7142 16.1539 18.4477 16.1539 18.1731 16.1539C18.1731 15.8873 18.1731 15.6208 18.1731 15.3462Z" fill="black"/>
<path d="M2.01923 15.3462C2.28576 15.3462 2.5523 15.3462 2.82692 15.3462C2.82692 15.6127 2.82692 15.8793 2.82692 16.1539C2.56038 16.1539 2.29384 16.1539 2.01923 16.1539C2.01923 15.8873 2.01923 15.6208 2.01923 15.3462Z" fill="black"/>
<path d="M18.1731 14.5386C18.4396 14.5386 18.7062 14.5386 18.9808 14.5386C18.9808 14.8051 18.9808 15.0717 18.9808 15.3463C18.7142 15.3463 18.4477 15.3463 18.1731 15.3463C18.1731 15.0797 18.1731 14.8132 18.1731 14.5386Z" fill="#9B0000"/>
<path d="M14.1346 14.5386C14.4012 14.5386 14.6677 14.5386 14.9423 14.5386C14.9423 14.8051 14.9423 15.0717 14.9423 15.3463C14.6758 15.3463 14.4093 15.3463 14.1346 15.3463C14.1346 15.0797 14.1346 14.8132 14.1346 14.5386Z" fill="#C94040"/>
<path d="M6.05768 14.5386C6.32422 14.5386 6.59076 14.5386 6.86537 14.5386C6.86537 14.8051 6.86537 15.0717 6.86537 15.3463C6.59883 15.3463 6.33229 15.3463 6.05768 15.3463C6.05768 15.0797 6.05768 14.8132 6.05768 14.5386Z" fill="#C94040"/>
<path d="M2.8269 14.5386C3.09344 14.5386 3.35998 14.5386 3.6346 14.5386C3.6346 14.8051 3.6346 15.0717 3.6346 15.3463C3.36806 15.3463 3.10152 15.3463 2.8269 15.3463C2.8269 15.0797 2.8269 14.8132 2.8269 14.5386Z" fill="#9B0000"/>
<path d="M17.3654 13.7307C17.632 13.7307 17.8985 13.7307 18.1731 13.7307C18.1731 13.9973 18.1731 14.2638 18.1731 14.5384C17.9066 14.5384 17.64 14.5384 17.3654 14.5384C17.3654 14.2719 17.3654 14.0053 17.3654 13.7307Z" fill="#9B0000"/>
<path d="M14.9423 13.7307C15.2089 13.7307 15.4754 13.7307 15.75 13.7307C15.75 13.9973 15.75 14.2638 15.75 14.5384C15.4835 14.5384 15.2169 14.5384 14.9423 14.5384C14.9423 14.2719 14.9423 14.0053 14.9423 13.7307Z" fill="#C94040"/>
<path d="M5.25 13.7307C5.51654 13.7307 5.78308 13.7307 6.05769 13.7307C6.05769 13.9973 6.05769 14.2638 6.05769 14.5384C5.79115 14.5384 5.52462 14.5384 5.25 14.5384C5.25 14.2719 5.25 14.0053 5.25 13.7307Z" fill="#C94040"/>
<path d="M3.63464 13.7307C3.90118 13.7307 4.16772 13.7307 4.44234 13.7307C4.44234 13.9973 4.44234 14.2638 4.44234 14.5384C4.1758 14.5384 3.90926 14.5384 3.63464 14.5384C3.63464 14.2719 3.63464 14.0053 3.63464 13.7307Z" fill="#9B0000"/>
<path d="M16.5577 12.9231C16.8242 12.9231 17.0908 12.9231 17.3654 12.9231C17.3654 13.1896 17.3654 13.4562 17.3654 13.7308C17.0988 13.7308 16.8323 13.7308 16.5577 13.7308C16.5577 13.4642 16.5577 13.1977 16.5577 12.9231Z" fill="#9B0000"/>
<path d="M4.44232 12.9231C4.70886 12.9231 4.9754 12.9231 5.25001 12.9231C5.25001 13.1896 5.25001 13.4562 5.25001 13.7308C4.98348 13.7308 4.71694 13.7308 4.44232 13.7308C4.44232 13.4642 4.44232 13.1977 4.44232 12.9231Z" fill="#9B0000"/>
<path d="M15.75 12.1155C16.0165 12.1155 16.2831 12.1155 16.5577 12.1155C16.5577 12.382 16.5577 12.6486 16.5577 12.9232C16.2912 12.9232 16.0246 12.9232 15.75 12.9232C15.75 12.6566 15.75 12.3901 15.75 12.1155Z" fill="#9B0000"/>
<path d="M10.0962 12.1155C10.3627 12.1155 10.6293 12.1155 10.9039 12.1155C10.9039 12.382 10.9039 12.6486 10.9039 12.9232C10.6373 12.9232 10.3708 12.9232 10.0962 12.9232C10.0962 12.6566 10.0962 12.3901 10.0962 12.1155Z" fill="#C94040"/>
<path d="M5.25 12.1155C5.51654 12.1155 5.78308 12.1155 6.05769 12.1155C6.05769 12.382 6.05769 12.6486 6.05769 12.9232C5.79115 12.9232 5.52462 12.9232 5.25 12.9232C5.25 12.6566 5.25 12.3901 5.25 12.1155Z" fill="#C94040"/>
<path d="M10.9039 11.3076C11.1704 11.3076 11.4369 11.3076 11.7116 11.3076C11.7116 11.5742 11.7116 11.8407 11.7116 12.1153C11.445 12.1153 11.1785 12.1153 10.9039 12.1153C10.9039 11.8488 10.9039 11.5822 10.9039 11.3076Z" fill="#C94040"/>
<path d="M10.0962 11.3076C10.3627 11.3076 10.6293 11.3076 10.9039 11.3076C10.9039 11.5742 10.9039 11.8407 10.9039 12.1153C10.6373 12.1153 10.3708 12.1153 10.0962 12.1153C10.0962 11.8488 10.0962 11.5822 10.0962 11.3076Z" fill="#C38015"/>
<path d="M9.28845 11.3076C9.55499 11.3076 9.82153 11.3076 10.0961 11.3076C10.0961 11.5742 10.0961 11.8407 10.0961 12.1153C9.82961 12.1153 9.56307 12.1153 9.28845 12.1153C9.28845 11.8488 9.28845 11.5822 9.28845 11.3076Z" fill="#C94040"/>
<path d="M3.63464 10.5C3.90118 10.5 4.16772 10.5 4.44234 10.5C4.44234 10.7665 4.44234 11.0331 4.44234 11.3077C4.1758 11.3077 3.90926 11.3077 3.63464 11.3077C3.63464 11.0412 3.63464 10.7746 3.63464 10.5Z" fill="#9B0000"/>
<path d="M13.3269 9.69238C13.5934 9.69238 13.86 9.69238 14.1346 9.69238C14.1346 9.95892 14.1346 10.2255 14.1346 10.5001C13.8681 10.5001 13.6015 10.5001 13.3269 10.5001C13.3269 10.2335 13.3269 9.967 13.3269 9.69238Z" fill="#7D0000"/>
<path d="M11.7115 9.69238C11.9781 9.69238 12.2446 9.69238 12.5192 9.69238C12.5192 9.95892 12.5192 10.2255 12.5192 10.5001C12.2527 10.5001 11.9862 10.5001 11.7115 10.5001C11.7115 10.2335 11.7115 9.967 11.7115 9.69238Z" fill="#C94040"/>
<path d="M10.0962 9.69238C10.3627 9.69238 10.6293 9.69238 10.9039 9.69238C10.9039 9.95892 10.9039 10.2255 10.9039 10.5001C10.6373 10.5001 10.3708 10.5001 10.0962 10.5001C10.0962 10.2335 10.0962 9.967 10.0962 9.69238Z" fill="#292929"/>
<path d="M8.48077 9.69238C8.74731 9.69238 9.01385 9.69238 9.28847 9.69238C9.28847 9.95892 9.28847 10.2255 9.28847 10.5001C9.02193 10.5001 8.75539 10.5001 8.48077 10.5001C8.48077 10.2335 8.48077 9.967 8.48077 9.69238Z" fill="#7D0000"/>
<path d="M6.86542 9.69238C7.13196 9.69238 7.39849 9.69238 7.67311 9.69238C7.67311 9.95892 7.67311 10.2255 7.67311 10.5001C7.40657 10.5001 7.14003 10.5001 6.86542 10.5001C6.86542 10.2335 6.86542 9.967 6.86542 9.69238Z" fill="#C94040"/>
<path d="M4.44232 9.69238C4.70886 9.69238 4.9754 9.69238 5.25001 9.69238C5.25001 9.95892 5.25001 10.2255 5.25001 10.5001C4.98348 10.5001 4.71694 10.5001 4.44232 10.5001C4.44232 10.2335 4.44232 9.967 4.44232 9.69238Z" fill="#7D0000"/>
<path d="M10.9039 8.88452C11.1704 8.88452 11.4369 8.88452 11.7116 8.88452C11.7116 9.15106 11.7116 9.4176 11.7116 9.69221C11.445 9.69221 11.1785 9.69221 10.9039 9.69221C10.9039 9.42568 10.9039 9.15914 10.9039 8.88452Z" fill="#EBB052"/>
<path d="M9.28845 8.88452C9.55499 8.88452 9.82153 8.88452 10.0961 8.88452C10.0961 9.15106 10.0961 9.4176 10.0961 9.69221C9.82961 9.69221 9.56307 9.69221 9.28845 9.69221C9.28845 9.42568 9.28845 9.15914 9.28845 8.88452Z" fill="#D28C1D"/>
<path d="M2.8269 8.88452C3.09344 8.88452 3.35998 8.88452 3.6346 8.88452C3.6346 9.15106 3.6346 9.4176 3.6346 9.69221C3.36806 9.69221 3.10152 9.69221 2.8269 9.69221C2.8269 9.42568 2.8269 9.15914 2.8269 8.88452Z" fill="#9B0000"/>
<path d="M10.9039 8.0769C11.1704 8.0769 11.4369 8.0769 11.7116 8.0769C11.7116 8.34344 11.7116 8.60998 11.7116 8.8846C11.445 8.8846 11.1785 8.8846 10.9039 8.8846C10.9039 8.61806 10.9039 8.35152 10.9039 8.0769Z" fill="#7D0000"/>
<path d="M10.0962 8.0769C10.3627 8.0769 10.6293 8.0769 10.9039 8.0769C10.9039 8.34344 10.9039 8.60998 10.9039 8.8846C10.6373 8.8846 10.3708 8.8846 10.0962 8.8846C10.0962 8.61806 10.0962 8.35152 10.0962 8.0769Z" fill="#EBB052"/>
<path d="M9.28845 8.0769C9.55499 8.0769 9.82153 8.0769 10.0961 8.0769C10.0961 8.34344 10.0961 8.60998 10.0961 8.8846C9.82961 8.8846 9.56307 8.8846 9.28845 8.8846C9.28845 8.61806 9.28845 8.35152 9.28845 8.0769Z" fill="#7D0000"/>
<path d="M3.63464 8.0769C3.90118 8.0769 4.16772 8.0769 4.44234 8.0769C4.44234 8.34344 4.44234 8.60998 4.44234 8.8846C4.1758 8.8846 3.90926 8.8846 3.63464 8.8846C3.63464 8.61806 3.63464 8.35152 3.63464 8.0769Z" fill="#7D0000"/>
<path d="M11.7115 7.26929C11.9781 7.26929 12.2446 7.26929 12.5192 7.26929C12.5192 7.53583 12.5192 7.80236 12.5192 8.07698C12.2527 8.07698 11.9862 8.07698 11.7115 8.07698C11.7115 7.81044 11.7115 7.5439 11.7115 7.26929Z" fill="#7D0000"/>
<path d="M10.0962 7.26929C10.3627 7.26929 10.6293 7.26929 10.9039 7.26929C10.9039 7.53583 10.9039 7.80236 10.9039 8.07698C10.6373 8.07698 10.3708 8.07698 10.0962 8.07698C10.0962 7.81044 10.0962 7.5439 10.0962 7.26929Z" fill="#7D0000"/>
<path d="M8.48077 7.26929C8.74731 7.26929 9.01385 7.26929 9.28847 7.26929C9.28847 7.53583 9.28847 7.80236 9.28847 8.07698C9.02193 8.07698 8.75539 8.07698 8.48077 8.07698C8.48077 7.81044 8.48077 7.5439 8.48077 7.26929Z" fill="#C94040"/>
<path d="M2.8269 6.46143C3.09344 6.46143 3.35998 6.46143 3.6346 6.46143C3.6346 6.72796 3.6346 6.9945 3.6346 7.26912C3.36806 7.26912 3.10152 7.26912 2.8269 7.26912C2.8269 7.00258 2.8269 6.73604 2.8269 6.46143Z" fill="#7D0000"/>
<path d="M18.1731 4.84619C18.4396 4.84619 18.7062 4.84619 18.9808 4.84619C18.9808 5.11273 18.9808 5.37927 18.9808 5.65388C18.7142 5.65388 18.4477 5.65388 18.1731 5.65388C18.1731 5.38735 18.1731 5.12081 18.1731 4.84619Z" fill="black"/>
<path d="M10.0962 4.84619C10.3627 4.84619 10.6293 4.84619 10.9039 4.84619C10.9039 5.11273 10.9039 5.37927 10.9039 5.65388C10.6373 5.65388 10.3708 5.65388 10.0962 5.65388C10.0962 5.38735 10.0962 5.12081 10.0962 4.84619Z" fill="#C94040"/>
<path d="M2.01923 4.84619C2.28576 4.84619 2.5523 4.84619 2.82692 4.84619C2.82692 5.11273 2.82692 5.37927 2.82692 5.65388C2.56038 5.65388 2.29384 5.65388 2.01923 5.65388C2.01923 5.38735 2.01923 5.12081 2.01923 4.84619Z" fill="black"/>
<path d="M17.3654 4.03857C17.632 4.03857 17.8985 4.03857 18.1731 4.03857C18.1731 4.30511 18.1731 4.57165 18.1731 4.84627C17.9066 4.84627 17.64 4.84627 17.3654 4.84627C17.3654 4.57973 17.3654 4.31319 17.3654 4.03857Z" fill="black"/>
<path d="M10.0962 4.03857C10.3627 4.03857 10.6293 4.03857 10.9039 4.03857C10.9039 4.30511 10.9039 4.57165 10.9039 4.84627C10.6373 4.84627 10.3708 4.84627 10.0962 4.84627C10.0962 4.57973 10.0962 4.31319 10.0962 4.03857Z" fill="#9B0000"/>
<path d="M2.8269 4.03857C3.09344 4.03857 3.35998 4.03857 3.6346 4.03857C3.6346 4.30511 3.6346 4.57165 3.6346 4.84627C3.36806 4.84627 3.10152 4.84627 2.8269 4.84627C2.8269 4.57973 2.8269 4.31319 2.8269 4.03857Z" fill="black"/>
<path d="M5.25 3.23071C5.51654 3.23071 5.78308 3.23071 6.05769 3.23071C6.05769 3.49725 6.05769 3.76379 6.05769 4.03841C5.79115 4.03841 5.52462 4.03841 5.25 4.03841C5.25 3.77187 5.25 3.50533 5.25 3.23071Z" fill="#7D0000"/>
<path d="M6.86542 2.4231C7.13196 2.4231 7.39849 2.4231 7.67311 2.4231C7.67311 2.68963 7.67311 2.95617 7.67311 3.23079C7.40657 3.23079 7.14003 3.23079 6.86542 3.23079C6.86542 2.96425 6.86542 2.69771 6.86542 2.4231Z" fill="#7D0000"/>
<path d="M11.7115 0.807617C11.9781 0.807617 12.2446 0.807617 12.5192 0.807617C12.5192 1.07416 12.5192 1.34069 12.5192 1.61531C12.2527 1.61531 11.9862 1.61531 11.7115 1.61531C11.7115 1.34877 11.7115 1.08223 11.7115 0.807617Z" fill="black"/>
<path d="M8.48077 0.807617C8.74731 0.807617 9.01385 0.807617 9.28847 0.807617C9.28847 1.07416 9.28847 1.34069 9.28847 1.61531C9.02193 1.61531 8.75539 1.61531 8.48077 1.61531C8.48077 1.34877 8.48077 1.08223 8.48077 0.807617Z" fill="black"/>
</svg>
