<svg width="21" height="16" viewBox="0 0 21 16" fill="none" xmlns="http://www.w3.org/2000/svg">
<path d="M0.84 0C2.7804 0 4.7208 0 6.72 0C6.72 0.2772 6.72 0.5544 6.72 0.84C7.5516 0.84 8.3832 0.84 9.24 0.84C9.24 1.1172 9.24 1.3944 9.24 1.68C10.0716 1.68 10.9032 1.68 11.76 1.68C11.76 1.4028 11.76 1.1256 11.76 0.84C12.5916 0.84 13.4232 0.84 14.28 0.84C14.28 0.5628 14.28 0.2856 14.28 0C16.2204 0 18.1608 0 20.16 0C20.16 0.2772 20.16 0.5544 20.16 0.84C20.4372 0.84 20.7144 0.84 21 0.84C21 5.2752 21 9.7104 21 14.28C20.7228 14.28 20.4456 14.28 20.16 14.28C20.16 14.5572 20.16 14.8344 20.16 15.12C18.774 15.12 17.388 15.12 15.96 15.12C15.96 14.8428 15.96 14.5656 15.96 14.28C15.1284 14.28 14.2968 14.28 13.44 14.28C13.44 14.5572 13.44 14.8344 13.44 15.12C11.4996 15.12 9.5592 15.12 7.56 15.12C7.56 14.8428 7.56 14.5656 7.56 14.28C6.7284 14.28 5.8968 14.28 5.04 14.28C5.04 14.5572 5.04 14.8344 5.04 15.12C3.654 15.12 2.268 15.12 0.84 15.12C0.84 14.8428 0.84 14.5656 0.84 14.28C0.5628 14.28 0.2856 14.28 0 14.28C0 9.8448 0 5.4096 0 0.84C0.2772 0.84 0.5544 0.84 0.84 0.84C0.84 0.5628 0.84 0.2856 0.84 0Z" fill="#EBB052"/>
<path d="M0.840027 0C2.78043 0 4.72083 0 6.72003 0C6.72003 0.2772 6.72003 0.5544 6.72003 0.84C7.55163 0.84 8.38323 0.84 9.24003 0.84C9.24003 1.1172 9.24003 1.3944 9.24003 1.68C10.0716 1.68 10.9032 1.68 11.76 1.68C11.76 1.4028 11.76 1.1256 11.76 0.84C12.5916 0.84 13.4232 0.84 14.28 0.84C14.28 0.5628 14.28 0.2856 14.28 0C16.2204 0 18.1608 0 20.16 0C20.16 0.2772 20.16 0.5544 20.16 0.84C20.4372 0.84 20.7144 0.84 21 0.84C21 5.2752 21 9.7104 21 14.28C20.7228 14.28 20.4456 14.28 20.16 14.28C20.16 14.5572 20.16 14.8344 20.16 15.12C18.774 15.12 17.388 15.12 15.96 15.12C15.96 14.8428 15.96 14.5656 15.96 14.28C15.1284 14.28 14.2968 14.28 13.44 14.28C13.44 14.5572 13.44 14.8344 13.44 15.12C11.4996 15.12 9.55923 15.12 7.56003 15.12C7.56003 14.8428 7.56003 14.5656 7.56003 14.28C6.72843 14.28 5.89683 14.28 5.04003 14.28C5.04003 14.5572 5.04003 14.8344 5.04003 15.12C3.65403 15.12 2.26803 15.12 0.840027 15.12C0.840027 14.8428 0.840027 14.5656 0.840027 14.28C1.39443 14.28 1.94883 14.28 2.52003 14.28C2.52003 14.0028 2.52003 13.7256 2.52003 13.44C3.35163 13.44 4.18323 13.44 5.04003 13.44C5.04003 13.1628 5.04003 12.8856 5.04003 12.6C5.87163 12.6 6.70323 12.6 7.56003 12.6C7.56003 12.8772 7.56003 13.1544 7.56003 13.44C9.50043 13.44 11.4408 13.44 13.44 13.44C13.44 13.1628 13.44 12.8856 13.44 12.6C13.9944 12.6 14.5488 12.6 15.12 12.6C15.12 12.3228 15.12 12.0456 15.12 11.76C15.6744 11.76 16.2288 11.76 16.8 11.76C16.8 11.4828 16.8 11.2056 16.8 10.92C16.2456 10.92 15.6912 10.92 15.12 10.92C15.12 10.6428 15.12 10.3656 15.12 10.08C15.9516 10.08 16.7832 10.08 17.64 10.08C17.64 9.8028 17.64 9.5256 17.64 9.24C16.8084 9.24 15.9768 9.24 15.12 9.24C15.12 8.1312 15.12 7.0224 15.12 5.88C15.9516 5.88 16.7832 5.88 17.64 5.88C17.64 5.6028 17.64 5.3256 17.64 5.04C17.0856 5.04 16.5312 5.04 15.96 5.04C15.96 4.7628 15.96 4.4856 15.96 4.2C16.5144 4.2 17.0688 4.2 17.64 4.2C17.64 3.9228 17.64 3.6456 17.64 3.36C16.8084 3.36 15.9768 3.36 15.12 3.36C15.12 2.8056 15.12 2.2512 15.12 1.68C14.8428 1.68 14.5656 1.68 14.28 1.68C14.28 1.9572 14.28 2.2344 14.28 2.52C13.4484 2.52 12.6168 2.52 11.76 2.52C11.76 2.7972 11.76 3.0744 11.76 3.36C11.4828 3.36 11.2056 3.36 10.92 3.36C10.92 3.0828 10.92 2.8056 10.92 2.52C10.6428 2.52 10.3656 2.52 10.08 2.52C10.08 2.7972 10.08 3.0744 10.08 3.36C9.80283 3.36 9.52563 3.36 9.24003 3.36C9.24003 3.0828 9.24003 2.8056 9.24003 2.52C8.40843 2.52 7.57683 2.52 6.72003 2.52C6.72003 2.2428 6.72003 1.9656 6.72003 1.68C5.33403 1.68 3.94803 1.68 2.52003 1.68C2.52003 1.4028 2.52003 1.1256 2.52003 0.84C1.96563 0.84 1.41123 0.84 0.840027 0.84C0.840027 0.5628 0.840027 0.2856 0.840027 0Z" fill="#EBB052"/>
<path d="M0 0.840088C0.8316 0.840088 1.6632 0.840088 2.52 0.840088C2.52 1.11729 2.52 1.39449 2.52 1.68009C3.906 1.68009 5.292 1.68009 6.72 1.68009C6.72 2.23449 6.72 2.78889 6.72 3.36009C5.6112 3.36009 4.5024 3.36009 3.36 3.36009C3.36 3.63729 3.36 3.91449 3.36 4.20009C4.4688 4.20009 5.5776 4.20009 6.72 4.20009C6.72 4.75449 6.72 5.30889 6.72 5.88009C6.4428 5.88009 6.1656 5.88009 5.88 5.88009C5.88 6.15729 5.88 6.43449 5.88 6.72009C6.1572 6.72009 6.4344 6.72009 6.72 6.72009C6.72 6.99729 6.72 7.27449 6.72 7.56009C6.4428 7.56009 6.1656 7.56009 5.88 7.56009C5.88 7.83729 5.88 8.11449 5.88 8.40009C6.1572 8.40009 6.4344 8.40009 6.72 8.40009C6.72 9.78609 6.72 11.1721 6.72 12.6001C6.1656 12.6001 5.6112 12.6001 5.04 12.6001C5.04 12.8773 5.04 13.1545 5.04 13.4401C4.2084 13.4401 3.3768 13.4401 2.52 13.4401C2.52 13.7173 2.52 13.9945 2.52 14.2801C1.6884 14.2801 0.8568 14.2801 0 14.2801C0 9.84489 0 5.40969 0 0.840088Z" fill="#EBB052"/>
<path d="M6.71999 2.52002C7.55159 2.52002 8.38319 2.52002 9.23998 2.52002C9.23998 2.79722 9.23998 3.07442 9.23998 3.36002C9.51719 3.36002 9.79438 3.36002 10.08 3.36002C10.08 5.57762 10.08 7.79522 10.08 10.08C10.3572 10.08 10.6344 10.08 10.92 10.08C10.92 8.97122 10.92 7.86242 10.92 6.72002C11.1972 6.72002 11.4744 6.72002 11.76 6.72002C11.76 8.38322 11.76 10.0464 11.76 11.76C12.0372 11.76 12.3144 11.76 12.6 11.76C12.6 12.0372 12.6 12.3144 12.6 12.6C12.8772 12.6 13.1544 12.6 13.44 12.6C13.44 12.8772 13.44 13.1544 13.44 13.44C11.4996 13.44 9.55919 13.44 7.55999 13.44C7.55999 13.1628 7.55999 12.8856 7.55999 12.6C7.28279 12.6 7.00559 12.6 6.71999 12.6C6.71999 11.214 6.71999 9.82802 6.71999 8.40002C6.44279 8.40002 6.16559 8.40002 5.87999 8.40002C5.87999 8.12282 5.87999 7.84562 5.87999 7.56002C6.15719 7.56002 6.43439 7.56002 6.71999 7.56002C6.71999 7.28282 6.71999 7.00562 6.71999 6.72002C6.44279 6.72002 6.16559 6.72002 5.87999 6.72002C5.87999 6.44282 5.87999 6.16562 5.87999 5.88002C6.15719 5.88002 6.43439 5.88002 6.71999 5.88002C6.71999 5.32562 6.71999 4.77122 6.71999 4.20002C5.61119 4.20002 4.50239 4.20002 3.35999 4.20002C3.35999 3.92282 3.35999 3.64562 3.35999 3.36002C4.46879 3.36002 5.57759 3.36002 6.71999 3.36002C6.71999 3.08282 6.71999 2.80562 6.71999 2.52002Z" fill="#EBB052"/>
<path d="M5.04003 12.6001C5.87163 12.6001 6.70323 12.6001 7.56003 12.6001C7.56003 12.8773 7.56003 13.1545 7.56003 13.4401C9.50043 13.4401 11.4408 13.4401 13.44 13.4401C13.44 13.1629 13.44 12.8857 13.44 12.6001C14.2716 12.6001 15.1032 12.6001 15.96 12.6001C15.96 12.8773 15.96 13.1545 15.96 13.4401C16.7916 13.4401 17.6232 13.4401 18.48 13.4401C18.48 13.7173 18.48 13.9945 18.48 14.2801C19.0344 14.2801 19.5888 14.2801 20.16 14.2801C20.16 14.5573 20.16 14.8345 20.16 15.1201C18.774 15.1201 17.388 15.1201 15.96 15.1201C15.96 14.8429 15.96 14.5657 15.96 14.2801C15.1284 14.2801 14.2968 14.2801 13.44 14.2801C13.44 14.5573 13.44 14.8345 13.44 15.1201C11.4996 15.1201 9.55923 15.1201 7.56003 15.1201C7.56003 14.8429 7.56003 14.5657 7.56003 14.2801C6.72843 14.2801 5.89683 14.2801 5.04003 14.2801C5.04003 14.5573 5.04003 14.8345 5.04003 15.1201C3.65403 15.1201 2.26803 15.1201 0.840027 15.1201C0.840027 14.8429 0.840027 14.5657 0.840027 14.2801C1.39443 14.2801 1.94883 14.2801 2.52003 14.2801C2.52003 14.0029 2.52003 13.7257 2.52003 13.4401C3.35163 13.4401 4.18323 13.4401 5.04003 13.4401C5.04003 13.1629 5.04003 12.8857 5.04003 12.6001Z" fill="black"/>
<path d="M0.840027 0C2.78043 0 4.72083 0 6.72003 0C6.72003 0.2772 6.72003 0.5544 6.72003 0.84C7.55163 0.84 8.38323 0.84 9.24003 0.84C9.24003 1.1172 9.24003 1.3944 9.24003 1.68C10.0716 1.68 10.9032 1.68 11.76 1.68C11.76 1.4028 11.76 1.1256 11.76 0.84C12.5916 0.84 13.4232 0.84 14.28 0.84C14.28 0.5628 14.28 0.2856 14.28 0C16.2204 0 18.1608 0 20.16 0C20.16 0.2772 20.16 0.5544 20.16 0.84C19.6056 0.84 19.0512 0.84 18.48 0.84C18.48 1.1172 18.48 1.3944 18.48 1.68C17.094 1.68 15.708 1.68 14.28 1.68C14.28 1.9572 14.28 2.2344 14.28 2.52C13.4484 2.52 12.6168 2.52 11.76 2.52C11.76 2.7972 11.76 3.0744 11.76 3.36C11.4828 3.36 11.2056 3.36 10.92 3.36C10.92 3.0828 10.92 2.8056 10.92 2.52C10.6428 2.52 10.3656 2.52 10.08 2.52C10.08 2.7972 10.08 3.0744 10.08 3.36C9.80283 3.36 9.52563 3.36 9.24003 3.36C9.24003 3.0828 9.24003 2.8056 9.24003 2.52C8.40843 2.52 7.57683 2.52 6.72003 2.52C6.72003 2.2428 6.72003 1.9656 6.72003 1.68C5.33403 1.68 3.94803 1.68 2.52003 1.68C2.52003 1.4028 2.52003 1.1256 2.52003 0.84C1.96563 0.84 1.41123 0.84 0.840027 0.84C0.840027 0.5628 0.840027 0.2856 0.840027 0Z" fill="#7D0000"/>
<path d="M9.24 3.36011C9.5172 3.36011 9.7944 3.36011 10.08 3.36011C10.08 5.57771 10.08 7.79531 10.08 10.0801C10.3572 10.0801 10.6344 10.0801 10.92 10.0801C10.92 8.97131 10.92 7.86251 10.92 6.72011C11.1972 6.72011 11.4744 6.72011 11.76 6.72011C11.76 8.38331 11.76 10.0465 11.76 11.7601C12.0372 11.7601 12.3144 11.7601 12.6 11.7601C12.6 12.0373 12.6 12.3145 12.6 12.6001C12.8772 12.6001 13.1544 12.6001 13.44 12.6001C13.44 12.8773 13.44 13.1545 13.44 13.4401C11.4996 13.4401 9.5592 13.4401 7.56 13.4401C7.56 12.8857 7.56 12.3313 7.56 11.7601C7.8372 11.7601 8.1144 11.7601 8.4 11.7601C8.4 12.0373 8.4 12.3145 8.4 12.6001C8.6772 12.6001 8.9544 12.6001 9.24 12.6001C9.24 9.55091 9.24 6.50171 9.24 3.36011Z" fill="#D19C48"/>
<path d="M20.16 0.840088C20.4372 0.840088 20.7144 0.840088 21 0.840088C21 5.27529 21 9.71049 21 14.2801C20.7228 14.2801 20.4456 14.2801 20.16 14.2801C20.16 13.7257 20.16 13.1713 20.16 12.6001C19.8828 12.6001 19.6056 12.6001 19.32 12.6001C19.32 9.27369 19.32 5.94729 19.32 2.52009C19.5972 2.52009 19.8744 2.52009 20.16 2.52009C20.16 1.96569 20.16 1.41129 20.16 0.840088Z" fill="black"/>
<path d="M0 0.840088C0.2772 0.840088 0.5544 0.840088 0.84 0.840088C0.84 1.39449 0.84 1.94889 0.84 2.52009C1.1172 2.52009 1.3944 2.52009 1.68 2.52009C1.68 5.84649 1.68 9.17289 1.68 12.6001C1.4028 12.6001 1.1256 12.6001 0.84 12.6001C0.84 13.1545 0.84 13.7089 0.84 14.2801C0.5628 14.2801 0.2856 14.2801 0 14.2801C0 9.84489 0 5.40969 0 0.840088Z" fill="black"/>
<path d="M18.48 0.840088C19.0344 0.840088 19.5888 0.840088 20.16 0.840088C20.16 1.39449 20.16 1.94889 20.16 2.52009C19.8828 2.52009 19.6056 2.52009 19.32 2.52009C19.32 5.84649 19.32 9.17289 19.32 12.6001C19.5972 12.6001 19.8744 12.6001 20.16 12.6001C20.16 13.1545 20.16 13.7089 20.16 14.2801C19.6056 14.2801 19.0512 14.2801 18.48 14.2801C18.48 14.0029 18.48 13.7257 18.48 13.4401C17.6484 13.4401 16.8168 13.4401 15.96 13.4401C15.96 13.1629 15.96 12.8857 15.96 12.6001C16.7916 12.6001 17.6232 12.6001 18.48 12.6001C18.48 8.71929 18.48 4.83849 18.48 0.840088Z" fill="#D5A04B"/>
<path d="M0.840027 0.840088C1.39443 0.840088 1.94883 0.840088 2.52003 0.840088C2.52003 4.72089 2.52003 8.60169 2.52003 12.6001C3.35163 12.6001 4.18323 12.6001 5.04003 12.6001C5.04003 12.8773 5.04003 13.1545 5.04003 13.4401C4.20843 13.4401 3.37683 13.4401 2.52003 13.4401C2.52003 13.7173 2.52003 13.9945 2.52003 14.2801C1.96563 14.2801 1.41123 14.2801 0.840027 14.2801C0.840027 13.7257 0.840027 13.1713 0.840027 12.6001C1.11723 12.6001 1.39443 12.6001 1.68003 12.6001C1.68003 9.27369 1.68003 5.94729 1.68003 2.52009C1.40283 2.52009 1.12563 2.52009 0.840027 2.52009C0.840027 1.96569 0.840027 1.41129 0.840027 0.840088Z" fill="#D5A04B"/>
<path d="M10.08 2.52002C10.3572 2.52002 10.6344 2.52002 10.92 2.52002C10.92 2.79722 10.92 3.07442 10.92 3.36002C11.1972 3.36002 11.4744 3.36002 11.76 3.36002C11.76 4.46882 11.76 5.57762 11.76 6.72002C11.4828 6.72002 11.2056 6.72002 10.92 6.72002C10.92 7.82882 10.92 8.93762 10.92 10.08C10.6428 10.08 10.3656 10.08 10.08 10.08C10.08 7.58522 10.08 5.09042 10.08 2.52002Z" fill="#C4913E"/>
<path d="M5.03998 5.87988C5.31718 5.87988 5.59438 5.87988 5.87998 5.87988C5.87998 6.15708 5.87998 6.43428 5.87998 6.71988C6.15718 6.71988 6.43438 6.71988 6.71998 6.71988C6.71998 6.99708 6.71998 7.27428 6.71998 7.55988C6.44278 7.55988 6.16558 7.55988 5.87998 7.55988C5.87998 7.83708 5.87998 8.11428 5.87998 8.39988C6.15718 8.39988 6.43438 8.39988 6.71998 8.39988C6.71998 9.78588 6.71998 11.1719 6.71998 12.5999C6.16558 12.5999 5.61118 12.5999 5.03998 12.5999C5.03998 12.3227 5.03998 12.0455 5.03998 11.7599C5.31718 11.7599 5.59438 11.7599 5.87998 11.7599C5.87998 11.4827 5.87998 11.2055 5.87998 10.9199C5.60278 10.9199 5.32558 10.9199 5.03998 10.9199C5.03998 10.6427 5.03998 10.3655 5.03998 10.0799C5.31718 10.0799 5.59438 10.0799 5.87998 10.0799C5.87998 9.80268 5.87998 9.52548 5.87998 9.23988C5.60278 9.23988 5.32558 9.23988 5.03998 9.23988C5.03998 8.13108 5.03998 7.02228 5.03998 5.87988Z" fill="#F1BC67"/>
<path d="M19.32 2.52002C19.5972 2.52002 19.8744 2.52002 20.16 2.52002C20.16 5.84642 20.16 9.17282 20.16 12.6C19.8828 12.6 19.6056 12.6 19.32 12.6C19.32 9.27362 19.32 5.94722 19.32 2.52002Z" fill="#7D0000"/>
<path d="M0.840027 2.52002C1.11723 2.52002 1.39443 2.52002 1.68003 2.52002C1.68003 5.84642 1.68003 9.17282 1.68003 12.6C1.40283 12.6 1.12563 12.6 0.840027 12.6C0.840027 9.27362 0.840027 5.94722 0.840027 2.52002Z" fill="#7D0000"/>
<path d="M7.56 14.28C9.5004 14.28 11.4408 14.28 13.44 14.28C13.44 14.5572 13.44 14.8344 13.44 15.12C11.4996 15.12 9.5592 15.12 7.56 15.12C7.56 14.8428 7.56 14.5656 7.56 14.28Z" fill="black"/>
<path d="M7.56 13.4399C9.5004 13.4399 11.4408 13.4399 13.44 13.4399C13.44 13.7171 13.44 13.9943 13.44 14.2799C11.4996 14.2799 9.5592 14.2799 7.56 14.2799C7.56 14.0027 7.56 13.7255 7.56 13.4399Z" fill="#7D0000"/>
<path d="M14.28 0C16.2204 0 18.1608 0 20.16 0C20.16 0.2772 20.16 0.5544 20.16 0.84C18.2196 0.84 16.2792 0.84 14.28 0.84C14.28 0.5628 14.28 0.2856 14.28 0Z" fill="black"/>
<path d="M0.840027 0C2.78043 0 4.72083 0 6.72003 0C6.72003 0.2772 6.72003 0.5544 6.72003 0.84C4.77963 0.84 2.83923 0.84 0.840027 0.84C0.840027 0.5628 0.840027 0.2856 0.840027 0Z" fill="black"/>
<path d="M10.92 10.9199C11.1972 10.9199 11.4744 10.9199 11.76 10.9199C11.76 11.1971 11.76 11.4743 11.76 11.7599C12.0372 11.7599 12.3144 11.7599 12.6 11.7599C12.6 12.0371 12.6 12.3143 12.6 12.5999C12.8772 12.5999 13.1544 12.5999 13.44 12.5999C13.44 12.8771 13.44 13.1543 13.44 13.4399C12.6084 13.4399 11.7768 13.4399 10.92 13.4399C10.92 12.6083 10.92 11.7767 10.92 10.9199Z" fill="#D5A04B"/>
<path d="M15.96 14.28C17.346 14.28 18.732 14.28 20.16 14.28C20.16 14.5572 20.16 14.8344 20.16 15.12C18.774 15.12 17.388 15.12 15.96 15.12C15.96 14.8428 15.96 14.5656 15.96 14.28Z" fill="black"/>
<path d="M0.840027 14.28C2.22603 14.28 3.61203 14.28 5.04003 14.28C5.04003 14.5572 5.04003 14.8344 5.04003 15.12C3.65403 15.12 2.26803 15.12 0.840027 15.12C0.840027 14.8428 0.840027 14.5656 0.840027 14.28Z" fill="black"/>
<path d="M9.23999 1.67993C10.0716 1.67993 10.9032 1.67993 11.76 1.67993C11.76 2.23433 11.76 2.78873 11.76 3.35993C11.4828 3.35993 11.2056 3.35993 10.92 3.35993C10.92 3.08273 10.92 2.80553 10.92 2.51993C10.6428 2.51993 10.3656 2.51993 10.08 2.51993C10.08 2.79713 10.08 3.07433 10.08 3.35993C9.80279 3.35993 9.52559 3.35993 9.23999 3.35993C9.23999 2.80553 9.23999 2.25113 9.23999 1.67993Z" fill="black"/>
<path d="M10.92 6.71997C11.1972 6.71997 11.4744 6.71997 11.76 6.71997C11.76 7.82877 11.76 8.93757 11.76 10.08C11.4828 10.08 11.2056 10.08 10.92 10.08C10.92 8.97117 10.92 7.86237 10.92 6.71997Z" fill="#D5A04B"/>
<path d="M10.08 6.71997C10.3572 6.71997 10.6344 6.71997 10.92 6.71997C10.92 7.82877 10.92 8.93757 10.92 10.08C10.6428 10.08 10.3656 10.08 10.08 10.08C10.08 8.97117 10.08 7.86237 10.08 6.71997Z" fill="#C94040"/>
<path d="M15.12 5.87988C15.3972 5.87988 15.6744 5.87988 15.96 5.87988C15.96 6.98868 15.96 8.09748 15.96 9.23988C15.6828 9.23988 15.4056 9.23988 15.12 9.23988C15.12 8.13108 15.12 7.02228 15.12 5.87988Z" fill="#F1BC67"/>
<path d="M14.28 3.36011C15.3888 3.36011 16.4976 3.36011 17.64 3.36011C17.64 3.63731 17.64 3.91451 17.64 4.20011C16.5312 4.20011 15.4224 4.20011 14.28 4.20011C14.28 3.92291 14.28 3.64571 14.28 3.36011Z" fill="#433723"/>
<path d="M10.92 3.36011C11.1972 3.36011 11.4744 3.36011 11.76 3.36011C11.76 4.46891 11.76 5.57771 11.76 6.72011C11.4828 6.72011 11.2056 6.72011 10.92 6.72011C10.92 5.61131 10.92 4.50251 10.92 3.36011Z" fill="#C94040"/>
<path d="M3.35999 3.36011C4.46879 3.36011 5.57759 3.36011 6.71999 3.36011C6.71999 3.63731 6.71999 3.91451 6.71999 4.20011C5.61119 4.20011 4.50239 4.20011 3.35999 4.20011C3.35999 3.92291 3.35999 3.64571 3.35999 3.36011Z" fill="#433723"/>
<path d="M5.03998 1.67993C5.59438 1.67993 6.14878 1.67993 6.71998 1.67993C6.71998 2.23433 6.71998 2.78873 6.71998 3.35993C6.16558 3.35993 5.61118 3.35993 5.03998 3.35993C5.03998 2.80553 5.03998 2.25113 5.03998 1.67993Z" fill="#F1BC67"/>
<path d="M15.96 13.4399C16.7916 13.4399 17.6232 13.4399 18.48 13.4399C18.48 13.7171 18.48 13.9943 18.48 14.2799C17.6484 14.2799 16.8168 14.2799 15.96 14.2799C15.96 14.0027 15.96 13.7255 15.96 13.4399Z" fill="#7D0000"/>
<path d="M2.52002 13.4399C3.35162 13.4399 4.18322 13.4399 5.04002 13.4399C5.04002 13.7171 5.04002 13.9943 5.04002 14.2799C4.20842 14.2799 3.37682 14.2799 2.52002 14.2799C2.52002 14.0027 2.52002 13.7255 2.52002 13.4399Z" fill="#7D0000"/>
<path d="M19.32 12.6001C19.5972 12.6001 19.8744 12.6001 20.16 12.6001C20.16 13.1545 20.16 13.7089 20.16 14.2801C19.6056 14.2801 19.0512 14.2801 18.48 14.2801C18.48 14.0029 18.48 13.7257 18.48 13.4401C18.7572 13.4401 19.0344 13.4401 19.32 13.4401C19.32 13.1629 19.32 12.8857 19.32 12.6001Z" fill="#D28C1D"/>
<path d="M13.44 12.6001C14.2716 12.6001 15.1032 12.6001 15.96 12.6001C15.96 12.8773 15.96 13.1545 15.96 13.4401C15.1284 13.4401 14.2968 13.4401 13.44 13.4401C13.44 13.1629 13.44 12.8857 13.44 12.6001Z" fill="#7D0000"/>
<path d="M5.03998 12.6001C5.87158 12.6001 6.70318 12.6001 7.55998 12.6001C7.55998 12.8773 7.55998 13.1545 7.55998 13.4401C6.72838 13.4401 5.89678 13.4401 5.03998 13.4401C5.03998 13.1629 5.03998 12.8857 5.03998 12.6001Z" fill="#7D0000"/>
<path d="M0.840027 12.6001C1.11723 12.6001 1.39443 12.6001 1.68003 12.6001C1.68003 12.8773 1.68003 13.1545 1.68003 13.4401C1.95723 13.4401 2.23443 13.4401 2.52003 13.4401C2.52003 13.7173 2.52003 13.9945 2.52003 14.2801C1.96563 14.2801 1.41123 14.2801 0.840027 14.2801C0.840027 13.7257 0.840027 13.1713 0.840027 12.6001Z" fill="#D28C1D"/>
<path d="M11.76 10.9199C12.3144 10.9199 12.8688 10.9199 13.44 10.9199C13.44 11.4743 13.44 12.0287 13.44 12.5999C13.1628 12.5999 12.8856 12.5999 12.6 12.5999C12.6 12.3227 12.6 12.0455 12.6 11.7599C12.3228 11.7599 12.0456 11.7599 11.76 11.7599C11.76 11.4827 11.76 11.2055 11.76 10.9199Z" fill="#C94040"/>
<path d="M15.12 9.23999C15.9516 9.23999 16.7832 9.23999 17.64 9.23999C17.64 9.51719 17.64 9.79439 17.64 10.08C16.8084 10.08 15.9768 10.08 15.12 10.08C15.12 9.80279 15.12 9.52559 15.12 9.23999Z" fill="#433723"/>
<path d="M3.35999 9.23999C4.19159 9.23999 5.02319 9.23999 5.87999 9.23999C5.87999 9.51719 5.87999 9.79439 5.87999 10.08C5.04839 10.08 4.21679 10.08 3.35999 10.08C3.35999 9.80279 3.35999 9.52559 3.35999 9.23999Z" fill="#433723"/>
<path d="M12.6 5.87988C13.4316 5.87988 14.2632 5.87988 15.12 5.87988C15.12 6.15708 15.12 6.43428 15.12 6.71988C14.2884 6.71988 13.4568 6.71988 12.6 6.71988C12.6 6.44268 12.6 6.16548 12.6 5.87988Z" fill="#433723"/>
<path d="M5.88 5.87988C6.7116 5.87988 7.5432 5.87988 8.4 5.87988C8.4 6.15708 8.4 6.43428 8.4 6.71988C7.5684 6.71988 6.7368 6.71988 5.88 6.71988C5.88 6.44268 5.88 6.16548 5.88 5.87988Z" fill="#433723"/>
<path d="M15.12 5.04004C15.9516 5.04004 16.7832 5.04004 17.64 5.04004C17.64 5.31724 17.64 5.59444 17.64 5.88004C16.8084 5.88004 15.9768 5.88004 15.12 5.88004C15.12 5.60284 15.12 5.32564 15.12 5.04004Z" fill="#433723"/>
<path d="M3.35999 5.04004C4.19159 5.04004 5.02319 5.04004 5.87999 5.04004C5.87999 5.31724 5.87999 5.59444 5.87999 5.88004C5.04839 5.88004 4.21679 5.88004 3.35999 5.88004C3.35999 5.60284 3.35999 5.32564 3.35999 5.04004Z" fill="#433723"/>
<path d="M5.03998 4.19995C5.59438 4.19995 6.14878 4.19995 6.71998 4.19995C6.71998 4.75435 6.71998 5.30875 6.71998 5.87995C6.44278 5.87995 6.16558 5.87995 5.87998 5.87995C5.87998 5.60275 5.87998 5.32555 5.87998 5.03995C5.60278 5.03995 5.32558 5.03995 5.03998 5.03995C5.03998 4.76275 5.03998 4.48555 5.03998 4.19995Z" fill="#F1BC67"/>
<path d="M11.76 1.67993C12.5916 1.67993 13.4232 1.67993 14.28 1.67993C14.28 1.95713 14.28 2.23433 14.28 2.51993C13.4484 2.51993 12.6168 2.51993 11.76 2.51993C11.76 2.24273 11.76 1.96553 11.76 1.67993Z" fill="#7D0000"/>
<path d="M6.71997 1.67993C7.55157 1.67993 8.38317 1.67993 9.23997 1.67993C9.23997 1.95713 9.23997 2.23433 9.23997 2.51993C8.40837 2.51993 7.57677 2.51993 6.71997 2.51993C6.71997 2.24273 6.71997 1.96553 6.71997 1.67993Z" fill="#7D0000"/>
<path d="M18.48 0.840088C19.0344 0.840088 19.5888 0.840088 20.16 0.840088C20.16 1.39449 20.16 1.94889 20.16 2.52009C19.8828 2.52009 19.6056 2.52009 19.32 2.52009C19.32 2.24289 19.32 1.96569 19.32 1.68009C19.0428 1.68009 18.7656 1.68009 18.48 1.68009C18.48 1.40289 18.48 1.12569 18.48 0.840088Z" fill="#D28C1D"/>
<path d="M11.76 0.840088C12.5916 0.840088 13.4232 0.840088 14.28 0.840088C14.28 1.11729 14.28 1.39449 14.28 1.68009C13.4484 1.68009 12.6168 1.68009 11.76 1.68009C11.76 1.40289 11.76 1.12569 11.76 0.840088Z" fill="black"/>
<path d="M6.71997 0.840088C7.55157 0.840088 8.38317 0.840088 9.23997 0.840088C9.23997 1.11729 9.23997 1.39449 9.23997 1.68009C8.40837 1.68009 7.57677 1.68009 6.71997 1.68009C6.71997 1.40289 6.71997 1.12569 6.71997 0.840088Z" fill="black"/>
<path d="M0.840027 0.840088C1.39443 0.840088 1.94883 0.840088 2.52003 0.840088C2.52003 1.11729 2.52003 1.39449 2.52003 1.68009C2.24283 1.68009 1.96563 1.68009 1.68003 1.68009C1.68003 1.95729 1.68003 2.23449 1.68003 2.52009C1.40283 2.52009 1.12563 2.52009 0.840027 2.52009C0.840027 1.96569 0.840027 1.41129 0.840027 0.840088Z" fill="#D28C1D"/>
<path d="M15.96 12.6001C16.5144 12.6001 17.0688 12.6001 17.64 12.6001C17.64 12.8773 17.64 13.1545 17.64 13.4401C17.0856 13.4401 16.5312 13.4401 15.96 13.4401C15.96 13.1629 15.96 12.8857 15.96 12.6001Z" fill="#C4913E"/>
<path d="M3.35999 12.6001C3.91439 12.6001 4.46879 12.6001 5.03999 12.6001C5.03999 12.8773 5.03999 13.1545 5.03999 13.4401C4.48559 13.4401 3.93119 13.4401 3.35999 13.4401C3.35999 13.1629 3.35999 12.8857 3.35999 12.6001Z" fill="#C4913E"/>
<path d="M15.12 10.9199C15.6744 10.9199 16.2288 10.9199 16.8 10.9199C16.8 11.1971 16.8 11.4743 16.8 11.7599C16.2456 11.7599 15.6912 11.7599 15.12 11.7599C15.12 11.4827 15.12 11.2055 15.12 10.9199Z" fill="#433723"/>
<path d="M4.20001 10.9199C4.75441 10.9199 5.30881 10.9199 5.88001 10.9199C5.88001 11.1971 5.88001 11.4743 5.88001 11.7599C5.32561 11.7599 4.77121 11.7599 4.20001 11.7599C4.20001 11.4827 4.20001 11.2055 4.20001 10.9199Z" fill="#433723"/>
<path d="M12.6 8.3999C13.1544 8.3999 13.7088 8.3999 14.28 8.3999C14.28 8.6771 14.28 8.9543 14.28 9.2399C13.7256 9.2399 13.1712 9.2399 12.6 9.2399C12.6 8.9627 12.6 8.6855 12.6 8.3999Z" fill="#433723"/>
<path d="M6.71997 8.3999C7.27437 8.3999 7.82877 8.3999 8.39997 8.3999C8.39997 8.6771 8.39997 8.9543 8.39997 9.2399C7.84557 9.2399 7.29117 9.2399 6.71997 9.2399C6.71997 8.9627 6.71997 8.6855 6.71997 8.3999Z" fill="#433723"/>
<path d="M15.96 7.56006C16.5144 7.56006 17.0688 7.56006 17.64 7.56006C17.64 7.83726 17.64 8.11446 17.64 8.40006C17.0856 8.40006 16.5312 8.40006 15.96 8.40006C15.96 8.12286 15.96 7.84566 15.96 7.56006Z" fill="#433723"/>
<path d="M3.35999 7.56006C3.91439 7.56006 4.46879 7.56006 5.03999 7.56006C5.03999 7.83726 5.03999 8.11446 5.03999 8.40006C4.48559 8.40006 3.93119 8.40006 3.35999 8.40006C3.35999 8.12286 3.35999 7.84566 3.35999 7.56006Z" fill="#433723"/>
<path d="M12.6 4.19995C13.1544 4.19995 13.7088 4.19995 14.28 4.19995C14.28 4.47715 14.28 4.75435 14.28 5.03995C13.7256 5.03995 13.1712 5.03995 12.6 5.03995C12.6 4.76275 12.6 4.48555 12.6 4.19995Z" fill="#433723"/>
<path d="M6.71997 4.19995C7.27437 4.19995 7.82877 4.19995 8.39997 4.19995C8.39997 4.47715 8.39997 4.75435 8.39997 5.03995C7.84557 5.03995 7.29117 5.03995 6.71997 5.03995C6.71997 4.76275 6.71997 4.48555 6.71997 4.19995Z" fill="#433723"/>
<path d="M15.12 1.67993C15.3972 1.67993 15.6744 1.67993 15.96 1.67993C15.96 2.23433 15.96 2.78873 15.96 3.35993C15.6828 3.35993 15.4056 3.35993 15.12 3.35993C15.12 2.80553 15.12 2.25113 15.12 1.67993Z" fill="#F1BC67"/>
<path d="M12.6 12.6001C12.8772 12.6001 13.1544 12.6001 13.44 12.6001C13.44 12.8773 13.44 13.1545 13.44 13.4401C13.1628 13.4401 12.8856 13.4401 12.6 13.4401C12.6 13.1629 12.6 12.8857 12.6 12.6001Z" fill="#C4913E"/>
<path d="M15.12 11.76C15.3972 11.76 15.6744 11.76 15.96 11.76C15.96 12.0372 15.96 12.3144 15.96 12.6C15.6828 12.6 15.4056 12.6 15.12 12.6C15.12 12.3228 15.12 12.0456 15.12 11.76Z" fill="#F1BC67"/>
<path d="M12.6 11.76C12.8772 11.76 13.1544 11.76 13.44 11.76C13.44 12.0372 13.44 12.3144 13.44 12.6C13.1628 12.6 12.8856 12.6 12.6 12.6C12.6 12.3228 12.6 12.0456 12.6 11.76Z" fill="#433723"/>
<path d="M11.76 11.76C12.0372 11.76 12.3144 11.76 12.6 11.76C12.6 12.0372 12.6 12.3144 12.6 12.6C12.3228 12.6 12.0456 12.6 11.76 12.6C11.76 12.3228 11.76 12.0456 11.76 11.76Z" fill="#EBB052"/>
<path d="M7.56 11.76C7.8372 11.76 8.1144 11.76 8.4 11.76C8.4 12.0372 8.4 12.3144 8.4 12.6C8.1228 12.6 7.8456 12.6 7.56 12.6C7.56 12.3228 7.56 12.0456 7.56 11.76Z" fill="#433723"/>
<path d="M15.12 10.0801C15.3972 10.0801 15.6744 10.0801 15.96 10.0801C15.96 10.3573 15.96 10.6345 15.96 10.9201C15.6828 10.9201 15.4056 10.9201 15.12 10.9201C15.12 10.6429 15.12 10.3657 15.12 10.0801Z" fill="#F1BC67"/>
<path d="M13.44 10.0801C13.7172 10.0801 13.9944 10.0801 14.28 10.0801C14.28 10.3573 14.28 10.6345 14.28 10.9201C14.0028 10.9201 13.7256 10.9201 13.44 10.9201C13.44 10.6429 13.44 10.3657 13.44 10.0801Z" fill="#C94040"/>
<path d="M10.92 10.0801C11.1972 10.0801 11.4744 10.0801 11.76 10.0801C11.76 10.3573 11.76 10.6345 11.76 10.9201C11.4828 10.9201 11.2056 10.9201 10.92 10.9201C10.92 10.6429 10.92 10.3657 10.92 10.0801Z" fill="#C94040"/>
<path d="M6.71997 10.0801C6.99717 10.0801 7.27437 10.0801 7.55997 10.0801C7.55997 10.3573 7.55997 10.6345 7.55997 10.9201C7.28277 10.9201 7.00557 10.9201 6.71997 10.9201C6.71997 10.6429 6.71997 10.3657 6.71997 10.0801Z" fill="#433723"/>
<path d="M14.28 7.56006C14.5572 7.56006 14.8344 7.56006 15.12 7.56006C15.12 7.83726 15.12 8.11446 15.12 8.40006C14.8428 8.40006 14.5656 8.40006 14.28 8.40006C14.28 8.12286 14.28 7.84566 14.28 7.56006Z" fill="#433723"/>
<path d="M5.88 7.56006C6.1572 7.56006 6.4344 7.56006 6.72 7.56006C6.72 7.83726 6.72 8.11446 6.72 8.40006C6.4428 8.40006 6.1656 8.40006 5.88 8.40006C5.88 8.12286 5.88 7.84566 5.88 7.56006Z" fill="#433723"/>
<path d="M15.12 4.19995C15.3972 4.19995 15.6744 4.19995 15.96 4.19995C15.96 4.47715 15.96 4.75435 15.96 5.03995C15.6828 5.03995 15.4056 5.03995 15.12 5.03995C15.12 4.76275 15.12 4.48555 15.12 4.19995Z" fill="#F1BC67"/>
<path d="M10.92 2.52002C11.1972 2.52002 11.4744 2.52002 11.76 2.52002C11.76 2.79722 11.76 3.07442 11.76 3.36002C11.4828 3.36002 11.2056 3.36002 10.92 3.36002C10.92 3.08282 10.92 2.80562 10.92 2.52002Z" fill="#7D0000"/>
<path d="M10.08 2.52002C10.3572 2.52002 10.6344 2.52002 10.92 2.52002C10.92 2.79722 10.92 3.07442 10.92 3.36002C10.6428 3.36002 10.3656 3.36002 10.08 3.36002C10.08 3.08282 10.08 2.80562 10.08 2.52002Z" fill="#B72E2E"/>
<path d="M9.23999 2.52002C9.51719 2.52002 9.79439 2.52002 10.08 2.52002C10.08 2.79722 10.08 3.07442 10.08 3.36002C9.80279 3.36002 9.52559 3.36002 9.23999 3.36002C9.23999 3.08282 9.23999 2.80562 9.23999 2.52002Z" fill="#7D0000"/>
</svg>
