<svg width="19" height="21" viewBox="0 0 19 21" fill="none" xmlns="http://www.w3.org/2000/svg">
<path d="M6.17647 0C7.80706 0 9.43765 0 11.1176 0C11.1176 0.407647 11.1176 0.815294 11.1176 1.23529C11.5253 1.23529 11.9329 1.23529 12.3529 1.23529C12.3529 0.827647 12.3529 0.42 12.3529 0C12.7606 0 13.1682 0 13.5882 0C13.5882 0.407647 13.5882 0.815294 13.5882 1.23529C13.9959 1.23529 14.4035 1.23529 14.8235 1.23529C14.8235 1.64294 14.8235 2.05059 14.8235 2.47059C15.2312 2.47059 15.6388 2.47059 16.0588 2.47059C16.0588 2.87824 16.0588 3.28588 16.0588 3.70588C16.4665 3.70588 16.8741 3.70588 17.2941 3.70588C17.2941 4.11353 17.2941 4.52118 17.2941 4.94118C16.8865 4.94118 16.4788 4.94118 16.0588 4.94118C16.0588 5.34882 16.0588 5.75647 16.0588 6.17647C16.4665 6.17647 16.8741 6.17647 17.2941 6.17647C17.2941 6.99176 17.2941 7.80706 17.2941 8.64706C17.7018 8.64706 18.1094 8.64706 18.5294 8.64706C18.5294 9.05471 18.5294 9.46235 18.5294 9.88235C18.1218 9.88235 17.7141 9.88235 17.2941 9.88235C17.2941 10.29 17.2941 10.6976 17.2941 11.1176C16.8865 11.1176 16.4788 11.1176 16.0588 11.1176C16.0588 11.9329 16.0588 12.7482 16.0588 13.5882C15.6512 13.5882 15.2435 13.5882 14.8235 13.5882C14.8235 13.9959 14.8235 14.4035 14.8235 14.8235C14.4159 14.8235 14.0082 14.8235 13.5882 14.8235C13.5882 15.2312 13.5882 15.6388 13.5882 16.0588C13.9959 16.0588 14.4035 16.0588 14.8235 16.0588C14.8235 16.4665 14.8235 16.8741 14.8235 17.2941C15.2312 17.2941 15.6388 17.2941 16.0588 17.2941C16.0588 17.7018 16.0588 18.1094 16.0588 18.5294C16.4665 18.5294 16.8741 18.5294 17.2941 18.5294C17.2941 19.3447 17.2941 20.16 17.2941 21C11.5871 21 5.88 21 0 21C0 20.1847 0 19.3694 0 18.5294C0.407647 18.5294 0.815294 18.5294 1.23529 18.5294C1.23529 18.1218 1.23529 17.7141 1.23529 17.2941C1.64294 17.2941 2.05059 17.2941 2.47059 17.2941C2.47059 16.8865 2.47059 16.4788 2.47059 16.0588C2.87824 16.0588 3.28588 16.0588 3.70588 16.0588C3.70588 15.6512 3.70588 15.2435 3.70588 14.8235C3.29824 14.8235 2.89059 14.8235 2.47059 14.8235C2.47059 14.4159 2.47059 14.0082 2.47059 13.5882C2.06294 13.5882 1.65529 13.5882 1.23529 13.5882C1.23529 12.7729 1.23529 11.9576 1.23529 11.1176C0.827647 11.1176 0.42 11.1176 0 11.1176C0 9.48706 0 7.85647 0 6.17647C0.407647 6.17647 0.815294 6.17647 1.23529 6.17647C1.23529 5.36118 1.23529 4.54588 1.23529 3.70588C1.64294 3.70588 2.05059 3.70588 2.47059 3.70588C2.47059 3.29824 2.47059 2.89059 2.47059 2.47059C2.87824 2.47059 3.28588 2.47059 3.70588 2.47059C3.70588 2.06294 3.70588 1.65529 3.70588 1.23529C4.52118 1.23529 5.33647 1.23529 6.17647 1.23529C6.17647 0.827647 6.17647 0.42 6.17647 0Z" fill="#0A2EA3"/>
<path d="M12.3529 0C12.7606 0 13.1682 0 13.5882 0C13.5882 0.407647 13.5882 0.815294 13.5882 1.23529C13.9959 1.23529 14.4035 1.23529 14.8235 1.23529C14.8235 1.64294 14.8235 2.05059 14.8235 2.47059C15.2312 2.47059 15.6388 2.47059 16.0588 2.47059C16.0588 2.87824 16.0588 3.28588 16.0588 3.70588C16.4665 3.70588 16.8741 3.70588 17.2941 3.70588C17.2941 4.11353 17.2941 4.52118 17.2941 4.94118C16.8865 4.94118 16.4788 4.94118 16.0588 4.94118C16.0588 5.34882 16.0588 5.75647 16.0588 6.17647C16.4665 6.17647 16.8741 6.17647 17.2941 6.17647C17.2941 6.99176 17.2941 7.80706 17.2941 8.64706C17.7018 8.64706 18.1094 8.64706 18.5294 8.64706C18.5294 9.05471 18.5294 9.46235 18.5294 9.88235C18.1218 9.88235 17.7141 9.88235 17.2941 9.88235C17.2941 10.29 17.2941 10.6976 17.2941 11.1176C16.4788 11.1176 15.6635 11.1176 14.8235 11.1176C14.8235 10.71 14.8235 10.3024 14.8235 9.88235C14.4159 9.88235 14.0082 9.88235 13.5882 9.88235C13.5882 10.29 13.5882 10.6976 13.5882 11.1176C13.1806 11.1176 12.7729 11.1176 12.3529 11.1176C12.3529 11.5253 12.3529 11.9329 12.3529 12.3529C11.9453 12.3529 11.5376 12.3529 11.1176 12.3529C11.1176 11.9453 11.1176 11.5376 11.1176 11.1176C9.07941 11.1176 7.04117 11.1176 4.94117 11.1176C4.94117 10.71 4.94117 10.3024 4.94117 9.88235C4.53352 9.88235 4.12588 9.88235 3.70588 9.88235C3.70588 9.47471 3.70588 9.06706 3.70588 8.64706C3.29823 8.64706 2.89058 8.64706 2.47058 8.64706C2.47058 7.83176 2.47058 7.01647 2.47058 6.17647C2.87823 6.17647 3.28588 6.17647 3.70588 6.17647C3.70588 5.36118 3.70588 4.54588 3.70588 3.70588C4.11352 3.70588 4.52117 3.70588 4.94117 3.70588C4.94117 3.29824 4.94117 2.89059 4.94117 2.47059C6.9794 2.47059 9.01764 2.47059 11.1176 2.47059C11.1176 2.87824 11.1176 3.28588 11.1176 3.70588C11.5253 3.70588 11.9329 3.70588 12.3529 3.70588C12.3529 2.48294 12.3529 1.26 12.3529 0Z" fill="#224ACC"/>
<path d="M11.1176 16.0588C12.3406 16.0588 13.5635 16.0588 14.8235 16.0588C14.8235 16.4665 14.8235 16.8741 14.8235 17.2941C15.2312 17.2941 15.6388 17.2941 16.0588 17.2941C16.0588 17.7018 16.0588 18.1094 16.0588 18.5294C16.4665 18.5294 16.8741 18.5294 17.2941 18.5294C17.2941 19.3447 17.2941 20.16 17.2941 21C11.5871 21 5.88 21 0 21C0 20.1847 0 19.3694 0 18.5294C0.407647 18.5294 0.815294 18.5294 1.23529 18.5294C1.23529 18.1218 1.23529 17.7141 1.23529 17.2941C4.49647 17.2941 7.75765 17.2941 11.1176 17.2941C11.1176 16.8865 11.1176 16.4788 11.1176 16.0588Z" fill="#EBB052"/>
<path d="M6.17647 0C7.80706 0 9.43765 0 11.1176 0C11.1176 0.407647 11.1176 0.815294 11.1176 1.23529C11.5253 1.23529 11.9329 1.23529 12.3529 1.23529C12.3529 2.05059 12.3529 2.86588 12.3529 3.70588C11.9453 3.70588 11.5376 3.70588 11.1176 3.70588C11.1176 3.29824 11.1176 2.89059 11.1176 2.47059C9.07941 2.47059 7.04118 2.47059 4.94118 2.47059C4.94118 2.87824 4.94118 3.28588 4.94118 3.70588C4.53353 3.70588 4.12588 3.70588 3.70588 3.70588C3.70588 4.52118 3.70588 5.33647 3.70588 6.17647C3.29824 6.17647 2.89059 6.17647 2.47059 6.17647C2.47059 7.80706 2.47059 9.43765 2.47059 11.1176C2.87824 11.1176 3.28588 11.1176 3.70588 11.1176C3.70588 12.3406 3.70588 13.5635 3.70588 14.8235C3.29824 14.8235 2.89059 14.8235 2.47059 14.8235C2.47059 14.4159 2.47059 14.0082 2.47059 13.5882C2.06294 13.5882 1.65529 13.5882 1.23529 13.5882C1.23529 12.7729 1.23529 11.9576 1.23529 11.1176C0.827647 11.1176 0.42 11.1176 0 11.1176C0 9.48706 0 7.85647 0 6.17647C0.407647 6.17647 0.815294 6.17647 1.23529 6.17647C1.23529 5.36118 1.23529 4.54588 1.23529 3.70588C1.64294 3.70588 2.05059 3.70588 2.47059 3.70588C2.47059 3.29824 2.47059 2.89059 2.47059 2.47059C2.87824 2.47059 3.28588 2.47059 3.70588 2.47059C3.70588 2.06294 3.70588 1.65529 3.70588 1.23529C4.52118 1.23529 5.33647 1.23529 6.17647 1.23529C6.17647 0.827647 6.17647 0.42 6.17647 0Z" fill="#5276EC"/>
<path d="M0 18.5293C0.407647 18.5293 0.815294 18.5293 1.23529 18.5293C1.23529 18.9369 1.23529 19.3446 1.23529 19.7646C6.12706 19.7646 11.0188 19.7646 16.0588 19.7646C16.0588 19.3569 16.0588 18.9493 16.0588 18.5293C16.4665 18.5293 16.8741 18.5293 17.2941 18.5293C17.2941 19.3446 17.2941 20.1599 17.2941 20.9999C11.5871 20.9999 5.88 20.9999 0 20.9999C0 20.1846 0 19.3693 0 18.5293Z" fill="black"/>
<path d="M12.3529 0C12.7606 0 13.1682 0 13.5882 0C13.5882 0.407647 13.5882 0.815294 13.5882 1.23529C13.9959 1.23529 14.4035 1.23529 14.8235 1.23529C14.8235 1.64294 14.8235 2.05059 14.8235 2.47059C15.2311 2.47059 15.6388 2.47059 16.0588 2.47059C16.0588 2.87824 16.0588 3.28588 16.0588 3.70588C16.4664 3.70588 16.8741 3.70588 17.2941 3.70588C17.2941 4.11353 17.2941 4.52118 17.2941 4.94118C16.0711 4.94118 14.8482 4.94118 13.5882 4.94118C13.5882 5.75647 13.5882 6.57177 13.5882 7.41177C13.1806 7.41177 12.7729 7.41177 12.3529 7.41177C12.3529 7.00412 12.3529 6.59647 12.3529 6.17647C11.9453 6.17647 11.5376 6.17647 11.1176 6.17647C11.1176 5.76882 11.1176 5.36118 11.1176 4.94118C10.71 4.94118 10.3023 4.94118 9.88232 4.94118C9.88232 4.53353 9.88232 4.12588 9.88232 3.70588C10.6976 3.70588 11.5129 3.70588 12.3529 3.70588C12.3529 2.48294 12.3529 1.26 12.3529 0Z" fill="#CAD6FF"/>
<path d="M1.23529 17.2942C2.05058 17.2942 2.86588 17.2942 3.70588 17.2942C3.70588 17.7018 3.70588 18.1095 3.70588 18.5295C7.3747 18.5295 11.0435 18.5295 14.8235 18.5295C14.8235 18.9371 14.8235 19.3448 14.8235 19.7648C10.3394 19.7648 5.85529 19.7648 1.23529 19.7648C1.23529 18.9495 1.23529 18.1342 1.23529 17.2942Z" fill="#C38015"/>
<path d="M14.8236 6.17651C15.6388 6.17651 16.4541 6.17651 17.2941 6.17651C17.2941 6.99181 17.2941 7.8071 17.2941 8.6471C17.7018 8.6471 18.1094 8.6471 18.5294 8.6471C18.5294 9.05475 18.5294 9.4624 18.5294 9.8824C18.1218 9.8824 17.7141 9.8824 17.2941 9.8824C17.2941 10.29 17.2941 10.6977 17.2941 11.1177C16.4788 11.1177 15.6636 11.1177 14.8236 11.1177C14.8236 10.71 14.8236 10.3024 14.8236 9.8824C14.4159 9.8824 14.0083 9.8824 13.5883 9.8824C13.5883 9.47475 13.5883 9.0671 13.5883 8.6471C13.9959 8.6471 14.4036 8.6471 14.8236 8.6471C14.8236 7.83181 14.8236 7.01651 14.8236 6.17651Z" fill="#CAD6FF"/>
<path d="M6.17645 0C7.80704 0 9.43763 0 11.1176 0C11.1176 0.407647 11.1176 0.815294 11.1176 1.23529C11.5253 1.23529 11.9329 1.23529 12.3529 1.23529C12.3529 2.05059 12.3529 2.86588 12.3529 3.70588C11.9453 3.70588 11.5376 3.70588 11.1176 3.70588C11.1176 3.29824 11.1176 2.89059 11.1176 2.47059C9.48704 2.47059 7.85645 2.47059 6.17645 2.47059C6.17645 1.65529 6.17645 0.84 6.17645 0Z" fill="#6D8FFF"/>
<path d="M3.70588 14.8235C4.52117 14.8235 5.33646 14.8235 6.17646 14.8235C6.17646 15.2311 6.17646 15.6388 6.17646 16.0588C7.80705 16.0588 9.43764 16.0588 11.1176 16.0588C11.1176 16.4664 11.1176 16.8741 11.1176 17.2941C8.26411 17.2941 5.41058 17.2941 2.47058 17.2941C2.47058 16.8864 2.47058 16.4788 2.47058 16.0588C2.87823 16.0588 3.28588 16.0588 3.70588 16.0588C3.70588 15.6511 3.70588 15.2435 3.70588 14.8235Z" fill="#C38015"/>
<path d="M3.70588 1.23535C4.52117 1.23535 5.33647 1.23535 6.17647 1.23535C6.17647 1.643 6.17647 2.05065 6.17647 2.47065C5.76882 2.47065 5.36117 2.47065 4.94117 2.47065C4.94117 2.87829 4.94117 3.28594 4.94117 3.70594C4.53353 3.70594 4.12588 3.70594 3.70588 3.70594C3.70588 4.52123 3.70588 5.33653 3.70588 6.17653C2.89058 6.17653 2.07529 6.17653 1.23529 6.17653C1.23529 5.36123 1.23529 4.54594 1.23529 3.70594C1.64294 3.70594 2.05058 3.70594 2.47058 3.70594C2.47058 3.29829 2.47058 2.89065 2.47058 2.47065C2.87823 2.47065 3.28588 2.47065 3.70588 2.47065C3.70588 2.063 3.70588 1.65535 3.70588 1.23535Z" fill="#5276EC"/>
<path d="M3.70587 17.2942C6.15175 17.2942 8.59764 17.2942 11.1176 17.2942C11.1176 17.7018 11.1176 18.1095 11.1176 18.5295C8.67175 18.5295 6.22587 18.5295 3.70587 18.5295C3.70587 18.1218 3.70587 17.7142 3.70587 17.2942Z" fill="#D28C1D"/>
<path d="M13.5883 9.88232C13.9959 9.88232 14.4036 9.88232 14.8236 9.88232C14.8236 10.29 14.8236 10.6976 14.8236 11.1176C15.2312 11.1176 15.6388 11.1176 16.0588 11.1176C16.0588 11.9329 16.0588 12.7482 16.0588 13.5882C15.6512 13.5882 15.2436 13.5882 14.8236 13.5882C14.8236 13.9959 14.8236 14.4035 14.8236 14.8235C14.4159 14.8235 14.0083 14.8235 13.5883 14.8235C13.5883 13.1929 13.5883 11.5623 13.5883 9.88232Z" fill="#5276EC"/>
<path d="M4.94116 11.1177C6.9794 11.1177 9.01763 11.1177 11.1176 11.1177C11.1176 11.5253 11.1176 11.933 11.1176 12.353C10.3023 12.353 9.48704 12.353 8.64704 12.353C8.64704 12.7606 8.64704 13.1683 8.64704 13.5883C8.2394 13.5883 7.83175 13.5883 7.41175 13.5883C7.41175 13.1806 7.41175 12.773 7.41175 12.353C6.59646 12.353 5.78116 12.353 4.94116 12.353C4.94116 11.9453 4.94116 11.5377 4.94116 11.1177Z" fill="#1239BB"/>
<path d="M1.23529 11.1177C2.05058 11.1177 2.86588 11.1177 3.70588 11.1177C3.70588 12.3406 3.70588 13.5636 3.70588 14.8236C3.29823 14.8236 2.89058 14.8236 2.47058 14.8236C2.47058 14.4159 2.47058 14.0083 2.47058 13.5883C2.06294 13.5883 1.65529 13.5883 1.23529 13.5883C1.23529 12.773 1.23529 11.9577 1.23529 11.1177Z" fill="#5276EC"/>
<path d="M11.1176 8.64697C11.5253 8.64697 11.9329 8.64697 12.3529 8.64697C12.3529 9.05462 12.3529 9.46227 12.3529 9.88227C12.7606 9.88227 13.1682 9.88227 13.5882 9.88227C13.5882 10.2899 13.5882 10.6976 13.5882 11.1176C13.1806 11.1176 12.7729 11.1176 12.3529 11.1176C12.3529 11.5252 12.3529 11.9329 12.3529 12.3529C11.9453 12.3529 11.5376 12.3529 11.1176 12.3529C11.1176 11.9452 11.1176 11.5376 11.1176 11.1176C10.71 11.1176 10.3023 11.1176 9.88232 11.1176C9.88232 10.7099 9.88232 10.3023 9.88232 9.88227C10.29 9.88227 10.6976 9.88227 11.1176 9.88227C11.1176 9.47462 11.1176 9.06697 11.1176 8.64697Z" fill="#5F82F5"/>
<path d="M7.41175 4.94116C7.81939 4.94116 8.22704 4.94116 8.64704 4.94116C8.64704 5.34881 8.64704 5.75646 8.64704 6.17646C9.05469 6.17646 9.46233 6.17646 9.88233 6.17646C9.88233 6.5841 9.88233 6.99175 9.88233 7.41175C9.47469 7.41175 9.06704 7.41175 8.64704 7.41175C8.64704 7.8194 8.64704 8.22704 8.64704 8.64704C8.23939 8.64704 7.83175 8.64704 7.41175 8.64704C7.41175 8.2394 7.41175 7.83175 7.41175 7.41175C7.0041 7.41175 6.59645 7.41175 6.17645 7.41175C6.17645 7.0041 6.17645 6.59646 6.17645 6.17646C6.5841 6.17646 6.99175 6.17646 7.41175 6.17646C7.41175 5.76881 7.41175 5.36116 7.41175 4.94116Z" fill="#5F82F5"/>
<path d="M6.17645 16.0588C7.80704 16.0588 9.43763 16.0588 11.1176 16.0588C11.1176 16.4665 11.1176 16.8741 11.1176 17.2941C9.48704 17.2941 7.85645 17.2941 6.17645 17.2941C6.17645 16.8865 6.17645 16.4788 6.17645 16.0588Z" fill="black"/>
<path d="M6.17645 14.8235C7.80704 14.8235 9.43763 14.8235 11.1176 14.8235C11.1176 15.2311 11.1176 15.6388 11.1176 16.0588C9.48704 16.0588 7.85645 16.0588 6.17645 16.0588C6.17645 15.6511 6.17645 15.2435 6.17645 14.8235Z" fill="#5276EC"/>
<path d="M0 6.17651C0.407647 6.17651 0.815294 6.17651 1.23529 6.17651C1.23529 7.8071 1.23529 9.43769 1.23529 11.1177C0.827647 11.1177 0.42 11.1177 0 11.1177C0 9.4871 0 7.85651 0 6.17651Z" fill="black"/>
<path d="M3.70588 1.23535C4.52117 1.23535 5.33646 1.23535 6.17646 1.23535C6.17646 1.643 6.17646 2.05065 6.17646 2.47065C5.76882 2.47065 5.36117 2.47065 4.94117 2.47065C4.94117 2.87829 4.94117 3.28594 4.94117 3.70594C4.12587 3.70594 3.31058 3.70594 2.47058 3.70594C2.47058 3.29829 2.47058 2.89065 2.47058 2.47065C2.87823 2.47065 3.28588 2.47065 3.70588 2.47065C3.70588 2.063 3.70588 1.65535 3.70588 1.23535Z" fill="#5276EC"/>
<path d="M6.17645 0C7.80704 0 9.43763 0 11.1176 0C11.1176 0.407647 11.1176 0.815294 11.1176 1.23529C9.48704 1.23529 7.85645 1.23529 6.17645 1.23529C6.17645 0.827647 6.17645 0.42 6.17645 0Z" fill="black"/>
<path d="M3.70587 17.2942C4.92881 17.2942 6.15175 17.2942 7.41175 17.2942C7.41175 17.7018 7.41175 18.1095 7.41175 18.5295C6.18881 18.5295 4.96587 18.5295 3.70587 18.5295C3.70587 18.1218 3.70587 17.7142 3.70587 17.2942Z" fill="#EBB052"/>
<path d="M2.47058 8.64697C2.87823 8.64697 3.28588 8.64697 3.70588 8.64697C3.70588 9.05462 3.70588 9.46227 3.70588 9.88227C4.11352 9.88227 4.52117 9.88227 4.94117 9.88227C4.94117 10.2899 4.94117 10.6976 4.94117 11.1176C4.12588 11.1176 3.31058 11.1176 2.47058 11.1176C2.47058 10.3023 2.47058 9.48697 2.47058 8.64697Z" fill="#1239BB"/>
<path d="M13.5883 1.23535C13.9959 1.23535 14.4036 1.23535 14.8236 1.23535C14.8236 1.643 14.8236 2.05065 14.8236 2.47065C15.2312 2.47065 15.6388 2.47065 16.0588 2.47065C16.0588 2.87829 16.0588 3.28594 16.0588 3.70594C15.2436 3.70594 14.4283 3.70594 13.5883 3.70594C13.5883 2.89065 13.5883 2.07535 13.5883 1.23535Z" fill="black"/>
<path d="M11.1177 14.8235C11.933 14.8235 12.7483 14.8235 13.5883 14.8235C13.5883 15.2311 13.5883 15.6388 13.5883 16.0588C12.773 16.0588 11.9577 16.0588 11.1177 16.0588C11.1177 15.6511 11.1177 15.2435 11.1177 14.8235Z" fill="black"/>
<path d="M3.70587 14.8235C4.52117 14.8235 5.33646 14.8235 6.17646 14.8235C6.17646 15.2311 6.17646 15.6388 6.17646 16.0588C5.36117 16.0588 4.54587 16.0588 3.70587 16.0588C3.70587 15.6511 3.70587 15.2435 3.70587 14.8235Z" fill="black"/>
<path d="M11.1177 13.5881C11.933 13.5881 12.7483 13.5881 13.5883 13.5881C13.5883 13.9958 13.5883 14.4034 13.5883 14.8234C12.773 14.8234 11.9577 14.8234 11.1177 14.8234C11.1177 14.4158 11.1177 14.0081 11.1177 13.5881Z" fill="#5276EC"/>
<path d="M3.70587 13.5881C4.52117 13.5881 5.33646 13.5881 6.17646 13.5881C6.17646 13.9958 6.17646 14.4034 6.17646 14.8234C5.36117 14.8234 4.54587 14.8234 3.70587 14.8234C3.70587 14.4158 3.70587 14.0081 3.70587 13.5881Z" fill="#5276EC"/>
<path d="M14.8235 11.1177C15.2312 11.1177 15.6388 11.1177 16.0588 11.1177C16.0588 11.933 16.0588 12.7483 16.0588 13.5883C15.6512 13.5883 15.2435 13.5883 14.8235 13.5883C14.8235 12.773 14.8235 11.9577 14.8235 11.1177Z" fill="black"/>
<path d="M1.23529 11.1177C1.64294 11.1177 2.05058 11.1177 2.47058 11.1177C2.47058 11.933 2.47058 12.7483 2.47058 13.5883C2.06294 13.5883 1.65529 13.5883 1.23529 13.5883C1.23529 12.773 1.23529 11.9577 1.23529 11.1177Z" fill="black"/>
<path d="M16.0588 6.17651C16.4665 6.17651 16.8741 6.17651 17.2941 6.17651C17.2941 6.99181 17.2941 7.8071 17.2941 8.6471C16.8865 8.6471 16.4788 8.6471 16.0588 8.6471C16.0588 7.83181 16.0588 7.01651 16.0588 6.17651Z" fill="black"/>
<path d="M1.23529 3.70581C1.64294 3.70581 2.05058 3.70581 2.47058 3.70581C2.47058 4.5211 2.47058 5.3364 2.47058 6.1764C2.06294 6.1764 1.65529 6.1764 1.23529 6.1764C1.23529 5.3611 1.23529 4.54581 1.23529 3.70581Z" fill="black"/>
<path d="M3.70587 1.23535C4.52117 1.23535 5.33646 1.23535 6.17646 1.23535C6.17646 1.643 6.17646 2.05065 6.17646 2.47065C5.36117 2.47065 4.54587 2.47065 3.70587 2.47065C3.70587 2.063 3.70587 1.65535 3.70587 1.23535Z" fill="black"/>
<path d="M14.8235 18.5293C15.2312 18.5293 15.6388 18.5293 16.0588 18.5293C16.0588 18.9369 16.0588 19.3446 16.0588 19.7646C15.6512 19.7646 15.2435 19.7646 14.8235 19.7646C14.8235 19.3569 14.8235 18.9493 14.8235 18.5293Z" fill="#EBB052"/>
<path d="M14.8235 17.2942C15.2312 17.2942 15.6388 17.2942 16.0588 17.2942C16.0588 17.7018 16.0588 18.1095 16.0588 18.5295C15.6512 18.5295 15.2435 18.5295 14.8235 18.5295C14.8235 18.1218 14.8235 17.7142 14.8235 17.2942Z" fill="black"/>
<path d="M2.47058 17.2942C2.87823 17.2942 3.28588 17.2942 3.70588 17.2942C3.70588 17.7018 3.70588 18.1095 3.70588 18.5295C3.29823 18.5295 2.89058 18.5295 2.47058 18.5295C2.47058 18.1218 2.47058 17.7142 2.47058 17.2942Z" fill="#D28C1D"/>
<path d="M1.23529 17.2942C1.64294 17.2942 2.05058 17.2942 2.47058 17.2942C2.47058 17.7018 2.47058 18.1095 2.47058 18.5295C2.06294 18.5295 1.65529 18.5295 1.23529 18.5295C1.23529 18.1218 1.23529 17.7142 1.23529 17.2942Z" fill="black"/>
<path d="M13.5883 16.0588C13.9959 16.0588 14.4036 16.0588 14.8236 16.0588C14.8236 16.4665 14.8236 16.8741 14.8236 17.2941C14.4159 17.2941 14.0083 17.2941 13.5883 17.2941C13.5883 16.8865 13.5883 16.4788 13.5883 16.0588Z" fill="black"/>
<path d="M11.1177 16.0588C11.5253 16.0588 11.933 16.0588 12.353 16.0588C12.353 16.4665 12.353 16.8741 12.353 17.2941C11.9453 17.2941 11.5377 17.2941 11.1177 17.2941C11.1177 16.8865 11.1177 16.4788 11.1177 16.0588Z" fill="#C38015"/>
<path d="M2.47058 16.0588C2.87823 16.0588 3.28588 16.0588 3.70588 16.0588C3.70588 16.4665 3.70588 16.8741 3.70588 17.2941C3.29823 17.2941 2.89058 17.2941 2.47058 17.2941C2.47058 16.8865 2.47058 16.4788 2.47058 16.0588Z" fill="black"/>
<path d="M13.5883 13.5881C13.9959 13.5881 14.4036 13.5881 14.8236 13.5881C14.8236 13.9958 14.8236 14.4034 14.8236 14.8234C14.4159 14.8234 14.0083 14.8234 13.5883 14.8234C13.5883 14.4158 13.5883 14.0081 13.5883 13.5881Z" fill="black"/>
<path d="M2.47058 13.5881C2.87823 13.5881 3.28588 13.5881 3.70588 13.5881C3.70588 13.9958 3.70588 14.4034 3.70588 14.8234C3.29823 14.8234 2.89058 14.8234 2.47058 14.8234C2.47058 14.4158 2.47058 14.0081 2.47058 13.5881Z" fill="black"/>
<path d="M7.41174 12.353C7.81939 12.353 8.22704 12.353 8.64704 12.353C8.64704 12.7607 8.64704 13.1683 8.64704 13.5883C8.23939 13.5883 7.83174 13.5883 7.41174 13.5883C7.41174 13.1807 7.41174 12.773 7.41174 12.353Z" fill="#6D8FFF"/>
<path d="M16.0588 9.88232C16.4665 9.88232 16.8741 9.88232 17.2941 9.88232C17.2941 10.29 17.2941 10.6976 17.2941 11.1176C16.8865 11.1176 16.4788 11.1176 16.0588 11.1176C16.0588 10.71 16.0588 10.3023 16.0588 9.88232Z" fill="black"/>
<path d="M13.5883 9.88232C13.9959 9.88232 14.4036 9.88232 14.8236 9.88232C14.8236 10.29 14.8236 10.6976 14.8236 11.1176C14.4159 11.1176 14.0083 11.1176 13.5883 11.1176C13.5883 10.71 13.5883 10.3023 13.5883 9.88232Z" fill="#1239BB"/>
<path d="M12.353 9.88232C12.7606 9.88232 13.1683 9.88232 13.5883 9.88232C13.5883 10.29 13.5883 10.6976 13.5883 11.1176C13.1806 11.1176 12.773 11.1176 12.353 11.1176C12.353 10.71 12.353 10.3023 12.353 9.88232Z" fill="#5276EC"/>
<path d="M9.88232 9.88232C10.29 9.88232 10.6976 9.88232 11.1176 9.88232C11.1176 10.29 11.1176 10.6976 11.1176 11.1176C10.71 11.1176 10.3023 11.1176 9.88232 11.1176C9.88232 10.71 9.88232 10.3023 9.88232 9.88232Z" fill="#5276EC"/>
<path d="M6.17645 9.88232C6.5841 9.88232 6.99175 9.88232 7.41175 9.88232C7.41175 10.29 7.41175 10.6976 7.41175 11.1176C7.0041 11.1176 6.59645 11.1176 6.17645 11.1176C6.17645 10.71 6.17645 10.3023 6.17645 9.88232Z" fill="#5276EC"/>
<path d="M17.2941 8.64697C17.7018 8.64697 18.1094 8.64697 18.5294 8.64697C18.5294 9.05462 18.5294 9.46227 18.5294 9.88227C18.1218 9.88227 17.7141 9.88227 17.2941 9.88227C17.2941 9.47462 17.2941 9.06697 17.2941 8.64697Z" fill="black"/>
<path d="M11.1177 8.64697C11.5253 8.64697 11.933 8.64697 12.353 8.64697C12.353 9.05462 12.353 9.46227 12.353 9.88227C11.9453 9.88227 11.5377 9.88227 11.1177 9.88227C11.1177 9.47462 11.1177 9.06697 11.1177 8.64697Z" fill="#5276EC"/>
<path d="M14.8235 6.17651C15.2312 6.17651 15.6388 6.17651 16.0588 6.17651C16.0588 6.58416 16.0588 6.99181 16.0588 7.41181C15.6512 7.41181 15.2435 7.41181 14.8235 7.41181C14.8235 7.00416 14.8235 6.59651 14.8235 6.17651Z" fill="#6D8FFF"/>
<path d="M8.64703 6.17651C9.05468 6.17651 9.46233 6.17651 9.88233 6.17651C9.88233 6.58416 9.88233 6.99181 9.88233 7.41181C9.47468 7.41181 9.06703 7.41181 8.64703 7.41181C8.64703 7.00416 8.64703 6.59651 8.64703 6.17651Z" fill="#5276EC"/>
<path d="M6.17645 6.17651C6.5841 6.17651 6.99175 6.17651 7.41175 6.17651C7.41175 6.58416 7.41175 6.99181 7.41175 7.41181C7.0041 7.41181 6.59645 7.41181 6.17645 7.41181C6.17645 7.00416 6.17645 6.59651 6.17645 6.17651Z" fill="#5276EC"/>
<path d="M3.70587 6.17651C4.11352 6.17651 4.52117 6.17651 4.94117 6.17651C4.94117 6.58416 4.94117 6.99181 4.94117 7.41181C4.53352 7.41181 4.12587 7.41181 3.70587 7.41181C3.70587 7.00416 3.70587 6.59651 3.70587 6.17651Z" fill="#6D8FFF"/>
<path d="M14.8235 4.94116C15.2312 4.94116 15.6388 4.94116 16.0588 4.94116C16.0588 5.34881 16.0588 5.75646 16.0588 6.17646C15.6512 6.17646 15.2435 6.17646 14.8235 6.17646C14.8235 5.76881 14.8235 5.36116 14.8235 4.94116Z" fill="black"/>
<path d="M13.5883 4.94116C13.9959 4.94116 14.4036 4.94116 14.8236 4.94116C14.8236 5.34881 14.8236 5.75646 14.8236 6.17646C14.4159 6.17646 14.0083 6.17646 13.5883 6.17646C13.5883 5.76881 13.5883 5.36116 13.5883 4.94116Z" fill="#5276EC"/>
<path d="M11.1177 4.94116C11.5253 4.94116 11.933 4.94116 12.353 4.94116C12.353 5.34881 12.353 5.75646 12.353 6.17646C11.9453 6.17646 11.5377 6.17646 11.1177 6.17646C11.1177 5.76881 11.1177 5.36116 11.1177 4.94116Z" fill="#6D8FFF"/>
<path d="M7.41174 4.94116C7.81939 4.94116 8.22704 4.94116 8.64704 4.94116C8.64704 5.34881 8.64704 5.75646 8.64704 6.17646C8.23939 6.17646 7.83174 6.17646 7.41174 6.17646C7.41174 5.76881 7.41174 5.36116 7.41174 4.94116Z" fill="#5276EC"/>
<path d="M16.0588 3.70581C16.4665 3.70581 16.8741 3.70581 17.2941 3.70581C17.2941 4.11346 17.2941 4.5211 17.2941 4.9411C16.8865 4.9411 16.4788 4.9411 16.0588 4.9411C16.0588 4.53346 16.0588 4.12581 16.0588 3.70581Z" fill="black"/>
<path d="M11.1177 2.4707C11.5253 2.4707 11.933 2.4707 12.353 2.4707C12.353 2.87835 12.353 3.286 12.353 3.706C11.9453 3.706 11.5377 3.706 11.1177 3.706C11.1177 3.29835 11.1177 2.8907 11.1177 2.4707Z" fill="#6D8FFF"/>
<path d="M4.94116 2.4707C5.34881 2.4707 5.75646 2.4707 6.17646 2.4707C6.17646 2.87835 6.17646 3.286 6.17646 3.706C5.76881 3.706 5.36116 3.706 4.94116 3.706C4.94116 3.29835 4.94116 2.8907 4.94116 2.4707Z" fill="#6D8FFF"/>
<path d="M2.47058 2.4707C2.87823 2.4707 3.28588 2.4707 3.70588 2.4707C3.70588 2.87835 3.70588 3.286 3.70588 3.706C3.29823 3.706 2.89058 3.706 2.47058 3.706C2.47058 3.29835 2.47058 2.8907 2.47058 2.4707Z" fill="black"/>
<path d="M11.1177 1.23535C11.5253 1.23535 11.933 1.23535 12.353 1.23535C12.353 1.643 12.353 2.05065 12.353 2.47065C11.9453 2.47065 11.5377 2.47065 11.1177 2.47065C11.1177 2.063 11.1177 1.65535 11.1177 1.23535Z" fill="black"/>
<path d="M9.88232 1.23535C10.29 1.23535 10.6976 1.23535 11.1176 1.23535C11.1176 1.643 11.1176 2.05065 11.1176 2.47065C10.71 2.47065 10.3023 2.47065 9.88232 2.47065C9.88232 2.063 9.88232 1.65535 9.88232 1.23535Z" fill="#5276EC"/>
<path d="M6.17645 1.23535C6.5841 1.23535 6.99175 1.23535 7.41175 1.23535C7.41175 1.643 7.41175 2.05065 7.41175 2.47065C7.0041 2.47065 6.59645 2.47065 6.17645 2.47065C6.17645 2.063 6.17645 1.65535 6.17645 1.23535Z" fill="#5276EC"/>
<path d="M12.353 0C12.7606 0 13.1683 0 13.5883 0C13.5883 0.407647 13.5883 0.815294 13.5883 1.23529C13.1806 1.23529 12.773 1.23529 12.353 1.23529C12.353 0.827647 12.353 0.42 12.353 0Z" fill="black"/>
</svg>
