<svg width="50" height="54" viewBox="0 0 50 54" fill="none" xmlns="http://www.w3.org/2000/svg">
<path d="M15.2174 0C16.6522 0 18.087 0 19.5652 0C19.5652 0.7128 19.5652 1.4256 19.5652 2.16C21 2.16 22.4348 2.16 23.913 2.16C23.913 2.8728 23.913 3.5856 23.913 4.32C24.6304 4.32 25.3478 4.32 26.087 4.32C26.087 5.0328 26.087 5.7456 26.087 6.48C26.8043 6.48 27.5217 6.48 28.2609 6.48C28.2609 5.7672 28.2609 5.0544 28.2609 4.32C28.9783 4.32 29.6957 4.32 30.4348 4.32C30.4348 5.0328 30.4348 5.7456 30.4348 6.48C31.8696 6.48 33.3043 6.48 34.7826 6.48C34.7826 5.7672 34.7826 5.0544 34.7826 4.32C38.3696 4.32 41.9565 4.32 45.6522 4.32C45.6522 5.0328 45.6522 5.7456 45.6522 6.48C46.3696 6.48 47.087 6.48 47.8261 6.48C47.8261 7.1928 47.8261 7.9056 47.8261 8.64C48.5435 8.64 49.2609 8.64 50 8.64C50 9.3528 50 10.0656 50 10.8C44.9783 10.8 39.9565 10.8 34.7826 10.8C34.7826 12.2256 34.7826 13.6512 34.7826 15.12C33.3478 15.12 31.913 15.12 30.4348 15.12C30.4348 13.6944 30.4348 12.2688 30.4348 10.8C29.7174 10.8 29 10.8 28.2609 10.8C28.2609 12.2256 28.2609 13.6512 28.2609 15.12C26.1087 15.12 23.9565 15.12 21.7391 15.12C21.7391 17.2584 21.7391 19.3968 21.7391 21.6C22.4565 21.6 23.1739 21.6 23.913 21.6C23.913 22.3128 23.913 23.0256 23.913 23.76C24.6304 23.76 25.3478 23.76 26.087 23.76C26.087 24.4728 26.087 25.1856 26.087 25.92C26.8043 25.92 27.5217 25.92 28.2609 25.92C28.2609 26.6328 28.2609 27.3456 28.2609 28.08C27.5435 28.08 26.8261 28.08 26.087 28.08C26.087 28.7928 26.087 29.5056 26.087 30.24C25.3696 30.24 24.6522 30.24 23.913 30.24C23.913 30.9528 23.913 31.6656 23.913 32.4C23.1957 32.4 22.4783 32.4 21.7391 32.4C21.7391 34.5384 21.7391 36.6768 21.7391 38.88C23.8913 38.88 26.0435 38.88 28.2609 38.88C28.2609 40.3056 28.2609 41.7312 28.2609 43.2C28.9783 43.2 29.6957 43.2 30.4348 43.2C30.4348 41.7744 30.4348 40.3488 30.4348 38.88C31.8696 38.88 33.3043 38.88 34.7826 38.88C34.7826 40.3056 34.7826 41.7312 34.7826 43.2C39.8043 43.2 44.8261 43.2 50 43.2C50 43.9128 50 44.6256 50 45.36C49.2826 45.36 48.5652 45.36 47.8261 45.36C47.8261 46.0728 47.8261 46.7856 47.8261 47.52C47.1087 47.52 46.3913 47.52 45.6522 47.52C45.6522 48.2328 45.6522 48.9456 45.6522 49.68C42.0652 49.68 38.4783 49.68 34.7826 49.68C34.7826 48.9672 34.7826 48.2544 34.7826 47.52C33.3478 47.52 31.913 47.52 30.4348 47.52C30.4348 48.2328 30.4348 48.9456 30.4348 49.68C29.7174 49.68 29 49.68 28.2609 49.68C28.2609 48.9672 28.2609 48.2544 28.2609 47.52C27.5435 47.52 26.8261 47.52 26.087 47.52C26.087 48.2328 26.087 48.9456 26.087 49.68C25.3696 49.68 24.6522 49.68 23.913 49.68C23.913 50.3928 23.913 51.1056 23.913 51.84C22.4783 51.84 21.0435 51.84 19.5652 51.84C19.5652 52.5528 19.5652 53.2656 19.5652 54C18.1304 54 16.6957 54 15.2174 54C15.2174 53.2872 15.2174 52.5744 15.2174 51.84C14.5 51.84 13.7826 51.84 13.0435 51.84C13.0435 51.1272 13.0435 50.4144 13.0435 49.68C12.3261 49.68 11.6087 49.68 10.8696 49.68C10.8696 48.9672 10.8696 48.2544 10.8696 47.52C10.1522 47.52 9.43478 47.52 8.69565 47.52C8.69565 46.8072 8.69565 46.0944 8.69565 45.36C7.97826 45.36 7.26087 45.36 6.52174 45.36C6.52174 42.5088 6.52174 39.6576 6.52174 36.72C5.80435 36.72 5.08696 36.72 4.34783 36.72C4.34783 36.0072 4.34783 35.2944 4.34783 34.56C3.63043 34.56 2.91304 34.56 2.17391 34.56C2.17391 33.8472 2.17391 33.1344 2.17391 32.4C1.45652 32.4 0.73913 32.4 0 32.4C0 29.5488 0 26.6976 0 23.76C0.717391 23.76 1.43478 23.76 2.17391 23.76C2.17391 23.0472 2.17391 22.3344 2.17391 21.6C2.8913 21.6 3.6087 21.6 4.34783 21.6C4.34783 20.8872 4.34783 20.1744 4.34783 19.44C5.06522 19.44 5.78261 19.44 6.52174 19.44C6.52174 15.876 6.52174 12.312 6.52174 8.64C7.23913 8.64 7.95652 8.64 8.69565 8.64C8.69565 7.9272 8.69565 7.2144 8.69565 6.48C9.41304 6.48 10.1304 6.48 10.8696 6.48C10.8696 5.7672 10.8696 5.0544 10.8696 4.32C11.587 4.32 12.3043 4.32 13.0435 4.32C13.0435 3.6072 13.0435 2.8944 13.0435 2.16C13.7609 2.16 14.4783 2.16 15.2174 2.16C15.2174 1.4472 15.2174 0.7344 15.2174 0Z" fill="#9F9F9F"/>
<path d="M17.3913 15.1201C18.8261 15.1201 20.2609 15.1201 21.7391 15.1201C21.7391 17.2585 21.7391 19.3969 21.7391 21.6001C22.4565 21.6001 23.1739 21.6001 23.913 21.6001C23.913 22.3129 23.913 23.0257 23.913 23.7601C24.6304 23.7601 25.3478 23.7601 26.087 23.7601C26.087 24.4729 26.087 25.1857 26.087 25.9201C26.8043 25.9201 27.5217 25.9201 28.2609 25.9201C28.2609 26.6329 28.2609 27.3457 28.2609 28.0801C27.5435 28.0801 26.8261 28.0801 26.087 28.0801C26.087 28.7929 26.087 29.5057 26.087 30.2401C25.3696 30.2401 24.6522 30.2401 23.913 30.2401C23.913 30.9529 23.913 31.6657 23.913 32.4001C23.1956 32.4001 22.4783 32.4001 21.7391 32.4001C21.7391 34.5385 21.7391 36.6769 21.7391 38.8801C23.8913 38.8801 26.0435 38.8801 28.2609 38.8801C28.2609 40.3057 28.2609 41.7313 28.2609 43.2001C28.9783 43.2001 29.6956 43.2001 30.4348 43.2001C30.4348 41.7745 30.4348 40.3489 30.4348 38.8801C31.8696 38.8801 33.3043 38.8801 34.7826 38.8801C34.7826 40.3057 34.7826 41.7313 34.7826 43.2001C39.8043 43.2001 44.8261 43.2001 50 43.2001C50 43.9129 50 44.6257 50 45.3601C49.2826 45.3601 48.5652 45.3601 47.8261 45.3601C47.8261 46.0729 47.8261 46.7857 47.8261 47.5201C47.1087 47.5201 46.3913 47.5201 45.6522 47.5201C45.6522 48.2329 45.6522 48.9457 45.6522 49.6801C42.0652 49.6801 38.4783 49.6801 34.7826 49.6801C34.7826 48.9673 34.7826 48.2545 34.7826 47.5201C33.3478 47.5201 31.913 47.5201 30.4348 47.5201C30.4348 48.2329 30.4348 48.9457 30.4348 49.6801C29.7174 49.6801 29 49.6801 28.2609 49.6801C28.2609 48.9673 28.2609 48.2545 28.2609 47.5201C27.5435 47.5201 26.8261 47.5201 26.087 47.5201C26.087 48.2329 26.087 48.9457 26.087 49.6801C25.3696 49.6801 24.6522 49.6801 23.913 49.6801C23.913 50.3929 23.913 51.1057 23.913 51.8401C22.4783 51.8401 21.0435 51.8401 19.5652 51.8401C19.5652 52.5529 19.5652 53.2657 19.5652 54.0001C18.1304 54.0001 16.6956 54.0001 15.2174 54.0001C15.2174 53.2873 15.2174 52.5745 15.2174 51.8401C14.5 51.8401 13.7826 51.8401 13.0435 51.8401C13.0435 51.1273 13.0435 50.4145 13.0435 49.6801C12.3261 49.6801 11.6087 49.6801 10.8696 49.6801C10.8696 48.9673 10.8696 48.2545 10.8696 47.5201C10.1522 47.5201 9.43478 47.5201 8.69565 47.5201C8.69565 38.9665 8.69565 30.4129 8.69565 21.6001C9.41304 21.6001 10.1304 21.6001 10.8696 21.6001C10.8696 23.7385 10.8696 25.8769 10.8696 28.0801C11.587 28.0801 12.3043 28.0801 13.0435 28.0801C13.0435 28.7929 13.0435 29.5057 13.0435 30.2401C15.1956 30.2401 17.3478 30.2401 19.5652 30.2401C19.5652 29.5273 19.5652 28.8145 19.5652 28.0801C20.2826 28.0801 21 28.0801 21.7391 28.0801C21.7391 27.3673 21.7391 26.6545 21.7391 25.9201C21.0217 25.9201 20.3043 25.9201 19.5652 25.9201C19.5652 23.0689 19.5652 20.2177 19.5652 17.2801C18.8478 17.2801 18.1304 17.2801 17.3913 17.2801C17.3913 16.5673 17.3913 15.8545 17.3913 15.1201Z" fill="#7D7D7D"/>
<path d="M6.52174 8.63989C7.23913 8.63989 7.95652 8.63989 8.69565 8.63989C8.69565 12.2039 8.69565 15.7679 8.69565 19.4399C9.41304 19.4399 10.1304 19.4399 10.8696 19.4399C10.8696 20.1527 10.8696 20.8655 10.8696 21.5999C10.1522 21.5999 9.43478 21.5999 8.69565 21.5999C8.69565 29.4407 8.69565 37.2815 8.69565 45.3599C7.97826 45.3599 7.26087 45.3599 6.52174 45.3599C6.52174 42.5087 6.52174 39.6575 6.52174 36.7199C5.80435 36.7199 5.08696 36.7199 4.34783 36.7199C4.34783 36.0071 4.34783 35.2943 4.34783 34.5599C3.63043 34.5599 2.91304 34.5599 2.17391 34.5599C2.17391 33.8471 2.17391 33.1343 2.17391 32.3999C1.45652 32.3999 0.73913 32.3999 0 32.3999C0 29.5487 0 26.6975 0 23.7599C0.717391 23.7599 1.43478 23.7599 2.17391 23.7599C2.17391 23.0471 2.17391 22.3343 2.17391 21.5999C2.8913 21.5999 3.6087 21.5999 4.34783 21.5999C4.34783 20.8871 4.34783 20.1743 4.34783 19.4399C5.06522 19.4399 5.78261 19.4399 6.52174 19.4399C6.52174 15.8759 6.52174 12.3119 6.52174 8.63989Z" fill="#838383"/>
<path d="M19.5652 4.32007C21.7174 4.32007 23.8696 4.32007 26.087 4.32007C26.087 5.03287 26.087 5.74567 26.087 6.48007C26.8043 6.48007 27.5217 6.48007 28.2609 6.48007C28.2609 5.76727 28.2609 5.05447 28.2609 4.32007C28.9783 4.32007 29.6956 4.32007 30.4348 4.32007C30.4348 5.03287 30.4348 5.74567 30.4348 6.48007C31.8696 6.48007 33.3043 6.48007 34.7826 6.48007C34.7826 5.76727 34.7826 5.05447 34.7826 4.32007C38.3696 4.32007 41.9565 4.32007 45.6522 4.32007C45.6522 5.03287 45.6522 5.74567 45.6522 6.48007C46.3696 6.48007 47.087 6.48007 47.8261 6.48007C47.8261 7.19287 47.8261 7.90567 47.8261 8.64007C48.5435 8.64007 49.2609 8.64007 50 8.64007C50 9.35287 50 10.0657 50 10.8001C44.9783 10.8001 39.9565 10.8001 34.7826 10.8001C34.7826 12.2257 34.7826 13.6513 34.7826 15.1201C33.3478 15.1201 31.913 15.1201 30.4348 15.1201C30.4348 13.6945 30.4348 12.2689 30.4348 10.8001C29 10.8001 27.5652 10.8001 26.087 10.8001C26.087 10.0873 26.087 9.37447 26.087 8.64007C25.3696 8.64007 24.6522 8.64007 23.913 8.64007C23.913 7.92727 23.913 7.21447 23.913 6.48007C22.4783 6.48007 21.0435 6.48007 19.5652 6.48007C19.5652 5.76727 19.5652 5.05447 19.5652 4.32007Z" fill="black"/>
<path d="M19.5652 4.32007C21.7174 4.32007 23.8696 4.32007 26.087 4.32007C26.087 5.03287 26.087 5.74567 26.087 6.48007C26.8043 6.48007 27.5217 6.48007 28.2609 6.48007C28.2609 5.76727 28.2609 5.05447 28.2609 4.32007C28.9783 4.32007 29.6956 4.32007 30.4348 4.32007C30.4348 5.03287 30.4348 5.74567 30.4348 6.48007C31.8696 6.48007 33.3043 6.48007 34.7826 6.48007C34.7826 9.33127 34.7826 12.1825 34.7826 15.1201C33.3478 15.1201 31.913 15.1201 30.4348 15.1201C30.4348 13.6945 30.4348 12.2689 30.4348 10.8001C29 10.8001 27.5652 10.8001 26.087 10.8001C26.087 10.0873 26.087 9.37447 26.087 8.64007C25.3696 8.64007 24.6522 8.64007 23.913 8.64007C23.913 7.92727 23.913 7.21447 23.913 6.48007C22.4783 6.48007 21.0435 6.48007 19.5652 6.48007C19.5652 5.76727 19.5652 5.05447 19.5652 4.32007Z" fill="black"/>
<path d="M0 23.76C1.43478 23.76 2.86957 23.76 4.34783 23.76C4.34783 26.6112 4.34783 29.4624 4.34783 32.4C5.06522 32.4 5.78261 32.4 6.52174 32.4C6.52174 33.1128 6.52174 33.8256 6.52174 34.56C7.23913 34.56 7.95652 34.56 8.69565 34.56C8.69565 38.124 8.69565 41.688 8.69565 45.36C7.97826 45.36 7.26087 45.36 6.52174 45.36C6.52174 42.5088 6.52174 39.6576 6.52174 36.72C5.80435 36.72 5.08696 36.72 4.34783 36.72C4.34783 36.0072 4.34783 35.2944 4.34783 34.56C3.63043 34.56 2.91304 34.56 2.17391 34.56C2.17391 33.8472 2.17391 33.1344 2.17391 32.4C1.45652 32.4 0.73913 32.4 0 32.4C0 29.5488 0 26.6976 0 23.76Z" fill="black"/>
<path d="M8.69565 36.72C9.41304 36.72 10.1304 36.72 10.8696 36.72C10.8696 39.5712 10.8696 42.4224 10.8696 45.36C11.587 45.36 12.3043 45.36 13.0435 45.36C13.0435 46.0728 13.0435 46.7856 13.0435 47.52C13.7609 47.52 14.4783 47.52 15.2174 47.52C15.2174 48.2328 15.2174 48.9456 15.2174 49.68C16.6522 49.68 18.087 49.68 19.5652 49.68C19.5652 51.1056 19.5652 52.5312 19.5652 54C18.1304 54 16.6956 54 15.2174 54C15.2174 53.2872 15.2174 52.5744 15.2174 51.84C14.5 51.84 13.7826 51.84 13.0435 51.84C13.0435 51.1272 13.0435 50.4144 13.0435 49.68C12.3261 49.68 11.6087 49.68 10.8696 49.68C10.8696 48.9672 10.8696 48.2544 10.8696 47.52C10.1522 47.52 9.43478 47.52 8.69565 47.52C8.69565 43.956 8.69565 40.392 8.69565 36.72Z" fill="black"/>
<path d="M17.3913 15.1201C18.8261 15.1201 20.2609 15.1201 21.7391 15.1201C21.7391 17.2585 21.7391 19.3969 21.7391 21.6001C22.4565 21.6001 23.1739 21.6001 23.913 21.6001C23.913 22.3129 23.913 23.0257 23.913 23.7601C24.6304 23.7601 25.3478 23.7601 26.087 23.7601C26.087 24.4729 26.087 25.1857 26.087 25.9201C26.8043 25.9201 27.5217 25.9201 28.2609 25.9201C28.2609 26.6329 28.2609 27.3457 28.2609 28.0801C27.5435 28.0801 26.8261 28.0801 26.087 28.0801C26.087 28.7929 26.087 29.5057 26.087 30.2401C25.3696 30.2401 24.6522 30.2401 23.913 30.2401C23.913 29.5273 23.913 28.8145 23.913 28.0801C23.1957 28.0801 22.4783 28.0801 21.7391 28.0801C21.7391 27.3673 21.7391 26.6545 21.7391 25.9201C21.0217 25.9201 20.3043 25.9201 19.5652 25.9201C19.5652 23.0689 19.5652 20.2177 19.5652 17.2801C18.8478 17.2801 18.1304 17.2801 17.3913 17.2801C17.3913 16.5673 17.3913 15.8545 17.3913 15.1201Z" fill="#A0A0A0"/>
<path d="M6.52174 8.63989C7.23913 8.63989 7.95652 8.63989 8.69565 8.63989C8.69565 12.2039 8.69565 15.7679 8.69565 19.4399C9.41304 19.4399 10.1304 19.4399 10.8696 19.4399C10.8696 20.1527 10.8696 20.8655 10.8696 21.5999C9.43478 21.5999 8 21.5999 6.52174 21.5999C6.52174 22.3127 6.52174 23.0255 6.52174 23.7599C5.08696 23.7599 3.65217 23.7599 2.17391 23.7599C2.17391 23.0471 2.17391 22.3343 2.17391 21.5999C2.8913 21.5999 3.60869 21.5999 4.34783 21.5999C4.34783 20.8871 4.34783 20.1743 4.34783 19.4399C5.06522 19.4399 5.78261 19.4399 6.52174 19.4399C6.52174 15.8759 6.52174 12.3119 6.52174 8.63989Z" fill="black"/>
<path d="M15.2174 23.76C16.6522 23.76 18.087 23.76 19.5652 23.76C19.5652 24.4728 19.5652 25.1856 19.5652 25.92C20.2826 25.92 21 25.92 21.7391 25.92C21.7391 26.6328 21.7391 27.3456 21.7391 28.08C21.0217 28.08 20.3043 28.08 19.5652 28.08C19.5652 28.7928 19.5652 29.5056 19.5652 30.24C17.413 30.24 15.2609 30.24 13.0435 30.24C13.0435 28.8144 13.0435 27.3888 13.0435 25.92C13.7609 25.92 14.4783 25.92 15.2174 25.92C15.2174 25.2072 15.2174 24.4944 15.2174 23.76Z" fill="#B1FAFF"/>
<path d="M15.2174 0C16.6522 0 18.087 0 19.5652 0C19.5652 0.7128 19.5652 1.4256 19.5652 2.16C21 2.16 22.4348 2.16 23.913 2.16C23.913 2.8728 23.913 3.5856 23.913 4.32C22.4783 4.32 21.0435 4.32 19.5652 4.32C19.5652 5.0328 19.5652 5.7456 19.5652 6.48C18.1304 6.48 16.6957 6.48 15.2174 6.48C15.2174 5.7672 15.2174 5.0544 15.2174 4.32C14.5 4.32 13.7826 4.32 13.0435 4.32C13.0435 3.6072 13.0435 2.8944 13.0435 2.16C13.7609 2.16 14.4783 2.16 15.2174 2.16C15.2174 1.4472 15.2174 0.7344 15.2174 0Z" fill="black"/>
<path d="M34.7826 43.2C39.8043 43.2 44.8261 43.2 50 43.2C50 43.9128 50 44.6256 50 45.36C49.2826 45.36 48.5652 45.36 47.8261 45.36C47.8261 46.0728 47.8261 46.7856 47.8261 47.52C47.1087 47.52 46.3913 47.52 45.6522 47.52C45.6522 46.8072 45.6522 46.0944 45.6522 45.36C42.0652 45.36 38.4783 45.36 34.7826 45.36C34.7826 44.6472 34.7826 43.9344 34.7826 43.2Z" fill="#737373"/>
<path d="M30.4348 38.8799C31.8696 38.8799 33.3043 38.8799 34.7826 38.8799C34.7826 41.0183 34.7826 43.1567 34.7826 45.3599C33.3478 45.3599 31.913 45.3599 30.4348 45.3599C30.4348 43.2215 30.4348 41.0831 30.4348 38.8799Z" fill="#959595"/>
<path d="M34.7826 47.52C38.3696 47.52 41.9565 47.52 45.6522 47.52C45.6522 48.2328 45.6522 48.9456 45.6522 49.68C42.0652 49.68 38.4783 49.68 34.7826 49.68C34.7826 48.9672 34.7826 48.2544 34.7826 47.52Z" fill="#EAEAEA"/>
<path d="M34.7826 45.3601C38.3696 45.3601 41.9565 45.3601 45.6522 45.3601C45.6522 46.0729 45.6522 46.7857 45.6522 47.5201C42.0652 47.5201 38.4783 47.5201 34.7826 47.5201C34.7826 46.8073 34.7826 46.0945 34.7826 45.3601Z" fill="black"/>
<path d="M34.7826 8.63989C38.3696 8.63989 41.9565 8.63989 45.6522 8.63989C45.6522 9.35269 45.6522 10.0655 45.6522 10.7999C42.0652 10.7999 38.4783 10.7999 34.7826 10.7999C34.7826 10.0871 34.7826 9.37429 34.7826 8.63989Z" fill="#A0A0A0"/>
<path d="M8.69565 8.63989C9.41304 8.63989 10.1304 8.63989 10.8696 8.63989C10.8696 12.2039 10.8696 15.7679 10.8696 19.4399C10.1522 19.4399 9.43478 19.4399 8.69565 19.4399C8.69565 15.8759 8.69565 12.3119 8.69565 8.63989Z" fill="black"/>
<path d="M6.52174 8.63989C7.23913 8.63989 7.95652 8.63989 8.69565 8.63989C8.69565 12.2039 8.69565 15.7679 8.69565 19.4399C7.97826 19.4399 7.26087 19.4399 6.52174 19.4399C6.52174 15.8759 6.52174 12.3119 6.52174 8.63989Z" fill="#EAEAEA"/>
<path d="M34.7826 4.32007C38.3696 4.32007 41.9565 4.32007 45.6522 4.32007C45.6522 5.03287 45.6522 5.74567 45.6522 6.48007C42.0652 6.48007 38.4783 6.48007 34.7826 6.48007C34.7826 5.76727 34.7826 5.05447 34.7826 4.32007Z" fill="#EAEAEA"/>
<path d="M6.52174 36.72C7.23913 36.72 7.95652 36.72 8.69565 36.72C8.69565 39.5712 8.69565 42.4224 8.69565 45.36C7.97826 45.36 7.26087 45.36 6.52174 45.36C6.52174 42.5088 6.52174 39.6576 6.52174 36.72Z" fill="#EAEAEA"/>
<path d="M19.5652 32.3999C20.2826 32.3999 21 32.3999 21.7391 32.3999C21.7391 34.5383 21.7391 36.6767 21.7391 38.8799C20.3043 38.8799 18.8696 38.8799 17.3913 38.8799C17.3913 38.1671 17.3913 37.4543 17.3913 36.7199C18.1087 36.7199 18.8261 36.7199 19.5652 36.7199C19.5652 35.2943 19.5652 33.8687 19.5652 32.3999Z" fill="black"/>
<path d="M19.5652 28.0801C21 28.0801 22.4348 28.0801 23.913 28.0801C23.913 29.5057 23.913 30.9313 23.913 32.4001C22.4783 32.4001 21.0435 32.4001 19.5652 32.4001C19.5652 30.9745 19.5652 29.5489 19.5652 28.0801Z" fill="#737373"/>
<path d="M13.0435 25.9199C13.7609 25.9199 14.4783 25.9199 15.2174 25.9199C15.2174 26.6327 15.2174 27.3455 15.2174 28.0799C16.6522 28.0799 18.087 28.0799 19.5652 28.0799C19.5652 28.7927 19.5652 29.5055 19.5652 30.2399C17.413 30.2399 15.2609 30.2399 13.0435 30.2399C13.0435 28.8143 13.0435 27.3887 13.0435 25.9199Z" fill="#49C6CF"/>
<path d="M23.913 23.76C24.6304 23.76 25.3478 23.76 26.087 23.76C26.087 24.4728 26.087 25.1856 26.087 25.92C26.8043 25.92 27.5217 25.92 28.2609 25.92C28.2609 26.6328 28.2609 27.3456 28.2609 28.08C27.5435 28.08 26.8261 28.08 26.087 28.08C26.087 28.7928 26.087 29.5056 26.087 30.24C25.3696 30.24 24.6522 30.24 23.913 30.24C23.913 28.1016 23.913 25.9632 23.913 23.76Z" fill="#737373"/>
<path d="M4.34782 23.76C5.06522 23.76 5.78261 23.76 6.52174 23.76C6.52174 26.6112 6.52174 29.4624 6.52174 32.4C5.80435 32.4 5.08695 32.4 4.34782 32.4C4.34782 29.5488 4.34782 26.6976 4.34782 23.76Z" fill="#B1FAFF"/>
<path d="M0 23.76C0.717391 23.76 1.43478 23.76 2.17391 23.76C2.17391 26.6112 2.17391 29.4624 2.17391 32.4C1.45652 32.4 0.73913 32.4 0 32.4C0 29.5488 0 26.6976 0 23.76Z" fill="#EAEAEA"/>
<path d="M17.3913 15.1201C18.8261 15.1201 20.2609 15.1201 21.7391 15.1201C21.7391 17.2585 21.7391 19.3969 21.7391 21.6001C21.0217 21.6001 20.3043 21.6001 19.5652 21.6001C19.5652 20.1745 19.5652 18.7489 19.5652 17.2801C18.8478 17.2801 18.1304 17.2801 17.3913 17.2801C17.3913 16.5673 17.3913 15.8545 17.3913 15.1201Z" fill="black"/>
<path d="M10.8696 4.32007C12.3043 4.32007 13.7391 4.32007 15.2174 4.32007C15.2174 5.03287 15.2174 5.74567 15.2174 6.48007C14.5 6.48007 13.7826 6.48007 13.0435 6.48007C13.0435 7.19287 13.0435 7.90567 13.0435 8.64007C11.6087 8.64007 10.1739 8.64007 8.69565 8.64007C8.69565 7.92727 8.69565 7.21447 8.69565 6.48007C9.41304 6.48007 10.1304 6.48007 10.8696 6.48007C10.8696 5.76727 10.8696 5.05447 10.8696 4.32007Z" fill="black"/>
<path d="M19.5652 4.32007C21.7174 4.32007 23.8696 4.32007 26.087 4.32007C26.087 5.74567 26.087 7.17127 26.087 8.64007C25.3696 8.64007 24.6522 8.64007 23.913 8.64007C23.913 7.92727 23.913 7.21447 23.913 6.48007C22.4783 6.48007 21.0435 6.48007 19.5652 6.48007C19.5652 5.76727 19.5652 5.05447 19.5652 4.32007Z" fill="black"/>
<path d="M21.7391 41.04C23.8913 41.04 26.0435 41.04 28.2609 41.04C28.2609 41.7528 28.2609 42.4656 28.2609 43.2C26.1087 43.2 23.9565 43.2 21.7391 43.2C21.7391 42.4872 21.7391 41.7744 21.7391 41.04Z" fill="#959595"/>
<path d="M21.7391 38.8799C23.8913 38.8799 26.0435 38.8799 28.2609 38.8799C28.2609 39.5927 28.2609 40.3055 28.2609 41.0399C26.1087 41.0399 23.9565 41.0399 21.7391 41.0399C21.7391 40.3271 21.7391 39.6143 21.7391 38.8799Z" fill="black"/>
<path d="M21.7391 12.96C23.8913 12.96 26.0435 12.96 28.2609 12.96C28.2609 13.6728 28.2609 14.3856 28.2609 15.12C26.1087 15.12 23.9565 15.12 21.7391 15.12C21.7391 14.4072 21.7391 13.6944 21.7391 12.96Z" fill="black"/>
<path d="M10.8696 12.96C11.587 12.96 12.3044 12.96 13.0435 12.96C13.0435 15.0984 13.0435 17.2368 13.0435 19.44C12.3261 19.44 11.6087 19.44 10.8696 19.44C10.8696 17.3016 10.8696 15.1632 10.8696 12.96Z" fill="#959595"/>
<path d="M15.2174 51.8401C16.6522 51.8401 18.087 51.8401 19.5652 51.8401C19.5652 52.5529 19.5652 53.2657 19.5652 54.0001C18.1304 54.0001 16.6957 54.0001 15.2174 54.0001C15.2174 53.2873 15.2174 52.5745 15.2174 51.8401Z" fill="#EAEAEA"/>
<path d="M19.5652 49.6799C21 49.6799 22.4348 49.6799 23.913 49.6799C23.913 50.3927 23.913 51.1055 23.913 51.8399C22.4783 51.8399 21.0435 51.8399 19.5652 51.8399C19.5652 51.1271 19.5652 50.4143 19.5652 49.6799Z" fill="#EAEAEA"/>
<path d="M15.2174 49.6799C16.6522 49.6799 18.087 49.6799 19.5652 49.6799C19.5652 50.3927 19.5652 51.1055 19.5652 51.8399C18.1304 51.8399 16.6957 51.8399 15.2174 51.8399C15.2174 51.1271 15.2174 50.4143 15.2174 49.6799Z" fill="black"/>
<path d="M19.5652 47.52C21 47.52 22.4348 47.52 23.913 47.52C23.913 48.2328 23.913 48.9456 23.913 49.68C22.4783 49.68 21.0435 49.68 19.5652 49.68C19.5652 48.9672 19.5652 48.2544 19.5652 47.52Z" fill="black"/>
<path d="M15.2174 47.52C16.6522 47.52 18.087 47.52 19.5652 47.52C19.5652 48.2328 19.5652 48.9456 19.5652 49.68C18.1304 49.68 16.6957 49.68 15.2174 49.68C15.2174 48.9672 15.2174 48.2544 15.2174 47.52Z" fill="#737373"/>
<path d="M30.4348 45.3601C31.8696 45.3601 33.3043 45.3601 34.7826 45.3601C34.7826 46.0729 34.7826 46.7857 34.7826 47.5201C33.3478 47.5201 31.913 47.5201 30.4348 47.5201C30.4348 46.8073 30.4348 46.0945 30.4348 45.3601Z" fill="#EAEAEA"/>
<path d="M30.4348 43.2C31.8696 43.2 33.3043 43.2 34.7826 43.2C34.7826 43.9128 34.7826 44.6256 34.7826 45.36C33.3478 45.36 31.913 45.36 30.4348 45.36C30.4348 44.6472 30.4348 43.9344 30.4348 43.2Z" fill="black"/>
<path d="M30.4348 38.8799C31.8696 38.8799 33.3043 38.8799 34.7826 38.8799C34.7826 39.5927 34.7826 40.3055 34.7826 41.0399C33.3478 41.0399 31.913 41.0399 30.4348 41.0399C30.4348 40.3271 30.4348 39.6143 30.4348 38.8799Z" fill="black"/>
<path d="M17.3913 38.8799C18.8261 38.8799 20.2609 38.8799 21.7391 38.8799C21.7391 39.5927 21.7391 40.3055 21.7391 41.0399C20.3043 41.0399 18.8696 41.0399 17.3913 41.0399C17.3913 40.3271 17.3913 39.6143 17.3913 38.8799Z" fill="#959595"/>
<path d="M17.3913 32.3999C18.1087 32.3999 18.8261 32.3999 19.5652 32.3999C19.5652 33.8255 19.5652 35.2511 19.5652 36.7199C18.8478 36.7199 18.1304 36.7199 17.3913 36.7199C17.3913 35.2943 17.3913 33.8687 17.3913 32.3999Z" fill="#737373"/>
<path d="M15.2174 30.24C16.6522 30.24 18.087 30.24 19.5652 30.24C19.5652 30.9528 19.5652 31.6656 19.5652 32.4C18.1304 32.4 16.6957 32.4 15.2174 32.4C15.2174 31.6872 15.2174 30.9744 15.2174 30.24Z" fill="#A0A0A0"/>
<path d="M13.0435 25.9199C13.7609 25.9199 14.4783 25.9199 15.2174 25.9199C15.2174 27.3455 15.2174 28.7711 15.2174 30.2399C14.5 30.2399 13.7826 30.2399 13.0435 30.2399C13.0435 28.8143 13.0435 27.3887 13.0435 25.9199Z" fill="#AFAFAF"/>
<path d="M21.7391 23.76C22.4565 23.76 23.1739 23.76 23.913 23.76C23.913 25.1856 23.913 26.6112 23.913 28.08C23.1956 28.08 22.4783 28.08 21.7391 28.08C21.7391 26.6544 21.7391 25.2288 21.7391 23.76Z" fill="#A0A0A0"/>
<path d="M15.2174 23.76C16.6522 23.76 18.087 23.76 19.5652 23.76C19.5652 24.4728 19.5652 25.1856 19.5652 25.92C18.1304 25.92 16.6957 25.92 15.2174 25.92C15.2174 25.2072 15.2174 24.4944 15.2174 23.76Z" fill="#6CF2FB"/>
<path d="M15.2174 21.6001C16.6522 21.6001 18.087 21.6001 19.5652 21.6001C19.5652 22.3129 19.5652 23.0257 19.5652 23.7601C18.1304 23.7601 16.6957 23.7601 15.2174 23.7601C15.2174 23.0473 15.2174 22.3345 15.2174 21.6001Z" fill="#A0A0A0"/>
<path d="M17.3913 17.28C18.1087 17.28 18.8261 17.28 19.5652 17.28C19.5652 18.7056 19.5652 20.1312 19.5652 21.6C18.8478 21.6 18.1304 21.6 17.3913 21.6C17.3913 20.1744 17.3913 18.7488 17.3913 17.28Z" fill="#AFAFAF"/>
<path d="M30.4348 12.96C31.8696 12.96 33.3043 12.96 34.7826 12.96C34.7826 13.6728 34.7826 14.3856 34.7826 15.12C33.3478 15.12 31.913 15.12 30.4348 15.12C30.4348 14.4072 30.4348 13.6944 30.4348 12.96Z" fill="black"/>
<path d="M17.3913 12.96C18.8261 12.96 20.2609 12.96 21.7391 12.96C21.7391 13.6728 21.7391 14.3856 21.7391 15.12C20.3043 15.12 18.8696 15.12 17.3913 15.12C17.3913 14.4072 17.3913 13.6944 17.3913 12.96Z" fill="#959595"/>
<path d="M30.4348 10.8C31.8696 10.8 33.3043 10.8 34.7826 10.8C34.7826 11.5128 34.7826 12.2256 34.7826 12.96C33.3478 12.96 31.913 12.96 30.4348 12.96C30.4348 12.2472 30.4348 11.5344 30.4348 10.8Z" fill="#A0A0A0"/>
<path d="M30.4348 8.63989C31.8696 8.63989 33.3043 8.63989 34.7826 8.63989C34.7826 9.35269 34.7826 10.0655 34.7826 10.7999C33.3478 10.7999 31.913 10.7999 30.4348 10.7999C30.4348 10.0871 30.4348 9.37429 30.4348 8.63989Z" fill="black"/>
<path d="M10.8696 8.63989C11.587 8.63989 12.3044 8.63989 13.0435 8.63989C13.0435 10.0655 13.0435 11.4911 13.0435 12.9599C12.3261 12.9599 11.6087 12.9599 10.8696 12.9599C10.8696 11.5343 10.8696 10.1087 10.8696 8.63989Z" fill="#AFAFAF"/>
<path d="M30.4348 6.47998C31.8696 6.47998 33.3043 6.47998 34.7826 6.47998C34.7826 7.19278 34.7826 7.90558 34.7826 8.63998C33.3478 8.63998 31.913 8.63998 30.4348 8.63998C30.4348 7.92718 30.4348 7.21438 30.4348 6.47998Z" fill="#EAEAEA"/>
<path d="M19.5652 6.47998C21 6.47998 22.4348 6.47998 23.913 6.47998C23.913 7.19278 23.913 7.90558 23.913 8.63998C22.4783 8.63998 21.0435 8.63998 19.5652 8.63998C19.5652 7.92718 19.5652 7.21438 19.5652 6.47998Z" fill="#AFAFAF"/>
<path d="M15.2174 4.32007C16.6522 4.32007 18.087 4.32007 19.5652 4.32007C19.5652 5.03287 19.5652 5.74567 19.5652 6.48007C18.1304 6.48007 16.6957 6.48007 15.2174 6.48007C15.2174 5.76727 15.2174 5.05447 15.2174 4.32007Z" fill="#AFAFAF"/>
<path d="M19.5652 2.15991C21 2.15991 22.4348 2.15991 23.913 2.15991C23.913 2.87271 23.913 3.58551 23.913 4.31991C22.4783 4.31991 21.0435 4.31991 19.5652 4.31991C19.5652 3.60711 19.5652 2.89431 19.5652 2.15991Z" fill="#EAEAEA"/>
<path d="M15.2174 0C16.6522 0 18.087 0 19.5652 0C19.5652 0.7128 19.5652 1.4256 19.5652 2.16C18.1304 2.16 16.6957 2.16 15.2174 2.16C15.2174 1.4472 15.2174 0.7344 15.2174 0Z" fill="#EAEAEA"/>
<path d="M13.0435 49.6799C13.7609 49.6799 14.4783 49.6799 15.2174 49.6799C15.2174 50.3927 15.2174 51.1055 15.2174 51.8399C14.5 51.8399 13.7826 51.8399 13.0435 51.8399C13.0435 51.1271 13.0435 50.4143 13.0435 49.6799Z" fill="#EAEAEA"/>
<path d="M28.2609 47.52C28.9783 47.52 29.6957 47.52 30.4348 47.52C30.4348 48.2328 30.4348 48.9456 30.4348 49.68C29.7174 49.68 29 49.68 28.2609 49.68C28.2609 48.9672 28.2609 48.2544 28.2609 47.52Z" fill="#EAEAEA"/>
<path d="M23.913 47.52C24.6304 47.52 25.3478 47.52 26.087 47.52C26.087 48.2328 26.087 48.9456 26.087 49.68C25.3696 49.68 24.6522 49.68 23.913 49.68C23.913 48.9672 23.913 48.2544 23.913 47.52Z" fill="#EAEAEA"/>
<path d="M13.0435 47.52C13.7609 47.52 14.4783 47.52 15.2174 47.52C15.2174 48.2328 15.2174 48.9456 15.2174 49.68C14.5 49.68 13.7826 49.68 13.0435 49.68C13.0435 48.9672 13.0435 48.2544 13.0435 47.52Z" fill="black"/>
<path d="M10.8696 47.52C11.587 47.52 12.3044 47.52 13.0435 47.52C13.0435 48.2328 13.0435 48.9456 13.0435 49.68C12.3261 49.68 11.6087 49.68 10.8696 49.68C10.8696 48.9672 10.8696 48.2544 10.8696 47.52Z" fill="#EAEAEA"/>
<path d="M45.6522 45.3601C46.3696 45.3601 47.087 45.3601 47.8261 45.3601C47.8261 46.0729 47.8261 46.7857 47.8261 47.5201C47.1087 47.5201 46.3913 47.5201 45.6522 47.5201C45.6522 46.8073 45.6522 46.0945 45.6522 45.3601Z" fill="#EAEAEA"/>
<path d="M28.2609 45.3601C28.9783 45.3601 29.6957 45.3601 30.4348 45.3601C30.4348 46.0729 30.4348 46.7857 30.4348 47.5201C29.7174 47.5201 29 47.5201 28.2609 47.5201C28.2609 46.8073 28.2609 46.0945 28.2609 45.3601Z" fill="black"/>
<path d="M26.087 45.3601C26.8044 45.3601 27.5217 45.3601 28.2609 45.3601C28.2609 46.0729 28.2609 46.7857 28.2609 47.5201C27.5435 47.5201 26.8261 47.5201 26.087 47.5201C26.087 46.8073 26.087 46.0945 26.087 45.3601Z" fill="#EAEAEA"/>
<path d="M23.913 45.3601C24.6304 45.3601 25.3478 45.3601 26.087 45.3601C26.087 46.0729 26.087 46.7857 26.087 47.5201C25.3696 47.5201 24.6522 47.5201 23.913 47.5201C23.913 46.8073 23.913 46.0945 23.913 45.3601Z" fill="black"/>
<path d="M13.0435 45.3601C13.7609 45.3601 14.4783 45.3601 15.2174 45.3601C15.2174 46.0729 15.2174 46.7857 15.2174 47.5201C14.5 47.5201 13.7826 47.5201 13.0435 47.5201C13.0435 46.8073 13.0435 46.0945 13.0435 45.3601Z" fill="#737373"/>
<path d="M10.8696 45.3601C11.587 45.3601 12.3044 45.3601 13.0435 45.3601C13.0435 46.0729 13.0435 46.7857 13.0435 47.5201C12.3261 47.5201 11.6087 47.5201 10.8696 47.5201C10.8696 46.8073 10.8696 46.0945 10.8696 45.3601Z" fill="black"/>
<path d="M8.69565 45.3601C9.41304 45.3601 10.1304 45.3601 10.8696 45.3601C10.8696 46.0729 10.8696 46.7857 10.8696 47.5201C10.1522 47.5201 9.43478 47.5201 8.69565 47.5201C8.69565 46.8073 8.69565 46.0945 8.69565 45.3601Z" fill="#EAEAEA"/>
<path d="M47.8261 43.2C48.5435 43.2 49.2609 43.2 50 43.2C50 43.9128 50 44.6256 50 45.36C49.2826 45.36 48.5652 45.36 47.8261 45.36C47.8261 44.6472 47.8261 43.9344 47.8261 43.2Z" fill="#EAEAEA"/>
<path d="M45.6522 43.2C46.3696 43.2 47.087 43.2 47.8261 43.2C47.8261 43.9128 47.8261 44.6256 47.8261 45.36C47.1087 45.36 46.3913 45.36 45.6522 45.36C45.6522 44.6472 45.6522 43.9344 45.6522 43.2Z" fill="black"/>
<path d="M28.2609 43.2C28.9783 43.2 29.6957 43.2 30.4348 43.2C30.4348 43.9128 30.4348 44.6256 30.4348 45.36C29.7174 45.36 29 45.36 28.2609 45.36C28.2609 44.6472 28.2609 43.9344 28.2609 43.2Z" fill="#838383"/>
<path d="M26.087 43.2C26.8044 43.2 27.5217 43.2 28.2609 43.2C28.2609 43.9128 28.2609 44.6256 28.2609 45.36C27.5435 45.36 26.8261 45.36 26.087 45.36C26.087 44.6472 26.087 43.9344 26.087 43.2Z" fill="black"/>
<path d="M23.913 43.2C24.6304 43.2 25.3478 43.2 26.087 43.2C26.087 43.9128 26.087 44.6256 26.087 45.36C25.3696 45.36 24.6522 45.36 23.913 45.36C23.913 44.6472 23.913 43.9344 23.913 43.2Z" fill="#737373"/>
<path d="M15.2174 36.72C15.9348 36.72 16.6522 36.72 17.3913 36.72C17.3913 37.4328 17.3913 38.1456 17.3913 38.88C16.6739 38.88 15.9565 38.88 15.2174 38.88C15.2174 38.1672 15.2174 37.4544 15.2174 36.72Z" fill="#737373"/>
<path d="M6.52174 34.5601C7.23913 34.5601 7.95652 34.5601 8.69565 34.5601C8.69565 35.2729 8.69565 35.9857 8.69565 36.7201C7.97826 36.7201 7.26087 36.7201 6.52174 36.7201C6.52174 36.0073 6.52174 35.2945 6.52174 34.5601Z" fill="black"/>
<path d="M4.34782 34.5601C5.06522 34.5601 5.78261 34.5601 6.52174 34.5601C6.52174 35.2729 6.52174 35.9857 6.52174 36.7201C5.80435 36.7201 5.08695 36.7201 4.34782 36.7201C4.34782 36.0073 4.34782 35.2945 4.34782 34.5601Z" fill="#EAEAEA"/>
<path d="M4.34782 32.3999C5.06522 32.3999 5.78261 32.3999 6.52174 32.3999C6.52174 33.1127 6.52174 33.8255 6.52174 34.5599C5.80435 34.5599 5.08695 34.5599 4.34782 34.5599C4.34782 33.8471 4.34782 33.1343 4.34782 32.3999Z" fill="black"/>
<path d="M2.17391 32.3999C2.8913 32.3999 3.60869 32.3999 4.34783 32.3999C4.34783 33.1127 4.34783 33.8255 4.34783 34.5599C3.63043 34.5599 2.91304 34.5599 2.17391 34.5599C2.17391 33.8471 2.17391 33.1343 2.17391 32.3999Z" fill="#EAEAEA"/>
<path d="M21.7391 30.24C22.4565 30.24 23.1739 30.24 23.913 30.24C23.913 30.9528 23.913 31.6656 23.913 32.4C23.1956 32.4 22.4783 32.4 21.7391 32.4C21.7391 31.6872 21.7391 30.9744 21.7391 30.24Z" fill="black"/>
<path d="M19.5652 30.24C20.2826 30.24 21 30.24 21.7391 30.24C21.7391 30.9528 21.7391 31.6656 21.7391 32.4C21.0217 32.4 20.3043 32.4 19.5652 32.4C19.5652 31.6872 19.5652 30.9744 19.5652 30.24Z" fill="#737373"/>
<path d="M15.2174 30.24C15.9348 30.24 16.6522 30.24 17.3913 30.24C17.3913 30.9528 17.3913 31.6656 17.3913 32.4C16.6739 32.4 15.9565 32.4 15.2174 32.4C15.2174 31.6872 15.2174 30.9744 15.2174 30.24Z" fill="#AFAFAF"/>
<path d="M4.34782 30.24C5.06522 30.24 5.78261 30.24 6.52174 30.24C6.52174 30.9528 6.52174 31.6656 6.52174 32.4C5.80435 32.4 5.08695 32.4 4.34782 32.4C4.34782 31.6872 4.34782 30.9744 4.34782 30.24Z" fill="#49C6CF"/>
<path d="M23.913 28.0801C24.6304 28.0801 25.3478 28.0801 26.087 28.0801C26.087 28.7929 26.087 29.5057 26.087 30.2401C25.3696 30.2401 24.6522 30.2401 23.913 30.2401C23.913 29.5273 23.913 28.8145 23.913 28.0801Z" fill="black"/>
<path d="M19.5652 28.0801C20.2826 28.0801 21 28.0801 21.7391 28.0801C21.7391 28.7929 21.7391 29.5057 21.7391 30.2401C21.0217 30.2401 20.3043 30.2401 19.5652 30.2401C19.5652 29.5273 19.5652 28.8145 19.5652 28.0801Z" fill="#A0A0A0"/>
<path d="M26.087 25.9199C26.8044 25.9199 27.5217 25.9199 28.2609 25.9199C28.2609 26.6327 28.2609 27.3455 28.2609 28.0799C27.5435 28.0799 26.8261 28.0799 26.087 28.0799C26.087 27.3671 26.087 26.6543 26.087 25.9199Z" fill="black"/>
<path d="M19.5652 25.9199C20.2826 25.9199 21 25.9199 21.7391 25.9199C21.7391 26.6327 21.7391 27.3455 21.7391 28.0799C21.0217 28.0799 20.3043 28.0799 19.5652 28.0799C19.5652 27.3671 19.5652 26.6543 19.5652 25.9199Z" fill="#6CF2FB"/>
<path d="M13.0435 25.9199C13.7609 25.9199 14.4783 25.9199 15.2174 25.9199C15.2174 26.6327 15.2174 27.3455 15.2174 28.0799C14.5 28.0799 13.7826 28.0799 13.0435 28.0799C13.0435 27.3671 13.0435 26.6543 13.0435 25.9199Z" fill="#49C6CF"/>
<path d="M23.913 23.76C24.6304 23.76 25.3478 23.76 26.087 23.76C26.087 24.4728 26.087 25.1856 26.087 25.92C25.3696 25.92 24.6522 25.92 23.913 25.92C23.913 25.2072 23.913 24.4944 23.913 23.76Z" fill="black"/>
<path d="M21.7391 23.76C22.4565 23.76 23.1739 23.76 23.913 23.76C23.913 24.4728 23.913 25.1856 23.913 25.92C23.1956 25.92 22.4783 25.92 21.7391 25.92C21.7391 25.2072 21.7391 24.4944 21.7391 23.76Z" fill="#AFAFAF"/>
<path d="M13.0435 23.76C13.7609 23.76 14.4783 23.76 15.2174 23.76C15.2174 24.4728 15.2174 25.1856 15.2174 25.92C14.5 25.92 13.7826 25.92 13.0435 25.92C13.0435 25.2072 13.0435 24.4944 13.0435 23.76Z" fill="#838383"/>
<path d="M4.34782 23.76C5.06522 23.76 5.78261 23.76 6.52174 23.76C6.52174 24.4728 6.52174 25.1856 6.52174 25.92C5.80435 25.92 5.08695 25.92 4.34782 25.92C4.34782 25.2072 4.34782 24.4944 4.34782 23.76Z" fill="#6CF2FB"/>
<path d="M21.7391 21.6001C22.4565 21.6001 23.1739 21.6001 23.913 21.6001C23.913 22.3129 23.913 23.0257 23.913 23.7601C23.1956 23.7601 22.4783 23.7601 21.7391 23.7601C21.7391 23.0473 21.7391 22.3345 21.7391 21.6001Z" fill="black"/>
<path d="M19.5652 21.6001C20.2826 21.6001 21 21.6001 21.7391 21.6001C21.7391 22.3129 21.7391 23.0257 21.7391 23.7601C21.0217 23.7601 20.3043 23.7601 19.5652 23.7601C19.5652 23.0473 19.5652 22.3345 19.5652 21.6001Z" fill="#AFAFAF"/>
<path d="M15.2174 21.6001C15.9348 21.6001 16.6522 21.6001 17.3913 21.6001C17.3913 22.3129 17.3913 23.0257 17.3913 23.7601C16.6739 23.7601 15.9565 23.7601 15.2174 23.7601C15.2174 23.0473 15.2174 22.3345 15.2174 21.6001Z" fill="#838383"/>
<path d="M2.17391 21.6001C2.8913 21.6001 3.60869 21.6001 4.34783 21.6001C4.34783 22.3129 4.34783 23.0257 4.34783 23.7601C3.63043 23.7601 2.91304 23.7601 2.17391 23.7601C2.17391 23.0473 2.17391 22.3345 2.17391 21.6001Z" fill="#EAEAEA"/>
<path d="M8.69565 19.4399C9.41304 19.4399 10.1304 19.4399 10.8696 19.4399C10.8696 20.1527 10.8696 20.8655 10.8696 21.5999C10.1522 21.5999 9.43478 21.5999 8.69565 21.5999C8.69565 20.8871 8.69565 20.1743 8.69565 19.4399Z" fill="#838383"/>
<path d="M4.34782 19.4399C5.06522 19.4399 5.78261 19.4399 6.52174 19.4399C6.52174 20.1527 6.52174 20.8655 6.52174 21.5999C5.80435 21.5999 5.08695 21.5999 4.34782 21.5999C4.34782 20.8871 4.34782 20.1743 4.34782 19.4399Z" fill="#EAEAEA"/>
<path d="M15.2174 15.1201C15.9348 15.1201 16.6522 15.1201 17.3913 15.1201C17.3913 15.8329 17.3913 16.5457 17.3913 17.2801C16.6739 17.2801 15.9565 17.2801 15.2174 17.2801C15.2174 16.5673 15.2174 15.8545 15.2174 15.1201Z" fill="#AFAFAF"/>
<path d="M26.087 10.8C26.8044 10.8 27.5217 10.8 28.2609 10.8C28.2609 11.5128 28.2609 12.2256 28.2609 12.96C27.5435 12.96 26.8261 12.96 26.087 12.96C26.087 12.2472 26.087 11.5344 26.087 10.8Z" fill="#AFAFAF"/>
<path d="M47.8261 8.63989C48.5435 8.63989 49.2609 8.63989 50 8.63989C50 9.35269 50 10.0655 50 10.7999C49.2826 10.7999 48.5652 10.7999 47.8261 10.7999C47.8261 10.0871 47.8261 9.37429 47.8261 8.63989Z" fill="#EAEAEA"/>
<path d="M45.6522 8.63989C46.3696 8.63989 47.087 8.63989 47.8261 8.63989C47.8261 9.35269 47.8261 10.0655 47.8261 10.7999C47.1087 10.7999 46.3913 10.7999 45.6522 10.7999C45.6522 10.0871 45.6522 9.37429 45.6522 8.63989Z" fill="black"/>
<path d="M34.7826 8.63989C35.5 8.63989 36.2174 8.63989 36.9565 8.63989C36.9565 9.35269 36.9565 10.0655 36.9565 10.7999C36.2391 10.7999 35.5217 10.7999 34.7826 10.7999C34.7826 10.0871 34.7826 9.37429 34.7826 8.63989Z" fill="#AFAFAF"/>
<path d="M28.2609 8.63989C28.9783 8.63989 29.6957 8.63989 30.4348 8.63989C30.4348 9.35269 30.4348 10.0655 30.4348 10.7999C29.7174 10.7999 29 10.7999 28.2609 10.7999C28.2609 10.0871 28.2609 9.37429 28.2609 8.63989Z" fill="#AFAFAF"/>
<path d="M26.087 8.63989C26.8044 8.63989 27.5217 8.63989 28.2609 8.63989C28.2609 9.35269 28.2609 10.0655 28.2609 10.7999C27.5435 10.7999 26.8261 10.7999 26.087 10.7999C26.087 10.0871 26.087 9.37429 26.087 8.63989Z" fill="black"/>
<path d="M23.913 8.63989C24.6304 8.63989 25.3478 8.63989 26.087 8.63989C26.087 9.35269 26.087 10.0655 26.087 10.7999C25.3696 10.7999 24.6522 10.7999 23.913 10.7999C23.913 10.0871 23.913 9.37429 23.913 8.63989Z" fill="#AFAFAF"/>
<path d="M45.6522 6.47998C46.3696 6.47998 47.087 6.47998 47.8261 6.47998C47.8261 7.19278 47.8261 7.90558 47.8261 8.63998C47.1087 8.63998 46.3913 8.63998 45.6522 8.63998C45.6522 7.92718 45.6522 7.21438 45.6522 6.47998Z" fill="#EAEAEA"/>
<path d="M26.087 6.47998C26.8044 6.47998 27.5217 6.47998 28.2609 6.47998C28.2609 7.19278 28.2609 7.90558 28.2609 8.63998C27.5435 8.63998 26.8261 8.63998 26.087 8.63998C26.087 7.92718 26.087 7.21438 26.087 6.47998Z" fill="#EAEAEA"/>
<path d="M23.913 6.47998C24.6304 6.47998 25.3478 6.47998 26.087 6.47998C26.087 7.19278 26.087 7.90558 26.087 8.63998C25.3696 8.63998 24.6522 8.63998 23.913 8.63998C23.913 7.92718 23.913 7.21438 23.913 6.47998Z" fill="black"/>
<path d="M13.0435 6.47998C13.7609 6.47998 14.4783 6.47998 15.2174 6.47998C15.2174 7.19278 15.2174 7.90558 15.2174 8.63998C14.5 8.63998 13.7826 8.63998 13.0435 8.63998C13.0435 7.92718 13.0435 7.21438 13.0435 6.47998Z" fill="#AFAFAF"/>
<path d="M8.69565 6.47998C9.41304 6.47998 10.1304 6.47998 10.8696 6.47998C10.8696 7.19278 10.8696 7.90558 10.8696 8.63998C10.1522 8.63998 9.43478 8.63998 8.69565 8.63998C8.69565 7.92718 8.69565 7.21438 8.69565 6.47998Z" fill="#EAEAEA"/>
<path d="M28.2609 4.32007C28.9783 4.32007 29.6957 4.32007 30.4348 4.32007C30.4348 5.03287 30.4348 5.74567 30.4348 6.48007C29.7174 6.48007 29 6.48007 28.2609 6.48007C28.2609 5.76727 28.2609 5.05447 28.2609 4.32007Z" fill="#EAEAEA"/>
<path d="M23.913 4.32007C24.6304 4.32007 25.3478 4.32007 26.087 4.32007C26.087 5.03287 26.087 5.74567 26.087 6.48007C25.3696 6.48007 24.6522 6.48007 23.913 6.48007C23.913 5.76727 23.913 5.05447 23.913 4.32007Z" fill="#EAEAEA"/>
<path d="M10.8696 4.32007C11.587 4.32007 12.3044 4.32007 13.0435 4.32007C13.0435 5.03287 13.0435 5.74567 13.0435 6.48007C12.3261 6.48007 11.6087 6.48007 10.8696 6.48007C10.8696 5.76727 10.8696 5.05447 10.8696 4.32007Z" fill="#EAEAEA"/>
<path d="M13.0435 2.15991C13.7609 2.15991 14.4783 2.15991 15.2174 2.15991C15.2174 2.87271 15.2174 3.58551 15.2174 4.31991C14.5 4.31991 13.7826 4.31991 13.0435 4.31991C13.0435 3.60711 13.0435 2.89431 13.0435 2.15991Z" fill="#EAEAEA"/>
</svg>
