<svg width="27" height="21" viewBox="0 0 27 21" fill="none" xmlns="http://www.w3.org/2000/svg">
<path d="M22.75 0C23.905 0 25.06 0 26.25 0C26.25 0.5775 26.25 1.155 26.25 1.75C25.9613 1.75 25.6725 1.75 25.375 1.75C25.375 2.03875 25.375 2.3275 25.375 2.625C25.0863 2.625 24.7975 2.625 24.5 2.625C24.5 2.91375 24.5 3.2025 24.5 3.5C24.2113 3.5 23.9225 3.5 23.625 3.5C23.625 3.78875 23.625 4.0775 23.625 4.375C23.3363 4.375 23.0475 4.375 22.75 4.375C22.75 4.66375 22.75 4.9525 22.75 5.25C22.4613 5.25 22.1725 5.25 21.875 5.25C21.875 5.8275 21.875 6.405 21.875 7C21.5863 7 21.2975 7 21 7C21 7.28875 21 7.5775 21 7.875C20.7113 7.875 20.4225 7.875 20.125 7.875C20.125 8.16375 20.125 8.4525 20.125 8.75C19.8363 8.75 19.5475 8.75 19.25 8.75C19.25 9.03875 19.25 9.3275 19.25 9.625C18.6725 9.625 18.095 9.625 17.5 9.625C17.5 11.0688 17.5 12.5125 17.5 14C17.7887 14 18.0775 14 18.375 14C18.375 15.4438 18.375 16.8875 18.375 18.375C18.0863 18.375 17.7975 18.375 17.5 18.375C17.5 18.9525 17.5 19.53 17.5 20.125C17.2113 20.125 16.9225 20.125 16.625 20.125C16.625 20.4137 16.625 20.7025 16.625 21C16.0475 21 15.47 21 14.875 21C14.875 20.7113 14.875 20.4225 14.875 20.125C14.2975 20.125 13.72 20.125 13.125 20.125C13.125 20.4137 13.125 20.7025 13.125 21C12.8363 21 12.5475 21 12.25 21C12.25 20.7113 12.25 20.4225 12.25 20.125C11.9613 20.125 11.6725 20.125 11.375 20.125C11.375 20.4137 11.375 20.7025 11.375 21C11.0863 21 10.7975 21 10.5 21C10.5 20.7113 10.5 20.4225 10.5 20.125C10.2113 20.125 9.9225 20.125 9.625 20.125C9.625 20.4137 9.625 20.7025 9.625 21C9.33625 21 9.0475 21 8.75 21C8.75 20.7113 8.75 20.4225 8.75 20.125C8.46125 20.125 8.1725 20.125 7.875 20.125C7.875 19.8363 7.875 19.5475 7.875 19.25C7.58625 19.25 7.2975 19.25 7 19.25C7 19.5387 7 19.8275 7 20.125C6.71125 20.125 6.4225 20.125 6.125 20.125C6.125 20.4137 6.125 20.7025 6.125 21C5.83625 21 5.5475 21 5.25 21C5.25 20.7113 5.25 20.4225 5.25 20.125C4.96125 20.125 4.6725 20.125 4.375 20.125C4.375 19.8363 4.375 19.5475 4.375 19.25C4.08625 19.25 3.7975 19.25 3.5 19.25C3.5 18.9613 3.5 18.6725 3.5 18.375C3.21125 18.375 2.9225 18.375 2.625 18.375C2.625 17.7975 2.625 17.22 2.625 16.625C2.91375 16.625 3.2025 16.625 3.5 16.625C3.5 15.1812 3.5 13.7375 3.5 12.25C3.21125 12.25 2.9225 12.25 2.625 12.25C2.625 11.6725 2.625 11.095 2.625 10.5C2.33625 10.5 2.0475 10.5 1.75 10.5C1.75 8.7675 1.75 7.035 1.75 5.25C1.46125 5.25 1.1725 5.25 0.875 5.25C0.875 4.96125 0.875 4.6725 0.875 4.375C0.58625 4.375 0.2975 4.375 0 4.375C0 4.08625 0 3.7975 0 3.5C0.28875 3.5 0.5775 3.5 0.875 3.5C0.875 3.21125 0.875 2.9225 0.875 2.625C1.16375 2.625 1.4525 2.625 1.75 2.625C1.75 2.33625 1.75 2.0475 1.75 1.75C6.65875 1.75 11.5675 1.75 16.625 1.75C16.625 2.03875 16.625 2.3275 16.625 2.625C16.9137 2.625 17.2025 2.625 17.5 2.625C17.5 2.91375 17.5 3.2025 17.5 3.5C17.7887 3.5 18.0775 3.5 18.375 3.5C18.375 3.21125 18.375 2.9225 18.375 2.625C18.6637 2.625 18.9525 2.625 19.25 2.625C19.25 2.33625 19.25 2.0475 19.25 1.75C19.8275 1.75 20.405 1.75 21 1.75C21 1.46125 21 1.1725 21 0.875C21.5775 0.875 22.155 0.875 22.75 0.875C22.75 0.58625 22.75 0.2975 22.75 0Z" fill="#C4913E"/>
<path d="M2.625 5.25C6.95625 5.25 11.2875 5.25 15.75 5.25C15.75 6.11625 15.75 6.9825 15.75 7.875C16.0387 7.875 16.3275 7.875 16.625 7.875C16.625 8.16375 16.625 8.4525 16.625 8.75C16.3363 8.75 16.0475 8.75 15.75 8.75C15.75 9.3275 15.75 9.905 15.75 10.5C15.4613 10.5 15.1725 10.5 14.875 10.5C14.875 10.7888 14.875 11.0775 14.875 11.375C15.4525 11.375 16.03 11.375 16.625 11.375C16.625 12.8187 16.625 14.2625 16.625 15.75C16.3363 15.75 16.0475 15.75 15.75 15.75C15.75 16.0387 15.75 16.3275 15.75 16.625C14.595 16.625 13.44 16.625 12.25 16.625C12.25 16.3363 12.25 16.0475 12.25 15.75C11.095 15.75 9.94 15.75 8.75 15.75C8.75 16.0387 8.75 16.3275 8.75 16.625C7.595 16.625 6.44 16.625 5.25 16.625C5.25 15.1812 5.25 13.7375 5.25 12.25C4.38375 12.25 3.5175 12.25 2.625 12.25C2.625 9.94 2.625 7.63 2.625 5.25Z" fill="#C4913E"/>
<path d="M1.75 1.75C6.65875 1.75 11.5675 1.75 16.625 1.75C16.625 2.03875 16.625 2.3275 16.625 2.625C16.9137 2.625 17.2025 2.625 17.5 2.625C17.5 2.91375 17.5 3.2025 17.5 3.5C17.7887 3.5 18.0775 3.5 18.375 3.5C18.375 3.21125 18.375 2.9225 18.375 2.625C18.6637 2.625 18.9525 2.625 19.25 2.625C19.25 2.33625 19.25 2.0475 19.25 1.75C20.405 1.75 21.56 1.75 22.75 1.75C22.75 2.03875 22.75 2.3275 22.75 2.625C22.1725 2.625 21.595 2.625 21 2.625C21 2.91375 21 3.2025 21 3.5C20.7113 3.5 20.4225 3.5 20.125 3.5C20.125 3.78875 20.125 4.0775 20.125 4.375C19.8363 4.375 19.5475 4.375 19.25 4.375C19.25 4.66375 19.25 4.9525 19.25 5.25C18.9613 5.25 18.6725 5.25 18.375 5.25C18.375 5.8275 18.375 6.405 18.375 7C18.0863 7 17.7975 7 17.5 7C17.5 7.28875 17.5 7.5775 17.5 7.875C16.9225 7.875 16.345 7.875 15.75 7.875C15.75 7.00875 15.75 6.1425 15.75 5.25C11.4187 5.25 7.0875 5.25 2.625 5.25C2.625 6.9825 2.625 8.715 2.625 10.5C2.33625 10.5 2.0475 10.5 1.75 10.5C1.75 8.7675 1.75 7.035 1.75 5.25C1.46125 5.25 1.1725 5.25 0.875 5.25C0.875 4.96125 0.875 4.6725 0.875 4.375C0.58625 4.375 0.2975 4.375 0 4.375C0 4.08625 0 3.7975 0 3.5C0.28875 3.5 0.5775 3.5 0.875 3.5C0.875 3.21125 0.875 2.9225 0.875 2.625C1.16375 2.625 1.4525 2.625 1.75 2.625C1.75 2.33625 1.75 2.0475 1.75 1.75Z" fill="#D5A04B"/>
<path d="M4.375 10.5C7.55125 10.5 10.7275 10.5 14 10.5C14 11.0775 14 11.655 14 12.25C14.8663 12.25 15.7325 12.25 16.625 12.25C16.625 13.405 16.625 14.56 16.625 15.75C16.3363 15.75 16.0475 15.75 15.75 15.75C15.75 16.0387 15.75 16.3275 15.75 16.625C14.595 16.625 13.44 16.625 12.25 16.625C12.25 16.3362 12.25 16.0475 12.25 15.75C11.095 15.75 9.94 15.75 8.75 15.75C8.75 16.0387 8.75 16.3275 8.75 16.625C7.595 16.625 6.44 16.625 5.25 16.625C5.25 15.1812 5.25 13.7375 5.25 12.25C4.96125 12.25 4.6725 12.25 4.375 12.25C4.375 11.6725 4.375 11.095 4.375 10.5Z" fill="#D5A04B"/>
<path d="M22.75 0C23.905 0 25.06 0 26.25 0C26.25 0.5775 26.25 1.155 26.25 1.75C25.9613 1.75 25.6725 1.75 25.375 1.75C25.375 2.03875 25.375 2.3275 25.375 2.625C25.0863 2.625 24.7975 2.625 24.5 2.625C24.5 2.91375 24.5 3.2025 24.5 3.5C24.2113 3.5 23.9225 3.5 23.625 3.5C23.625 3.78875 23.625 4.0775 23.625 4.375C23.3363 4.375 23.0475 4.375 22.75 4.375C22.75 4.66375 22.75 4.9525 22.75 5.25C22.4612 5.25 22.1725 5.25 21.875 5.25C21.875 5.8275 21.875 6.405 21.875 7C21.5862 7 21.2975 7 21 7C21 7.28875 21 7.5775 21 7.875C20.7112 7.875 20.4225 7.875 20.125 7.875C20.125 8.16375 20.125 8.4525 20.125 8.75C19.8362 8.75 19.5475 8.75 19.25 8.75C19.25 9.03875 19.25 9.3275 19.25 9.625C18.6725 9.625 18.095 9.625 17.5 9.625C17.5 11.0688 17.5 12.5125 17.5 14C17.2113 14 16.9225 14 16.625 14C16.625 13.1337 16.625 12.2675 16.625 11.375C16.0475 11.375 15.47 11.375 14.875 11.375C14.875 11.0863 14.875 10.7975 14.875 10.5C15.1638 10.5 15.4525 10.5 15.75 10.5C15.75 9.9225 15.75 9.345 15.75 8.75C16.0388 8.75 16.3275 8.75 16.625 8.75C16.625 8.46125 16.625 8.1725 16.625 7.875C16.9137 7.875 17.2025 7.875 17.5 7.875C17.5 7.58625 17.5 7.2975 17.5 7C17.7887 7 18.0775 7 18.375 7C18.375 6.4225 18.375 5.845 18.375 5.25C18.6637 5.25 18.9525 5.25 19.25 5.25C19.25 4.96125 19.25 4.6725 19.25 4.375C19.5388 4.375 19.8275 4.375 20.125 4.375C20.125 4.08625 20.125 3.7975 20.125 3.5C20.4138 3.5 20.7025 3.5 21 3.5C21 3.21125 21 2.9225 21 2.625C21.5775 2.625 22.155 2.625 22.75 2.625C22.75 2.33625 22.75 2.0475 22.75 1.75C22.1725 1.75 21.595 1.75 21 1.75C21 1.46125 21 1.1725 21 0.875C21.5775 0.875 22.155 0.875 22.75 0.875C22.75 0.58625 22.75 0.2975 22.75 0Z" fill="#505050"/>
<path d="M4.375 6.125C7.84 6.125 11.305 6.125 14.875 6.125C14.875 6.41375 14.875 6.7025 14.875 7C15.1637 7 15.4525 7 15.75 7C15.75 7.28875 15.75 7.5775 15.75 7.875C16.0387 7.875 16.3275 7.875 16.625 7.875C16.625 8.16375 16.625 8.4525 16.625 8.75C12.2937 8.75 7.9625 8.75 3.5 8.75C3.5 8.1725 3.5 7.595 3.5 7C3.78875 7 4.0775 7 4.375 7C4.375 6.71125 4.375 6.4225 4.375 6.125Z" fill="#D5A04B"/>
<path d="M1.75 1.75C6.65875 1.75 11.5675 1.75 16.625 1.75C16.625 2.3275 16.625 2.905 16.625 3.5C11.7162 3.5 6.8075 3.5 1.75 3.5C1.75 2.9225 1.75 2.345 1.75 1.75Z" fill="#D5A04B"/>
<path d="M1.75 3.5C6.65875 3.5 11.5675 3.5 16.625 3.5C16.625 3.78875 16.625 4.0775 16.625 4.375C11.7162 4.375 6.8075 4.375 1.75 4.375C1.75 4.08625 1.75 3.7975 1.75 3.5Z" fill="#F1BC67"/>
<path d="M1.75 1.75C6.65875 1.75 11.5675 1.75 16.625 1.75C16.625 2.03875 16.625 2.3275 16.625 2.625C11.7162 2.625 6.8075 2.625 1.75 2.625C1.75 2.33625 1.75 2.0475 1.75 1.75Z" fill="black"/>
<path d="M19.25 1.75C20.405 1.75 21.56 1.75 22.75 1.75C22.75 2.03875 22.75 2.3275 22.75 2.625C22.1725 2.625 21.595 2.625 21 2.625C21 2.91375 21 3.2025 21 3.5C20.7112 3.5 20.4225 3.5 20.125 3.5C20.125 3.78875 20.125 4.0775 20.125 4.375C19.8363 4.375 19.5475 4.375 19.25 4.375C19.25 4.66375 19.25 4.9525 19.25 5.25C18.9613 5.25 18.6725 5.25 18.375 5.25C18.375 5.8275 18.375 6.405 18.375 7C18.0862 7 17.7975 7 17.5 7C17.5 7.28875 17.5 7.5775 17.5 7.875C17.2113 7.875 16.9225 7.875 16.625 7.875C16.625 7.2975 16.625 6.72 16.625 6.125C16.9138 6.125 17.2025 6.125 17.5 6.125C17.5 5.5475 17.5 4.97 17.5 4.375C17.7888 4.375 18.0775 4.375 18.375 4.375C18.375 3.7975 18.375 3.22 18.375 2.625C18.6637 2.625 18.9525 2.625 19.25 2.625C19.25 2.33625 19.25 2.0475 19.25 1.75Z" fill="#8F8F8F"/>
<path d="M4.375 10.5C7.55125 10.5 10.7275 10.5 14 10.5C14 10.7888 14 11.0775 14 11.375C10.8238 11.375 7.6475 11.375 4.375 11.375C4.375 11.0863 4.375 10.7975 4.375 10.5Z" fill="#F1BC67"/>
<path d="M16.625 14C17.2025 14 17.78 14 18.375 14C18.375 15.4438 18.375 16.8875 18.375 18.375C17.7975 18.375 17.22 18.375 16.625 18.375C16.625 16.9313 16.625 15.4875 16.625 14Z" fill="#D5A04B"/>
<path d="M16.625 2.625C16.9138 2.625 17.2025 2.625 17.5 2.625C17.5 2.91375 17.5 3.2025 17.5 3.5C17.7887 3.5 18.0775 3.5 18.375 3.5C18.375 3.78875 18.375 4.0775 18.375 4.375C18.0863 4.375 17.7975 4.375 17.5 4.375C17.5 4.9525 17.5 5.53 17.5 6.125C17.2112 6.125 16.9225 6.125 16.625 6.125C16.625 6.7025 16.625 7.28 16.625 7.875C16.3363 7.875 16.0475 7.875 15.75 7.875C15.75 7.00875 15.75 6.1425 15.75 5.25C16.0388 5.25 16.3275 5.25 16.625 5.25C16.625 4.38375 16.625 3.5175 16.625 2.625Z" fill="black"/>
<path d="M6.125 12.25C7.8575 12.25 9.59 12.25 11.375 12.25C11.375 12.5388 11.375 12.8275 11.375 13.125C9.6425 13.125 7.91 13.125 6.125 13.125C6.125 12.8363 6.125 12.5475 6.125 12.25Z" fill="#433723"/>
<path d="M5.25 8.75C6.9825 8.75 8.715 8.75 10.5 8.75C10.5 9.03875 10.5 9.3275 10.5 9.625C8.7675 9.625 7.035 9.625 5.25 9.625C5.25 9.33625 5.25 9.0475 5.25 8.75Z" fill="#433723"/>
<path d="M7.875 7C9.6075 7 11.34 7 13.125 7C13.125 7.28875 13.125 7.5775 13.125 7.875C11.3925 7.875 9.66 7.875 7.875 7.875C7.875 7.58625 7.875 7.2975 7.875 7Z" fill="#433723"/>
<path d="M1.75 5.25C2.03875 5.25 2.3275 5.25 2.625 5.25C2.625 6.9825 2.625 8.715 2.625 10.5C2.33625 10.5 2.0475 10.5 1.75 10.5C1.75 8.7675 1.75 7.035 1.75 5.25Z" fill="black"/>
<path d="M17.5 14C17.7888 14 18.0775 14 18.375 14C18.375 15.4438 18.375 16.8875 18.375 18.375C18.0863 18.375 17.7975 18.375 17.5 18.375C17.5 16.9313 17.5 15.4875 17.5 14Z" fill="black"/>
<path d="M3.5 12.25C3.78875 12.25 4.0775 12.25 4.375 12.25C4.375 13.6938 4.375 15.1375 4.375 16.625C4.08625 16.625 3.7975 16.625 3.5 16.625C3.5 15.1813 3.5 13.7375 3.5 12.25Z" fill="black"/>
<path d="M16.625 9.625C16.9138 9.625 17.2025 9.625 17.5 9.625C17.5 11.0688 17.5 12.5125 17.5 14C17.2113 14 16.9225 14 16.625 14C16.625 12.5563 16.625 11.1125 16.625 9.625Z" fill="black"/>
<path d="M15.75 8.75C16.3275 8.75 16.905 8.75 17.5 8.75C17.5 9.03875 17.5 9.3275 17.5 9.625C17.2113 9.625 16.9225 9.625 16.625 9.625C16.625 10.2025 16.625 10.78 16.625 11.375C16.0475 11.375 15.47 11.375 14.875 11.375C14.875 11.0863 14.875 10.7975 14.875 10.5C15.1638 10.5 15.4525 10.5 15.75 10.5C15.75 9.9225 15.75 9.345 15.75 8.75Z" fill="#404040"/>
<path d="M22.75 0C23.905 0 25.06 0 26.25 0C26.25 0.5775 26.25 1.155 26.25 1.75C25.9613 1.75 25.6725 1.75 25.375 1.75C25.375 1.46125 25.375 1.1725 25.375 0.875C24.5087 0.875 23.6425 0.875 22.75 0.875C22.75 0.58625 22.75 0.2975 22.75 0Z" fill="black"/>
<path d="M0.875 2.625C1.16375 2.625 1.4525 2.625 1.75 2.625C1.75 3.49125 1.75 4.3575 1.75 5.25C1.46125 5.25 1.1725 5.25 0.875 5.25C0.875 4.96125 0.875 4.6725 0.875 4.375C0.58625 4.375 0.2975 4.375 0 4.375C0 4.08625 0 3.7975 0 3.5C0.28875 3.5 0.5775 3.5 0.875 3.5C0.875 3.21125 0.875 2.9225 0.875 2.625Z" fill="#7D0000"/>
<path d="M22.75 1.75C23.6163 1.75 24.4825 1.75 25.375 1.75C25.375 2.03875 25.375 2.3275 25.375 2.625C25.0863 2.625 24.7975 2.625 24.5 2.625C24.5 2.91375 24.5 3.2025 24.5 3.5C24.2112 3.5 23.9225 3.5 23.625 3.5C23.625 3.21125 23.625 2.9225 23.625 2.625C23.3363 2.625 23.0475 2.625 22.75 2.625C22.75 2.33625 22.75 2.0475 22.75 1.75Z" fill="#494949"/>
<path d="M14 18.375C14.2888 18.375 14.5775 18.375 14.875 18.375C14.875 18.9525 14.875 19.53 14.875 20.125C14.2975 20.125 13.72 20.125 13.125 20.125C13.125 19.8362 13.125 19.5475 13.125 19.25C13.4138 19.25 13.7025 19.25 14 19.25C14 18.9613 14 18.6725 14 18.375Z" fill="black"/>
<path d="M11.375 8.75C12.2413 8.75 13.1075 8.75 14 8.75C14 9.03875 14 9.3275 14 9.625C13.1337 9.625 12.2675 9.625 11.375 9.625C11.375 9.33625 11.375 9.0475 11.375 8.75Z" fill="#433723"/>
<path d="M16.625 2.625C16.9138 2.625 17.2025 2.625 17.5 2.625C17.5 2.91375 17.5 3.2025 17.5 3.5C17.7888 3.5 18.0775 3.5 18.375 3.5C18.375 3.78875 18.375 4.0775 18.375 4.375C17.7975 4.375 17.22 4.375 16.625 4.375C16.625 3.7975 16.625 3.22 16.625 2.625Z" fill="#7D0000"/>
<path d="M14.875 20.125C15.4525 20.125 16.03 20.125 16.625 20.125C16.625 20.4138 16.625 20.7025 16.625 21C16.0475 21 15.47 21 14.875 21C14.875 20.7113 14.875 20.4225 14.875 20.125Z" fill="black"/>
<path d="M16.625 18.375C16.9138 18.375 17.2025 18.375 17.5 18.375C17.5 18.9525 17.5 19.53 17.5 20.125C17.2113 20.125 16.9225 20.125 16.625 20.125C16.625 19.5475 16.625 18.97 16.625 18.375Z" fill="black"/>
<path d="M15.75 18.375C16.0388 18.375 16.3275 18.375 16.625 18.375C16.625 18.9525 16.625 19.53 16.625 20.125C16.3363 20.125 16.0475 20.125 15.75 20.125C15.75 19.5475 15.75 18.97 15.75 18.375Z" fill="#D5A04B"/>
<path d="M11.375 18.375C11.6638 18.375 11.9525 18.375 12.25 18.375C12.25 18.9525 12.25 19.53 12.25 20.125C11.9613 20.125 11.6725 20.125 11.375 20.125C11.375 19.5475 11.375 18.97 11.375 18.375Z" fill="black"/>
<path d="M2.625 16.625C2.91375 16.625 3.2025 16.625 3.5 16.625C3.5 17.2025 3.5 17.78 3.5 18.375C3.21125 18.375 2.9225 18.375 2.625 18.375C2.625 17.7975 2.625 17.22 2.625 16.625Z" fill="black"/>
<path d="M16.625 14C16.9138 14 17.2025 14 17.5 14C17.5 14.5775 17.5 15.155 17.5 15.75C17.2113 15.75 16.9225 15.75 16.625 15.75C16.625 15.1725 16.625 14.595 16.625 14Z" fill="#F1BC67"/>
<path d="M15.75 12.25C16.0388 12.25 16.3275 12.25 16.625 12.25C16.625 12.8275 16.625 13.405 16.625 14C16.3363 14 16.0475 14 15.75 14C15.75 13.4225 15.75 12.845 15.75 12.25Z" fill="#F1BC67"/>
<path d="M12.25 12.25C12.8275 12.25 13.405 12.25 14 12.25C14 12.5388 14 12.8275 14 13.125C13.4225 13.125 12.845 13.125 12.25 13.125C12.25 12.8363 12.25 12.5475 12.25 12.25Z" fill="#8F8F8F"/>
<path d="M14.875 11.375C15.4525 11.375 16.03 11.375 16.625 11.375C16.625 11.6638 16.625 11.9525 16.625 12.25C16.0475 12.25 15.47 12.25 14.875 12.25C14.875 11.9613 14.875 11.6725 14.875 11.375Z" fill="#C4913E"/>
<path d="M14 10.5C14.2888 10.5 14.5775 10.5 14.875 10.5C14.875 11.0775 14.875 11.655 14.875 12.25C14.5863 12.25 14.2975 12.25 14 12.25C14 11.6725 14 11.095 14 10.5Z" fill="#8F8F8F"/>
<path d="M2.625 10.5C2.91375 10.5 3.2025 10.5 3.5 10.5C3.5 11.0775 3.5 11.655 3.5 12.25C3.21125 12.25 2.9225 12.25 2.625 12.25C2.625 11.6725 2.625 11.095 2.625 10.5Z" fill="black"/>
<path d="M17.5 8.75C18.0775 8.75 18.655 8.75 19.25 8.75C19.25 9.03875 19.25 9.3275 19.25 9.625C18.6725 9.625 18.095 9.625 17.5 9.625C17.5 9.33625 17.5 9.0475 17.5 8.75Z" fill="black"/>
<path d="M14.875 8.75C15.1638 8.75 15.4525 8.75 15.75 8.75C15.75 9.3275 15.75 9.905 15.75 10.5C15.4613 10.5 15.1725 10.5 14.875 10.5C14.875 9.9225 14.875 9.345 14.875 8.75Z" fill="#8F8F8F"/>
<path d="M5.25 7C5.8275 7 6.405 7 7 7C7 7.28875 7 7.5775 7 7.875C6.4225 7.875 5.845 7.875 5.25 7.875C5.25 7.58625 5.25 7.2975 5.25 7Z" fill="#433723"/>
<path d="M21 5.25C21.2888 5.25 21.5775 5.25 21.875 5.25C21.875 5.8275 21.875 6.405 21.875 7C21.5863 7 21.2975 7 21 7C21 6.4225 21 5.845 21 5.25Z" fill="black"/>
<path d="M21 1.75C21.5775 1.75 22.155 1.75 22.75 1.75C22.75 2.03875 22.75 2.3275 22.75 2.625C22.1725 2.625 21.595 2.625 21 2.625C21 2.33625 21 2.0475 21 1.75Z" fill="#8F8F8F"/>
<path d="M19.25 1.75C19.8275 1.75 20.405 1.75 21 1.75C21 2.03875 21 2.3275 21 2.625C20.4225 2.625 19.845 2.625 19.25 2.625C19.25 2.33625 19.25 2.0475 19.25 1.75Z" fill="black"/>
<path d="M21 0.875C21.5775 0.875 22.155 0.875 22.75 0.875C22.75 1.16375 22.75 1.4525 22.75 1.75C22.1725 1.75 21.595 1.75 21 1.75C21 1.46125 21 1.1725 21 0.875Z" fill="black"/>
<path d="M12.25 20.125C12.5388 20.125 12.8275 20.125 13.125 20.125C13.125 20.4138 13.125 20.7025 13.125 21C12.8363 21 12.5475 21 12.25 21C12.25 20.7113 12.25 20.4225 12.25 20.125Z" fill="black"/>
<path d="M10.5 20.125C10.7888 20.125 11.0775 20.125 11.375 20.125C11.375 20.4138 11.375 20.7025 11.375 21C11.0863 21 10.7975 21 10.5 21C10.5 20.7113 10.5 20.4225 10.5 20.125Z" fill="black"/>
<path d="M8.75 20.125C9.03875 20.125 9.3275 20.125 9.625 20.125C9.625 20.4138 9.625 20.7025 9.625 21C9.33625 21 9.0475 21 8.75 21C8.75 20.7113 8.75 20.4225 8.75 20.125Z" fill="black"/>
<path d="M5.25 20.125C5.53875 20.125 5.8275 20.125 6.125 20.125C6.125 20.4138 6.125 20.7025 6.125 21C5.83625 21 5.5475 21 5.25 21C5.25 20.7113 5.25 20.4225 5.25 20.125Z" fill="black"/>
<path d="M12.25 19.25C12.5388 19.25 12.8275 19.25 13.125 19.25C13.125 19.5388 13.125 19.8275 13.125 20.125C12.8363 20.125 12.5475 20.125 12.25 20.125C12.25 19.8363 12.25 19.5475 12.25 19.25Z" fill="#D5A04B"/>
<path d="M9.625 19.25C9.91375 19.25 10.2025 19.25 10.5 19.25C10.5 19.5388 10.5 19.8275 10.5 20.125C10.2113 20.125 9.9225 20.125 9.625 20.125C9.625 19.8363 9.625 19.5475 9.625 19.25Z" fill="black"/>
<path d="M8.75 19.25C9.03875 19.25 9.3275 19.25 9.625 19.25C9.625 19.5388 9.625 19.8275 9.625 20.125C9.33625 20.125 9.0475 20.125 8.75 20.125C8.75 19.8363 8.75 19.5475 8.75 19.25Z" fill="#D5A04B"/>
<path d="M7.875 19.25C8.16375 19.25 8.4525 19.25 8.75 19.25C8.75 19.5388 8.75 19.8275 8.75 20.125C8.46125 20.125 8.1725 20.125 7.875 20.125C7.875 19.8363 7.875 19.5475 7.875 19.25Z" fill="black"/>
<path d="M6.125 19.25C6.41375 19.25 6.7025 19.25 7 19.25C7 19.5388 7 19.8275 7 20.125C6.71125 20.125 6.4225 20.125 6.125 20.125C6.125 19.8363 6.125 19.5475 6.125 19.25Z" fill="black"/>
<path d="M5.25 19.25C5.53875 19.25 5.8275 19.25 6.125 19.25C6.125 19.5388 6.125 19.8275 6.125 20.125C5.83625 20.125 5.5475 20.125 5.25 20.125C5.25 19.8363 5.25 19.5475 5.25 19.25Z" fill="#D5A04B"/>
<path d="M4.375 19.25C4.66375 19.25 4.9525 19.25 5.25 19.25C5.25 19.5388 5.25 19.8275 5.25 20.125C4.96125 20.125 4.6725 20.125 4.375 20.125C4.375 19.8363 4.375 19.5475 4.375 19.25Z" fill="black"/>
<path d="M13.125 18.375C13.4138 18.375 13.7025 18.375 14 18.375C14 18.6638 14 18.9525 14 19.25C13.7113 19.25 13.4225 19.25 13.125 19.25C13.125 18.9613 13.125 18.6725 13.125 18.375Z" fill="#D5A04B"/>
<path d="M9.625 18.375C9.91375 18.375 10.2025 18.375 10.5 18.375C10.5 18.6638 10.5 18.9525 10.5 19.25C10.2113 19.25 9.9225 19.25 9.625 19.25C9.625 18.9613 9.625 18.6725 9.625 18.375Z" fill="#D5A04B"/>
<path d="M7 18.375C7.28875 18.375 7.5775 18.375 7.875 18.375C7.875 18.6638 7.875 18.9525 7.875 19.25C7.58625 19.25 7.2975 19.25 7 19.25C7 18.9613 7 18.6725 7 18.375Z" fill="black"/>
<path d="M6.125 18.375C6.41375 18.375 6.7025 18.375 7 18.375C7 18.6638 7 18.9525 7 19.25C6.71125 19.25 6.4225 19.25 6.125 19.25C6.125 18.9613 6.125 18.6725 6.125 18.375Z" fill="#D5A04B"/>
<path d="M3.5 18.375C3.78875 18.375 4.0775 18.375 4.375 18.375C4.375 18.6638 4.375 18.9525 4.375 19.25C4.08625 19.25 3.7975 19.25 3.5 19.25C3.5 18.9613 3.5 18.6725 3.5 18.375Z" fill="black"/>
<path d="M14 17.5C14.2888 17.5 14.5775 17.5 14.875 17.5C14.875 17.7888 14.875 18.0775 14.875 18.375C14.5863 18.375 14.2975 18.375 14 18.375C14 18.0863 14 17.7975 14 17.5Z" fill="#D5A04B"/>
<path d="M7 17.5C7.28875 17.5 7.5775 17.5 7.875 17.5C7.875 17.7888 7.875 18.0775 7.875 18.375C7.58625 18.375 7.2975 18.375 7 18.375C7 18.0863 7 17.7975 7 17.5Z" fill="#D5A04B"/>
<path d="M14 12.25C14.2888 12.25 14.5775 12.25 14.875 12.25C14.875 12.5388 14.875 12.8275 14.875 13.125C14.5863 13.125 14.2975 13.125 14 13.125C14 12.8363 14 12.5475 14 12.25Z" fill="#C4913E"/>
<path d="M12.25 12.25C12.5388 12.25 12.8275 12.25 13.125 12.25C13.125 12.5388 13.125 12.8275 13.125 13.125C12.8363 13.125 12.5475 13.125 12.25 13.125C12.25 12.8363 12.25 12.5475 12.25 12.25Z" fill="#433723"/>
<path d="M14.875 10.5C15.1638 10.5 15.4525 10.5 15.75 10.5C15.75 10.7888 15.75 11.0775 15.75 11.375C15.4613 11.375 15.1725 11.375 14.875 11.375C14.875 11.0863 14.875 10.7975 14.875 10.5Z" fill="#3C3C3C"/>
<path d="M16.625 8.75C16.9138 8.75 17.2025 8.75 17.5 8.75C17.5 9.03875 17.5 9.3275 17.5 9.625C17.2113 9.625 16.9225 9.625 16.625 9.625C16.625 9.33625 16.625 9.0475 16.625 8.75Z" fill="#494949"/>
<path d="M19.25 7.875C19.5388 7.875 19.8275 7.875 20.125 7.875C20.125 8.16375 20.125 8.4525 20.125 8.75C19.8363 8.75 19.5475 8.75 19.25 8.75C19.25 8.46125 19.25 8.1725 19.25 7.875Z" fill="black"/>
<path d="M15.75 7.875C16.0388 7.875 16.3275 7.875 16.625 7.875C16.625 8.16375 16.625 8.4525 16.625 8.75C16.3363 8.75 16.0475 8.75 15.75 8.75C15.75 8.46125 15.75 8.1725 15.75 7.875Z" fill="#8F8F8F"/>
<path d="M14.875 7.875C15.1638 7.875 15.4525 7.875 15.75 7.875C15.75 8.16375 15.75 8.4525 15.75 8.75C15.4613 8.75 15.1725 8.75 14.875 8.75C14.875 8.46125 14.875 8.1725 14.875 7.875Z" fill="#C4913E"/>
<path d="M20.125 7C20.4138 7 20.7025 7 21 7C21 7.28875 21 7.5775 21 7.875C20.7113 7.875 20.4225 7.875 20.125 7.875C20.125 7.58625 20.125 7.2975 20.125 7Z" fill="black"/>
<path d="M17.5 7C17.7888 7 18.0775 7 18.375 7C18.375 7.28875 18.375 7.5775 18.375 7.875C18.0863 7.875 17.7975 7.875 17.5 7.875C17.5 7.58625 17.5 7.2975 17.5 7Z" fill="#3C3C3C"/>
<path d="M21.875 4.375C22.1638 4.375 22.4525 4.375 22.75 4.375C22.75 4.66375 22.75 4.9525 22.75 5.25C22.4613 5.25 22.1725 5.25 21.875 5.25C21.875 4.96125 21.875 4.6725 21.875 4.375Z" fill="black"/>
<path d="M19.25 4.375C19.5388 4.375 19.8275 4.375 20.125 4.375C20.125 4.66375 20.125 4.9525 20.125 5.25C19.8363 5.25 19.5475 5.25 19.25 5.25C19.25 4.96125 19.25 4.6725 19.25 4.375Z" fill="#3C3C3C"/>
<path d="M15.75 4.375C16.0388 4.375 16.3275 4.375 16.625 4.375C16.625 4.66375 16.625 4.9525 16.625 5.25C16.3363 5.25 16.0475 5.25 15.75 5.25C15.75 4.96125 15.75 4.6725 15.75 4.375Z" fill="#C4913E"/>
<path d="M1.75 4.375C2.03875 4.375 2.3275 4.375 2.625 4.375C2.625 4.66375 2.625 4.9525 2.625 5.25C2.33625 5.25 2.0475 5.25 1.75 5.25C1.75 4.96125 1.75 4.6725 1.75 4.375Z" fill="#C4913E"/>
<path d="M0.875 4.375C1.16375 4.375 1.4525 4.375 1.75 4.375C1.75 4.66375 1.75 4.9525 1.75 5.25C1.46125 5.25 1.1725 5.25 0.875 5.25C0.875 4.96125 0.875 4.6725 0.875 4.375Z" fill="black"/>
<path d="M22.75 3.5C23.0388 3.5 23.3275 3.5 23.625 3.5C23.625 3.78875 23.625 4.0775 23.625 4.375C23.3363 4.375 23.0475 4.375 22.75 4.375C22.75 4.08625 22.75 3.7975 22.75 3.5Z" fill="black"/>
<path d="M20.125 3.5C20.4138 3.5 20.7025 3.5 21 3.5C21 3.78875 21 4.0775 21 4.375C20.7113 4.375 20.4225 4.375 20.125 4.375C20.125 4.08625 20.125 3.7975 20.125 3.5Z" fill="#3C3C3C"/>
<path d="M17.5 3.5C17.7888 3.5 18.0775 3.5 18.375 3.5C18.375 3.78875 18.375 4.0775 18.375 4.375C18.0863 4.375 17.7975 4.375 17.5 4.375C17.5 4.08625 17.5 3.7975 17.5 3.5Z" fill="black"/>
<path d="M0 3.5C0.28875 3.5 0.5775 3.5 0.875 3.5C0.875 3.78875 0.875 4.0775 0.875 4.375C0.58625 4.375 0.2975 4.375 0 4.375C0 4.08625 0 3.7975 0 3.5Z" fill="black"/>
<path d="M23.625 2.625C23.9138 2.625 24.2025 2.625 24.5 2.625C24.5 2.91375 24.5 3.2025 24.5 3.5C24.2113 3.5 23.9225 3.5 23.625 3.5C23.625 3.21125 23.625 2.9225 23.625 2.625Z" fill="black"/>
<path d="M22.75 2.625C23.0388 2.625 23.3275 2.625 23.625 2.625C23.625 2.91375 23.625 3.2025 23.625 3.5C23.3363 3.5 23.0475 3.5 22.75 3.5C22.75 3.21125 22.75 2.9225 22.75 2.625Z" fill="#494949"/>
<path d="M18.375 2.625C18.6638 2.625 18.9525 2.625 19.25 2.625C19.25 2.91375 19.25 3.2025 19.25 3.5C18.9613 3.5 18.6725 3.5 18.375 3.5C18.375 3.21125 18.375 2.9225 18.375 2.625Z" fill="black"/>
<path d="M16.625 2.625C16.9138 2.625 17.2025 2.625 17.5 2.625C17.5 2.91375 17.5 3.2025 17.5 3.5C17.2113 3.5 16.9225 3.5 16.625 3.5C16.625 3.21125 16.625 2.9225 16.625 2.625Z" fill="black"/>
<path d="M0.875 2.625C1.16375 2.625 1.4525 2.625 1.75 2.625C1.75 2.91375 1.75 3.2025 1.75 3.5C1.46125 3.5 1.1725 3.5 0.875 3.5C0.875 3.21125 0.875 2.9225 0.875 2.625Z" fill="black"/>
<path d="M24.5 1.75C24.7888 1.75 25.0775 1.75 25.375 1.75C25.375 2.03875 25.375 2.3275 25.375 2.625C25.0863 2.625 24.7975 2.625 24.5 2.625C24.5 2.33625 24.5 2.0475 24.5 1.75Z" fill="black"/>
<path d="M22.75 1.75C23.0388 1.75 23.3275 1.75 23.625 1.75C23.625 2.03875 23.625 2.3275 23.625 2.625C23.3363 2.625 23.0475 2.625 22.75 2.625C22.75 2.33625 22.75 2.0475 22.75 1.75Z" fill="#3C3C3C"/>
</svg>
