<svg width="17" height="13" viewBox="0 0 17 13" fill="none" xmlns="http://www.w3.org/2000/svg">
<path d="M11.3333 0C10.0867 0 8.84 0 7.55556 0C7.55556 0.612857 7.55556 1.22571 7.55556 1.85714C6.30889 1.85714 5.06222 1.85714 3.77778 1.85714C3.77778 2.47 3.77778 3.08286 3.77778 3.71429C3.15444 3.71429 2.53111 3.71429 1.88889 3.71429C1.88889 4.32714 1.88889 4.94 1.88889 5.57143C1.26556 5.57143 0.642223 5.57143 0 5.57143C0 6.18429 0 6.79714 0 7.42857C0.623333 7.42857 1.24667 7.42857 1.88889 7.42857C1.88889 8.04143 1.88889 8.65429 1.88889 9.28571C2.51222 9.28571 3.13556 9.28571 3.77778 9.28571C3.77778 9.89857 3.77778 10.5114 3.77778 11.1429C5.02444 11.1429 6.27111 11.1429 7.55556 11.1429C7.55556 11.7557 7.55556 12.3686 7.55556 13C8.80222 13 10.0489 13 11.3333 13C11.3333 12.3871 11.3333 11.7743 11.3333 11.1429C12.58 11.1429 13.8267 11.1429 15.1111 11.1429C15.1111 10.53 15.1111 9.91714 15.1111 9.28571C15.7344 9.28571 16.3578 9.28571 17 9.28571C17 7.44714 17 5.60857 17 3.71429C16.3767 3.71429 15.7533 3.71429 15.1111 3.71429C15.1111 3.10143 15.1111 2.48857 15.1111 1.85714C13.8644 1.85714 12.6178 1.85714 11.3333 1.85714C11.3333 1.24429 11.3333 0.631429 11.3333 0Z" fill="#FFD56A"/>
<path d="M15.1111 1.85718C13.8644 1.85718 12.6178 1.85718 11.3333 1.85718C11.3333 2.47003 11.3333 3.08289 11.3333 3.71432C10.71 3.71432 10.0867 3.71432 9.44444 3.71432C9.44444 4.32718 9.44444 4.94003 9.44444 5.57146C10.0678 5.57146 10.6911 5.57146 11.3333 5.57146C11.3333 6.18432 11.3333 6.79718 11.3333 7.42861C10.71 7.42861 10.0867 7.42861 9.44444 7.42861C9.44444 8.04146 9.44444 8.65432 9.44444 9.28575C10.0678 9.28575 10.6911 9.28575 11.3333 9.28575C11.3333 9.89861 11.3333 10.5115 11.3333 11.1429C12.58 11.1429 13.8267 11.1429 15.1111 11.1429C15.1111 10.53 15.1111 9.91718 15.1111 9.28575C15.7344 9.28575 16.3578 9.28575 17 9.28575C17 7.44718 17 5.60861 17 3.71432C16.3767 3.71432 15.7533 3.71432 15.1111 3.71432C15.1111 3.10146 15.1111 2.48861 15.1111 1.85718Z" fill="#F1C75D"/>
<path d="M11.3333 0C10.0867 0 8.83999 0 7.55555 0C7.55555 4.29 7.55555 8.58 7.55555 13C8.80222 13 10.0489 13 11.3333 13C11.3333 11.7743 11.3333 10.5486 11.3333 9.28571C10.71 9.28571 10.0867 9.28571 9.44444 9.28571C9.44444 8.67286 9.44444 8.06 9.44444 7.42857C10.0678 7.42857 10.6911 7.42857 11.3333 7.42857C11.3333 6.81571 11.3333 6.20286 11.3333 5.57143C10.71 5.57143 10.0867 5.57143 9.44444 5.57143C9.44444 4.95857 9.44444 4.34571 9.44444 3.71429C10.0678 3.71429 10.6911 3.71429 11.3333 3.71429C11.3333 2.48857 11.3333 1.26286 11.3333 0Z" fill="#FFD56A"/>
<path d="M7.55556 5.57153C6.93222 5.57153 6.30889 5.57153 5.66667 5.57153C5.66667 6.18439 5.66667 6.79725 5.66667 7.42868C5.04333 7.42868 4.42 7.42868 3.77778 7.42868C3.77778 8.65439 3.77778 9.8801 3.77778 11.143C5.02445 11.143 6.27111 11.143 7.55556 11.143C7.55556 9.30439 7.55556 7.46582 7.55556 5.57153Z" fill="#D9B353"/>
<path d="M11.3333 0C10.0867 0 8.83999 0 7.55555 0C7.55555 1.83857 7.55555 3.67714 7.55555 5.57143C8.17888 5.57143 8.80222 5.57143 9.44444 5.57143C9.44444 4.95857 9.44444 4.34571 9.44444 3.71429C10.0678 3.71429 10.6911 3.71429 11.3333 3.71429C11.3333 2.48857 11.3333 1.26286 11.3333 0Z" fill="#FFD56A"/>
<path d="M13.2222 7.42847C11.9756 7.42847 10.7289 7.42847 9.44445 7.42847C9.44445 8.04132 9.44445 8.65418 9.44445 9.28561C10.0678 9.28561 10.6911 9.28561 11.3333 9.28561C11.3333 9.89847 11.3333 10.5113 11.3333 11.1428C12.58 11.1428 13.8267 11.1428 15.1111 11.1428C15.1111 10.5299 15.1111 9.91704 15.1111 9.28561C14.4878 9.28561 13.8644 9.28561 13.2222 9.28561C13.2222 8.67275 13.2222 8.0599 13.2222 7.42847Z" fill="black"/>
<path d="M15.1111 1.85718C13.8644 1.85718 12.6178 1.85718 11.3333 1.85718C11.3333 2.47003 11.3333 3.08289 11.3333 3.71432C10.71 3.71432 10.0867 3.71432 9.44445 3.71432C9.44445 4.32718 9.44445 4.94003 9.44445 5.57146C10.6911 5.57146 11.9378 5.57146 13.2222 5.57146C13.2222 4.95861 13.2222 4.34575 13.2222 3.71432C13.8456 3.71432 14.4689 3.71432 15.1111 3.71432C15.1111 3.10146 15.1111 2.48861 15.1111 1.85718Z" fill="black"/>
<path d="M17 3.71436C16.3767 3.71436 15.7533 3.71436 15.1111 3.71436C15.1111 5.55293 15.1111 7.3915 15.1111 9.28578C15.7344 9.28578 16.3578 9.28578 17 9.28578C17 7.44721 17 5.60864 17 3.71436Z" fill="black"/>
<path d="M11.3333 11.1428C10.0867 11.1428 8.83999 11.1428 7.55555 11.1428C7.55555 11.7557 7.55555 12.3685 7.55555 13C8.80222 13 10.0489 13 11.3333 13C11.3333 12.3871 11.3333 11.7743 11.3333 11.1428Z" fill="black"/>
<path d="M7.55556 9.28564C6.30889 9.28564 5.06222 9.28564 3.77778 9.28564C3.77778 9.8985 3.77778 10.5114 3.77778 11.1428C5.02445 11.1428 6.27111 11.1428 7.55556 11.1428C7.55556 10.5299 7.55556 9.91707 7.55556 9.28564Z" fill="black"/>
<path d="M11.3333 9.28564C10.0867 9.28564 8.83999 9.28564 7.55555 9.28564C7.55555 9.8985 7.55555 10.5114 7.55555 11.1428C8.80222 11.1428 10.0489 11.1428 11.3333 11.1428C11.3333 10.5299 11.3333 9.91707 11.3333 9.28564Z" fill="#D9B353"/>
<path d="M7.55556 1.85718C6.30889 1.85718 5.06222 1.85718 3.77778 1.85718C3.77778 2.47003 3.77778 3.08289 3.77778 3.71432C5.02445 3.71432 6.27111 3.71432 7.55556 3.71432C7.55556 3.10146 7.55556 2.48861 7.55556 1.85718Z" fill="black"/>
<path d="M11.3333 0C10.0867 0 8.83999 0 7.55555 0C7.55555 0.612857 7.55555 1.22571 7.55555 1.85714C8.80222 1.85714 10.0489 1.85714 11.3333 1.85714C11.3333 1.24429 11.3333 0.631429 11.3333 0Z" fill="black"/>
<path d="M3.77777 7.42847C3.15444 7.42847 2.5311 7.42847 1.88888 7.42847C1.88888 8.04132 1.88888 8.65418 1.88888 9.28561C2.51222 9.28561 3.13555 9.28561 3.77777 9.28561C3.77777 8.67275 3.77777 8.0599 3.77777 7.42847Z" fill="black"/>
<path d="M9.44444 7.42847C8.82111 7.42847 8.19778 7.42847 7.55555 7.42847C7.55555 8.04132 7.55555 8.65418 7.55555 9.28561C8.17889 9.28561 8.80222 9.28561 9.44444 9.28561C9.44444 8.67275 9.44444 8.0599 9.44444 7.42847Z" fill="#F1C75D"/>
<path d="M15.1111 7.42847C14.4878 7.42847 13.8644 7.42847 13.2222 7.42847C13.2222 8.04132 13.2222 8.65418 13.2222 9.28561C13.8456 9.28561 14.4689 9.28561 15.1111 9.28561C15.1111 8.67275 15.1111 8.0599 15.1111 7.42847Z" fill="#D9B353"/>
<path d="M1.88889 5.57153C1.26555 5.57153 0.642219 5.57153 -3.33786e-06 5.57153C-3.33786e-06 6.18439 -3.33786e-06 6.79725 -3.33786e-06 7.42868C0.62333 7.42868 1.24666 7.42868 1.88889 7.42868C1.88889 6.81582 1.88889 6.20296 1.88889 5.57153Z" fill="black"/>
<path d="M7.55556 5.57153C6.93222 5.57153 6.30889 5.57153 5.66667 5.57153C5.66667 6.18439 5.66667 6.79725 5.66667 7.42868C6.29 7.42868 6.91334 7.42868 7.55556 7.42868C7.55556 6.81582 7.55556 6.20296 7.55556 5.57153Z" fill="#FF3434"/>
<path d="M3.77777 3.71436C3.15444 3.71436 2.5311 3.71436 1.88888 3.71436C1.88888 4.32721 1.88888 4.94007 1.88888 5.5715C2.51222 5.5715 3.13555 5.5715 3.77777 5.5715C3.77777 4.95864 3.77777 4.34578 3.77777 3.71436Z" fill="black"/>
<path d="M9.44444 3.71436C8.82111 3.71436 8.19778 3.71436 7.55555 3.71436C7.55555 4.32721 7.55555 4.94007 7.55555 5.5715C8.17889 5.5715 8.80222 5.5715 9.44444 5.5715C9.44444 4.95864 9.44444 4.34578 9.44444 3.71436Z" fill="#F1C75D"/>
<path d="M15.1111 3.71436C14.4878 3.71436 13.8644 3.71436 13.2222 3.71436C13.2222 4.32721 13.2222 4.94007 13.2222 5.5715C13.8456 5.5715 14.4689 5.5715 15.1111 5.5715C15.1111 4.95864 15.1111 4.34578 15.1111 3.71436Z" fill="#FFD56A"/>
</svg>
