<svg width="23" height="13" viewBox="0 0 23 13" fill="none" xmlns="http://www.w3.org/2000/svg">
<path d="M11.5 0C10.235 0 8.97 0 7.66667 0C7.66667 0.612857 7.66667 1.22571 7.66667 1.85714C6.40167 1.85714 5.13667 1.85714 3.83333 1.85714C3.83333 2.47 3.83333 3.08286 3.83333 3.71429C3.20083 3.71429 2.56833 3.71429 1.91667 3.71429C1.91667 4.32714 1.91667 4.94 1.91667 5.57143C1.28417 5.57143 0.651667 5.57143 0 5.57143C0 6.18429 0 6.79714 0 7.42857C0.6325 7.42857 1.265 7.42857 1.91667 7.42857C1.91667 8.04143 1.91667 8.65429 1.91667 9.28571C2.54917 9.28571 3.18167 9.28571 3.83333 9.28571C3.83333 9.89857 3.83333 10.5114 3.83333 11.1429C5.09833 11.1429 6.36333 11.1429 7.66667 11.1429C7.66667 11.7557 7.66667 12.3686 7.66667 13C8.93167 13 10.1967 13 11.5 13C11.5 12.3871 11.5 11.7743 11.5 11.1429C12.765 11.1429 14.03 11.1429 15.3333 11.1429C15.3333 10.53 15.3333 9.91714 15.3333 9.28571C15.9658 9.28571 16.5983 9.28571 17.25 9.28571C17.25 9.89857 17.25 10.5114 17.25 11.1429C17.8825 11.1429 18.515 11.1429 19.1667 11.1429C19.1667 10.53 19.1667 9.91714 19.1667 9.28571C19.7992 9.28571 20.4317 9.28571 21.0833 9.28571C21.0833 8.67286 21.0833 8.06 21.0833 7.42857C21.7158 7.42857 22.3483 7.42857 23 7.42857C23 6.81571 23 6.20286 23 5.57143C22.3675 5.57143 21.735 5.57143 21.0833 5.57143C21.0833 4.95857 21.0833 4.34571 21.0833 3.71429C20.4508 3.71429 19.8183 3.71429 19.1667 3.71429C19.1667 3.10143 19.1667 2.48857 19.1667 1.85714C18.5342 1.85714 17.9017 1.85714 17.25 1.85714C17.25 2.47 17.25 3.08286 17.25 3.71429C16.6175 3.71429 15.985 3.71429 15.3333 3.71429C15.3333 3.10143 15.3333 2.48857 15.3333 1.85714C14.0683 1.85714 12.8033 1.85714 11.5 1.85714C11.5 1.24429 11.5 0.631429 11.5 0Z" fill="#FFD56A"/>
<path d="M19.1667 1.85718C18.5342 1.85718 17.9017 1.85718 17.25 1.85718C17.25 2.47003 17.25 3.08289 17.25 3.71432C16.6175 3.71432 15.985 3.71432 15.3333 3.71432C15.3333 4.94003 15.3333 6.16575 15.3333 7.42861C13.4358 7.42861 11.5383 7.42861 9.58333 7.42861C9.58333 8.04146 9.58333 8.65432 9.58333 9.28575C10.2158 9.28575 10.8483 9.28575 11.5 9.28575C11.5 9.89861 11.5 10.5115 11.5 11.1429C12.765 11.1429 14.03 11.1429 15.3333 11.1429C15.3333 10.53 15.3333 9.91718 15.3333 9.28575C15.9658 9.28575 16.5983 9.28575 17.25 9.28575C17.25 9.89861 17.25 10.5115 17.25 11.1429C17.8825 11.1429 18.515 11.1429 19.1667 11.1429C19.1667 10.53 19.1667 9.91718 19.1667 9.28575C19.7992 9.28575 20.4317 9.28575 21.0833 9.28575C21.0833 8.67289 21.0833 8.06003 21.0833 7.42861C21.7158 7.42861 22.3483 7.42861 23 7.42861C23 6.81575 23 6.20289 23 5.57146C22.3675 5.57146 21.735 5.57146 21.0833 5.57146C21.0833 4.95861 21.0833 4.34575 21.0833 3.71432C20.4508 3.71432 19.8183 3.71432 19.1667 3.71432C19.1667 3.10146 19.1667 2.48861 19.1667 1.85718Z" fill="#F1C75D"/>
<path d="M15.3333 3.71436C14.7008 3.71436 14.0683 3.71436 13.4167 3.71436C13.4167 4.32721 13.4167 4.94007 13.4167 5.5715C12.1517 5.5715 10.8867 5.5715 9.58333 5.5715C9.58333 4.95864 9.58333 4.34578 9.58333 3.71436C8.95083 3.71436 8.31833 3.71436 7.66666 3.71436C7.66666 6.77864 7.66666 9.84293 7.66666 13.0001C8.93166 13.0001 10.1967 13.0001 11.5 13.0001C11.5 11.7744 11.5 10.5486 11.5 9.28578C10.8675 9.28578 10.235 9.28578 9.58333 9.28578C9.58333 8.67293 9.58333 8.06007 9.58333 7.42864C11.4808 7.42864 13.3783 7.42864 15.3333 7.42864C15.3333 6.20293 15.3333 4.97721 15.3333 3.71436Z" fill="#F1C75D"/>
<path d="M11.5 0C10.235 0 8.97 0 7.66666 0C7.66666 0.612857 7.66666 1.22571 7.66666 1.85714C6.40166 1.85714 5.13666 1.85714 3.83333 1.85714C3.83333 2.47 3.83333 3.08286 3.83333 3.71429C5.73083 3.71429 7.62833 3.71429 9.58333 3.71429C9.58333 4.32714 9.58333 4.94 9.58333 5.57143C10.8483 5.57143 12.1133 5.57143 13.4167 5.57143C13.4167 4.95857 13.4167 4.34571 13.4167 3.71429C14.0492 3.71429 14.6817 3.71429 15.3333 3.71429C15.3333 3.10143 15.3333 2.48857 15.3333 1.85714C14.0683 1.85714 12.8033 1.85714 11.5 1.85714C11.5 1.24429 11.5 0.631429 11.5 0Z" fill="#FFD56A"/>
<path d="M19.1667 1.85718C18.5342 1.85718 17.9017 1.85718 17.25 1.85718C17.25 2.47003 17.25 3.08289 17.25 3.71432C16.6175 3.71432 15.985 3.71432 15.3333 3.71432C15.3333 4.32718 15.3333 4.94003 15.3333 5.57146C16.5983 5.57146 17.8633 5.57146 19.1667 5.57146C19.1667 6.79718 19.1667 8.02289 19.1667 9.28575C19.7992 9.28575 20.4317 9.28575 21.0833 9.28575C21.0833 8.67289 21.0833 8.06003 21.0833 7.42861C21.7158 7.42861 22.3483 7.42861 23 7.42861C23 6.81575 23 6.20289 23 5.57146C22.3675 5.57146 21.735 5.57146 21.0833 5.57146C21.0833 4.95861 21.0833 4.34575 21.0833 3.71432C20.4508 3.71432 19.8183 3.71432 19.1667 3.71432C19.1667 3.10146 19.1667 2.48861 19.1667 1.85718Z" fill="#ECC45E"/>
<path d="M7.66667 5.57153C7.03417 5.57153 6.40167 5.57153 5.75001 5.57153C5.75001 6.18439 5.75001 6.79725 5.75001 7.42868C5.11751 7.42868 4.48501 7.42868 3.83334 7.42868C3.83334 8.65439 3.83334 9.8801 3.83334 11.143C5.09834 11.143 6.36334 11.143 7.66667 11.143C7.66667 9.30439 7.66667 7.46582 7.66667 5.57153Z" fill="#D9B353"/>
<path d="M13.4167 7.42847C12.1517 7.42847 10.8867 7.42847 9.58333 7.42847C9.58333 8.04132 9.58333 8.65418 9.58333 9.28561C10.2158 9.28561 10.8483 9.28561 11.5 9.28561C11.5 9.89847 11.5 10.5113 11.5 11.1428C12.765 11.1428 14.03 11.1428 15.3333 11.1428C15.3333 10.5299 15.3333 9.91704 15.3333 9.28561C14.7008 9.28561 14.0683 9.28561 13.4167 9.28561C13.4167 8.67275 13.4167 8.0599 13.4167 7.42847Z" fill="black"/>
<path d="M15.3333 1.85718C14.0683 1.85718 12.8033 1.85718 11.5 1.85718C11.5 2.47003 11.5 3.08289 11.5 3.71432C10.8675 3.71432 10.235 3.71432 9.58333 3.71432C9.58333 4.32718 9.58333 4.94003 9.58333 5.57146C10.8483 5.57146 12.1133 5.57146 13.4167 5.57146C13.4167 4.95861 13.4167 4.34575 13.4167 3.71432C14.0492 3.71432 14.6817 3.71432 15.3333 3.71432C15.3333 3.10146 15.3333 2.48861 15.3333 1.85718Z" fill="black"/>
<path d="M11.5 11.1428C10.235 11.1428 8.97 11.1428 7.66667 11.1428C7.66667 11.7557 7.66667 12.3685 7.66667 13C8.93167 13 10.1967 13 11.5 13C11.5 12.3871 11.5 11.7743 11.5 11.1428Z" fill="black"/>
<path d="M7.66667 9.28564C6.40167 9.28564 5.13667 9.28564 3.83334 9.28564C3.83334 9.8985 3.83334 10.5114 3.83334 11.1428C5.09834 11.1428 6.36334 11.1428 7.66667 11.1428C7.66667 10.5299 7.66667 9.91707 7.66667 9.28564Z" fill="black"/>
<path d="M11.5 9.28564C10.235 9.28564 8.97 9.28564 7.66667 9.28564C7.66667 9.8985 7.66667 10.5114 7.66667 11.1428C8.93167 11.1428 10.1967 11.1428 11.5 11.1428C11.5 10.5299 11.5 9.91707 11.5 9.28564Z" fill="#D9B353"/>
<path d="M17.25 7.42847C15.985 7.42847 14.72 7.42847 13.4167 7.42847C13.4167 8.04132 13.4167 8.65418 13.4167 9.28561C14.6817 9.28561 15.9467 9.28561 17.25 9.28561C17.25 8.67275 17.25 8.0599 17.25 7.42847Z" fill="#D9B353"/>
<path d="M15.3333 3.71436C14.7008 3.71436 14.0683 3.71436 13.4167 3.71436C13.4167 4.94007 13.4167 6.16578 13.4167 7.42864C14.0492 7.42864 14.6817 7.42864 15.3333 7.42864C15.3333 6.20293 15.3333 4.97721 15.3333 3.71436Z" fill="#FF3434"/>
<path d="M7.66667 1.85718C6.40167 1.85718 5.13667 1.85718 3.83334 1.85718C3.83334 2.47003 3.83334 3.08289 3.83334 3.71432C5.09834 3.71432 6.36334 3.71432 7.66667 3.71432C7.66667 3.10146 7.66667 2.48861 7.66667 1.85718Z" fill="black"/>
<path d="M11.5 0C10.235 0 8.97 0 7.66667 0C7.66667 0.612857 7.66667 1.22571 7.66667 1.85714C8.93167 1.85714 10.1967 1.85714 11.5 1.85714C11.5 1.24429 11.5 0.631429 11.5 0Z" fill="black"/>
<path d="M19.1667 9.28564C18.5342 9.28564 17.9017 9.28564 17.25 9.28564C17.25 9.8985 17.25 10.5114 17.25 11.1428C17.8825 11.1428 18.515 11.1428 19.1667 11.1428C19.1667 10.5299 19.1667 9.91707 19.1667 9.28564Z" fill="black"/>
<path d="M3.83333 7.42847C3.20083 7.42847 2.56833 7.42847 1.91666 7.42847C1.91666 8.04132 1.91666 8.65418 1.91666 9.28561C2.54916 9.28561 3.18166 9.28561 3.83333 9.28561C3.83333 8.67275 3.83333 8.0599 3.83333 7.42847Z" fill="black"/>
<path d="M17.25 7.42847C16.6175 7.42847 15.985 7.42847 15.3333 7.42847C15.3333 8.04132 15.3333 8.65418 15.3333 9.28561C15.9658 9.28561 16.5983 9.28561 17.25 9.28561C17.25 8.67275 17.25 8.0599 17.25 7.42847Z" fill="black"/>
<path d="M19.1667 7.42847C18.5342 7.42847 17.9017 7.42847 17.25 7.42847C17.25 8.04132 17.25 8.65418 17.25 9.28561C17.8825 9.28561 18.515 9.28561 19.1667 9.28561C19.1667 8.67275 19.1667 8.0599 19.1667 7.42847Z" fill="#D9B353"/>
<path d="M21.0833 7.42847C20.4508 7.42847 19.8183 7.42847 19.1667 7.42847C19.1667 8.04132 19.1667 8.65418 19.1667 9.28561C19.7992 9.28561 20.4317 9.28561 21.0833 9.28561C21.0833 8.67275 21.0833 8.0599 21.0833 7.42847Z" fill="black"/>
<path d="M1.91667 5.57153C1.28417 5.57153 0.651672 5.57153 5.126e-06 5.57153C5.126e-06 6.18439 5.126e-06 6.79725 5.126e-06 7.42868C0.632505 7.42868 1.26501 7.42868 1.91667 7.42868C1.91667 6.81582 1.91667 6.20296 1.91667 5.57153Z" fill="black"/>
<path d="M7.66667 5.57153C7.03417 5.57153 6.40167 5.57153 5.75001 5.57153C5.75001 6.18439 5.75001 6.79725 5.75001 7.42868C6.38251 7.42868 7.01501 7.42868 7.66667 7.42868C7.66667 6.81582 7.66667 6.20296 7.66667 5.57153Z" fill="#FF3434"/>
<path d="M13.4167 5.57153C12.7842 5.57153 12.1517 5.57153 11.5 5.57153C11.5 6.18439 11.5 6.79725 11.5 7.42868C12.1325 7.42868 12.765 7.42868 13.4167 7.42868C13.4167 6.81582 13.4167 6.20296 13.4167 5.57153Z" fill="#FFD56A"/>
<path d="M23 5.57153C22.3675 5.57153 21.735 5.57153 21.0833 5.57153C21.0833 6.18439 21.0833 6.79725 21.0833 7.42868C21.7158 7.42868 22.3483 7.42868 23 7.42868C23 6.81582 23 6.20296 23 5.57153Z" fill="black"/>
<path d="M3.83333 3.71436C3.20083 3.71436 2.56833 3.71436 1.91666 3.71436C1.91666 4.32721 1.91666 4.94007 1.91666 5.5715C2.54916 5.5715 3.18166 5.5715 3.83333 5.5715C3.83333 4.95864 3.83333 4.34578 3.83333 3.71436Z" fill="black"/>
<path d="M15.3333 3.71436C14.7008 3.71436 14.0683 3.71436 13.4167 3.71436C13.4167 4.32721 13.4167 4.94007 13.4167 5.5715C14.0492 5.5715 14.6817 5.5715 15.3333 5.5715C15.3333 4.95864 15.3333 4.34578 15.3333 3.71436Z" fill="#FFD56A"/>
<path d="M17.25 3.71436C16.6175 3.71436 15.985 3.71436 15.3333 3.71436C15.3333 4.32721 15.3333 4.94007 15.3333 5.5715C15.9658 5.5715 16.5983 5.5715 17.25 5.5715C17.25 4.95864 17.25 4.34578 17.25 3.71436Z" fill="black"/>
<path d="M21.0833 3.71436C20.4508 3.71436 19.8183 3.71436 19.1667 3.71436C19.1667 4.32721 19.1667 4.94007 19.1667 5.5715C19.7992 5.5715 20.4317 5.5715 21.0833 5.5715C21.0833 4.95864 21.0833 4.34578 21.0833 3.71436Z" fill="black"/>
<path d="M19.1667 1.85718C18.5342 1.85718 17.9017 1.85718 17.25 1.85718C17.25 2.47003 17.25 3.08289 17.25 3.71432C17.8825 3.71432 18.515 3.71432 19.1667 3.71432C19.1667 3.10146 19.1667 2.48861 19.1667 1.85718Z" fill="black"/>
</svg>
