<svg width="103" height="48" viewBox="0 0 103 48" fill="none" xmlns="http://www.w3.org/2000/svg">
<path d="M3.42857 0C3.99429 0 4.56 0 5.14286 0C5.14286 0.565714 5.14286 1.13143 5.14286 1.71429C5.70857 1.71429 6.27429 1.71429 6.85714 1.71429C6.85714 2.84571 6.85714 3.97714 6.85714 5.14286C6.29143 5.14286 5.72571 5.14286 5.14286 5.14286C5.14286 7.40571 5.14286 9.66857 5.14286 12C5.70857 12 6.27429 12 6.85714 12C6.85714 11.4343 6.85714 10.8686 6.85714 10.2857C7.42286 10.2857 7.98857 10.2857 8.57143 10.2857C8.57143 9.72 8.57143 9.15429 8.57143 8.57143C9.13714 8.57143 9.70286 8.57143 10.2857 8.57143C10.2857 8.00571 10.2857 7.44 10.2857 6.85714C11.9829 6.85714 13.68 6.85714 15.4286 6.85714C15.4286 7.42286 15.4286 7.98857 15.4286 8.57143C15.9943 8.57143 16.56 8.57143 17.1429 8.57143C17.1429 9.13714 17.1429 9.70286 17.1429 10.2857C17.7086 10.2857 18.2743 10.2857 18.8571 10.2857C18.8571 9.72 18.8571 9.15429 18.8571 8.57143C19.4229 8.57143 19.9886 8.57143 20.5714 8.57143C20.5714 8.00571 20.5714 7.44 20.5714 6.85714C21.1371 6.85714 21.7029 6.85714 22.2857 6.85714C22.2857 6.29143 22.2857 5.72571 22.2857 5.14286C26.2457 5.14286 30.2057 5.14286 34.2857 5.14286C34.2857 5.70857 34.2857 6.27429 34.2857 6.85714C34.8514 6.85714 35.4171 6.85714 36 6.85714C36 7.42286 36 7.98857 36 8.57143C36.5657 8.57143 37.1314 8.57143 37.7143 8.57143C37.7143 9.70286 37.7143 10.8343 37.7143 12C38.28 12 38.8457 12 39.4286 12C39.4286 15.96 39.4286 19.92 39.4286 24C38.8629 24 38.2971 24 37.7143 24C37.7143 25.1314 37.7143 26.2629 37.7143 27.4286C37.1486 27.4286 36.5829 27.4286 36 27.4286C36 27.9943 36 28.56 36 29.1429C35.4343 29.1429 34.8686 29.1429 34.2857 29.1429C34.2857 29.7086 34.2857 30.2743 34.2857 30.8571C33.72 30.8571 33.1543 30.8571 32.5714 30.8571C32.5714 31.9886 32.5714 33.12 32.5714 34.2857C33.1371 34.2857 33.7029 34.2857 34.2857 34.2857C34.2857 34.8514 34.2857 35.4171 34.2857 36C34.8514 36 35.4171 36 36 36C36 35.4343 36 34.8686 36 34.2857C36.5657 34.2857 37.1314 34.2857 37.7143 34.2857C37.7143 33.72 37.7143 33.1543 37.7143 32.5714C38.28 32.5714 38.8457 32.5714 39.4286 32.5714C39.4286 33.1371 39.4286 33.7029 39.4286 34.2857C39.9943 34.2857 40.56 34.2857 41.1429 34.2857C41.1429 34.8514 41.1429 35.4171 41.1429 36C41.7086 36 42.2743 36 42.8571 36C42.8571 36.5657 42.8571 37.1314 42.8571 37.7143C43.4229 37.7143 43.9886 37.7143 44.5714 37.7143C44.5714 38.28 44.5714 38.8457 44.5714 39.4286C45.1371 39.4286 45.7029 39.4286 46.2857 39.4286C46.2857 40.56 46.2857 41.6914 46.2857 42.8571C46.8514 42.8571 47.4171 42.8571 48 42.8571C48 44.5543 48 46.2514 48 48C34.9886 48 21.9771 48 8.57143 48C8.57143 46.3029 8.57143 44.6057 8.57143 42.8571C9.13714 42.8571 9.70286 42.8571 10.2857 42.8571C10.2857 41.7257 10.2857 40.5943 10.2857 39.4286C10.8514 39.4286 11.4171 39.4286 12 39.4286C12 38.8629 12 38.2971 12 37.7143C12.5657 37.7143 13.1314 37.7143 13.7143 37.7143C13.7143 37.1486 13.7143 36.5829 13.7143 36C14.8457 36 15.9771 36 17.1429 36C17.1429 35.4343 17.1429 34.8686 17.1429 34.2857C17.7086 34.2857 18.2743 34.2857 18.8571 34.2857C18.8571 33.72 18.8571 33.1543 18.8571 32.5714C19.4229 32.5714 19.9886 32.5714 20.5714 32.5714C20.5714 33.1371 20.5714 33.7029 20.5714 34.2857C21.7029 34.2857 22.8343 34.2857 24 34.2857C24 33.1543 24 32.0229 24 30.8571C23.4343 30.8571 22.8686 30.8571 22.2857 30.8571C22.2857 30.2914 22.2857 29.7257 22.2857 29.1429C21.72 29.1429 21.1543 29.1429 20.5714 29.1429C20.5714 28.5771 20.5714 28.0114 20.5714 27.4286C20.0057 27.4286 19.44 27.4286 18.8571 27.4286C18.8571 26.2971 18.8571 25.1657 18.8571 24C18.2914 24 17.7257 24 17.1429 24C17.1429 25.1314 17.1429 26.2629 17.1429 27.4286C16.5771 27.4286 16.0114 27.4286 15.4286 27.4286C15.4286 27.9943 15.4286 28.56 15.4286 29.1429C14.8629 29.1429 14.2971 29.1429 13.7143 29.1429C13.7143 29.7086 13.7143 30.2743 13.7143 30.8571C12.0171 30.8571 10.32 30.8571 8.57143 30.8571C8.57143 30.2914 8.57143 29.7257 8.57143 29.1429C7.44 29.1429 6.30857 29.1429 5.14286 29.1429C5.14286 28.5771 5.14286 28.0114 5.14286 27.4286C4.57714 27.4286 4.01143 27.4286 3.42857 27.4286C3.42857 26.8629 3.42857 26.2971 3.42857 25.7143C3.99429 25.7143 4.56 25.7143 5.14286 25.7143C5.14286 25.1486 5.14286 24.5829 5.14286 24C6.27429 24 7.40571 24 8.57143 24C8.57143 24.5657 8.57143 25.1314 8.57143 25.7143C9.70286 25.7143 10.8343 25.7143 12 25.7143C12 24.5829 12 23.4514 12 22.2857C11.4343 22.2857 10.8686 22.2857 10.2857 22.2857C10.2857 20.5886 10.2857 18.8914 10.2857 17.1429C10.8514 17.1429 11.4171 17.1429 12 17.1429C12 16.5771 12 16.0114 12 15.4286C12.5657 15.4286 13.1314 15.4286 13.7143 15.4286C13.7143 14.8629 13.7143 14.2971 13.7143 13.7143C14.28 13.7143 14.8457 13.7143 15.4286 13.7143C15.4286 13.1486 15.4286 12.5829 15.4286 12C13.7314 12 12.0343 12 10.2857 12C10.2857 13.1314 10.2857 14.2629 10.2857 15.4286C9.72 15.4286 9.15429 15.4286 8.57143 15.4286C8.57143 15.9943 8.57143 16.56 8.57143 17.1429C6.87429 17.1429 5.17714 17.1429 3.42857 17.1429C3.42857 16.5771 3.42857 16.0114 3.42857 15.4286C2.86286 15.4286 2.29714 15.4286 1.71429 15.4286C1.71429 14.8629 1.71429 14.2971 1.71429 13.7143C1.14857 13.7143 0.582857 13.7143 0 13.7143C0 10.8857 0 8.05714 0 5.14286C0.565714 5.14286 1.13143 5.14286 1.71429 5.14286C1.71429 4.01143 1.71429 2.88 1.71429 1.71429C2.28 1.71429 2.84571 1.71429 3.42857 1.71429C3.42857 1.14857 3.42857 0.582857 3.42857 0ZM15.4286 17.1429C15.4286 18.84 15.4286 20.5371 15.4286 22.2857C15.9943 22.2857 16.56 22.2857 17.1429 22.2857C17.1429 20.5886 17.1429 18.8914 17.1429 17.1429C16.5771 17.1429 16.0114 17.1429 15.4286 17.1429Z" fill="#B30808"/>
<path d="M3.42857 0C3.99429 0 4.56 0 5.14286 0C5.14286 0.565714 5.14286 1.13143 5.14286 1.71429C5.70857 1.71429 6.27429 1.71429 6.85714 1.71429C6.85714 2.84571 6.85714 3.97714 6.85714 5.14286C6.29143 5.14286 5.72571 5.14286 5.14286 5.14286C5.14286 7.40571 5.14286 9.66857 5.14286 12C5.70857 12 6.27429 12 6.85714 12C6.85714 11.4343 6.85714 10.8686 6.85714 10.2857C7.42286 10.2857 7.98857 10.2857 8.57143 10.2857C8.57143 9.72 8.57143 9.15429 8.57143 8.57143C9.13714 8.57143 9.70286 8.57143 10.2857 8.57143C10.2857 8.00571 10.2857 7.44 10.2857 6.85714C11.9829 6.85714 13.68 6.85714 15.4286 6.85714C15.4286 7.42286 15.4286 7.98857 15.4286 8.57143C15.9943 8.57143 16.56 8.57143 17.1429 8.57143C17.1429 9.13714 17.1429 9.70286 17.1429 10.2857C17.7086 10.2857 18.2743 10.2857 18.8571 10.2857C18.8571 9.72 18.8571 9.15429 18.8571 8.57143C19.4229 8.57143 19.9886 8.57143 20.5714 8.57143C20.5714 8.00571 20.5714 7.44 20.5714 6.85714C21.1371 6.85714 21.7029 6.85714 22.2857 6.85714C22.2857 6.29143 22.2857 5.72571 22.2857 5.14286C26.2457 5.14286 30.2057 5.14286 34.2857 5.14286C34.2857 5.70857 34.2857 6.27429 34.2857 6.85714C34.8514 6.85714 35.4171 6.85714 36 6.85714C36 7.42286 36 7.98857 36 8.57143C36.5657 8.57143 37.1314 8.57143 37.7143 8.57143C37.7143 9.70286 37.7143 10.8343 37.7143 12C38.28 12 38.8457 12 39.4286 12C39.4286 15.96 39.4286 19.92 39.4286 24C38.8629 24 38.2971 24 37.7143 24C37.7143 21.7371 37.7143 19.4743 37.7143 17.1429C33.1886 17.1429 28.6629 17.1429 24 17.1429C24 16.5771 24 16.0114 24 15.4286C27.96 15.4286 31.92 15.4286 36 15.4286C36 14.8629 36 14.2971 36 13.7143C35.4343 13.7143 34.8686 13.7143 34.2857 13.7143C34.2857 13.1486 34.2857 12.5829 34.2857 12C29.76 12 25.2343 12 20.5714 12C20.5714 12.5657 20.5714 13.1314 20.5714 13.7143C20.0057 13.7143 19.44 13.7143 18.8571 13.7143C18.8571 14.28 18.8571 14.8457 18.8571 15.4286C19.9886 15.4286 21.12 15.4286 22.2857 15.4286C22.2857 15.9943 22.2857 16.56 22.2857 17.1429C21.1543 17.1429 20.0229 17.1429 18.8571 17.1429C18.8571 19.4057 18.8571 21.6686 18.8571 24C18.2914 24 17.7257 24 17.1429 24C17.1429 25.1314 17.1429 26.2629 17.1429 27.4286C16.5771 27.4286 16.0114 27.4286 15.4286 27.4286C15.4286 27.9943 15.4286 28.56 15.4286 29.1429C14.8629 29.1429 14.2971 29.1429 13.7143 29.1429C13.7143 29.7086 13.7143 30.2743 13.7143 30.8571C12.0171 30.8571 10.32 30.8571 8.57143 30.8571C8.57143 30.2914 8.57143 29.7257 8.57143 29.1429C7.44 29.1429 6.30857 29.1429 5.14286 29.1429C5.14286 28.5771 5.14286 28.0114 5.14286 27.4286C4.57714 27.4286 4.01143 27.4286 3.42857 27.4286C3.42857 26.8629 3.42857 26.2971 3.42857 25.7143C3.99429 25.7143 4.56 25.7143 5.14286 25.7143C5.14286 25.1486 5.14286 24.5829 5.14286 24C6.27429 24 7.40571 24 8.57143 24C8.57143 24.5657 8.57143 25.1314 8.57143 25.7143C9.70286 25.7143 10.8343 25.7143 12 25.7143C12 24.5829 12 23.4514 12 22.2857C11.4343 22.2857 10.8686 22.2857 10.2857 22.2857C10.2857 20.5886 10.2857 18.8914 10.2857 17.1429C10.8514 17.1429 11.4171 17.1429 12 17.1429C12 16.5771 12 16.0114 12 15.4286C12.5657 15.4286 13.1314 15.4286 13.7143 15.4286C13.7143 14.8629 13.7143 14.2971 13.7143 13.7143C14.28 13.7143 14.8457 13.7143 15.4286 13.7143C15.4286 13.1486 15.4286 12.5829 15.4286 12C13.7314 12 12.0343 12 10.2857 12C10.2857 13.1314 10.2857 14.2629 10.2857 15.4286C9.72 15.4286 9.15429 15.4286 8.57143 15.4286C8.57143 15.9943 8.57143 16.56 8.57143 17.1429C6.87429 17.1429 5.17714 17.1429 3.42857 17.1429C3.42857 16.5771 3.42857 16.0114 3.42857 15.4286C2.86286 15.4286 2.29714 15.4286 1.71429 15.4286C1.71429 14.8629 1.71429 14.2971 1.71429 13.7143C1.14857 13.7143 0.582857 13.7143 0 13.7143C0 10.8857 0 8.05714 0 5.14286C0.565714 5.14286 1.13143 5.14286 1.71429 5.14286C1.71429 4.01143 1.71429 2.88 1.71429 1.71429C2.28 1.71429 2.84571 1.71429 3.42857 1.71429C3.42857 1.14857 3.42857 0.582857 3.42857 0ZM15.4286 17.1429C15.4286 18.84 15.4286 20.5371 15.4286 22.2857C15.9943 22.2857 16.56 22.2857 17.1429 22.2857C17.1429 20.5886 17.1429 18.8914 17.1429 17.1429C16.5771 17.1429 16.0114 17.1429 15.4286 17.1429Z" fill="#8C0404"/>
<path d="M20.5715 12C25.0972 12 29.6229 12 34.2857 12C34.2857 12.5657 34.2857 13.1314 34.2857 13.7143C34.8515 13.7143 35.4172 13.7143 36 13.7143C36 14.28 36 14.8457 36 15.4286C32.04 15.4286 28.08 15.4286 24 15.4286C24 15.9943 24 16.56 24 17.1429C28.5257 17.1429 33.0515 17.1429 37.7143 17.1429C37.7143 20.5371 37.7143 23.9314 37.7143 27.4286C37.1486 27.4286 36.5829 27.4286 36 27.4286C36 27.9943 36 28.56 36 29.1429C35.4343 29.1429 34.8686 29.1429 34.2857 29.1429C34.2857 29.7086 34.2857 30.2743 34.2857 30.8571C33.1543 30.8571 32.0229 30.8571 30.8572 30.8571C30.8572 31.4229 30.8572 31.9886 30.8572 32.5714C29.7257 32.5714 28.5943 32.5714 27.4286 32.5714C27.4286 32.0057 27.4286 31.44 27.4286 30.8571C25.7315 30.8571 24.0343 30.8571 22.2857 30.8571C22.2857 30.2914 22.2857 29.7257 22.2857 29.1429C21.72 29.1429 21.1543 29.1429 20.5715 29.1429C20.5715 28.5771 20.5715 28.0114 20.5715 27.4286C20.0057 27.4286 19.44 27.4286 18.8572 27.4286C18.8572 24.0343 18.8572 20.64 18.8572 17.1429C19.9886 17.1429 21.12 17.1429 22.2857 17.1429C22.2857 16.5771 22.2857 16.0114 22.2857 15.4286C21.1543 15.4286 20.0229 15.4286 18.8572 15.4286C18.8572 14.8629 18.8572 14.2971 18.8572 13.7143C19.4229 13.7143 19.9886 13.7143 20.5715 13.7143C20.5715 13.1486 20.5715 12.5829 20.5715 12Z" fill="#B60909"/>
<path d="M37.7143 39.4286C38.28 39.4286 38.8457 39.4286 39.4286 39.4286C39.4286 41.6914 39.4286 43.9543 39.4286 46.2857C41.6914 46.2857 43.9543 46.2857 46.2857 46.2857C46.2857 45.1543 46.2857 44.0229 46.2857 42.8572C46.8514 42.8572 47.4171 42.8572 48 42.8572C48 44.5543 48 46.2514 48 48C34.9886 48 21.9771 48 8.57141 48C8.57141 46.3029 8.57141 44.6057 8.57141 42.8572C9.13713 42.8572 9.70284 42.8572 10.2857 42.8572C10.2857 43.9886 10.2857 45.12 10.2857 46.2857C13.1143 46.2857 15.9428 46.2857 18.8571 46.2857C18.8571 45.1543 18.8571 44.0229 18.8571 42.8572C19.4228 42.8572 19.9886 42.8572 20.5714 42.8572C20.5714 43.9886 20.5714 45.12 20.5714 46.2857C25.6628 46.2857 30.7543 46.2857 36 46.2857C36 45.1543 36 44.0229 36 42.8572C36.5657 42.8572 37.1314 42.8572 37.7143 42.8572C37.7143 41.7257 37.7143 40.5943 37.7143 39.4286Z" fill="black"/>
<path d="M25.7143 6.85718C29.1086 6.85718 32.5029 6.85718 36 6.85718C36 7.42289 36 7.98861 36 8.57146C36.5657 8.57146 37.1314 8.57146 37.7143 8.57146C37.7143 9.70289 37.7143 10.8343 37.7143 12C38.28 12 38.8457 12 39.4286 12C39.4286 15.96 39.4286 19.92 39.4286 24C38.8629 24 38.2971 24 37.7143 24C37.7143 21.7372 37.7143 19.4743 37.7143 17.1429C33.1886 17.1429 28.6629 17.1429 24 17.1429C24 16.5772 24 16.0115 24 15.4286C27.96 15.4286 31.92 15.4286 36 15.4286C36 14.8629 36 14.2972 36 13.7143C35.4343 13.7143 34.8686 13.7143 34.2857 13.7143C34.2857 13.1486 34.2857 12.5829 34.2857 12C33.72 12 33.1543 12 32.5714 12C32.5714 11.4343 32.5714 10.8686 32.5714 10.2857C31.44 10.2857 30.3086 10.2857 29.1429 10.2857C29.1429 9.72003 29.1429 9.15432 29.1429 8.57146C28.0114 8.57146 26.88 8.57146 25.7143 8.57146C25.7143 8.00575 25.7143 7.44003 25.7143 6.85718Z" fill="#B60909"/>
<path d="M3.42857 0C3.99429 0 4.56 0 5.14286 0C5.14286 0.565714 5.14286 1.13143 5.14286 1.71429C5.70857 1.71429 6.27429 1.71429 6.85714 1.71429C6.85714 2.84571 6.85714 3.97714 6.85714 5.14286C6.29143 5.14286 5.72571 5.14286 5.14286 5.14286C5.14286 7.40571 5.14286 9.66857 5.14286 12C6.27429 12 7.40571 12 8.57143 12C8.57143 13.6971 8.57143 15.3943 8.57143 17.1429C6.87429 17.1429 5.17714 17.1429 3.42857 17.1429C3.42857 16.5771 3.42857 16.0114 3.42857 15.4286C2.86286 15.4286 2.29714 15.4286 1.71429 15.4286C1.71429 14.8629 1.71429 14.2971 1.71429 13.7143C1.14857 13.7143 0.582857 13.7143 0 13.7143C0 10.8857 0 8.05714 0 5.14286C0.565714 5.14286 1.13143 5.14286 1.71429 5.14286C1.71429 4.01143 1.71429 2.88 1.71429 1.71429C2.28 1.71429 2.84571 1.71429 3.42857 1.71429C3.42857 1.14857 3.42857 0.582857 3.42857 0Z" fill="#8C0404"/>
<path d="M20.5715 12C25.0972 12 29.6229 12 34.2857 12C34.2857 12.5657 34.2857 13.1314 34.2857 13.7143C34.8515 13.7143 35.4172 13.7143 36 13.7143C36 14.28 36 14.8457 36 15.4286C32.04 15.4286 28.08 15.4286 24 15.4286C24 15.9943 24 16.56 24 17.1429C28.5257 17.1429 33.0515 17.1429 37.7143 17.1429C37.7143 17.7086 37.7143 18.2743 37.7143 18.8571C31.4915 18.8571 25.2686 18.8571 18.8572 18.8571C18.8572 18.2914 18.8572 17.7257 18.8572 17.1429C19.9886 17.1429 21.12 17.1429 22.2857 17.1429C22.2857 16.5771 22.2857 16.0114 22.2857 15.4286C21.1543 15.4286 20.0229 15.4286 18.8572 15.4286C18.8572 14.8629 18.8572 14.2971 18.8572 13.7143C19.4229 13.7143 19.9886 13.7143 20.5715 13.7143C20.5715 13.1486 20.5715 12.5829 20.5715 12Z" fill="#8C0404"/>
<path d="M12.0001 37.7142C13.6972 37.7142 15.3943 37.7142 17.1429 37.7142C17.1429 39.4114 17.1429 41.1085 17.1429 42.8571C17.7086 42.8571 18.2743 42.8571 18.8572 42.8571C18.8572 43.9885 18.8572 45.1199 18.8572 46.2857C16.0286 46.2857 13.2001 46.2857 10.2858 46.2857C10.2858 44.0228 10.2858 41.7599 10.2858 39.4285C10.8515 39.4285 11.4172 39.4285 12.0001 39.4285C12.0001 38.8628 12.0001 38.2971 12.0001 37.7142Z" fill="#B00808"/>
<path d="M24 30.8572C25.1314 30.8572 26.2628 30.8572 27.4286 30.8572C27.4286 31.4229 27.4286 31.9886 27.4286 32.5715C28.56 32.5715 29.6914 32.5715 30.8571 32.5715C30.8571 32.0057 30.8571 31.44 30.8571 30.8572C31.4228 30.8572 31.9886 30.8572 32.5714 30.8572C32.5714 31.9886 32.5714 33.12 32.5714 34.2857C33.1371 34.2857 33.7028 34.2857 34.2857 34.2857C34.2857 34.8515 34.2857 35.4172 34.2857 36C33.72 36 33.1543 36 32.5714 36C32.5714 36.5657 32.5714 37.1315 32.5714 37.7143C32.0057 37.7143 31.44 37.7143 30.8571 37.7143C30.8571 37.1486 30.8571 36.5829 30.8571 36C29.16 36 27.4628 36 25.7143 36C25.7143 36.5657 25.7143 37.1315 25.7143 37.7143C25.1486 37.7143 24.5828 37.7143 24 37.7143C24 37.1486 24 36.5829 24 36C22.8686 36 21.7371 36 20.5714 36C20.5714 35.4343 20.5714 34.8686 20.5714 34.2857C21.7028 34.2857 22.8343 34.2857 24 34.2857C24 33.1543 24 32.0229 24 30.8572Z" fill="#8C0404"/>
<path d="M39.4286 39.4286C41.6914 39.4286 43.9543 39.4286 46.2857 39.4286C46.2857 41.6914 46.2857 43.9543 46.2857 46.2857C44.0229 46.2857 41.76 46.2857 39.4286 46.2857C39.4286 44.0229 39.4286 41.76 39.4286 39.4286Z" fill="#B60909"/>
<path d="M37.7143 12C38.28 12 38.8457 12 39.4286 12C39.4286 15.96 39.4286 19.92 39.4286 24C38.8629 24 38.2971 24 37.7143 24C37.7143 21.7371 37.7143 19.4743 37.7143 17.1429C33.1886 17.1429 28.6629 17.1429 24 17.1429C24 16.5771 24 16.0114 24 15.4286C28.5257 15.4286 33.0514 15.4286 37.7143 15.4286C37.7143 14.2971 37.7143 13.1657 37.7143 12Z" fill="black"/>
<path d="M3.42852 0C3.99423 0 4.55995 0 5.1428 0C5.1428 0.565714 5.1428 1.13143 5.1428 1.71429C5.70852 1.71429 6.27423 1.71429 6.85709 1.71429C6.85709 2.84571 6.85709 3.97714 6.85709 5.14286C6.29138 5.14286 5.72566 5.14286 5.1428 5.14286C5.1428 7.40571 5.1428 9.66857 5.1428 12C5.70852 12 6.27423 12 6.85709 12C6.85709 12.5657 6.85709 13.1314 6.85709 13.7143C5.72566 13.7143 4.59423 13.7143 3.42852 13.7143C3.42852 10.8857 3.42852 8.05714 3.42852 5.14286C2.8628 5.14286 2.29709 5.14286 1.71423 5.14286C1.71423 4.01143 1.71423 2.88 1.71423 1.71429C2.27995 1.71429 2.84566 1.71429 3.42852 1.71429C3.42852 1.14857 3.42852 0.582857 3.42852 0Z" fill="#B60909"/>
<path d="M12 22.2858C12.5657 22.2858 13.1314 22.2858 13.7143 22.2858C13.7143 23.9829 13.7143 25.6801 13.7143 27.4286C12.0172 27.4286 10.32 27.4286 8.57145 27.4286C8.57145 27.9943 8.57145 28.5601 8.57145 29.1429C7.44002 29.1429 6.30859 29.1429 5.14287 29.1429C5.14287 28.5772 5.14287 28.0115 5.14287 27.4286C4.57716 27.4286 4.01145 27.4286 3.42859 27.4286C3.42859 26.8629 3.42859 26.2972 3.42859 25.7143C3.9943 25.7143 4.56002 25.7143 5.14287 25.7143C5.14287 25.1486 5.14287 24.5829 5.14287 24.0001C6.2743 24.0001 7.40573 24.0001 8.57145 24.0001C8.57145 24.5658 8.57145 25.1315 8.57145 25.7143C9.70287 25.7143 10.8343 25.7143 12 25.7143C12 24.5829 12 23.4515 12 22.2858Z" fill="#B60909"/>
<path d="M17.1429 13.7142C17.7086 13.7142 18.2743 13.7142 18.8572 13.7142C18.8572 14.2799 18.8572 14.8457 18.8572 15.4285C19.9886 15.4285 21.12 15.4285 22.2857 15.4285C22.2857 15.9942 22.2857 16.5599 22.2857 17.1428C21.1543 17.1428 20.0229 17.1428 18.8572 17.1428C18.8572 19.4057 18.8572 21.6685 18.8572 23.9999C18.2914 23.9999 17.7257 23.9999 17.1429 23.9999C17.1429 25.1314 17.1429 26.2628 17.1429 27.4285C16.5772 27.4285 16.0114 27.4285 15.4286 27.4285C15.4286 25.7314 15.4286 24.0342 15.4286 22.2857C15.9943 22.2857 16.56 22.2857 17.1429 22.2857C17.1429 20.5885 17.1429 18.8914 17.1429 17.1428C16.5772 17.1428 16.0114 17.1428 15.4286 17.1428C15.4286 16.5771 15.4286 16.0114 15.4286 15.4285C15.9943 15.4285 16.56 15.4285 17.1429 15.4285C17.1429 14.8628 17.1429 14.2971 17.1429 13.7142Z" fill="black"/>
<path d="M18.8571 8.57141C19.4228 8.57141 19.9885 8.57141 20.5714 8.57141C20.5714 9.13713 20.5714 9.70284 20.5714 10.2857C24.5314 10.2857 28.4914 10.2857 32.5714 10.2857C32.5714 10.8514 32.5714 11.4171 32.5714 12C28.6114 12 24.6514 12 20.5714 12C20.5714 12.5657 20.5714 13.1314 20.5714 13.7143C20.0057 13.7143 19.44 13.7143 18.8571 13.7143C18.8571 13.1486 18.8571 12.5828 18.8571 12C18.2914 12 17.7257 12 17.1428 12C17.1428 11.4343 17.1428 10.8686 17.1428 10.2857C17.7085 10.2857 18.2743 10.2857 18.8571 10.2857C18.8571 9.71998 18.8571 9.15427 18.8571 8.57141Z" fill="black"/>
<path d="M13.7143 22.2858C14.28 22.2858 14.8457 22.2858 15.4286 22.2858C15.4286 24.5486 15.4286 26.8115 15.4286 29.1429C14.8628 29.1429 14.2971 29.1429 13.7143 29.1429C13.7143 29.7086 13.7143 30.2743 13.7143 30.8572C12.0171 30.8572 10.32 30.8572 8.57141 30.8572C8.57141 29.7258 8.57141 28.5943 8.57141 27.4286C10.2686 27.4286 11.9657 27.4286 13.7143 27.4286C13.7143 25.7315 13.7143 24.0343 13.7143 22.2858Z" fill="#8C0404"/>
<path d="M8.57146 8.57141C9.13718 8.57141 9.70289 8.57141 10.2857 8.57141C10.2857 9.13713 10.2857 9.70284 10.2857 10.2857C11.9829 10.2857 13.68 10.2857 15.4286 10.2857C15.4286 10.8514 15.4286 11.4171 15.4286 12C13.7315 12 12.0343 12 10.2857 12C10.2857 13.1314 10.2857 14.2628 10.2857 15.4286C9.72003 15.4286 9.15432 15.4286 8.57146 15.4286C8.57146 14.2971 8.57146 13.1657 8.57146 12C8.00575 12 7.44003 12 6.85718 12C6.85718 11.4343 6.85718 10.8686 6.85718 10.2857C7.42289 10.2857 7.98861 10.2857 8.57146 10.2857C8.57146 9.71998 8.57146 9.15427 8.57146 8.57141Z" fill="#8C0404"/>
<path d="M10.2858 6.85718C11.9829 6.85718 13.6801 6.85718 15.4286 6.85718C15.4286 7.42289 15.4286 7.98861 15.4286 8.57146C15.9943 8.57146 16.5601 8.57146 17.1429 8.57146C17.1429 9.70289 17.1429 10.8343 17.1429 12C16.5772 12 16.0115 12 15.4286 12C15.4286 11.4343 15.4286 10.8686 15.4286 10.2857C13.7315 10.2857 12.0343 10.2857 10.2858 10.2857C10.2858 9.15432 10.2858 8.02289 10.2858 6.85718Z" fill="#B60909"/>
<path d="M6.85716 12C7.42287 12 7.98859 12 8.57145 12C8.57145 13.6971 8.57145 15.3943 8.57145 17.1429C6.8743 17.1429 5.17716 17.1429 3.42859 17.1429C3.42859 16.0114 3.42859 14.88 3.42859 13.7143C4.56002 13.7143 5.69145 13.7143 6.85716 13.7143C6.85716 13.1486 6.85716 12.5829 6.85716 12Z" fill="#8C0404"/>
<path d="M20.5714 12C24.5314 12 28.4914 12 32.5714 12C32.5714 12.5657 32.5714 13.1314 32.5714 13.7143C28.6114 13.7143 24.6514 13.7143 20.5714 13.7143C20.5714 13.1486 20.5714 12.5829 20.5714 12Z" fill="#B60909"/>
<path d="M22.2858 5.14282C26.2458 5.14282 30.2058 5.14282 34.2858 5.14282C34.2858 5.70854 34.2858 6.27425 34.2858 6.85711C30.3258 6.85711 26.3658 6.85711 22.2858 6.85711C22.2858 6.29139 22.2858 5.72568 22.2858 5.14282Z" fill="black"/>
<path d="M10.2858 17.1428C11.4172 17.1428 12.5486 17.1428 13.7143 17.1428C13.7143 18.84 13.7143 20.5371 13.7143 22.2857C12.5829 22.2857 11.4515 22.2857 10.2858 22.2857C10.2858 20.5885 10.2858 18.8914 10.2858 17.1428Z" fill="#B60909"/>
<path d="M3.42859 5.14282C3.9943 5.14282 4.56002 5.14282 5.14287 5.14282C5.14287 7.40568 5.14287 9.66854 5.14287 12C5.70859 12 6.2743 12 6.85716 12C6.85716 12.5657 6.85716 13.1314 6.85716 13.7143C5.72573 13.7143 4.5943 13.7143 3.42859 13.7143C3.42859 10.8857 3.42859 8.05711 3.42859 5.14282Z" fill="black"/>
<path d="M12 22.2858C12.5657 22.2858 13.1314 22.2858 13.7143 22.2858C13.7143 23.9829 13.7143 25.6801 13.7143 27.4286C12.0171 27.4286 10.32 27.4286 8.57141 27.4286C8.57141 26.8629 8.57141 26.2972 8.57141 25.7143C9.70284 25.7143 10.8343 25.7143 12 25.7143C12 24.5829 12 23.4515 12 22.2858Z" fill="black"/>
<path d="M0 5.14282C0.565714 5.14282 1.13143 5.14282 1.71429 5.14282C1.71429 7.97139 1.71429 10.8 1.71429 13.7143C1.14857 13.7143 0.582857 13.7143 0 13.7143C0 10.8857 0 8.05711 0 5.14282Z" fill="black"/>
<path d="M37.7142 39.4286C38.2799 39.4286 38.8457 39.4286 39.4285 39.4286C39.4285 41.6914 39.4285 43.9543 39.4285 46.2857C38.8628 46.2857 38.2971 46.2857 37.7142 46.2857C37.7142 44.0229 37.7142 41.76 37.7142 39.4286Z" fill="#8C0404"/>
<path d="M17.1428 37.7142C17.7085 37.7142 18.2743 37.7142 18.8571 37.7142C18.8571 38.2799 18.8571 38.8457 18.8571 39.4285C19.4228 39.4285 19.9885 39.4285 20.5714 39.4285C20.5714 39.9942 20.5714 40.5599 20.5714 41.1428C20.0057 41.1428 19.44 41.1428 18.8571 41.1428C18.8571 41.7085 18.8571 42.2742 18.8571 42.8571C18.2914 42.8571 17.7257 42.8571 17.1428 42.8571C17.1428 41.1599 17.1428 39.4628 17.1428 37.7142Z" fill="#8C0404"/>
<path d="M41.1429 36C41.7086 36 42.2743 36 42.8572 36C42.8572 36.5657 42.8572 37.1314 42.8572 37.7143C43.4229 37.7143 43.9886 37.7143 44.5714 37.7143C44.5714 38.28 44.5714 38.8457 44.5714 39.4286C42.8743 39.4286 41.1772 39.4286 39.4286 39.4286C39.4286 38.8629 39.4286 38.2971 39.4286 37.7143C39.9943 37.7143 40.56 37.7143 41.1429 37.7143C41.1429 37.1486 41.1429 36.5829 41.1429 36Z" fill="#8C0404"/>
<path d="M25.7142 36C27.4114 36 29.1085 36 30.8571 36C30.8571 36.5657 30.8571 37.1314 30.8571 37.7143C30.2914 37.7143 29.7257 37.7143 29.1428 37.7143C29.1428 38.28 29.1428 38.8457 29.1428 39.4286C28.5771 39.4286 28.0114 39.4286 27.4285 39.4286C27.4285 38.8629 27.4285 38.2971 27.4285 37.7143C26.8628 37.7143 26.2971 37.7143 25.7142 37.7143C25.7142 37.1486 25.7142 36.5829 25.7142 36Z" fill="#B60909"/>
<path d="M25.7142 37.7142C26.2799 37.7142 26.8457 37.7142 27.4285 37.7142C27.4285 38.2799 27.4285 38.8457 27.4285 39.4285C27.9942 39.4285 28.5599 39.4285 29.1428 39.4285C29.1428 39.9942 29.1428 40.5599 29.1428 41.1428C28.0114 41.1428 26.8799 41.1428 25.7142 41.1428C25.7142 40.0114 25.7142 38.8799 25.7142 37.7142Z" fill="#8C0404"/>
<path d="M8.57141 29.1428C10.2686 29.1428 11.9657 29.1428 13.7143 29.1428C13.7143 29.7085 13.7143 30.2743 13.7143 30.8571C12.0171 30.8571 10.32 30.8571 8.57141 30.8571C8.57141 30.2914 8.57141 29.7257 8.57141 29.1428Z" fill="black"/>
<path d="M20.5714 27.4286C21.7028 27.4286 22.8343 27.4286 24 27.4286C24 28.56 24 29.6914 24 30.8572C23.4343 30.8572 22.8686 30.8572 22.2857 30.8572C22.2857 30.2914 22.2857 29.7257 22.2857 29.1429C21.72 29.1429 21.1543 29.1429 20.5714 29.1429C20.5714 28.5772 20.5714 28.0114 20.5714 27.4286Z" fill="#8C0404"/>
<path d="M8.57141 27.4286C10.2686 27.4286 11.9657 27.4286 13.7143 27.4286C13.7143 27.9943 13.7143 28.56 13.7143 29.1429C12.0171 29.1429 10.32 29.1429 8.57141 29.1429C8.57141 28.5772 8.57141 28.0114 8.57141 27.4286Z" fill="#8C0404"/>
<path d="M13.7142 17.1428C14.2799 17.1428 14.8457 17.1428 15.4285 17.1428C15.4285 18.84 15.4285 20.5371 15.4285 22.2857C14.8628 22.2857 14.2971 22.2857 13.7142 22.2857C13.7142 20.5885 13.7142 18.8914 13.7142 17.1428Z" fill="black"/>
<path d="M10.2858 17.1428C10.8515 17.1428 11.4172 17.1428 12.0001 17.1428C12.0001 18.84 12.0001 20.5371 12.0001 22.2857C11.4343 22.2857 10.8686 22.2857 10.2858 22.2857C10.2858 20.5885 10.2858 18.8914 10.2858 17.1428Z" fill="black"/>
<path d="M3.42859 15.4286C5.12573 15.4286 6.82287 15.4286 8.57145 15.4286C8.57145 15.9943 8.57145 16.56 8.57145 17.1429C6.8743 17.1429 5.17716 17.1429 3.42859 17.1429C3.42859 16.5772 3.42859 16.0114 3.42859 15.4286Z" fill="black"/>
<path d="M34.2858 12C35.4172 12 36.5486 12 37.7143 12C37.7143 13.1314 37.7143 14.2629 37.7143 15.4286C37.1486 15.4286 36.5829 15.4286 36.0001 15.4286C36.0001 14.8629 36.0001 14.2971 36.0001 13.7143C35.4343 13.7143 34.8686 13.7143 34.2858 13.7143C34.2858 13.1486 34.2858 12.5829 34.2858 12Z" fill="#B60909"/>
<path d="M10.2858 10.2858C11.9829 10.2858 13.6801 10.2858 15.4286 10.2858C15.4286 10.8515 15.4286 11.4172 15.4286 12.0001C13.7315 12.0001 12.0343 12.0001 10.2858 12.0001C10.2858 11.4343 10.2858 10.8686 10.2858 10.2858Z" fill="black"/>
<path d="M36.0001 8.57141C36.5658 8.57141 37.1315 8.57141 37.7143 8.57141C37.7143 9.70284 37.7143 10.8343 37.7143 12C36.5829 12 35.4515 12 34.2858 12C34.2858 11.4343 34.2858 10.8686 34.2858 10.2857C34.8515 10.2857 35.4172 10.2857 36.0001 10.2857C36.0001 9.71998 36.0001 9.15427 36.0001 8.57141Z" fill="black"/>
<path d="M10.2858 6.85718C11.9829 6.85718 13.6801 6.85718 15.4286 6.85718C15.4286 7.42289 15.4286 7.98861 15.4286 8.57146C13.7315 8.57146 12.0343 8.57146 10.2858 8.57146C10.2858 8.00575 10.2858 7.44003 10.2858 6.85718Z" fill="black"/>
<path d="M1.71423 5.14282C2.27995 5.14282 2.84566 5.14282 3.42852 5.14282C3.42852 6.83997 3.42852 8.53711 3.42852 10.2857C2.8628 10.2857 2.29709 10.2857 1.71423 10.2857C1.71423 8.58854 1.71423 6.89139 1.71423 5.14282Z" fill="#B60909"/>
<path d="M44.5714 39.4286C45.1371 39.4286 45.7028 39.4286 46.2857 39.4286C46.2857 40.56 46.2857 41.6914 46.2857 42.8572C45.72 42.8572 45.1543 42.8572 44.5714 42.8572C44.5714 41.7257 44.5714 40.5943 44.5714 39.4286Z" fill="black"/>
<path d="M37.7142 39.4286C38.2799 39.4286 38.8457 39.4286 39.4285 39.4286C39.4285 40.56 39.4285 41.6914 39.4285 42.8572C38.8628 42.8572 38.2971 42.8572 37.7142 42.8572C37.7142 41.7257 37.7142 40.5943 37.7142 39.4286Z" fill="black"/>
<path d="M10.2858 39.4286C10.8515 39.4286 11.4172 39.4286 12.0001 39.4286C12.0001 40.56 12.0001 41.6914 12.0001 42.8572C11.4343 42.8572 10.8686 42.8572 10.2858 42.8572C10.2858 41.7257 10.2858 40.5943 10.2858 39.4286Z" fill="black"/>
<path d="M13.7142 36C14.8457 36 15.9771 36 17.1428 36C17.1428 36.5657 17.1428 37.1314 17.1428 37.7143C16.0114 37.7143 14.8799 37.7143 13.7142 37.7143C13.7142 37.1486 13.7142 36.5829 13.7142 36Z" fill="black"/>
<path d="M20.5714 34.2858C21.7028 34.2858 22.8343 34.2858 24 34.2858C24 34.8515 24 35.4172 24 36.0001C22.8686 36.0001 21.7371 36.0001 20.5714 36.0001C20.5714 35.4343 20.5714 34.8686 20.5714 34.2858Z" fill="black"/>
<path d="M30.8572 30.8572C31.4229 30.8572 31.9886 30.8572 32.5715 30.8572C32.5715 31.9886 32.5715 33.12 32.5715 34.2857C32.0057 34.2857 31.44 34.2857 30.8572 34.2857C30.8572 33.1543 30.8572 32.0229 30.8572 30.8572Z" fill="black"/>
<path d="M24 30.8572C24.5657 30.8572 25.1314 30.8572 25.7143 30.8572C25.7143 31.9886 25.7143 33.12 25.7143 34.2857C25.1486 34.2857 24.5829 34.2857 24 34.2857C24 33.1543 24 32.0229 24 30.8572Z" fill="black"/>
<path d="M5.14282 27.4286C6.27425 27.4286 7.40568 27.4286 8.57139 27.4286C8.57139 27.9943 8.57139 28.56 8.57139 29.1429C7.43997 29.1429 6.30854 29.1429 5.14282 29.1429C5.14282 28.5772 5.14282 28.0114 5.14282 27.4286Z" fill="black"/>
<path d="M36 24C36.5657 24 37.1314 24 37.7143 24C37.7143 25.1314 37.7143 26.2629 37.7143 27.4286C37.1486 27.4286 36.5829 27.4286 36 27.4286C36 26.2971 36 25.1657 36 24Z" fill="black"/>
<path d="M18.8572 24C19.4229 24 19.9886 24 20.5715 24C20.5715 25.1314 20.5715 26.2629 20.5715 27.4286C20.0057 27.4286 19.44 27.4286 18.8572 27.4286C18.8572 26.2971 18.8572 25.1657 18.8572 24Z" fill="black"/>
<path d="M5.14282 24C6.27425 24 7.40568 24 8.57139 24C8.57139 24.5657 8.57139 25.1314 8.57139 25.7143C7.43997 25.7143 6.30854 25.7143 5.14282 25.7143C5.14282 25.1486 5.14282 24.5829 5.14282 24Z" fill="black"/>
<path d="M12 15.4286C13.1314 15.4286 14.2629 15.4286 15.4286 15.4286C15.4286 15.9943 15.4286 16.56 15.4286 17.1429C14.2971 17.1429 13.1657 17.1429 12 17.1429C12 16.5772 12 16.0114 12 15.4286Z" fill="#B60909"/>
<path d="M18.8572 13.7142C19.9886 13.7142 21.12 13.7142 22.2857 13.7142C22.2857 14.2799 22.2857 14.8457 22.2857 15.4285C21.1543 15.4285 20.0229 15.4285 18.8572 15.4285C18.8572 14.8628 18.8572 14.2971 18.8572 13.7142Z" fill="#8C0404"/>
<path d="M3.42859 13.7142C4.56002 13.7142 5.69145 13.7142 6.85716 13.7142C6.85716 14.2799 6.85716 14.8457 6.85716 15.4285C5.72573 15.4285 4.5943 15.4285 3.42859 15.4285C3.42859 14.8628 3.42859 14.2971 3.42859 13.7142Z" fill="#B60909"/>
<path d="M8.57141 12C9.13713 12 9.70284 12 10.2857 12C10.2857 13.1314 10.2857 14.2629 10.2857 15.4286C9.71998 15.4286 9.15427 15.4286 8.57141 15.4286C8.57141 14.2971 8.57141 13.1657 8.57141 12Z" fill="black"/>
<path d="M5.14282 1.71423C5.70854 1.71423 6.27425 1.71423 6.85711 1.71423C6.85711 2.84566 6.85711 3.97709 6.85711 5.1428C6.29139 5.1428 5.72568 5.1428 5.14282 5.1428C5.14282 4.01138 5.14282 2.87995 5.14282 1.71423Z" fill="black"/>
<path d="M1.71423 1.71423C2.27995 1.71423 2.84566 1.71423 3.42852 1.71423C3.42852 2.84566 3.42852 3.97709 3.42852 5.1428C2.8628 5.1428 2.29709 5.1428 1.71423 5.1428C1.71423 4.01138 1.71423 2.87995 1.71423 1.71423Z" fill="black"/>
<path d="M27.4286 41.1428C27.9943 41.1428 28.56 41.1428 29.1429 41.1428C29.1429 41.7085 29.1429 42.2743 29.1429 42.8571C28.5772 42.8571 28.0114 42.8571 27.4286 42.8571C27.4286 42.2914 27.4286 41.7257 27.4286 41.1428Z" fill="#8C0404"/>
<path d="M18.8572 41.1428C19.4229 41.1428 19.9886 41.1428 20.5715 41.1428C20.5715 41.7085 20.5715 42.2743 20.5715 42.8571C20.0057 42.8571 19.44 42.8571 18.8572 42.8571C18.8572 42.2914 18.8572 41.7257 18.8572 41.1428Z" fill="#8C0404"/>
<path d="M17.1428 41.1428C17.7085 41.1428 18.2743 41.1428 18.8571 41.1428C18.8571 41.7085 18.8571 42.2743 18.8571 42.8571C18.2914 42.8571 17.7257 42.8571 17.1428 42.8571C17.1428 42.2914 17.1428 41.7257 17.1428 41.1428Z" fill="black"/>
<path d="M15.4286 41.1428C15.9943 41.1428 16.56 41.1428 17.1429 41.1428C17.1429 41.7085 17.1429 42.2743 17.1429 42.8571C16.5772 42.8571 16.0114 42.8571 15.4286 42.8571C15.4286 42.2914 15.4286 41.7257 15.4286 41.1428Z" fill="#8C0404"/>
<path d="M39.4286 39.4286C39.9943 39.4286 40.56 39.4286 41.1429 39.4286C41.1429 39.9943 41.1429 40.56 41.1429 41.1429C40.5772 41.1429 40.0114 41.1429 39.4286 41.1429C39.4286 40.5772 39.4286 40.0114 39.4286 39.4286Z" fill="#8C0404"/>
<path d="M27.4286 39.4286C27.9943 39.4286 28.56 39.4286 29.1429 39.4286C29.1429 39.9943 29.1429 40.56 29.1429 41.1429C28.5772 41.1429 28.0114 41.1429 27.4286 41.1429C27.4286 40.5772 27.4286 40.0114 27.4286 39.4286Z" fill="black"/>
<path d="M18.8572 39.4286C19.4229 39.4286 19.9886 39.4286 20.5715 39.4286C20.5715 39.9943 20.5715 40.56 20.5715 41.1429C20.0057 41.1429 19.44 41.1429 18.8572 41.1429C18.8572 40.5772 18.8572 40.0114 18.8572 39.4286Z" fill="black"/>
<path d="M42.8572 37.7142C43.4229 37.7142 43.9886 37.7142 44.5715 37.7142C44.5715 38.2799 44.5715 38.8457 44.5715 39.4285C44.0057 39.4285 43.44 39.4285 42.8572 39.4285C42.8572 38.8628 42.8572 38.2971 42.8572 37.7142Z" fill="black"/>
<path d="M39.4286 37.7142C39.9943 37.7142 40.56 37.7142 41.1429 37.7142C41.1429 38.2799 41.1429 38.8457 41.1429 39.4285C40.5772 39.4285 40.0114 39.4285 39.4286 39.4285C39.4286 38.8628 39.4286 38.2971 39.4286 37.7142Z" fill="black"/>
<path d="M29.1428 37.7142C29.7085 37.7142 30.2743 37.7142 30.8571 37.7142C30.8571 38.2799 30.8571 38.8457 30.8571 39.4285C30.2914 39.4285 29.7257 39.4285 29.1428 39.4285C29.1428 38.8628 29.1428 38.2971 29.1428 37.7142Z" fill="black"/>
<path d="M25.7142 37.7142C26.2799 37.7142 26.8457 37.7142 27.4285 37.7142C27.4285 38.2799 27.4285 38.8457 27.4285 39.4285C26.8628 39.4285 26.2971 39.4285 25.7142 39.4285C25.7142 38.8628 25.7142 38.2971 25.7142 37.7142Z" fill="black"/>
<path d="M24 37.7142C24.5657 37.7142 25.1314 37.7142 25.7143 37.7142C25.7143 38.2799 25.7143 38.8457 25.7143 39.4285C25.1486 39.4285 24.5829 39.4285 24 39.4285C24 38.8628 24 38.2971 24 37.7142Z" fill="#8C0404"/>
<path d="M17.1428 37.7142C17.7085 37.7142 18.2743 37.7142 18.8571 37.7142C18.8571 38.2799 18.8571 38.8457 18.8571 39.4285C18.2914 39.4285 17.7257 39.4285 17.1428 39.4285C17.1428 38.8628 17.1428 38.2971 17.1428 37.7142Z" fill="black"/>
<path d="M15.4286 37.7142C15.9943 37.7142 16.56 37.7142 17.1429 37.7142C17.1429 38.2799 17.1429 38.8457 17.1429 39.4285C16.5772 39.4285 16.0114 39.4285 15.4286 39.4285C15.4286 38.8628 15.4286 38.2971 15.4286 37.7142Z" fill="#8C0404"/>
<path d="M12 37.7142C12.5657 37.7142 13.1314 37.7142 13.7143 37.7142C13.7143 38.2799 13.7143 38.8457 13.7143 39.4285C13.1486 39.4285 12.5829 39.4285 12 39.4285C12 38.8628 12 38.2971 12 37.7142Z" fill="black"/>
<path d="M41.1428 36C41.7085 36 42.2743 36 42.8571 36C42.8571 36.5657 42.8571 37.1314 42.8571 37.7143C42.2914 37.7143 41.7257 37.7143 41.1428 37.7143C41.1428 37.1486 41.1428 36.5829 41.1428 36Z" fill="black"/>
<path d="M30.8572 36C31.4229 36 31.9886 36 32.5715 36C32.5715 36.5657 32.5715 37.1314 32.5715 37.7143C32.0057 37.7143 31.44 37.7143 30.8572 37.7143C30.8572 37.1486 30.8572 36.5829 30.8572 36Z" fill="black"/>
<path d="M24 36C24.5657 36 25.1314 36 25.7143 36C25.7143 36.5657 25.7143 37.1314 25.7143 37.7143C25.1486 37.7143 24.5829 37.7143 24 37.7143C24 37.1486 24 36.5829 24 36Z" fill="black"/>
<path d="M22.2858 36C22.8515 36 23.4172 36 24.0001 36C24.0001 36.5657 24.0001 37.1314 24.0001 37.7143C23.4343 37.7143 22.8686 37.7143 22.2858 37.7143C22.2858 37.1486 22.2858 36.5829 22.2858 36Z" fill="#8C0404"/>
<path d="M39.4286 34.2858C39.9943 34.2858 40.56 34.2858 41.1429 34.2858C41.1429 34.8515 41.1429 35.4172 41.1429 36.0001C40.5772 36.0001 40.0114 36.0001 39.4286 36.0001C39.4286 35.4343 39.4286 34.8686 39.4286 34.2858Z" fill="black"/>
<path d="M36 34.2858C36.5657 34.2858 37.1314 34.2858 37.7143 34.2858C37.7143 34.8515 37.7143 35.4172 37.7143 36.0001C37.1486 36.0001 36.5829 36.0001 36 36.0001C36 35.4343 36 34.8686 36 34.2858Z" fill="black"/>
<path d="M32.5714 34.2858C33.1371 34.2858 33.7028 34.2858 34.2857 34.2858C34.2857 34.8515 34.2857 35.4172 34.2857 36.0001C33.72 36.0001 33.1543 36.0001 32.5714 36.0001C32.5714 35.4343 32.5714 34.8686 32.5714 34.2858Z" fill="black"/>
<path d="M17.1428 34.2858C17.7085 34.2858 18.2743 34.2858 18.8571 34.2858C18.8571 34.8515 18.8571 35.4172 18.8571 36.0001C18.2914 36.0001 17.7257 36.0001 17.1428 36.0001C17.1428 35.4343 17.1428 34.8686 17.1428 34.2858Z" fill="black"/>
<path d="M37.7142 32.5714C38.2799 32.5714 38.8457 32.5714 39.4285 32.5714C39.4285 33.1371 39.4285 33.7028 39.4285 34.2857C38.8628 34.2857 38.2971 34.2857 37.7142 34.2857C37.7142 33.72 37.7142 33.1543 37.7142 32.5714Z" fill="black"/>
<path d="M18.8572 32.5714C19.4229 32.5714 19.9886 32.5714 20.5715 32.5714C20.5715 33.1371 20.5715 33.7028 20.5715 34.2857C20.0057 34.2857 19.44 34.2857 18.8572 34.2857C18.8572 33.72 18.8572 33.1543 18.8572 32.5714Z" fill="black"/>
<path d="M32.5714 29.1428C33.1371 29.1428 33.7028 29.1428 34.2857 29.1428C34.2857 29.7085 34.2857 30.2743 34.2857 30.8571C33.72 30.8571 33.1543 30.8571 32.5714 30.8571C32.5714 30.2914 32.5714 29.7257 32.5714 29.1428Z" fill="black"/>
<path d="M24 29.1428C24.5657 29.1428 25.1314 29.1428 25.7143 29.1428C25.7143 29.7085 25.7143 30.2743 25.7143 30.8571C25.1486 30.8571 24.5829 30.8571 24 30.8571C24 30.2914 24 29.7257 24 29.1428Z" fill="#8C0404"/>
<path d="M22.2858 29.1428C22.8515 29.1428 23.4172 29.1428 24.0001 29.1428C24.0001 29.7085 24.0001 30.2743 24.0001 30.8571C23.4343 30.8571 22.8686 30.8571 22.2858 30.8571C22.2858 30.2914 22.2858 29.7257 22.2858 29.1428Z" fill="black"/>
<path d="M34.2858 27.4286C34.8515 27.4286 35.4172 27.4286 36.0001 27.4286C36.0001 27.9943 36.0001 28.56 36.0001 29.1429C35.4343 29.1429 34.8686 29.1429 34.2858 29.1429C34.2858 28.5772 34.2858 28.0114 34.2858 27.4286Z" fill="black"/>
<path d="M20.5714 27.4286C21.1371 27.4286 21.7028 27.4286 22.2857 27.4286C22.2857 27.9943 22.2857 28.56 22.2857 29.1429C21.72 29.1429 21.1543 29.1429 20.5714 29.1429C20.5714 28.5772 20.5714 28.0114 20.5714 27.4286Z" fill="black"/>
<path d="M13.7142 27.4286C14.2799 27.4286 14.8457 27.4286 15.4285 27.4286C15.4285 27.9943 15.4285 28.56 15.4285 29.1429C14.8628 29.1429 14.2971 29.1429 13.7142 29.1429C13.7142 28.5772 13.7142 28.0114 13.7142 27.4286Z" fill="black"/>
<path d="M20.5714 25.7142C21.1371 25.7142 21.7028 25.7142 22.2857 25.7142C22.2857 26.2799 22.2857 26.8457 22.2857 27.4285C21.72 27.4285 21.1543 27.4285 20.5714 27.4285C20.5714 26.8628 20.5714 26.2971 20.5714 25.7142Z" fill="#8C0404"/>
<path d="M3.42859 25.7142C3.9943 25.7142 4.56002 25.7142 5.14287 25.7142C5.14287 26.2799 5.14287 26.8457 5.14287 27.4285C4.57716 27.4285 4.01145 27.4285 3.42859 27.4285C3.42859 26.8628 3.42859 26.2971 3.42859 25.7142Z" fill="black"/>
<path d="M18.8572 22.2858C19.4229 22.2858 19.9886 22.2858 20.5715 22.2858C20.5715 22.8515 20.5715 23.4172 20.5715 24.0001C20.0057 24.0001 19.44 24.0001 18.8572 24.0001C18.8572 23.4343 18.8572 22.8686 18.8572 22.2858Z" fill="#8C0404"/>
<path d="M12 15.4286C12.5657 15.4286 13.1314 15.4286 13.7143 15.4286C13.7143 15.9943 13.7143 16.56 13.7143 17.1429C13.1486 17.1429 12.5829 17.1429 12 17.1429C12 16.5772 12 16.0114 12 15.4286Z" fill="black"/>
<path d="M22.2858 13.7142C22.8515 13.7142 23.4172 13.7142 24.0001 13.7142C24.0001 14.2799 24.0001 14.8457 24.0001 15.4285C23.4343 15.4285 22.8686 15.4285 22.2858 15.4285C22.2858 14.8628 22.2858 14.2971 22.2858 13.7142Z" fill="black"/>
<path d="M13.7142 13.7142C14.2799 13.7142 14.8457 13.7142 15.4285 13.7142C15.4285 14.2799 15.4285 14.8457 15.4285 15.4285C14.8628 15.4285 14.2971 15.4285 13.7142 15.4285C13.7142 14.8628 13.7142 14.2971 13.7142 13.7142Z" fill="black"/>
<path d="M1.71423 13.7142C2.27995 13.7142 2.84566 13.7142 3.42852 13.7142C3.42852 14.2799 3.42852 14.8457 3.42852 15.4285C2.8628 15.4285 2.29709 15.4285 1.71423 15.4285C1.71423 14.8628 1.71423 14.2971 1.71423 13.7142Z" fill="black"/>
<path d="M32.5714 12C33.1371 12 33.7028 12 34.2857 12C34.2857 12.5657 34.2857 13.1314 34.2857 13.7143C33.72 13.7143 33.1543 13.7143 32.5714 13.7143C32.5714 13.1486 32.5714 12.5829 32.5714 12Z" fill="black"/>
<path d="M15.4286 12C15.9943 12 16.56 12 17.1429 12C17.1429 12.5657 17.1429 13.1314 17.1429 13.7143C16.5772 13.7143 16.0114 13.7143 15.4286 13.7143C15.4286 13.1486 15.4286 12.5829 15.4286 12Z" fill="black"/>
<path d="M6.85718 12C7.42289 12 7.98861 12 8.57146 12C8.57146 12.5657 8.57146 13.1314 8.57146 13.7143C8.00575 13.7143 7.44003 13.7143 6.85718 13.7143C6.85718 13.1486 6.85718 12.5829 6.85718 12Z" fill="#B60909"/>
<path d="M32.5714 10.2858C33.1371 10.2858 33.7028 10.2858 34.2857 10.2858C34.2857 10.8515 34.2857 11.4172 34.2857 12.0001C33.72 12.0001 33.1543 12.0001 32.5714 12.0001C32.5714 11.4343 32.5714 10.8686 32.5714 10.2858Z" fill="#8C0404"/>
<path d="M15.4286 10.2858C15.9943 10.2858 16.56 10.2858 17.1429 10.2858C17.1429 10.8515 17.1429 11.4172 17.1429 12.0001C16.5772 12.0001 16.0114 12.0001 15.4286 12.0001C15.4286 11.4343 15.4286 10.8686 15.4286 10.2858Z" fill="#B60909"/>
<path d="M6.85718 10.2858C7.42289 10.2858 7.98861 10.2858 8.57146 10.2858C8.57146 10.8515 8.57146 11.4172 8.57146 12.0001C8.00575 12.0001 7.44003 12.0001 6.85718 12.0001C6.85718 11.4343 6.85718 10.8686 6.85718 10.2858Z" fill="black"/>
<path d="M15.4286 8.57141C15.9943 8.57141 16.56 8.57141 17.1429 8.57141C17.1429 9.13713 17.1429 9.70284 17.1429 10.2857C16.5772 10.2857 16.0114 10.2857 15.4286 10.2857C15.4286 9.71998 15.4286 9.15427 15.4286 8.57141Z" fill="black"/>
<path d="M8.57141 8.57141C9.13713 8.57141 9.70284 8.57141 10.2857 8.57141C10.2857 9.13713 10.2857 9.70284 10.2857 10.2857C9.71998 10.2857 9.15427 10.2857 8.57141 10.2857C8.57141 9.71998 8.57141 9.15427 8.57141 8.57141Z" fill="black"/>
<path d="M34.2858 6.85718C34.8515 6.85718 35.4172 6.85718 36.0001 6.85718C36.0001 7.42289 36.0001 7.98861 36.0001 8.57146C35.4343 8.57146 34.8686 8.57146 34.2858 8.57146C34.2858 8.00575 34.2858 7.44003 34.2858 6.85718Z" fill="black"/>
<path d="M20.5714 6.85718C21.1371 6.85718 21.7028 6.85718 22.2857 6.85718C22.2857 7.42289 22.2857 7.98861 22.2857 8.57146C21.72 8.57146 21.1543 8.57146 20.5714 8.57146C20.5714 8.00575 20.5714 7.44003 20.5714 6.85718Z" fill="black"/>
<path d="M3.42859 0C3.9943 0 4.56002 0 5.14287 0C5.14287 0.565714 5.14287 1.13143 5.14287 1.71429C4.57716 1.71429 4.01145 1.71429 3.42859 1.71429C3.42859 1.14857 3.42859 0.582857 3.42859 0Z" fill="black"/>
<path d="M39.5652 0C40.0817 0 40.5983 0 41.1304 0C41.1304 0.510968 41.1304 1.02194 41.1304 1.54839C41.647 1.54839 42.1635 1.54839 42.6957 1.54839C42.6957 2.57032 42.6957 3.59226 42.6957 4.64516C43.2122 4.64516 43.7287 4.64516 44.2609 4.64516C44.2609 5.6671 44.2609 6.68903 44.2609 7.74194C44.7774 7.74194 45.2939 7.74194 45.8261 7.74194C45.8261 7.23097 45.8261 6.72 45.8261 6.19355C46.8591 6.19355 47.8922 6.19355 48.9565 6.19355C48.9565 5.68258 48.9565 5.17161 48.9565 4.64516C52.0557 4.64516 55.1548 4.64516 58.3478 4.64516C58.3478 5.15613 58.3478 5.6671 58.3478 6.19355C59.3809 6.19355 60.4139 6.19355 61.4783 6.19355C61.4783 6.70452 61.4783 7.21548 61.4783 7.74194C61.9948 7.74194 62.5113 7.74194 63.0435 7.74194C63.0435 8.2529 63.0435 8.76387 63.0435 9.29032C63.56 9.29032 64.0765 9.29032 64.6087 9.29032C64.6087 9.80129 64.6087 10.3123 64.6087 10.8387C65.6417 10.8387 66.6748 10.8387 67.7391 10.8387C67.7391 11.3497 67.7391 11.8606 67.7391 12.3871C68.2557 12.3871 68.7722 12.3871 69.3043 12.3871C69.3043 12.8981 69.3043 13.409 69.3043 13.9355C69.8209 13.9355 70.3374 13.9355 70.8696 13.9355C70.8696 14.4465 70.8696 14.9574 70.8696 15.4839C71.3861 15.4839 71.9026 15.4839 72.4348 15.4839C72.4348 15.9948 72.4348 16.5058 72.4348 17.0323C71.9183 17.0323 71.4017 17.0323 70.8696 17.0323C70.8696 17.5432 70.8696 18.0542 70.8696 18.5806C70.353 18.5806 69.8365 18.5806 69.3043 18.5806C69.3043 19.0916 69.3043 19.6026 69.3043 20.129C68.2713 20.129 67.2383 20.129 66.1739 20.129C66.1739 22.1729 66.1739 24.2168 66.1739 26.3226C65.6574 26.3226 65.1409 26.3226 64.6087 26.3226C64.6087 27.3445 64.6087 28.3665 64.6087 29.4194C64.0922 29.4194 63.5757 29.4194 63.0435 29.4194C63.0435 29.9303 63.0435 30.4413 63.0435 30.9677C62.527 30.9677 62.0104 30.9677 61.4783 30.9677C61.4783 31.4787 61.4783 31.9897 61.4783 32.5161C60.9617 32.5161 60.4452 32.5161 59.913 32.5161C59.913 33.5381 59.913 34.56 59.913 35.6129C61.4626 35.6129 63.0122 35.6129 64.6087 35.6129C64.6087 36.1239 64.6087 36.6348 64.6087 37.1613C65.1252 37.1613 65.6417 37.1613 66.1739 37.1613C66.1739 36.6503 66.1739 36.1394 66.1739 35.6129C66.6904 35.6129 67.207 35.6129 67.7391 35.6129C67.7391 36.1239 67.7391 36.6348 67.7391 37.1613C68.2557 37.1613 68.7722 37.1613 69.3043 37.1613C69.3043 37.6723 69.3043 38.1832 69.3043 38.7097C69.8209 38.7097 70.3374 38.7097 70.8696 38.7097C70.8696 39.2206 70.8696 39.7316 70.8696 40.2581C71.3861 40.2581 71.9026 40.2581 72.4348 40.2581C72.4348 41.28 72.4348 42.3019 72.4348 43.3548C72.9513 43.3548 73.4678 43.3548 74 43.3548C74 44.8877 74 46.4206 74 48C62.12 48 50.24 48 38 48C38 46.4671 38 44.9342 38 43.3548C38.5165 43.3548 39.033 43.3548 39.5652 43.3548C39.5652 42.3329 39.5652 41.311 39.5652 40.2581C40.0817 40.2581 40.5983 40.2581 41.1304 40.2581C41.1304 39.7471 41.1304 39.2361 41.1304 38.7097C41.647 38.7097 42.1635 38.7097 42.6957 38.7097C42.6957 38.1987 42.6957 37.6877 42.6957 37.1613C43.2122 37.1613 43.7287 37.1613 44.2609 37.1613C44.2609 36.6503 44.2609 36.1394 44.2609 35.6129C44.7774 35.6129 45.2939 35.6129 45.8261 35.6129C45.8261 36.1239 45.8261 36.6348 45.8261 37.1613C46.3426 37.1613 46.8591 37.1613 47.3913 37.1613C47.3913 36.6503 47.3913 36.1394 47.3913 35.6129C48.9409 35.6129 50.4904 35.6129 52.087 35.6129C52.087 34.591 52.087 33.569 52.087 32.5161C51.5704 32.5161 51.0539 32.5161 50.5217 32.5161C50.5217 32.0052 50.5217 31.4942 50.5217 30.9677C50.0052 30.9677 49.4887 30.9677 48.9565 30.9677C48.9565 30.4568 48.9565 29.9458 48.9565 29.4194C48.44 29.4194 47.9235 29.4194 47.3913 29.4194C47.3913 28.3974 47.3913 27.3755 47.3913 26.3226C46.8748 26.3226 46.3583 26.3226 45.8261 26.3226C45.8261 23.2568 45.8261 20.191 45.8261 17.0323C45.3096 17.0323 44.793 17.0323 44.2609 17.0323C44.2609 16.5213 44.2609 16.0103 44.2609 15.4839C43.7443 15.4839 43.2278 15.4839 42.6957 15.4839C42.6957 14.4619 42.6957 13.44 42.6957 12.3871C42.1791 12.3871 41.6626 12.3871 41.1304 12.3871C41.1304 11.8761 41.1304 11.3652 41.1304 10.8387C40.6139 10.8387 40.0974 10.8387 39.5652 10.8387C39.5652 9.81677 39.5652 8.79484 39.5652 7.74194C39.0487 7.74194 38.5322 7.74194 38 7.74194C38 5.69806 38 3.65419 38 1.54839C38.5165 1.54839 39.033 1.54839 39.5652 1.54839C39.5652 1.03742 39.5652 0.526452 39.5652 0Z" fill="#23BE59"/>
<path d="M39.5652 0C40.0817 0 40.5983 0 41.1304 0C41.1304 0.510968 41.1304 1.02194 41.1304 1.54839C41.647 1.54839 42.1635 1.54839 42.6957 1.54839C42.6957 2.57032 42.6957 3.59226 42.6957 4.64516C43.2122 4.64516 43.7287 4.64516 44.2609 4.64516C44.2609 5.6671 44.2609 6.68903 44.2609 7.74194C44.7774 7.74194 45.2939 7.74194 45.8261 7.74194C45.8261 7.23097 45.8261 6.72 45.8261 6.19355C46.8591 6.19355 47.8922 6.19355 48.9565 6.19355C48.9565 5.68258 48.9565 5.17161 48.9565 4.64516C52.0557 4.64516 55.1548 4.64516 58.3478 4.64516C58.3478 5.15613 58.3478 5.6671 58.3478 6.19355C59.3809 6.19355 60.4139 6.19355 61.4783 6.19355C61.4783 6.70452 61.4783 7.21548 61.4783 7.74194C61.9948 7.74194 62.5113 7.74194 63.0435 7.74194C63.0435 8.2529 63.0435 8.76387 63.0435 9.29032C63.56 9.29032 64.0765 9.29032 64.6087 9.29032C64.6087 9.80129 64.6087 10.3123 64.6087 10.8387C65.6417 10.8387 66.6748 10.8387 67.7391 10.8387C67.7391 11.3497 67.7391 11.8606 67.7391 12.3871C68.2557 12.3871 68.7722 12.3871 69.3043 12.3871C69.3043 12.8981 69.3043 13.409 69.3043 13.9355C69.8209 13.9355 70.3374 13.9355 70.8696 13.9355C70.8696 14.4465 70.8696 14.9574 70.8696 15.4839C71.3861 15.4839 71.9026 15.4839 72.4348 15.4839C72.4348 15.9948 72.4348 16.5058 72.4348 17.0323C71.9183 17.0323 71.4017 17.0323 70.8696 17.0323C70.8696 17.5432 70.8696 18.0542 70.8696 18.5806C70.353 18.5806 69.8365 18.5806 69.3043 18.5806C69.3043 19.0916 69.3043 19.6026 69.3043 20.129C68.2713 20.129 67.2383 20.129 66.1739 20.129C66.1739 22.1729 66.1739 24.2168 66.1739 26.3226C65.6574 26.3226 65.1409 26.3226 64.6087 26.3226C64.6087 24.2787 64.6087 22.2348 64.6087 20.129C63.5757 20.129 62.5426 20.129 61.4783 20.129C61.4783 19.6181 61.4783 19.1071 61.4783 18.5806C56.8296 18.5806 52.1809 18.5806 47.3913 18.5806C47.3913 21.1355 47.3913 23.6903 47.3913 26.3226C46.8748 26.3226 46.3583 26.3226 45.8261 26.3226C45.8261 23.2568 45.8261 20.191 45.8261 17.0323C45.3096 17.0323 44.793 17.0323 44.2609 17.0323C44.2609 16.5213 44.2609 16.0103 44.2609 15.4839C43.7443 15.4839 43.2278 15.4839 42.6957 15.4839C42.6957 14.4619 42.6957 13.44 42.6957 12.3871C42.1791 12.3871 41.6626 12.3871 41.1304 12.3871C41.1304 11.8761 41.1304 11.3652 41.1304 10.8387C40.6139 10.8387 40.0974 10.8387 39.5652 10.8387C39.5652 9.81677 39.5652 8.79484 39.5652 7.74194C39.0487 7.74194 38.5322 7.74194 38 7.74194C38 5.69806 38 3.65419 38 1.54839C38.5165 1.54839 39.033 1.54839 39.5652 1.54839C39.5652 1.03742 39.5652 0.526452 39.5652 0Z" fill="#26B056"/>
<path d="M47.3914 18.5807C52.0401 18.5807 56.6887 18.5807 61.4783 18.5807C61.4783 19.0917 61.4783 19.6026 61.4783 20.1291C62.5114 20.1291 63.5444 20.1291 64.6087 20.1291C64.6087 23.1949 64.6087 26.2607 64.6087 29.4194C64.0922 29.4194 63.5757 29.4194 63.0435 29.4194C63.0435 29.9304 63.0435 30.4413 63.0435 30.9678C62.527 30.9678 62.0105 30.9678 61.4783 30.9678C61.4783 31.4788 61.4783 31.9897 61.4783 32.5162C60.4453 32.5162 59.4122 32.5162 58.3479 32.5162C58.3479 33.0271 58.3479 33.5381 58.3479 34.0646C56.7983 34.0646 55.2487 34.0646 53.6522 34.0646C53.6522 33.5536 53.6522 33.0426 53.6522 32.5162C52.6192 32.5162 51.5861 32.5162 50.5218 32.5162C50.5218 32.0052 50.5218 31.4942 50.5218 30.9678C50.0053 30.9678 49.4887 30.9678 48.9566 30.9678C48.9566 30.4568 48.9566 29.9458 48.9566 29.4194C48.4401 29.4194 47.9235 29.4194 47.3914 29.4194C47.3914 25.8426 47.3914 22.2658 47.3914 18.5807Z" fill="#1ED75F"/>
<path d="M39.5652 0C40.0817 0 40.5983 0 41.1304 0C41.1304 0.510968 41.1304 1.02194 41.1304 1.54839C41.647 1.54839 42.1635 1.54839 42.6957 1.54839C42.6957 2.57032 42.6957 3.59226 42.6957 4.64516C43.2122 4.64516 43.7287 4.64516 44.2609 4.64516C44.2609 5.6671 44.2609 6.68903 44.2609 7.74194C44.7774 7.74194 45.2939 7.74194 45.8261 7.74194C45.8261 9.27484 45.8261 10.8077 45.8261 12.3871C46.3426 12.3871 46.8591 12.3871 47.3913 12.3871C47.3913 12.8981 47.3913 13.409 47.3913 13.9355C48.9409 13.9355 50.4904 13.9355 52.087 13.9355C52.087 14.4465 52.087 14.9574 52.087 15.4839C50.5374 15.4839 48.9878 15.4839 47.3913 15.4839C47.3913 15.9948 47.3913 16.5058 47.3913 17.0323C48.9409 17.0323 50.4904 17.0323 52.087 17.0323C52.087 17.5432 52.087 18.0542 52.087 18.5806C50.5374 18.5806 48.9878 18.5806 47.3913 18.5806C47.3913 21.1355 47.3913 23.6903 47.3913 26.3226C46.8748 26.3226 46.3583 26.3226 45.8261 26.3226C45.8261 23.2568 45.8261 20.191 45.8261 17.0323C45.3096 17.0323 44.793 17.0323 44.2609 17.0323C44.2609 16.5213 44.2609 16.0103 44.2609 15.4839C43.7443 15.4839 43.2278 15.4839 42.6957 15.4839C42.6957 14.4619 42.6957 13.44 42.6957 12.3871C42.1791 12.3871 41.6626 12.3871 41.1304 12.3871C41.1304 11.8761 41.1304 11.3652 41.1304 10.8387C40.6139 10.8387 40.0974 10.8387 39.5652 10.8387C39.5652 9.81677 39.5652 8.79484 39.5652 7.74194C39.0487 7.74194 38.5322 7.74194 38 7.74194C38 5.69806 38 3.65419 38 1.54839C38.5165 1.54839 39.033 1.54839 39.5652 1.54839C39.5652 1.03742 39.5652 0.526452 39.5652 0Z" fill="#1ED75F"/>
<path d="M38 43.3549C38.5165 43.3549 39.033 43.3549 39.5652 43.3549C39.5652 44.3768 39.5652 45.3987 39.5652 46.4516C41.6313 46.4516 43.6974 46.4516 45.8261 46.4516C45.8261 45.9407 45.8261 45.4297 45.8261 44.9032C46.3426 44.9032 46.8591 44.9032 47.3913 44.9032C47.3913 45.4142 47.3913 45.9252 47.3913 46.4516C52.5565 46.4516 57.7217 46.4516 63.0435 46.4516C63.0435 45.9407 63.0435 45.4297 63.0435 44.9032C63.56 44.9032 64.0765 44.9032 64.6087 44.9032C64.6087 45.4142 64.6087 45.9252 64.6087 46.4516C67.1913 46.4516 69.7739 46.4516 72.4348 46.4516C72.4348 45.4297 72.4348 44.4078 72.4348 43.3549C72.9513 43.3549 73.4678 43.3549 74 43.3549C74 44.8878 74 46.4207 74 48C62.12 48 50.24 48 38 48C38 46.4671 38 44.9342 38 43.3549Z" fill="black"/>
<path d="M52.087 32.5161C52.6035 32.5161 53.1201 32.5161 53.6522 32.5161C53.6522 33.0271 53.6522 33.538 53.6522 34.0645C55.2018 34.0645 56.7514 34.0645 58.3479 34.0645C58.3479 33.5535 58.3479 33.0426 58.3479 32.5161C58.8644 32.5161 59.3809 32.5161 59.9131 32.5161C59.9131 33.538 59.9131 34.56 59.9131 35.6129C61.4627 35.6129 63.0122 35.6129 64.6087 35.6129C64.6087 36.1239 64.6087 36.6348 64.6087 37.1613C63.0592 37.1613 61.5096 37.1613 59.9131 37.1613C59.9131 37.6722 59.9131 38.1832 59.9131 38.7097C59.3966 38.7097 58.8801 38.7097 58.3479 38.7097C58.3479 39.2206 58.3479 39.7316 58.3479 40.258C56.7983 40.258 55.2487 40.258 53.6522 40.258C53.6522 39.7471 53.6522 39.2361 53.6522 38.7097C53.1357 38.7097 52.6192 38.7097 52.087 38.7097C52.087 38.1987 52.087 37.6877 52.087 37.1613C50.5374 37.1613 48.9879 37.1613 47.3914 37.1613C47.3914 36.6503 47.3914 36.1393 47.3914 35.6129C48.9409 35.6129 50.4905 35.6129 52.087 35.6129C52.087 34.591 52.087 33.569 52.087 32.5161Z" fill="#26B056"/>
<path d="M44.2608 35.6129C44.7774 35.6129 45.2939 35.6129 45.8261 35.6129C45.8261 36.1239 45.8261 36.6349 45.8261 37.1613C46.3426 37.1613 46.8591 37.1613 47.3913 37.1613C47.3913 37.6723 47.3913 38.1832 47.3913 38.7097C46.8748 38.7097 46.3582 38.7097 45.8261 38.7097C45.8261 39.7316 45.8261 40.7536 45.8261 41.8065C45.3095 41.8065 44.793 41.8065 44.2608 41.8065C44.2608 42.3174 44.2608 42.8284 44.2608 43.3549C44.7774 43.3549 45.2939 43.3549 45.8261 43.3549C45.8261 44.3768 45.8261 45.3987 45.8261 46.4516C43.76 46.4516 41.6939 46.4516 39.5652 46.4516C39.5652 44.4078 39.5652 42.3639 39.5652 40.2581C40.0817 40.2581 40.5982 40.2581 41.1304 40.2581C41.1304 39.7471 41.1304 39.2361 41.1304 38.7097C41.6469 38.7097 42.1634 38.7097 42.6956 38.7097C42.6956 38.1987 42.6956 37.6878 42.6956 37.1613C43.2121 37.1613 43.7287 37.1613 44.2608 37.1613C44.2608 36.6503 44.2608 36.1394 44.2608 35.6129Z" fill="#1ED75F"/>
<path d="M59.9131 37.1613C61.4627 37.1613 63.0122 37.1613 64.6087 37.1613C64.6087 39.7161 64.6087 42.2709 64.6087 44.9032C64.0922 44.9032 63.5757 44.9032 63.0435 44.9032C63.0435 45.4142 63.0435 45.9251 63.0435 46.4516C62.0105 46.4516 60.9774 46.4516 59.9131 46.4516C59.9131 43.3858 59.9131 40.32 59.9131 37.1613Z" fill="#26B056"/>
<path d="M45.8261 12.3871C46.3426 12.3871 46.8591 12.3871 47.3913 12.3871C47.3913 12.8981 47.3913 13.409 47.3913 13.9355C48.9409 13.9355 50.4904 13.9355 52.087 13.9355C52.087 14.4464 52.087 14.9574 52.087 15.4839C50.5374 15.4839 48.9878 15.4839 47.3913 15.4839C47.3913 15.9948 47.3913 16.5058 47.3913 17.0322C48.9409 17.0322 50.4904 17.0322 52.087 17.0322C52.087 17.5432 52.087 18.0542 52.087 18.5806C50.5374 18.5806 48.9878 18.5806 47.3913 18.5806C47.3913 21.1355 47.3913 23.6903 47.3913 26.3226C46.8748 26.3226 46.3583 26.3226 45.8261 26.3226C45.8261 23.2568 45.8261 20.191 45.8261 17.0322C45.3096 17.0322 44.793 17.0322 44.2609 17.0322C44.2609 16.5213 44.2609 16.0103 44.2609 15.4839C44.7774 15.4839 45.2939 15.4839 45.8261 15.4839C45.8261 14.4619 45.8261 13.44 45.8261 12.3871Z" fill="black"/>
<path d="M48.9565 4.64514C52.0556 4.64514 55.1547 4.64514 58.3478 4.64514C58.3478 5.15611 58.3478 5.66708 58.3478 6.19353C57.3147 6.19353 56.2817 6.19353 55.2174 6.19353C55.2174 6.7045 55.2174 7.21546 55.2174 7.74192C52.1182 7.74192 49.0191 7.74192 45.826 7.74192C45.826 7.23095 45.826 6.71998 45.826 6.19353C46.8591 6.19353 47.8921 6.19353 48.9565 6.19353C48.9565 5.68256 48.9565 5.17159 48.9565 4.64514Z" fill="#1ED75F"/>
<path d="M63.0435 18.5807C65.1095 18.5807 67.1756 18.5807 69.3043 18.5807C69.3043 19.0917 69.3043 19.6026 69.3043 20.1291C68.2713 20.1291 67.2382 20.1291 66.1739 20.1291C66.1739 22.1729 66.1739 24.2168 66.1739 26.3226C65.6574 26.3226 65.1408 26.3226 64.6087 26.3226C64.6087 24.2788 64.6087 22.2349 64.6087 20.1291C64.0922 20.1291 63.5756 20.1291 63.0435 20.1291C63.0435 19.6181 63.0435 19.1071 63.0435 18.5807Z" fill="black"/>
<path d="M64.6086 37.1613C65.1252 37.1613 65.6417 37.1613 66.1739 37.1613C66.1739 38.6942 66.1739 40.2271 66.1739 41.8064C66.6904 41.8064 67.2069 41.8064 67.7391 41.8064C67.7391 42.8284 67.7391 43.8503 67.7391 44.9032C66.706 44.9032 65.673 44.9032 64.6086 44.9032C64.6086 42.3484 64.6086 39.7935 64.6086 37.1613Z" fill="#26B056"/>
<path d="M59.9131 37.1613C60.4296 37.1613 60.9461 37.1613 61.4783 37.1613C61.4783 40.2271 61.4783 43.2929 61.4783 46.4516C60.9618 46.4516 60.4453 46.4516 59.9131 46.4516C59.9131 43.3858 59.9131 40.32 59.9131 37.1613Z" fill="#1ED75F"/>
<path d="M48.9565 4.64514C52.0557 4.64514 55.1548 4.64514 58.3478 4.64514C58.3478 5.15611 58.3478 5.66708 58.3478 6.19353C55.2487 6.19353 52.1496 6.19353 48.9565 6.19353C48.9565 5.68256 48.9565 5.17159 48.9565 4.64514Z" fill="black"/>
<path d="M58.3478 38.7097C58.8643 38.7097 59.3808 38.7097 59.913 38.7097C59.913 41.2646 59.913 43.8194 59.913 46.4517C59.3965 46.4517 58.88 46.4517 58.3478 46.4517C58.3478 43.8968 58.3478 41.342 58.3478 38.7097Z" fill="#26B056"/>
<path d="M63.0435 37.1613C63.56 37.1613 64.0765 37.1613 64.6087 37.1613C64.6087 39.7161 64.6087 42.2709 64.6087 44.9032C64.0922 44.9032 63.5756 44.9032 63.0435 44.9032C63.0435 42.3484 63.0435 39.7935 63.0435 37.1613Z" fill="#1ED75F"/>
<path d="M64.6086 10.8387C65.6417 10.8387 66.6747 10.8387 67.7391 10.8387C67.7391 11.3497 67.7391 11.8607 67.7391 12.3871C68.2556 12.3871 68.7721 12.3871 69.3043 12.3871C69.3043 12.8981 69.3043 13.4091 69.3043 13.9355C67.7547 13.9355 66.2052 13.9355 64.6086 13.9355C64.6086 12.9136 64.6086 11.8916 64.6086 10.8387Z" fill="#1ED75F"/>
<path d="M58.3478 6.1936C59.3808 6.1936 60.4139 6.1936 61.4782 6.1936C61.4782 6.70457 61.4782 7.21554 61.4782 7.74199C61.9947 7.74199 62.5113 7.74199 63.0434 7.74199C63.0434 8.25296 63.0434 8.76393 63.0434 9.29038C61.4939 9.29038 59.9443 9.29038 58.3478 9.29038C58.3478 8.26844 58.3478 7.24651 58.3478 6.1936Z" fill="#1ED75F"/>
<path d="M55.2174 6.1936C56.2505 6.1936 57.2835 6.1936 58.3478 6.1936C58.3478 7.72651 58.3478 9.25941 58.3478 10.8388C57.8313 10.8388 57.3148 10.8388 56.7826 10.8388C56.7826 10.3278 56.7826 9.81683 56.7826 9.29038C56.2661 9.29038 55.7496 9.29038 55.2174 9.29038C55.2174 8.26844 55.2174 7.24651 55.2174 6.1936Z" fill="#26B056"/>
<path d="M56.7826 40.2581C57.2991 40.2581 57.8156 40.2581 58.3478 40.2581C58.3478 42.3019 58.3478 44.3458 58.3478 46.4516C57.8313 46.4516 57.3148 46.4516 56.7826 46.4516C56.7826 44.4077 56.7826 42.3639 56.7826 40.2581Z" fill="#1ED75F"/>
<path d="M50.5217 37.1613C51.0383 37.1613 51.5548 37.1613 52.0869 37.1613C52.0869 39.2051 52.0869 41.249 52.0869 43.3548C51.5704 43.3548 51.0539 43.3548 50.5217 43.3548C50.5217 41.3109 50.5217 39.2671 50.5217 37.1613Z" fill="#1ED75F"/>
<path d="M38 1.54834C38.5165 1.54834 39.033 1.54834 39.5652 1.54834C39.5652 3.59221 39.5652 5.63608 39.5652 7.74189C39.0487 7.74189 38.5322 7.74189 38 7.74189C38 5.69802 38 3.65415 38 1.54834Z" fill="black"/>
<path d="M53.6522 40.2581C54.1687 40.2581 54.6853 40.2581 55.2174 40.2581C55.2174 41.791 55.2174 43.3239 55.2174 44.9032C54.7009 44.9032 54.1844 44.9032 53.6522 44.9032C53.6522 43.3703 53.6522 41.8374 53.6522 40.2581Z" fill="#1ED75F"/>
<path d="M53.6522 38.7097C55.2018 38.7097 56.7514 38.7097 58.3479 38.7097C58.3479 39.2207 58.3479 39.7317 58.3479 40.2581C56.7983 40.2581 55.2487 40.2581 53.6522 40.2581C53.6522 39.7471 53.6522 39.2362 53.6522 38.7097Z" fill="black"/>
<path d="M53.6522 37.1613C55.2018 37.1613 56.7514 37.1613 58.3479 37.1613C58.3479 37.6722 58.3479 38.1832 58.3479 38.7096C56.7983 38.7096 55.2487 38.7096 53.6522 38.7096C53.6522 38.1987 53.6522 37.6877 53.6522 37.1613Z" fill="#1ED75F"/>
<path d="M47.3914 37.1613C47.9079 37.1613 48.4244 37.1613 48.9566 37.1613C48.9566 38.6942 48.9566 40.2271 48.9566 41.8064C48.4401 41.8064 47.9235 41.8064 47.3914 41.8064C47.3914 40.2735 47.3914 38.7406 47.3914 37.1613Z" fill="#1ED75F"/>
<path d="M59.9131 35.6129C61.4627 35.6129 63.0122 35.6129 64.6087 35.6129C64.6087 36.1239 64.6087 36.6349 64.6087 37.1613C63.0592 37.1613 61.5096 37.1613 59.9131 37.1613C59.9131 36.6503 59.9131 36.1394 59.9131 35.6129Z" fill="black"/>
<path d="M47.3914 35.6129C48.9409 35.6129 50.4905 35.6129 52.087 35.6129C52.087 36.1239 52.087 36.6349 52.087 37.1613C50.5374 37.1613 48.9879 37.1613 47.3914 37.1613C47.3914 36.6503 47.3914 36.1394 47.3914 35.6129Z" fill="black"/>
<path d="M55.2174 18.5807C56.767 18.5807 58.3165 18.5807 59.9131 18.5807C59.9131 19.0917 59.9131 19.6026 59.9131 20.1291C58.3635 20.1291 56.8139 20.1291 55.2174 20.1291C55.2174 19.6181 55.2174 19.1071 55.2174 18.5807Z" fill="#26B056"/>
<path d="M47.3914 18.5807C48.9409 18.5807 50.4905 18.5807 52.087 18.5807C52.087 19.0917 52.087 19.6026 52.087 20.1291C50.5374 20.1291 48.9879 20.1291 47.3914 20.1291C47.3914 19.6181 47.3914 19.1071 47.3914 18.5807Z" fill="#26B056"/>
<path d="M55.2174 17.0322C56.767 17.0322 58.3165 17.0322 59.9131 17.0322C59.9131 17.5432 59.9131 18.0542 59.9131 18.5806C58.3635 18.5806 56.8139 18.5806 55.2174 18.5806C55.2174 18.0696 55.2174 17.5587 55.2174 17.0322Z" fill="black"/>
<path d="M47.3914 15.4839C48.9409 15.4839 50.4905 15.4839 52.087 15.4839C52.087 15.9949 52.087 16.5058 52.087 17.0323C50.5374 17.0323 48.9879 17.0323 47.3914 17.0323C47.3914 16.5213 47.3914 16.0103 47.3914 15.4839Z" fill="#26B056"/>
<path d="M44.2609 7.74194C44.7774 7.74194 45.2939 7.74194 45.8261 7.74194C45.8261 9.27485 45.8261 10.8077 45.8261 12.3871C45.3096 12.3871 44.793 12.3871 44.2609 12.3871C44.2609 10.8542 44.2609 9.3213 44.2609 7.74194Z" fill="black"/>
<path d="M70.8695 40.2581C71.386 40.2581 71.9026 40.2581 72.4347 40.2581C72.4347 41.28 72.4347 42.3019 72.4347 43.3548C71.9182 43.3548 71.4017 43.3548 70.8695 43.3548C70.8695 42.3329 70.8695 41.311 70.8695 40.2581Z" fill="black"/>
<path d="M39.5652 40.2581C40.0817 40.2581 40.5982 40.2581 41.1304 40.2581C41.1304 41.28 41.1304 42.3019 41.1304 43.3548C40.6139 43.3548 40.0974 43.3548 39.5652 43.3548C39.5652 42.3329 39.5652 41.311 39.5652 40.2581Z" fill="black"/>
<path d="M58.3478 32.5161C58.8643 32.5161 59.3808 32.5161 59.913 32.5161C59.913 33.538 59.913 34.56 59.913 35.6129C59.3965 35.6129 58.88 35.6129 58.3478 35.6129C58.3478 34.591 58.3478 33.569 58.3478 32.5161Z" fill="black"/>
<path d="M52.0869 32.5161C52.6034 32.5161 53.12 32.5161 53.6521 32.5161C53.6521 33.538 53.6521 34.56 53.6521 35.6129C53.1356 35.6129 52.6191 35.6129 52.0869 35.6129C52.0869 34.591 52.0869 33.569 52.0869 32.5161Z" fill="black"/>
<path d="M63.0435 26.3226C63.56 26.3226 64.0765 26.3226 64.6087 26.3226C64.6087 27.3446 64.6087 28.3665 64.6087 29.4194C64.0922 29.4194 63.5756 29.4194 63.0435 29.4194C63.0435 28.3975 63.0435 27.3755 63.0435 26.3226Z" fill="black"/>
<path d="M47.3914 26.3226C47.9079 26.3226 48.4244 26.3226 48.9566 26.3226C48.9566 27.3446 48.9566 28.3665 48.9566 29.4194C48.4401 29.4194 47.9235 29.4194 47.3914 29.4194C47.3914 28.3975 47.3914 27.3755 47.3914 26.3226Z" fill="black"/>
<path d="M52.0869 17.0322C53.12 17.0322 54.153 17.0322 55.2173 17.0322C55.2173 17.5432 55.2173 18.0542 55.2173 18.5806C54.1843 18.5806 53.1513 18.5806 52.0869 18.5806C52.0869 18.0696 52.0869 17.5587 52.0869 17.0322Z" fill="#26B056"/>
<path d="M52.0869 15.4839C53.12 15.4839 54.153 15.4839 55.2173 15.4839C55.2173 15.9949 55.2173 16.5058 55.2173 17.0323C54.1843 17.0323 53.1513 17.0323 52.0869 17.0323C52.0869 16.5213 52.0869 16.0103 52.0869 15.4839Z" fill="black"/>
<path d="M44.2609 12.3871C44.7774 12.3871 45.2939 12.3871 45.8261 12.3871C45.8261 13.409 45.8261 14.431 45.8261 15.4839C45.3096 15.4839 44.793 15.4839 44.2609 15.4839C44.2609 14.4619 44.2609 13.44 44.2609 12.3871Z" fill="#1ED75F"/>
<path d="M42.6957 12.3871C43.2122 12.3871 43.7287 12.3871 44.2609 12.3871C44.2609 13.409 44.2609 14.431 44.2609 15.4839C43.7444 15.4839 43.2279 15.4839 42.6957 15.4839C42.6957 14.4619 42.6957 13.44 42.6957 12.3871Z" fill="black"/>
<path d="M64.6086 10.8387C65.6417 10.8387 66.6747 10.8387 67.7391 10.8387C67.7391 11.3497 67.7391 11.8607 67.7391 12.3871C66.706 12.3871 65.673 12.3871 64.6086 12.3871C64.6086 11.8762 64.6086 11.3652 64.6086 10.8387Z" fill="black"/>
<path d="M45.826 7.74194C46.8591 7.74194 47.8921 7.74194 48.9565 7.74194C48.9565 8.25291 48.9565 8.76388 48.9565 9.29033C47.9234 9.29033 46.8904 9.29033 45.826 9.29033C45.826 8.77936 45.826 8.26839 45.826 7.74194Z" fill="#1ED75F"/>
<path d="M39.5652 7.74194C40.0817 7.74194 40.5982 7.74194 41.1304 7.74194C41.1304 8.76388 41.1304 9.78581 41.1304 10.8387C40.6139 10.8387 40.0974 10.8387 39.5652 10.8387C39.5652 9.81678 39.5652 8.79485 39.5652 7.74194Z" fill="black"/>
<path d="M58.3478 6.1936C59.3808 6.1936 60.4139 6.1936 61.4782 6.1936C61.4782 6.70457 61.4782 7.21554 61.4782 7.74199C60.4452 7.74199 59.4121 7.74199 58.3478 7.74199C58.3478 7.23102 58.3478 6.72006 58.3478 6.1936Z" fill="black"/>
<path d="M45.826 6.1936C46.8591 6.1936 47.8921 6.1936 48.9565 6.1936C48.9565 6.70457 48.9565 7.21554 48.9565 7.74199C47.9234 7.74199 46.8904 7.74199 45.826 7.74199C45.826 7.23102 45.826 6.72006 45.826 6.1936Z" fill="black"/>
<path d="M42.6957 4.64514C43.2122 4.64514 43.7287 4.64514 44.2609 4.64514C44.2609 5.66708 44.2609 6.68901 44.2609 7.74192C43.7444 7.74192 43.2279 7.74192 42.6957 7.74192C42.6957 6.71998 42.6957 5.69804 42.6957 4.64514Z" fill="black"/>
<path d="M41.1305 1.54834C41.647 1.54834 42.1635 1.54834 42.6957 1.54834C42.6957 2.57028 42.6957 3.59221 42.6957 4.64511C42.1792 4.64511 41.6627 4.64511 41.1305 4.64511C41.1305 3.62318 41.1305 2.60124 41.1305 1.54834Z" fill="black"/>
<path d="M64.6086 44.9032C65.1252 44.9032 65.6417 44.9032 66.1739 44.9032C66.1739 45.4142 66.1739 45.9251 66.1739 46.4516C65.6573 46.4516 65.1408 46.4516 64.6086 46.4516C64.6086 45.9406 64.6086 45.4296 64.6086 44.9032Z" fill="#26B056"/>
<path d="M44.2609 44.9032C44.7774 44.9032 45.2939 44.9032 45.8261 44.9032C45.8261 45.4142 45.8261 45.9251 45.8261 46.4516C45.3096 46.4516 44.793 46.4516 44.2609 46.4516C44.2609 45.9406 44.2609 45.4296 44.2609 44.9032Z" fill="#26B056"/>
<path d="M64.6086 43.3549C65.1252 43.3549 65.6417 43.3549 66.1739 43.3549C66.1739 43.8658 66.1739 44.3768 66.1739 44.9032C65.6573 44.9032 65.1408 44.9032 64.6086 44.9032C64.6086 44.3923 64.6086 43.8813 64.6086 43.3549Z" fill="black"/>
<path d="M44.2609 43.3549C44.7774 43.3549 45.2939 43.3549 45.8261 43.3549C45.8261 43.8658 45.8261 44.3768 45.8261 44.9032C45.3096 44.9032 44.793 44.9032 44.2609 44.9032C44.2609 44.3923 44.2609 43.8813 44.2609 43.3549Z" fill="black"/>
<path d="M42.6957 43.3549C43.2122 43.3549 43.7287 43.3549 44.2609 43.3549C44.2609 43.8658 44.2609 44.3768 44.2609 44.9032C43.7444 44.9032 43.2279 44.9032 42.6957 44.9032C42.6957 44.3923 42.6957 43.8813 42.6957 43.3549Z" fill="#26B056"/>
<path d="M69.3043 38.7097C69.8208 38.7097 70.3374 38.7097 70.8695 38.7097C70.8695 39.2207 70.8695 39.7317 70.8695 40.2581C70.353 40.2581 69.8365 40.2581 69.3043 40.2581C69.3043 39.7471 69.3043 39.2362 69.3043 38.7097Z" fill="black"/>
<path d="M41.1305 38.7097C41.647 38.7097 42.1635 38.7097 42.6957 38.7097C42.6957 39.2207 42.6957 39.7317 42.6957 40.2581C42.1792 40.2581 41.6627 40.2581 41.1305 40.2581C41.1305 39.7471 41.1305 39.2362 41.1305 38.7097Z" fill="black"/>
<path d="M67.7391 37.1613C68.2557 37.1613 68.7722 37.1613 69.3044 37.1613C69.3044 37.6722 69.3044 38.1832 69.3044 38.7096C68.7878 38.7096 68.2713 38.7096 67.7391 38.7096C67.7391 38.1987 67.7391 37.6877 67.7391 37.1613Z" fill="black"/>
<path d="M64.6086 37.1613C65.1252 37.1613 65.6417 37.1613 66.1739 37.1613C66.1739 37.6722 66.1739 38.1832 66.1739 38.7096C65.6573 38.7096 65.1408 38.7096 64.6086 38.7096C64.6086 38.1987 64.6086 37.6877 64.6086 37.1613Z" fill="black"/>
<path d="M58.3478 37.1613C58.8643 37.1613 59.3808 37.1613 59.913 37.1613C59.913 37.6722 59.913 38.1832 59.913 38.7096C59.3965 38.7096 58.88 38.7096 58.3478 38.7096C58.3478 38.1987 58.3478 37.6877 58.3478 37.1613Z" fill="black"/>
<path d="M52.0869 37.1613C52.6034 37.1613 53.12 37.1613 53.6521 37.1613C53.6521 37.6722 53.6521 38.1832 53.6521 38.7096C53.1356 38.7096 52.6191 38.7096 52.0869 38.7096C52.0869 38.1987 52.0869 37.6877 52.0869 37.1613Z" fill="black"/>
<path d="M45.826 37.1613C46.3426 37.1613 46.8591 37.1613 47.3913 37.1613C47.3913 37.6722 47.3913 38.1832 47.3913 38.7096C46.8747 38.7096 46.3582 38.7096 45.826 38.7096C45.826 38.1987 45.826 37.6877 45.826 37.1613Z" fill="black"/>
<path d="M42.6957 37.1613C43.2122 37.1613 43.7287 37.1613 44.2609 37.1613C44.2609 37.6722 44.2609 38.1832 44.2609 38.7096C43.7444 38.7096 43.2279 38.7096 42.6957 38.7096C42.6957 38.1987 42.6957 37.6877 42.6957 37.1613Z" fill="black"/>
<path d="M66.174 35.6129C66.6905 35.6129 67.207 35.6129 67.7392 35.6129C67.7392 36.1239 67.7392 36.6349 67.7392 37.1613C67.2226 37.1613 66.7061 37.1613 66.174 37.1613C66.174 36.6503 66.174 36.1394 66.174 35.6129Z" fill="black"/>
<path d="M44.2609 35.6129C44.7774 35.6129 45.2939 35.6129 45.8261 35.6129C45.8261 36.1239 45.8261 36.6349 45.8261 37.1613C45.3096 37.1613 44.793 37.1613 44.2609 37.1613C44.2609 36.6503 44.2609 36.1394 44.2609 35.6129Z" fill="black"/>
<path d="M59.9131 30.9678C60.4296 30.9678 60.9461 30.9678 61.4783 30.9678C61.4783 31.4787 61.4783 31.9897 61.4783 32.5162C60.9618 32.5162 60.4453 32.5162 59.9131 32.5162C59.9131 32.0052 59.9131 31.4942 59.9131 30.9678Z" fill="black"/>
<path d="M50.5217 30.9678C51.0383 30.9678 51.5548 30.9678 52.0869 30.9678C52.0869 31.4787 52.0869 31.9897 52.0869 32.5162C51.5704 32.5162 51.0539 32.5162 50.5217 32.5162C50.5217 32.0052 50.5217 31.4942 50.5217 30.9678Z" fill="black"/>
<path d="M61.4783 29.4193C61.9948 29.4193 62.5113 29.4193 63.0435 29.4193C63.0435 29.9303 63.0435 30.4412 63.0435 30.9677C62.527 30.9677 62.0104 30.9677 61.4783 30.9677C61.4783 30.4567 61.4783 29.9458 61.4783 29.4193Z" fill="black"/>
<path d="M48.9565 29.4193C49.4731 29.4193 49.9896 29.4193 50.5218 29.4193C50.5218 29.9303 50.5218 30.4412 50.5218 30.9677C50.0052 30.9677 49.4887 30.9677 48.9565 30.9677C48.9565 30.4567 48.9565 29.9458 48.9565 29.4193Z" fill="black"/>
<path d="M63.0435 20.129C63.56 20.129 64.0765 20.129 64.6087 20.129C64.6087 20.64 64.6087 21.151 64.6087 21.6774C64.0922 21.6774 63.5756 21.6774 63.0435 21.6774C63.0435 21.1664 63.0435 20.6555 63.0435 20.129Z" fill="#26B056"/>
<path d="M61.4783 18.5807C61.9948 18.5807 62.5113 18.5807 63.0435 18.5807C63.0435 19.0917 63.0435 19.6026 63.0435 20.1291C62.527 20.1291 62.0104 20.1291 61.4783 20.1291C61.4783 19.6181 61.4783 19.1071 61.4783 18.5807Z" fill="#26B056"/>
<path d="M69.3043 17.0322C69.8208 17.0322 70.3374 17.0322 70.8695 17.0322C70.8695 17.5432 70.8695 18.0542 70.8695 18.5806C70.353 18.5806 69.8365 18.5806 69.3043 18.5806C69.3043 18.0696 69.3043 17.5587 69.3043 17.0322Z" fill="black"/>
<path d="M67.7391 17.0322C68.2557 17.0322 68.7722 17.0322 69.3044 17.0322C69.3044 17.5432 69.3044 18.0542 69.3044 18.5806C68.7878 18.5806 68.2713 18.5806 67.7391 18.5806C67.7391 18.0696 67.7391 17.5587 67.7391 17.0322Z" fill="#1ED75F"/>
<path d="M61.4783 17.0322C61.9948 17.0322 62.5113 17.0322 63.0435 17.0322C63.0435 17.5432 63.0435 18.0542 63.0435 18.5806C62.527 18.5806 62.0104 18.5806 61.4783 18.5806C61.4783 18.0696 61.4783 17.5587 61.4783 17.0322Z" fill="black"/>
<path d="M59.9131 17.0322C60.4296 17.0322 60.9461 17.0322 61.4783 17.0322C61.4783 17.5432 61.4783 18.0542 61.4783 18.5806C60.9618 18.5806 60.4453 18.5806 59.9131 18.5806C59.9131 18.0696 59.9131 17.5587 59.9131 17.0322Z" fill="#26B056"/>
<path d="M70.8695 15.4839C71.386 15.4839 71.9026 15.4839 72.4347 15.4839C72.4347 15.9949 72.4347 16.5058 72.4347 17.0323C71.9182 17.0323 71.4017 17.0323 70.8695 17.0323C70.8695 16.5213 70.8695 16.0103 70.8695 15.4839Z" fill="black"/>
<path d="M69.3043 15.4839C69.8208 15.4839 70.3374 15.4839 70.8695 15.4839C70.8695 15.9949 70.8695 16.5058 70.8695 17.0323C70.353 17.0323 69.8365 17.0323 69.3043 17.0323C69.3043 16.5213 69.3043 16.0103 69.3043 15.4839Z" fill="#1ED75F"/>
<path d="M59.9131 15.4839C60.4296 15.4839 60.9461 15.4839 61.4783 15.4839C61.4783 15.9949 61.4783 16.5058 61.4783 17.0323C60.9618 17.0323 60.4453 17.0323 59.9131 17.0323C59.9131 16.5213 59.9131 16.0103 59.9131 15.4839Z" fill="black"/>
<path d="M69.3043 13.9354C69.8208 13.9354 70.3374 13.9354 70.8695 13.9354C70.8695 14.4464 70.8695 14.9574 70.8695 15.4838C70.353 15.4838 69.8365 15.4838 69.3043 15.4838C69.3043 14.9728 69.3043 14.4619 69.3043 13.9354Z" fill="black"/>
<path d="M67.7391 13.9354C68.2557 13.9354 68.7722 13.9354 69.3044 13.9354C69.3044 14.4464 69.3044 14.9574 69.3044 15.4838C68.7878 15.4838 68.2713 15.4838 67.7391 15.4838C67.7391 14.9728 67.7391 14.4619 67.7391 13.9354Z" fill="#1ED75F"/>
<path d="M67.7391 12.3871C68.2557 12.3871 68.7722 12.3871 69.3044 12.3871C69.3044 12.8981 69.3044 13.409 69.3044 13.9355C68.7878 13.9355 68.2713 13.9355 67.7391 13.9355C67.7391 13.4245 67.7391 12.9135 67.7391 12.3871Z" fill="black"/>
<path d="M63.0435 10.8387C63.56 10.8387 64.0765 10.8387 64.6087 10.8387C64.6087 11.3497 64.6087 11.8607 64.6087 12.3871C64.0922 12.3871 63.5756 12.3871 63.0435 12.3871C63.0435 11.8762 63.0435 11.3652 63.0435 10.8387Z" fill="#1ED75F"/>
<path d="M41.1305 10.8387C41.647 10.8387 42.1635 10.8387 42.6957 10.8387C42.6957 11.3497 42.6957 11.8607 42.6957 12.3871C42.1792 12.3871 41.6627 12.3871 41.1305 12.3871C41.1305 11.8762 41.1305 11.3652 41.1305 10.8387Z" fill="black"/>
<path d="M63.0435 9.29028C63.56 9.29028 64.0765 9.29028 64.6087 9.29028C64.6087 9.80125 64.6087 10.3122 64.6087 10.8387C64.0922 10.8387 63.5756 10.8387 63.0435 10.8387C63.0435 10.3277 63.0435 9.81673 63.0435 9.29028Z" fill="black"/>
<path d="M61.4783 9.29028C61.9948 9.29028 62.5113 9.29028 63.0435 9.29028C63.0435 9.80125 63.0435 10.3122 63.0435 10.8387C62.527 10.8387 62.0104 10.8387 61.4783 10.8387C61.4783 10.3277 61.4783 9.81673 61.4783 9.29028Z" fill="#1ED75F"/>
<path d="M56.7826 9.29028C57.2991 9.29028 57.8156 9.29028 58.3478 9.29028C58.3478 9.80125 58.3478 10.3122 58.3478 10.8387C57.8313 10.8387 57.3148 10.8387 56.7826 10.8387C56.7826 10.3277 56.7826 9.81673 56.7826 9.29028Z" fill="#1ED75F"/>
<path d="M61.4783 7.74194C61.9948 7.74194 62.5113 7.74194 63.0435 7.74194C63.0435 8.25291 63.0435 8.76388 63.0435 9.29033C62.527 9.29033 62.0104 9.29033 61.4783 9.29033C61.4783 8.77936 61.4783 8.26839 61.4783 7.74194Z" fill="black"/>
<path d="M55.2174 7.74194C55.7339 7.74194 56.2505 7.74194 56.7826 7.74194C56.7826 8.25291 56.7826 8.76388 56.7826 9.29033C56.2661 9.29033 55.7496 9.29033 55.2174 9.29033C55.2174 8.77936 55.2174 8.26839 55.2174 7.74194Z" fill="#1ED75F"/>
<path d="M39.5652 0C40.0817 0 40.5982 0 41.1304 0C41.1304 0.510968 41.1304 1.02194 41.1304 1.54839C40.6139 1.54839 40.0974 1.54839 39.5652 1.54839C39.5652 1.03742 39.5652 0.526452 39.5652 0Z" fill="black"/>
<path d="M90.3333 0C92.0933 0 93.8533 0 95.6666 0C95.6666 0.88 95.6666 1.76 95.6666 2.66667C95.2266 2.66667 94.7866 2.66667 94.3333 2.66667C94.3333 3.10667 94.3333 3.54667 94.3333 4C93.8933 4 93.4533 4 93 4C93 4.44 93 4.88 93 5.33333C92.56 5.33333 92.12 5.33333 91.6666 5.33333C91.6666 7.09333 91.6666 8.85333 91.6666 10.6667C91.2266 10.6667 90.7866 10.6667 90.3333 10.6667C90.3333 11.9867 90.3333 13.3067 90.3333 14.6667C90.7733 14.6667 91.2133 14.6667 91.6666 14.6667C91.6666 16.4267 91.6666 18.1867 91.6666 20C92.1066 20 92.5466 20 93 20C93 20.44 93 20.88 93 21.3333C95.64 21.3333 98.28 21.3333 101 21.3333C101 21.7733 101 22.2133 101 22.6667C101.44 22.6667 101.88 22.6667 102.333 22.6667C102.333 23.1067 102.333 23.5467 102.333 24C101.893 24 101.453 24 101 24C101 24.44 101 24.88 101 25.3333C97.92 25.3333 94.84 25.3333 91.6666 25.3333C91.6666 26.6533 91.6666 27.9733 91.6666 29.3333C91.2266 29.3333 90.7866 29.3333 90.3333 29.3333C90.3333 30.2133 90.3333 31.0933 90.3333 32C89.8933 32 89.4533 32 89 32C89 32.44 89 32.88 89 33.3333C88.56 33.3333 88.12 33.3333 87.6666 33.3333C87.6666 33.7733 87.6666 34.2133 87.6666 34.6667C88.1066 34.6667 88.5466 34.6667 89 34.6667C89 35.1067 89 35.5467 89 36C89.44 36 89.88 36 90.3333 36C90.3333 36.44 90.3333 36.88 90.3333 37.3333C90.7733 37.3333 91.2133 37.3333 91.6666 37.3333C91.6666 37.7733 91.6666 38.2133 91.6666 38.6667C92.5466 38.6667 93.4266 38.6667 94.3333 38.6667C94.3333 39.1067 94.3333 39.5467 94.3333 40C94.7733 40 95.2133 40 95.6666 40C95.6666 40.44 95.6666 40.88 95.6666 41.3333C96.1066 41.3333 96.5466 41.3333 97 41.3333C97 42.2133 97 43.0933 97 44C97.44 44 97.88 44 98.3333 44C98.3333 45.32 98.3333 46.64 98.3333 48C88.2133 48 78.0933 48 67.6666 48C67.6666 46.68 67.6666 45.36 67.6666 44C68.1066 44 68.5466 44 69 44C69 43.12 69 42.24 69 41.3333C69.44 41.3333 69.88 41.3333 70.3333 41.3333C70.3333 40.8933 70.3333 40.4533 70.3333 40C70.7733 40 71.2133 40 71.6666 40C71.6666 39.56 71.6666 39.12 71.6666 38.6667C72.5466 38.6667 73.4266 38.6667 74.3333 38.6667C74.3333 38.2267 74.3333 37.7867 74.3333 37.3333C74.7733 37.3333 75.2133 37.3333 75.6666 37.3333C75.6666 36.8933 75.6666 36.4533 75.6666 36C76.1066 36 76.5466 36 77 36C77 35.56 77 35.12 77 34.6667C77.44 34.6667 77.88 34.6667 78.3333 34.6667C78.3333 34.2267 78.3333 33.7867 78.3333 33.3333C77.8933 33.3333 77.4533 33.3333 77 33.3333C77 32.8933 77 32.4533 77 32C76.56 32 76.12 32 75.6666 32C75.6666 31.12 75.6666 30.24 75.6666 29.3333C75.2266 29.3333 74.7866 29.3333 74.3333 29.3333C74.3333 27.5733 74.3333 25.8133 74.3333 24C73.0133 24 71.6933 24 70.3333 24C70.3333 23.56 70.3333 23.12 70.3333 22.6667C68.5733 22.6667 66.8133 22.6667 65 22.6667C65 22.2267 65 21.7867 65 21.3333C64.56 21.3333 64.12 21.3333 63.6666 21.3333C63.6666 20.8933 63.6666 20.4533 63.6666 20C64.1066 20 64.5466 20 65 20C65 19.56 65 19.12 65 18.6667C67.64 18.6667 70.28 18.6667 73 18.6667C73 18.2267 73 17.7867 73 17.3333C73.44 17.3333 73.88 17.3333 74.3333 17.3333C74.3333 16.4533 74.3333 15.5733 74.3333 14.6667C74.7733 14.6667 75.2133 14.6667 75.6666 14.6667C75.6666 13.7867 75.6666 12.9067 75.6666 12C76.1066 12 76.5466 12 77 12C77 11.56 77 11.12 77 10.6667C77.44 10.6667 77.88 10.6667 78.3333 10.6667C78.3333 10.2267 78.3333 9.78667 78.3333 9.33333C78.7733 9.33333 79.2133 9.33333 79.6666 9.33333C79.6666 8.45333 79.6666 7.57333 79.6666 6.66667C80.1066 6.66667 80.5466 6.66667 81 6.66667C81 6.22667 81 5.78667 81 5.33333C81.44 5.33333 81.88 5.33333 82.3333 5.33333C82.3333 4.89333 82.3333 4.45333 82.3333 4C82.7733 4 83.2133 4 83.6666 4C83.6666 3.56 83.6666 3.12 83.6666 2.66667C84.5466 2.66667 85.4266 2.66667 86.3333 2.66667C86.3333 2.22667 86.3333 1.78667 86.3333 1.33333C87.6533 1.33333 88.9733 1.33333 90.3333 1.33333C90.3333 0.893333 90.3333 0.453333 90.3333 0Z" fill="#5555C3"/>
<path d="M78.3333 33.3334C78.7733 33.3334 79.2133 33.3334 79.6666 33.3334C79.6666 33.7734 79.6666 34.2134 79.6666 34.6667C80.1066 34.6667 80.5466 34.6667 81 34.6667C81 35.5467 81 36.4267 81 37.3334C80.56 37.3334 80.12 37.3334 79.6666 37.3334C79.6666 37.7734 79.6666 38.2134 79.6666 38.6667C79.2266 38.6667 78.7866 38.6667 78.3333 38.6667C78.3333 39.1067 78.3333 39.5467 78.3333 40C79.6533 40 80.9733 40 82.3333 40C82.3333 40.44 82.3333 40.88 82.3333 41.3334C83.2133 41.3334 84.0933 41.3334 85 41.3334C85 40.8934 85 40.4534 85 40C85.88 40 86.76 40 87.6666 40C87.6666 39.56 87.6666 39.12 87.6666 38.6667C87.2266 38.6667 86.7866 38.6667 86.3333 38.6667C86.3333 38.2267 86.3333 37.7867 86.3333 37.3334C85.8933 37.3334 85.4533 37.3334 85 37.3334C85 36.4534 85 35.5734 85 34.6667C85.44 34.6667 85.88 34.6667 86.3333 34.6667C86.3333 34.2267 86.3333 33.7867 86.3333 33.3334C86.7733 33.3334 87.2133 33.3334 87.6666 33.3334C87.6666 33.7734 87.6666 34.2134 87.6666 34.6667C88.1066 34.6667 88.5466 34.6667 89 34.6667C89 35.1067 89 35.5467 89 36C89.44 36 89.88 36 90.3333 36C90.3333 36.44 90.3333 36.88 90.3333 37.3334C90.7733 37.3334 91.2133 37.3334 91.6666 37.3334C91.6666 37.7734 91.6666 38.2134 91.6666 38.6667C92.5466 38.6667 93.4266 38.6667 94.3333 38.6667C94.3333 39.1067 94.3333 39.5467 94.3333 40C94.7733 40 95.2133 40 95.6666 40C95.6666 40.44 95.6666 40.88 95.6666 41.3334C96.1066 41.3334 96.5466 41.3334 97 41.3334C97 42.2134 97 43.0934 97 44C97.44 44 97.88 44 98.3333 44C98.3333 45.32 98.3333 46.64 98.3333 48C88.2133 48 78.0933 48 67.6666 48C67.6666 46.68 67.6666 45.36 67.6666 44C68.1066 44 68.5466 44 69 44C69 43.12 69 42.24 69 41.3334C69.44 41.3334 69.88 41.3334 70.3333 41.3334C70.3333 40.8934 70.3333 40.4534 70.3333 40C70.7733 40 71.2133 40 71.6666 40C71.6666 39.56 71.6666 39.12 71.6666 38.6667C72.5466 38.6667 73.4266 38.6667 74.3333 38.6667C74.3333 38.2267 74.3333 37.7867 74.3333 37.3334C74.7733 37.3334 75.2133 37.3334 75.6666 37.3334C75.6666 36.8934 75.6666 36.4534 75.6666 36C76.1066 36 76.5466 36 77 36C77 35.56 77 35.12 77 34.6667C77.44 34.6667 77.88 34.6667 78.3333 34.6667C78.3333 34.2267 78.3333 33.7867 78.3333 33.3334Z" fill="#4F4FB9"/>
<path d="M75.6666 24C77.8666 24 80.0666 24 82.3333 24C82.3333 24.44 82.3333 24.88 82.3333 25.3333C84.9733 25.3333 87.6133 25.3333 90.3333 25.3333C90.3333 27.5333 90.3333 29.7333 90.3333 32C89.8933 32 89.4533 32 89 32C89 32.44 89 32.88 89 33.3333C88.12 33.3333 87.24 33.3333 86.3333 33.3333C86.3333 33.7733 86.3333 34.2133 86.3333 34.6667C85.8933 34.6667 85.4533 34.6667 85 34.6667C85 35.5467 85 36.4267 85 37.3333C85.44 37.3333 85.88 37.3333 86.3333 37.3333C86.3333 37.7733 86.3333 38.2133 86.3333 38.6667C86.7733 38.6667 87.2133 38.6667 87.6666 38.6667C87.6666 39.1067 87.6666 39.5467 87.6666 40C86.7866 40 85.9066 40 85 40C85 40.44 85 40.88 85 41.3333C84.12 41.3333 83.24 41.3333 82.3333 41.3333C82.3333 40.8933 82.3333 40.4533 82.3333 40C81.0133 40 79.6933 40 78.3333 40C78.3333 39.56 78.3333 39.12 78.3333 38.6667C78.7733 38.6667 79.2133 38.6667 79.6666 38.6667C79.6666 38.2267 79.6666 37.7867 79.6666 37.3333C80.1066 37.3333 80.5466 37.3333 81 37.3333C81 36.4533 81 35.5733 81 34.6667C80.56 34.6667 80.12 34.6667 79.6666 34.6667C79.6666 34.2267 79.6666 33.7867 79.6666 33.3333C78.7866 33.3333 77.9066 33.3333 77 33.3333C77 32.8933 77 32.4533 77 32C76.56 32 76.12 32 75.6666 32C75.6666 29.36 75.6666 26.72 75.6666 24Z" fill="#5050BA"/>
<path d="M78.3333 33.3334C78.7733 33.3334 79.2133 33.3334 79.6666 33.3334C79.6666 33.7734 79.6666 34.2134 79.6666 34.6667C80.1066 34.6667 80.5466 34.6667 81 34.6667C81 35.5467 81 36.4267 81 37.3334C80.56 37.3334 80.12 37.3334 79.6666 37.3334C79.6666 37.7734 79.6666 38.2134 79.6666 38.6667C79.2266 38.6667 78.7866 38.6667 78.3333 38.6667C78.3333 39.1067 78.3333 39.5467 78.3333 40C79.6533 40 80.9733 40 82.3333 40C82.3333 40.44 82.3333 40.88 82.3333 41.3334C83.2133 41.3334 84.0933 41.3334 85 41.3334C85 40.8934 85 40.4534 85 40C85.88 40 86.76 40 87.6666 40C87.6666 39.56 87.6666 39.12 87.6666 38.6667C87.2266 38.6667 86.7866 38.6667 86.3333 38.6667C86.3333 38.2267 86.3333 37.7867 86.3333 37.3334C85.8933 37.3334 85.4533 37.3334 85 37.3334C85 36.4534 85 35.5734 85 34.6667C85.44 34.6667 85.88 34.6667 86.3333 34.6667C86.3333 34.2267 86.3333 33.7867 86.3333 33.3334C86.7733 33.3334 87.2133 33.3334 87.6666 33.3334C87.6666 33.7734 87.6666 34.2134 87.6666 34.6667C88.1066 34.6667 88.5466 34.6667 89 34.6667C89 35.1067 89 35.5467 89 36C89.44 36 89.88 36 90.3333 36C90.3333 36.44 90.3333 36.88 90.3333 37.3334C90.7733 37.3334 91.2133 37.3334 91.6666 37.3334C91.6666 37.7734 91.6666 38.2134 91.6666 38.6667C92.5466 38.6667 93.4266 38.6667 94.3333 38.6667C94.3333 39.1067 94.3333 39.5467 94.3333 40C93.4533 40 92.5733 40 91.6666 40C91.6666 40.44 91.6666 40.88 91.6666 41.3334C90.7866 41.3334 89.9066 41.3334 89 41.3334C89 41.7734 89 42.2134 89 42.6667C88.56 42.6667 88.12 42.6667 87.6666 42.6667C87.6666 43.1067 87.6666 43.5467 87.6666 44C85.0266 44 82.3866 44 79.6666 44C79.6666 43.56 79.6666 43.12 79.6666 42.6667C78.7866 42.6667 77.9066 42.6667 77 42.6667C77 42.2267 77 41.7867 77 41.3334C76.12 41.3334 75.24 41.3334 74.3333 41.3334C74.3333 40.8934 74.3333 40.4534 74.3333 40C73.4533 40 72.5733 40 71.6666 40C71.6666 39.56 71.6666 39.12 71.6666 38.6667C72.5466 38.6667 73.4266 38.6667 74.3333 38.6667C74.3333 38.2267 74.3333 37.7867 74.3333 37.3334C74.7733 37.3334 75.2133 37.3334 75.6666 37.3334C75.6666 36.8934 75.6666 36.4534 75.6666 36C76.1066 36 76.5466 36 77 36C77 35.56 77 35.12 77 34.6667C77.44 34.6667 77.88 34.6667 78.3333 34.6667C78.3333 34.2267 78.3333 33.7867 78.3333 33.3334Z" fill="#5656C4"/>
<path d="M67.6666 44C68.1066 44 68.5466 44 69 44C69 44.88 69 45.76 69 46.6667C78.24 46.6667 87.48 46.6667 97 46.6667C97 45.7867 97 44.9067 97 44C97.44 44 97.88 44 98.3333 44C98.3333 45.32 98.3333 46.64 98.3333 48C88.2133 48 78.0933 48 67.6666 48C67.6666 46.68 67.6666 45.36 67.6666 44Z" fill="black"/>
<path d="M75.6667 12C76.1067 12 76.5467 12 77 12C77 13.76 77 15.52 77 17.3333C76.56 17.3333 76.12 17.3333 75.6667 17.3333C75.6667 17.7733 75.6667 18.2133 75.6667 18.6667C76.1067 18.6667 76.5467 18.6667 77 18.6667C77 19.1067 77 19.5467 77 20C78.76 20 80.52 20 82.3333 20C82.3333 20.44 82.3333 20.88 82.3333 21.3333C78.8133 21.3333 75.2933 21.3333 71.6667 21.3333C71.6667 20.8933 71.6667 20.4533 71.6667 20C69.4667 20 67.2667 20 65 20C65 19.56 65 19.12 65 18.6667C67.64 18.6667 70.28 18.6667 73 18.6667C73 18.2267 73 17.7867 73 17.3333C73.44 17.3333 73.88 17.3333 74.3333 17.3333C74.3333 16.4533 74.3333 15.5733 74.3333 14.6667C74.7733 14.6667 75.2133 14.6667 75.6667 14.6667C75.6667 13.7867 75.6667 12.9067 75.6667 12Z" fill="#4848AD"/>
<path d="M90.3333 14.6666C90.7733 14.6666 91.2133 14.6666 91.6666 14.6666C91.6666 16.4266 91.6666 18.1866 91.6666 20C92.1066 20 92.5466 20 92.9999 20C92.9999 20.44 92.9999 20.88 92.9999 21.3333C95.6399 21.3333 98.2799 21.3333 101 21.3333C101 21.7733 101 22.2133 101 22.6666C96.1599 22.6666 91.3199 22.6666 86.3333 22.6666C86.3333 22.2266 86.3333 21.7866 86.3333 21.3333C87.2133 21.3333 88.0933 21.3333 88.9999 21.3333C88.9999 20.8933 88.9999 20.4533 88.9999 20C89.4399 20 89.8799 20 90.3333 20C90.3333 18.24 90.3333 16.48 90.3333 14.6666Z" fill="#4848AD"/>
<path d="M82.3333 24C88.4933 24 94.6533 24 101 24C101 24.44 101 24.88 101 25.3333C97.9199 25.3333 94.8399 25.3333 91.6666 25.3333C91.6666 26.6533 91.6666 27.9733 91.6666 29.3333C91.2266 29.3333 90.7866 29.3333 90.3333 29.3333C90.3333 28.0133 90.3333 26.6933 90.3333 25.3333C87.6933 25.3333 85.0533 25.3333 82.3333 25.3333C82.3333 24.8933 82.3333 24.4533 82.3333 24Z" fill="black"/>
<path d="M70.3333 22.6666C74.2933 22.6666 78.2533 22.6666 82.3333 22.6666C82.3333 23.1066 82.3333 23.5466 82.3333 24C80.1333 24 77.9333 24 75.6666 24C75.6666 25.76 75.6666 27.52 75.6666 29.3333C75.2266 29.3333 74.7866 29.3333 74.3333 29.3333C74.3333 27.5733 74.3333 25.8133 74.3333 24C73.0133 24 71.6933 24 70.3333 24C70.3333 23.56 70.3333 23.12 70.3333 22.6666Z" fill="black"/>
<path d="M87.6666 5.33337C88.9866 5.33337 90.3066 5.33337 91.6666 5.33337C91.6666 7.09337 91.6666 8.85337 91.6666 10.6667C91.2266 10.6667 90.7866 10.6667 90.3333 10.6667C90.3333 11.9867 90.3333 13.3067 90.3333 14.6667C89.8933 14.6667 89.4533 14.6667 89 14.6667C89 12.0267 89 9.38671 89 6.66671C88.56 6.66671 88.12 6.66671 87.6666 6.66671C87.6666 6.22671 87.6666 5.78671 87.6666 5.33337Z" fill="#4848AD"/>
<path d="M86.3333 33.3334C86.7733 33.3334 87.2133 33.3334 87.6667 33.3334C87.6667 33.7734 87.6667 34.2134 87.6667 34.6667C88.1067 34.6667 88.5467 34.6667 89 34.6667C89 35.1067 89 35.5467 89 36C89.44 36 89.88 36 90.3333 36C90.3333 36.44 90.3333 36.88 90.3333 37.3334C89.8933 37.3334 89.4533 37.3334 89 37.3334C89 38.2134 89 39.0934 89 40C88.56 40 88.12 40 87.6667 40C87.6667 39.56 87.6667 39.12 87.6667 38.6667C87.2267 38.6667 86.7867 38.6667 86.3333 38.6667C86.3333 38.2267 86.3333 37.7867 86.3333 37.3334C85.8933 37.3334 85.4533 37.3334 85 37.3334C85 36.4534 85 35.5734 85 34.6667C85.44 34.6667 85.88 34.6667 86.3333 34.6667C86.3333 34.2267 86.3333 33.7867 86.3333 33.3334Z" fill="#4848AD"/>
<path d="M78.3333 33.3334C78.7733 33.3334 79.2133 33.3334 79.6666 33.3334C79.6666 33.7734 79.6666 34.2134 79.6666 34.6667C80.1066 34.6667 80.5466 34.6667 81 34.6667C81 35.5467 81 36.4267 81 37.3334C80.56 37.3334 80.12 37.3334 79.6666 37.3334C79.6666 37.7734 79.6666 38.2134 79.6666 38.6667C79.2266 38.6667 78.7866 38.6667 78.3333 38.6667C78.3333 39.1067 78.3333 39.5467 78.3333 40C77.8933 40 77.4533 40 77 40C77 39.12 77 38.24 77 37.3334C76.56 37.3334 76.12 37.3334 75.6666 37.3334C75.6666 36.8934 75.6666 36.4534 75.6666 36C76.1066 36 76.5466 36 77 36C77 35.56 77 35.12 77 34.6667C77.44 34.6667 77.88 34.6667 78.3333 34.6667C78.3333 34.2267 78.3333 33.7867 78.3333 33.3334Z" fill="#4848AD"/>
<path d="M78.3333 38.6666C81.4133 38.6666 84.4933 38.6666 87.6666 38.6666C87.6666 39.1066 87.6666 39.5466 87.6666 40C86.7866 40 85.9066 40 84.9999 40C84.9999 40.44 84.9999 40.88 84.9999 41.3333C84.1199 41.3333 83.2399 41.3333 82.3333 41.3333C82.3333 40.8933 82.3333 40.4533 82.3333 40C81.0133 40 79.6933 40 78.3333 40C78.3333 39.56 78.3333 39.12 78.3333 38.6666Z" fill="#5656C4"/>
<path d="M93 21.3334C95.64 21.3334 98.28 21.3334 101 21.3334C101 21.7734 101 22.2134 101 22.6667C98.36 22.6667 95.72 22.6667 93 22.6667C93 22.2267 93 21.7867 93 21.3334Z" fill="black"/>
<path d="M65 18.6666C67.64 18.6666 70.28 18.6666 73 18.6666C73 19.1066 73 19.5466 73 20C70.36 20 67.72 20 65 20C65 19.56 65 19.12 65 18.6666Z" fill="black"/>
<path d="M75.6666 12C76.1066 12 76.5466 12 76.9999 12C76.9999 13.76 76.9999 15.52 76.9999 17.3333C76.1199 17.3333 75.2399 17.3333 74.3333 17.3333C74.3333 16.4533 74.3333 15.5733 74.3333 14.6667C74.7733 14.6667 75.2133 14.6667 75.6666 14.6667C75.6666 13.7867 75.6666 12.9067 75.6666 12Z" fill="#4848AD"/>
<path d="M90.3333 37.3334C90.7733 37.3334 91.2133 37.3334 91.6666 37.3334C91.6666 37.7734 91.6666 38.2134 91.6666 38.6667C92.5466 38.6667 93.4266 38.6667 94.3333 38.6667C94.3333 39.1067 94.3333 39.5467 94.3333 40C93.4533 40 92.5733 40 91.6666 40C91.6666 40.44 91.6666 40.88 91.6666 41.3334C91.2266 41.3334 90.7866 41.3334 90.3333 41.3334C90.3333 40.0134 90.3333 38.6934 90.3333 37.3334Z" fill="black"/>
<path d="M74.3333 37.3334C74.7733 37.3334 75.2133 37.3334 75.6666 37.3334C75.6666 38.6534 75.6666 39.9734 75.6666 41.3334C75.2266 41.3334 74.7866 41.3334 74.3333 41.3334C74.3333 40.8934 74.3333 40.4534 74.3333 40C73.4533 40 72.5733 40 71.6666 40C71.6666 39.56 71.6666 39.12 71.6666 38.6667C72.5466 38.6667 73.4266 38.6667 74.3333 38.6667C74.3333 38.2267 74.3333 37.7867 74.3333 37.3334Z" fill="black"/>
<path d="M90.3333 0C92.0933 0 93.8533 0 95.6666 0C95.6666 0.88 95.6666 1.76 95.6666 2.66667C95.2266 2.66667 94.7866 2.66667 94.3333 2.66667C94.3333 2.22667 94.3333 1.78667 94.3333 1.33333C93.0133 1.33333 91.6933 1.33333 90.3333 1.33333C90.3333 0.893333 90.3333 0.453333 90.3333 0Z" fill="black"/>
<path d="M65 21.3334C66.76 21.3334 68.52 21.3334 70.3333 21.3334C70.3333 21.7734 70.3333 22.2134 70.3333 22.6667C68.5733 22.6667 66.8133 22.6667 65 22.6667C65 22.2267 65 21.7867 65 21.3334Z" fill="black"/>
<path d="M90.3333 14.6666C90.7733 14.6666 91.2133 14.6666 91.6666 14.6666C91.6666 16.4266 91.6666 18.1866 91.6666 20C91.2266 20 90.7866 20 90.3333 20C90.3333 18.24 90.3333 16.48 90.3333 14.6666Z" fill="black"/>
<path d="M90.3333 5.33337C90.7733 5.33337 91.2133 5.33337 91.6666 5.33337C91.6666 7.09337 91.6666 8.85337 91.6666 10.6667C91.2266 10.6667 90.7866 10.6667 90.3333 10.6667C90.3333 8.90671 90.3333 7.14671 90.3333 5.33337Z" fill="black"/>
<path d="M78.3333 40C79.6533 40 80.9733 40 82.3333 40C82.3333 40.44 82.3333 40.88 82.3333 41.3333C81.0133 41.3333 79.6933 41.3333 78.3333 41.3333C78.3333 40.8933 78.3333 40.4533 78.3333 40Z" fill="black"/>
<path d="M89 10.6666C89.44 10.6666 89.88 10.6666 90.3333 10.6666C90.3333 11.9866 90.3333 13.3066 90.3333 14.6666C89.8933 14.6666 89.4533 14.6666 89 14.6666C89 13.3466 89 12.0266 89 10.6666Z" fill="black"/>
<path d="M86.3333 1.33337C87.6533 1.33337 88.9733 1.33337 90.3333 1.33337C90.3333 1.77337 90.3333 2.21337 90.3333 2.66671C89.0133 2.66671 87.6933 2.66671 86.3333 2.66671C86.3333 2.22671 86.3333 1.78671 86.3333 1.33337Z" fill="black"/>
<path d="M95.6666 41.3334C96.1066 41.3334 96.5466 41.3334 97 41.3334C97 42.2134 97 43.0934 97 44C96.56 44 96.12 44 95.6666 44C95.6666 43.12 95.6666 42.24 95.6666 41.3334Z" fill="black"/>
<path d="M82.3333 41.3334C83.2133 41.3334 84.0933 41.3334 84.9999 41.3334C84.9999 41.7734 84.9999 42.2134 84.9999 42.6667C84.1199 42.6667 83.2399 42.6667 82.3333 42.6667C82.3333 42.2267 82.3333 41.7867 82.3333 41.3334Z" fill="black"/>
<path d="M69 41.3334C69.44 41.3334 69.88 41.3334 70.3333 41.3334C70.3333 42.2134 70.3333 43.0934 70.3333 44C69.8933 44 69.4533 44 69 44C69 43.12 69 42.24 69 41.3334Z" fill="black"/>
<path d="M85 40C85.88 40 86.76 40 87.6667 40C87.6667 40.44 87.6667 40.88 87.6667 41.3333C86.7867 41.3333 85.9067 41.3333 85 41.3333C85 40.8933 85 40.4533 85 40Z" fill="black"/>
<path d="M85 34.6666C85.44 34.6666 85.88 34.6666 86.3333 34.6666C86.3333 35.5466 86.3333 36.4266 86.3333 37.3333C85.8933 37.3333 85.4533 37.3333 85 37.3333C85 36.4533 85 35.5733 85 34.6666Z" fill="black"/>
<path d="M79.6666 34.6666C80.1066 34.6666 80.5466 34.6666 81 34.6666C81 35.5466 81 36.4266 81 37.3333C80.56 37.3333 80.12 37.3333 79.6666 37.3333C79.6666 36.4533 79.6666 35.5733 79.6666 34.6666Z" fill="black"/>
<path d="M89 29.3334C89.44 29.3334 89.88 29.3334 90.3333 29.3334C90.3333 30.2134 90.3333 31.0934 90.3333 32C89.8933 32 89.4533 32 89 32C89 31.12 89 30.24 89 29.3334Z" fill="black"/>
<path d="M75.6666 29.3334C76.1066 29.3334 76.5466 29.3334 77 29.3334C77 30.2134 77 31.0934 77 32C76.56 32 76.12 32 75.6666 32C75.6666 31.12 75.6666 30.24 75.6666 29.3334Z" fill="black"/>
<path d="M89 14.6666C89.44 14.6666 89.88 14.6666 90.3333 14.6666C90.3333 15.5466 90.3333 16.4266 90.3333 17.3333C89.8933 17.3333 89.4533 17.3333 89 17.3333C89 16.4533 89 15.5733 89 14.6666Z" fill="#4848AD"/>
<path d="M74.3333 14.6666C74.7733 14.6666 75.2133 14.6666 75.6666 14.6666C75.6666 15.5466 75.6666 16.4266 75.6666 17.3333C75.2266 17.3333 74.7866 17.3333 74.3333 17.3333C74.3333 16.4533 74.3333 15.5733 74.3333 14.6666Z" fill="black"/>
<path d="M75.6666 12C76.1066 12 76.5466 12 77 12C77 12.88 77 13.76 77 14.6667C76.56 14.6667 76.12 14.6667 75.6666 14.6667C75.6666 13.7867 75.6666 12.9067 75.6666 12Z" fill="black"/>
<path d="M79.6666 6.66663C80.1066 6.66663 80.5466 6.66663 81 6.66663C81 7.54663 81 8.42663 81 9.33329C80.56 9.33329 80.12 9.33329 79.6666 9.33329C79.6666 8.45329 79.6666 7.57329 79.6666 6.66663Z" fill="black"/>
<path d="M83.6666 2.66663C84.5466 2.66663 85.4266 2.66663 86.3333 2.66663C86.3333 3.10663 86.3333 3.54663 86.3333 3.99996C85.4533 3.99996 84.5733 3.99996 83.6666 3.99996C83.6666 3.55996 83.6666 3.11996 83.6666 2.66663Z" fill="black"/>
<path d="M89 41.3334C89.44 41.3334 89.88 41.3334 90.3333 41.3334C90.3333 41.7734 90.3333 42.2134 90.3333 42.6667C89.8933 42.6667 89.4533 42.6667 89 42.6667C89 42.2267 89 41.7867 89 41.3334Z" fill="black"/>
<path d="M75.6666 41.3334C76.1066 41.3334 76.5466 41.3334 77 41.3334C77 41.7734 77 42.2134 77 42.6667C76.56 42.6667 76.12 42.6667 75.6666 42.6667C75.6666 42.2267 75.6666 41.7867 75.6666 41.3334Z" fill="black"/>
<path d="M94.3333 40C94.7733 40 95.2133 40 95.6666 40C95.6666 40.44 95.6666 40.88 95.6666 41.3333C95.2266 41.3333 94.7866 41.3333 94.3333 41.3333C94.3333 40.8933 94.3333 40.4533 94.3333 40Z" fill="black"/>
<path d="M73 40C73.44 40 73.88 40 74.3333 40C74.3333 40.44 74.3333 40.88 74.3333 41.3333C73.8933 41.3333 73.4533 41.3333 73 41.3333C73 40.8933 73 40.4533 73 40Z" fill="#4848AD"/>
<path d="M70.3333 40C70.7733 40 71.2133 40 71.6666 40C71.6666 40.44 71.6666 40.88 71.6666 41.3333C71.2266 41.3333 70.7866 41.3333 70.3333 41.3333C70.3333 40.8933 70.3333 40.4533 70.3333 40Z" fill="black"/>
<path d="M87.6666 38.6666C88.1066 38.6666 88.5466 38.6666 89 38.6666C89 39.1066 89 39.5466 89 40C88.56 40 88.12 40 87.6666 40C87.6666 39.56 87.6666 39.12 87.6666 38.6666Z" fill="black"/>
<path d="M77 38.6666C77.44 38.6666 77.88 38.6666 78.3333 38.6666C78.3333 39.1066 78.3333 39.5466 78.3333 40C77.8933 40 77.4533 40 77 40C77 39.56 77 39.12 77 38.6666Z" fill="black"/>
<path d="M86.3333 37.3334C86.7733 37.3334 87.2133 37.3334 87.6666 37.3334C87.6666 37.7734 87.6666 38.2134 87.6666 38.6667C87.2266 38.6667 86.7866 38.6667 86.3333 38.6667C86.3333 38.2267 86.3333 37.7867 86.3333 37.3334Z" fill="black"/>
<path d="M78.3333 37.3334C78.7733 37.3334 79.2133 37.3334 79.6666 37.3334C79.6666 37.7734 79.6666 38.2134 79.6666 38.6667C79.2266 38.6667 78.7866 38.6667 78.3333 38.6667C78.3333 38.2267 78.3333 37.7867 78.3333 37.3334Z" fill="black"/>
<path d="M89 36C89.44 36 89.88 36 90.3333 36C90.3333 36.44 90.3333 36.88 90.3333 37.3333C89.8933 37.3333 89.4533 37.3333 89 37.3333C89 36.8933 89 36.4533 89 36Z" fill="black"/>
<path d="M75.6666 36C76.1066 36 76.5466 36 77 36C77 36.44 77 36.88 77 37.3333C76.56 37.3333 76.12 37.3333 75.6666 37.3333C75.6666 36.8933 75.6666 36.4533 75.6666 36Z" fill="black"/>
<path d="M87.6666 34.6666C88.1066 34.6666 88.5466 34.6666 89 34.6666C89 35.1066 89 35.5466 89 36C88.56 36 88.12 36 87.6666 36C87.6666 35.56 87.6666 35.12 87.6666 34.6666Z" fill="black"/>
<path d="M77 34.6666C77.44 34.6666 77.88 34.6666 78.3333 34.6666C78.3333 35.1066 78.3333 35.5466 78.3333 36C77.8933 36 77.4533 36 77 36C77 35.56 77 35.12 77 34.6666Z" fill="black"/>
<path d="M86.3333 33.3334C86.7733 33.3334 87.2133 33.3334 87.6666 33.3334C87.6666 33.7734 87.6666 34.2134 87.6666 34.6667C87.2266 34.6667 86.7866 34.6667 86.3333 34.6667C86.3333 34.2267 86.3333 33.7867 86.3333 33.3334Z" fill="black"/>
<path d="M78.3333 33.3334C78.7733 33.3334 79.2133 33.3334 79.6666 33.3334C79.6666 33.7734 79.6666 34.2134 79.6666 34.6667C79.2266 34.6667 78.7866 34.6667 78.3333 34.6667C78.3333 34.2267 78.3333 33.7867 78.3333 33.3334Z" fill="black"/>
<path d="M87.6666 32C88.1066 32 88.5466 32 89 32C89 32.44 89 32.88 89 33.3333C88.56 33.3333 88.12 33.3333 87.6666 33.3333C87.6666 32.8933 87.6666 32.4533 87.6666 32Z" fill="black"/>
<path d="M77 32C77.44 32 77.88 32 78.3333 32C78.3333 32.44 78.3333 32.88 78.3333 33.3333C77.8933 33.3333 77.4533 33.3333 77 33.3333C77 32.8933 77 32.4533 77 32Z" fill="black"/>
<path d="M101 22.6666C101.44 22.6666 101.88 22.6666 102.333 22.6666C102.333 23.1066 102.333 23.5466 102.333 24C101.893 24 101.453 24 101 24C101 23.56 101 23.12 101 22.6666Z" fill="black"/>
<path d="M91.6666 20C92.1066 20 92.5466 20 93 20C93 20.44 93 20.88 93 21.3333C92.56 21.3333 92.12 21.3333 91.6666 21.3333C91.6666 20.8933 91.6666 20.4533 91.6666 20Z" fill="black"/>
<path d="M63.6666 20C64.1066 20 64.5466 20 65 20C65 20.44 65 20.88 65 21.3333C64.56 21.3333 64.12 21.3333 63.6666 21.3333C63.6666 20.8933 63.6666 20.4533 63.6666 20Z" fill="black"/>
<path d="M73 17.3334C73.44 17.3334 73.88 17.3334 74.3333 17.3334C74.3333 17.7734 74.3333 18.2134 74.3333 18.6667C73.8933 18.6667 73.4533 18.6667 73 18.6667C73 18.2267 73 17.7867 73 17.3334Z" fill="black"/>
<path d="M77 10.6666C77.44 10.6666 77.88 10.6666 78.3333 10.6666C78.3333 11.1066 78.3333 11.5466 78.3333 12C77.8933 12 77.4533 12 77 12C77 11.56 77 11.12 77 10.6666Z" fill="black"/>
<path d="M78.3333 9.33337C78.7733 9.33337 79.2133 9.33337 79.6666 9.33337C79.6666 9.77337 79.6666 10.2134 79.6666 10.6667C79.2266 10.6667 78.7866 10.6667 78.3333 10.6667C78.3333 10.2267 78.3333 9.78671 78.3333 9.33337Z" fill="black"/>
<path d="M81 5.33337C81.44 5.33337 81.88 5.33337 82.3333 5.33337C82.3333 5.77337 82.3333 6.21337 82.3333 6.66671C81.8933 6.66671 81.4533 6.66671 81 6.66671C81 6.22671 81 5.78671 81 5.33337Z" fill="black"/>
<path d="M91.6666 4C92.1066 4 92.5466 4 93 4C93 4.44 93 4.88 93 5.33333C92.56 5.33333 92.12 5.33333 91.6666 5.33333C91.6666 4.89333 91.6666 4.45333 91.6666 4Z" fill="black"/>
<path d="M90.3333 4C90.7733 4 91.2133 4 91.6666 4C91.6666 4.44 91.6666 4.88 91.6666 5.33333C91.2266 5.33333 90.7866 5.33333 90.3333 5.33333C90.3333 4.89333 90.3333 4.45333 90.3333 4Z" fill="#4848AD"/>
<path d="M82.3333 4C82.7733 4 83.2133 4 83.6666 4C83.6666 4.44 83.6666 4.88 83.6666 5.33333C83.2266 5.33333 82.7866 5.33333 82.3333 5.33333C82.3333 4.89333 82.3333 4.45333 82.3333 4Z" fill="black"/>
<path d="M93 2.66663C93.44 2.66663 93.88 2.66663 94.3333 2.66663C94.3333 3.10663 94.3333 3.54663 94.3333 3.99996C93.8933 3.99996 93.4533 3.99996 93 3.99996C93 3.55996 93 3.11996 93 2.66663Z" fill="black"/>
</svg>
