<svg width="16" height="18" viewBox="0 0 16 18" fill="none" xmlns="http://www.w3.org/2000/svg">
<path d="M14.4762 0C14.979 0 15.4819 0 16 0C16 0.754286 16 1.50857 16 2.28571C15.7486 2.28571 15.4971 2.28571 15.2381 2.28571C15.2381 2.78857 15.2381 3.29143 15.2381 3.80952C14.9867 3.80952 14.7352 3.80952 14.4762 3.80952C14.4762 4.31238 14.4762 4.81524 14.4762 5.33333C14.2248 5.33333 13.9733 5.33333 13.7143 5.33333C13.7143 5.58476 13.7143 5.83619 13.7143 6.09524C13.4629 6.09524 13.2114 6.09524 12.9524 6.09524C12.9524 6.5981 12.9524 7.10095 12.9524 7.61905C12.701 7.61905 12.4495 7.61905 12.1905 7.61905C12.1905 7.87048 12.1905 8.12191 12.1905 8.38095C11.939 8.38095 11.6876 8.38095 11.4286 8.38095C11.4286 8.63238 11.4286 8.88381 11.4286 9.14286C11.1771 9.14286 10.9257 9.14286 10.6667 9.14286C10.6667 9.39429 10.6667 9.64571 10.6667 9.90476C10.4152 9.90476 10.1638 9.90476 9.90476 9.90476C9.90476 10.1562 9.90476 10.4076 9.90476 10.6667C9.65333 10.6667 9.40191 10.6667 9.14286 10.6667C9.14286 10.9181 9.14286 11.1695 9.14286 11.4286C8.89143 11.4286 8.64 11.4286 8.38095 11.4286C8.38095 11.9314 8.38095 12.4343 8.38095 12.9524C8.88381 12.9524 9.38667 12.9524 9.90476 12.9524C9.90476 14.461 9.90476 15.9695 9.90476 17.5238C6.63619 17.5238 3.36762 17.5238 0 17.5238C0 16.0152 0 14.5067 0 12.9524C0.502857 12.9524 1.00571 12.9524 1.52381 12.9524C1.52381 12.4495 1.52381 11.9467 1.52381 11.4286C2.52952 11.4286 3.53524 11.4286 4.57143 11.4286C4.57143 10.6743 4.57143 9.92 4.57143 9.14286C4.82286 9.14286 5.07429 9.14286 5.33333 9.14286C5.33333 8.64 5.33333 8.13714 5.33333 7.61905C5.58476 7.61905 5.83619 7.61905 6.09524 7.61905C6.09524 7.11619 6.09524 6.61333 6.09524 6.09524C6.34667 6.09524 6.5981 6.09524 6.85714 6.09524C6.85714 5.84381 6.85714 5.59238 6.85714 5.33333C7.10857 5.33333 7.36 5.33333 7.61905 5.33333C7.61905 5.0819 7.61905 4.83048 7.61905 4.57143C7.87048 4.57143 8.12191 4.57143 8.38095 4.57143C8.38095 4.32 8.38095 4.06857 8.38095 3.80952C8.63238 3.80952 8.88381 3.80952 9.14286 3.80952C9.14286 3.5581 9.14286 3.30667 9.14286 3.04762C9.39429 3.04762 9.64571 3.04762 9.90476 3.04762C9.90476 2.79619 9.90476 2.54476 9.90476 2.28571C10.4076 2.28571 10.9105 2.28571 11.4286 2.28571C11.4286 2.03429 11.4286 1.78286 11.4286 1.52381C11.9314 1.52381 12.4343 1.52381 12.9524 1.52381C12.9524 1.27238 12.9524 1.02095 12.9524 0.761905C13.4552 0.761905 13.9581 0.761905 14.4762 0.761905C14.4762 0.510476 14.4762 0.259048 14.4762 0Z" fill="black"/>
<path d="M14.4762 0C14.979 0 15.4819 0 16 0C16 0.754286 16 1.50857 16 2.28571C15.7486 2.28571 15.4971 2.28571 15.2381 2.28571C15.2381 2.78857 15.2381 3.29143 15.2381 3.80952C14.9866 3.80952 14.7352 3.80952 14.4762 3.80952C14.4762 4.31238 14.4762 4.81524 14.4762 5.33333C14.2247 5.33333 13.9733 5.33333 13.7143 5.33333C13.7143 5.58476 13.7143 5.83619 13.7143 6.09524C13.4628 6.09524 13.2114 6.09524 12.9524 6.09524C12.9524 6.5981 12.9524 7.10095 12.9524 7.61905C12.7009 7.61905 12.4495 7.61905 12.1905 7.61905C12.1905 7.87048 12.1905 8.12191 12.1905 8.38095C11.939 8.38095 11.6876 8.38095 11.4286 8.38095C11.4286 8.63238 11.4286 8.88381 11.4286 9.14286C10.4228 9.14286 9.41712 9.14286 8.38093 9.14286C8.38093 8.89143 8.38093 8.64 8.38093 8.38095C8.1295 8.38095 7.87807 8.38095 7.61903 8.38095C7.61903 8.63238 7.61903 8.88381 7.61903 9.14286C7.3676 9.14286 7.11617 9.14286 6.85712 9.14286C6.85712 9.39429 6.85712 9.64571 6.85712 9.90476C6.60569 9.90476 6.35427 9.90476 6.09522 9.90476C6.09522 10.1562 6.09522 10.4076 6.09522 10.6667C5.84379 10.6667 5.59236 10.6667 5.33331 10.6667C5.33331 9.66095 5.33331 8.65524 5.33331 7.61905C5.58474 7.61905 5.83617 7.61905 6.09522 7.61905C6.09522 7.11619 6.09522 6.61333 6.09522 6.09524C6.34665 6.09524 6.59807 6.09524 6.85712 6.09524C6.85712 5.84381 6.85712 5.59238 6.85712 5.33333C7.10855 5.33333 7.35998 5.33333 7.61903 5.33333C7.61903 5.0819 7.61903 4.83048 7.61903 4.57143C7.87046 4.57143 8.12188 4.57143 8.38093 4.57143C8.38093 4.32 8.38093 4.06857 8.38093 3.80952C8.63236 3.80952 8.88379 3.80952 9.14284 3.80952C9.14284 3.5581 9.14284 3.30667 9.14284 3.04762C9.39427 3.04762 9.64569 3.04762 9.90474 3.04762C9.90474 2.79619 9.90474 2.54476 9.90474 2.28571C10.4076 2.28571 10.9105 2.28571 11.4286 2.28571C11.4286 2.03429 11.4286 1.78286 11.4286 1.52381C11.9314 1.52381 12.4343 1.52381 12.9524 1.52381C12.9524 1.27238 12.9524 1.02095 12.9524 0.761905C13.4552 0.761905 13.9581 0.761905 14.4762 0.761905C14.4762 0.510476 14.4762 0.259048 14.4762 0Z" fill="#8F8F8F"/>
<path d="M14.4762 0C14.9791 0 15.4819 0 16 0C16 0.754286 16 1.50857 16 2.28571C15.7486 2.28571 15.4972 2.28571 15.2381 2.28571C15.2381 2.78857 15.2381 3.29143 15.2381 3.80952C14.9867 3.80952 14.7353 3.80952 14.4762 3.80952C14.4762 4.31238 14.4762 4.81524 14.4762 5.33333C14.2248 5.33333 13.9734 5.33333 13.7143 5.33333C13.7143 5.58476 13.7143 5.83619 13.7143 6.09524C13.4629 6.09524 13.2115 6.09524 12.9524 6.09524C12.9524 6.5981 12.9524 7.10095 12.9524 7.61905C12.701 7.61905 12.4495 7.61905 12.1905 7.61905C12.1905 7.11619 12.1905 6.61333 12.1905 6.09524C11.4362 6.09524 10.6819 6.09524 9.90479 6.09524C9.90479 5.84381 9.90479 5.59238 9.90479 5.33333C10.1562 5.33333 10.4076 5.33333 10.6667 5.33333C10.6667 5.08191 10.6667 4.83048 10.6667 4.57143C10.9181 4.57143 11.1695 4.57143 11.4286 4.57143C11.4286 4.32 11.4286 4.06857 11.4286 3.80952C11.68 3.80952 11.9315 3.80952 12.1905 3.80952C12.1905 3.5581 12.1905 3.30667 12.1905 3.04762C12.4419 3.04762 12.6934 3.04762 12.9524 3.04762C12.9524 2.79619 12.9524 2.54476 12.9524 2.28571C13.4553 2.28571 13.9581 2.28571 14.4762 2.28571C14.4762 2.03429 14.4762 1.78286 14.4762 1.52381C13.9734 1.52381 13.4705 1.52381 12.9524 1.52381C12.9524 1.27238 12.9524 1.02095 12.9524 0.761905C13.4553 0.761905 13.9581 0.761905 14.4762 0.761905C14.4762 0.510476 14.4762 0.259048 14.4762 0Z" fill="#494949"/>
<path d="M4.57142 11.4285C4.82285 11.4285 5.07428 11.4285 5.33333 11.4285C5.33333 11.6799 5.33333 11.9313 5.33333 12.1904C6.08761 12.1904 6.8419 12.1904 7.61904 12.1904C7.61904 12.4418 7.61904 12.6932 7.61904 12.9523C7.36761 12.9523 7.11618 12.9523 6.85714 12.9523C6.85714 13.2037 6.85714 13.4551 6.85714 13.7142C7.61142 13.7142 8.36571 13.7142 9.14285 13.7142C9.14285 14.4685 9.14285 15.2228 9.14285 15.9999C8.89142 15.9999 8.63999 15.9999 8.38095 15.9999C8.38095 15.497 8.38095 14.9942 8.38095 14.4761C7.87809 14.4761 7.37523 14.4761 6.85714 14.4761C6.85714 14.7275 6.85714 14.9789 6.85714 15.238C6.60571 15.238 6.35428 15.238 6.09523 15.238C6.09523 14.9866 6.09523 14.7351 6.09523 14.4761C5.8438 14.4761 5.59238 14.4761 5.33333 14.4761C5.33333 15.2304 5.33333 15.9847 5.33333 16.7618C4.07618 16.7618 2.81904 16.7618 1.5238 16.7618C1.5238 16.5104 1.5238 16.2589 1.5238 15.9999C2.52952 15.9999 3.53523 15.9999 4.57142 15.9999C4.57142 15.497 4.57142 14.9942 4.57142 14.4761C4.31999 14.4761 4.06857 14.4761 3.80952 14.4761C3.80952 14.2247 3.80952 13.9732 3.80952 13.7142C4.5638 13.7142 5.31809 13.7142 6.09523 13.7142C6.09523 13.4628 6.09523 13.2113 6.09523 12.9523C5.59238 12.9523 5.08952 12.9523 4.57142 12.9523C4.57142 12.4494 4.57142 11.9466 4.57142 11.4285Z" fill="#AAAAAA"/>
<path d="M2.28571 12.1904C3.04 12.1904 3.79428 12.1904 4.57143 12.1904C4.57143 12.4419 4.57143 12.6933 4.57143 12.9523C5.07428 12.9523 5.57714 12.9523 6.09524 12.9523C6.09524 13.2038 6.09524 13.4552 6.09524 13.7142C5.34095 13.7142 4.58666 13.7142 3.80952 13.7142C3.80952 13.9657 3.80952 14.2171 3.80952 14.4761C4.06095 14.4761 4.31238 14.4761 4.57143 14.4761C4.57143 14.979 4.57143 15.4819 4.57143 16C3.56571 16 2.56 16 1.52381 16C1.52381 16.2514 1.52381 16.5028 1.52381 16.7619C1.27238 16.7619 1.02095 16.7619 0.761902 16.7619C0.761902 15.7561 0.761902 14.7504 0.761902 13.7142C1.51619 13.7142 2.27047 13.7142 3.04762 13.7142C3.04762 13.4628 3.04762 13.2114 3.04762 12.9523C2.79619 12.9523 2.54476 12.9523 2.28571 12.9523C2.28571 12.7009 2.28571 12.4495 2.28571 12.1904Z" fill="#8F8F8F"/>
<path d="M9.14289 6.09521C10.1486 6.09521 11.1543 6.09521 12.1905 6.09521C12.1905 6.8495 12.1905 7.60379 12.1905 8.38093C11.9391 8.38093 11.6876 8.38093 11.4286 8.38093C11.4286 8.63236 11.4286 8.88379 11.4286 9.14283C10.4229 9.14283 9.41717 9.14283 8.38098 9.14283C8.38098 8.38855 8.38098 7.63426 8.38098 6.85712C8.63241 6.85712 8.88384 6.85712 9.14289 6.85712C9.14289 6.60569 9.14289 6.35426 9.14289 6.09521Z" fill="#464646"/>
<path d="M7.61903 8.38086C7.87046 8.38086 8.12189 8.38086 8.38093 8.38086C8.38093 8.63229 8.38093 8.88372 8.38093 9.14276C9.13522 9.14276 9.88951 9.14276 10.6666 9.14276C10.6666 9.39419 10.6666 9.64562 10.6666 9.90467C10.4152 9.90467 10.1638 9.90467 9.90474 9.90467C9.90474 10.1561 9.90474 10.4075 9.90474 10.6666C9.15046 10.6666 8.39617 10.6666 7.61903 10.6666C7.61903 10.918 7.61903 11.1694 7.61903 11.4285C6.61332 11.4285 5.6076 11.4285 4.57141 11.4285C4.57141 10.6742 4.57141 9.91991 4.57141 9.14276C4.82284 9.14276 5.07427 9.14276 5.33332 9.14276C5.33332 9.64562 5.33332 10.1485 5.33332 10.6666C5.58474 10.6666 5.83617 10.6666 6.09522 10.6666C6.09522 10.4151 6.09522 10.1637 6.09522 9.90467C6.34665 9.90467 6.59808 9.90467 6.85713 9.90467C6.85713 9.65324 6.85713 9.40181 6.85713 9.14276C7.10855 9.14276 7.35998 9.14276 7.61903 9.14276C7.61903 8.89134 7.61903 8.63991 7.61903 8.38086Z" fill="#464646"/>
<path d="M5.33331 14.4761C5.58474 14.4761 5.83617 14.4761 6.09522 14.4761C6.09522 14.7275 6.09522 14.9789 6.09522 15.238C6.34665 15.238 6.59807 15.238 6.85712 15.238C6.85712 14.9866 6.85712 14.7351 6.85712 14.4761C7.35998 14.4761 7.86284 14.4761 8.38093 14.4761C8.38093 14.9789 8.38093 15.4818 8.38093 15.9999C8.63236 15.9999 8.88379 15.9999 9.14284 15.9999C9.14284 16.2513 9.14284 16.5027 9.14284 16.7618C7.88569 16.7618 6.62855 16.7618 5.33331 16.7618C5.33331 16.0075 5.33331 15.2532 5.33331 14.4761Z" fill="#8F8F8F"/>
<path d="M3.80952 13.7144C4.5638 13.7144 5.31809 13.7144 6.09523 13.7144C6.09523 13.9658 6.09523 14.2172 6.09523 14.4763C5.8438 14.4763 5.59238 14.4763 5.33333 14.4763C5.33333 15.2305 5.33333 15.9848 5.33333 16.762C4.07618 16.762 2.81904 16.762 1.5238 16.762C1.5238 16.5105 1.5238 16.2591 1.5238 16.0001C2.52952 16.0001 3.53523 16.0001 4.57142 16.0001C4.57142 15.4972 4.57142 14.9944 4.57142 14.4763C4.31999 14.4763 4.06857 14.4763 3.80952 14.4763C3.80952 14.2248 3.80952 13.9734 3.80952 13.7144Z" fill="#AAAAAA"/>
<path d="M14.4762 0C14.9791 0 15.4819 0 16 0C16 0.754286 16 1.50857 16 2.28571C15.7486 2.28571 15.4972 2.28571 15.2381 2.28571C15.2381 2.78857 15.2381 3.29143 15.2381 3.80952C14.9867 3.80952 14.7352 3.80952 14.4762 3.80952C14.4762 3.05524 14.4762 2.30095 14.4762 1.52381C13.9733 1.52381 13.4705 1.52381 12.9524 1.52381C12.9524 1.27238 12.9524 1.02095 12.9524 0.761905C13.4552 0.761905 13.9581 0.761905 14.4762 0.761905C14.4762 0.510476 14.4762 0.259048 14.4762 0Z" fill="#3C3C3C"/>
<path d="M1.5238 14.4761C2.52952 14.4761 3.53523 14.4761 4.57142 14.4761C4.57142 14.9789 4.57142 15.4818 4.57142 15.9999C3.56571 15.9999 2.55999 15.9999 1.5238 15.9999C1.5238 15.497 1.5238 14.9942 1.5238 14.4761Z" fill="black"/>
<path d="M10.6667 4.57153C10.9181 4.57153 11.1695 4.57153 11.4286 4.57153C11.4286 4.82296 11.4286 5.07439 11.4286 5.33344C12.1829 5.33344 12.9372 5.33344 13.7143 5.33344C13.7143 5.58487 13.7143 5.8363 13.7143 6.09534C13.4629 6.09534 13.2115 6.09534 12.9524 6.09534C12.9524 6.5982 12.9524 7.10106 12.9524 7.61915C12.701 7.61915 12.4495 7.61915 12.1905 7.61915C12.1905 7.11629 12.1905 6.61344 12.1905 6.09534C11.4362 6.09534 10.6819 6.09534 9.90479 6.09534C9.90479 5.84391 9.90479 5.59249 9.90479 5.33344C10.1562 5.33344 10.4076 5.33344 10.6667 5.33344C10.6667 5.08201 10.6667 4.83058 10.6667 4.57153Z" fill="#494949"/>
<path d="M2.28571 12.1904C3.03999 12.1904 3.79428 12.1904 4.57142 12.1904C4.57142 12.4419 4.57142 12.6933 4.57142 12.9523C5.07428 12.9523 5.57713 12.9523 6.09523 12.9523C6.09523 13.2038 6.09523 13.4552 6.09523 13.7142C5.08952 13.7142 4.0838 13.7142 3.04761 13.7142C3.04761 13.4628 3.04761 13.2114 3.04761 12.9523C2.79618 12.9523 2.54475 12.9523 2.28571 12.9523C2.28571 12.7009 2.28571 12.4495 2.28571 12.1904Z" fill="#8F8F8F"/>
<path d="M1.5238 16C2.52952 16 3.53523 16 4.57142 16C4.57142 16.2514 4.57142 16.5029 4.57142 16.7619C3.56571 16.7619 2.55999 16.7619 1.5238 16.7619C1.5238 16.5105 1.5238 16.259 1.5238 16Z" fill="#8F8F8F"/>
<path d="M14.4762 0C14.9791 0 15.4819 0 16 0C16 0.754286 16 1.50857 16 2.28571C15.7486 2.28571 15.4971 2.28571 15.2381 2.28571C15.2381 1.78286 15.2381 1.28 15.2381 0.761905C14.9867 0.761905 14.7352 0.761905 14.4762 0.761905C14.4762 0.510476 14.4762 0.259048 14.4762 0Z" fill="black"/>
<path d="M6.85712 14.4761C7.35997 14.4761 7.86283 14.4761 8.38093 14.4761C8.38093 14.9789 8.38093 15.4818 8.38093 15.9999C8.1295 15.9999 7.87807 15.9999 7.61902 15.9999C7.61902 15.7485 7.61902 15.497 7.61902 15.238C7.36759 15.238 7.11616 15.238 6.85712 15.238C6.85712 14.9866 6.85712 14.7351 6.85712 14.4761Z" fill="black"/>
<path d="M5.33331 14.4761C5.58474 14.4761 5.83617 14.4761 6.09522 14.4761C6.09522 14.7275 6.09522 14.9789 6.09522 15.238C6.34665 15.238 6.59807 15.238 6.85712 15.238C6.85712 15.4894 6.85712 15.7408 6.85712 15.9999C6.35427 15.9999 5.85141 15.9999 5.33331 15.9999C5.33331 15.497 5.33331 14.9942 5.33331 14.4761Z" fill="black"/>
<path d="M0.761902 14.4761C1.01333 14.4761 1.26476 14.4761 1.52381 14.4761C1.52381 15.2304 1.52381 15.9846 1.52381 16.7618C1.27238 16.7618 1.02095 16.7618 0.761902 16.7618C0.761902 16.0075 0.761902 15.2532 0.761902 14.4761Z" fill="#8F8F8F"/>
<path d="M3.80951 12.9524C4.5638 12.9524 5.31808 12.9524 6.09522 12.9524C6.09522 13.2038 6.09522 13.4552 6.09522 13.7143C5.34094 13.7143 4.58665 13.7143 3.80951 13.7143C3.80951 13.4629 3.80951 13.2114 3.80951 12.9524Z" fill="black"/>
<path d="M4.57141 9.14282C4.82284 9.14282 5.07427 9.14282 5.33332 9.14282C5.33332 9.89711 5.33332 10.6514 5.33332 11.4285C5.08189 11.4285 4.83046 11.4285 4.57141 11.4285C4.57141 10.6743 4.57141 9.91997 4.57141 9.14282Z" fill="black"/>
<path d="M8.38098 8.38086C9.13527 8.38086 9.88955 8.38086 10.6667 8.38086C10.6667 8.63229 10.6667 8.88372 10.6667 9.14276C9.91241 9.14276 9.15812 9.14276 8.38098 9.14276C8.38098 8.89134 8.38098 8.63991 8.38098 8.38086Z" fill="#8F8F8F"/>
<path d="M9.90479 6.09521C10.6591 6.09521 11.4134 6.09521 12.1905 6.09521C12.1905 6.34664 12.1905 6.59807 12.1905 6.85712C11.4362 6.85712 10.6819 6.85712 9.90479 6.85712C9.90479 6.60569 9.90479 6.35426 9.90479 6.09521Z" fill="#8F8F8F"/>
<path d="M11.4286 4.57153C12.1829 4.57153 12.9372 4.57153 13.7143 4.57153C13.7143 4.82296 13.7143 5.07439 13.7143 5.33344C12.96 5.33344 12.2057 5.33344 11.4286 5.33344C11.4286 5.08201 11.4286 4.83058 11.4286 4.57153Z" fill="#8F8F8F"/>
<path d="M5.33331 7.61914C5.58474 7.61914 5.83617 7.61914 6.09522 7.61914C6.09522 8.122 6.09522 8.62485 6.09522 9.14295C5.84379 9.14295 5.59236 9.14295 5.33331 9.14295C5.33331 8.64009 5.33331 8.13724 5.33331 7.61914Z" fill="black"/>
<path d="M12.1905 6.09521C12.4419 6.09521 12.6933 6.09521 12.9524 6.09521C12.9524 6.59807 12.9524 7.10093 12.9524 7.61902C12.701 7.61902 12.4495 7.61902 12.1905 7.61902C12.1905 7.11617 12.1905 6.61331 12.1905 6.09521Z" fill="black"/>
<path d="M6.09521 6.09521C6.34664 6.09521 6.59807 6.09521 6.85712 6.09521C6.85712 6.59807 6.85712 7.10093 6.85712 7.61902C6.60569 7.61902 6.35426 7.61902 6.09521 7.61902C6.09521 7.11617 6.09521 6.61331 6.09521 6.09521Z" fill="black"/>
<path d="M13.7143 3.80957C13.9657 3.80957 14.2172 3.80957 14.4762 3.80957C14.4762 4.31243 14.4762 4.81528 14.4762 5.33338C14.2248 5.33338 13.9733 5.33338 13.7143 5.33338C13.7143 4.83052 13.7143 4.32767 13.7143 3.80957Z" fill="black"/>
<path d="M14.4762 2.28564C14.7276 2.28564 14.9791 2.28564 15.2381 2.28564C15.2381 2.7885 15.2381 3.29136 15.2381 3.80945C14.9867 3.80945 14.7352 3.80945 14.4762 3.80945C14.4762 3.3066 14.4762 2.80374 14.4762 2.28564Z" fill="black"/>
<path d="M12.9524 2.28564C13.4552 2.28564 13.9581 2.28564 14.4762 2.28564C14.4762 2.53707 14.4762 2.7885 14.4762 3.04755C13.9733 3.04755 13.4705 3.04755 12.9524 3.04755C12.9524 2.79612 12.9524 2.54469 12.9524 2.28564Z" fill="#3C3C3C"/>
<path d="M9.90479 2.28564C10.4076 2.28564 10.9105 2.28564 11.4286 2.28564C11.4286 2.53707 11.4286 2.7885 11.4286 3.04755C10.9257 3.04755 10.4229 3.04755 9.90479 3.04755C9.90479 2.79612 9.90479 2.54469 9.90479 2.28564Z" fill="black"/>
<path d="M12.9524 1.52393C13.4552 1.52393 13.9581 1.52393 14.4762 1.52393C14.4762 1.77535 14.4762 2.02678 14.4762 2.28583C13.9733 2.28583 13.4705 2.28583 12.9524 2.28583C12.9524 2.0344 12.9524 1.78297 12.9524 1.52393Z" fill="#8F8F8F"/>
<path d="M11.4286 1.52393C11.9314 1.52393 12.4343 1.52393 12.9524 1.52393C12.9524 1.77535 12.9524 2.02678 12.9524 2.28583C12.4495 2.28583 11.9467 2.28583 11.4286 2.28583C11.4286 2.0344 11.4286 1.78297 11.4286 1.52393Z" fill="black"/>
<path d="M12.9524 0.761963C13.4552 0.761963 13.9581 0.761963 14.4762 0.761963C14.4762 1.01339 14.4762 1.26482 14.4762 1.52387C13.9733 1.52387 13.4705 1.52387 12.9524 1.52387C12.9524 1.27244 12.9524 1.02101 12.9524 0.761963Z" fill="black"/>
<path d="M8.38098 16C8.63241 16 8.88384 16 9.14289 16C9.14289 16.2514 9.14289 16.5029 9.14289 16.7619C8.89146 16.7619 8.64003 16.7619 8.38098 16.7619C8.38098 16.5105 8.38098 16.259 8.38098 16Z" fill="#8F8F8F"/>
<path d="M7.61902 16C7.87045 16 8.12188 16 8.38092 16C8.38092 16.2514 8.38092 16.5029 8.38092 16.7619C8.12949 16.7619 7.87807 16.7619 7.61902 16.7619C7.61902 16.5105 7.61902 16.259 7.61902 16Z" fill="#AAAAAA"/>
<path d="M0.761902 16C1.01333 16 1.26476 16 1.52381 16C1.52381 16.2514 1.52381 16.5029 1.52381 16.7619C1.27238 16.7619 1.02095 16.7619 0.761902 16.7619C0.761902 16.5105 0.761902 16.259 0.761902 16Z" fill="#494949"/>
<path d="M6.85712 15.238C7.10855 15.238 7.35997 15.238 7.61902 15.238C7.61902 15.4895 7.61902 15.7409 7.61902 15.9999C7.36759 15.9999 7.11616 15.9999 6.85712 15.9999C6.85712 15.7485 6.85712 15.4971 6.85712 15.238Z" fill="#AAAAAA"/>
<path d="M5.33331 13.7144C5.58474 13.7144 5.83617 13.7144 6.09522 13.7144C6.09522 13.9658 6.09522 14.2172 6.09522 14.4763C5.84379 14.4763 5.59236 14.4763 5.33331 14.4763C5.33331 14.2248 5.33331 13.9734 5.33331 13.7144Z" fill="#8F8F8F"/>
<path d="M3.80951 13.7144C4.06094 13.7144 4.31237 13.7144 4.57141 13.7144C4.57141 13.9658 4.57141 14.2172 4.57141 14.4763C4.31999 14.4763 4.06856 14.4763 3.80951 14.4763C3.80951 14.2248 3.80951 13.9734 3.80951 13.7144Z" fill="#8F8F8F"/>
<path d="M3.04761 13.7144C3.29904 13.7144 3.55046 13.7144 3.80951 13.7144C3.80951 13.9658 3.80951 14.2172 3.80951 14.4763C3.55808 14.4763 3.30666 14.4763 3.04761 14.4763C3.04761 14.2248 3.04761 13.9734 3.04761 13.7144Z" fill="#494949"/>
<path d="M0.761902 13.7144C1.01333 13.7144 1.26476 13.7144 1.52381 13.7144C1.52381 13.9658 1.52381 14.2172 1.52381 14.4763C1.27238 14.4763 1.02095 14.4763 0.761902 14.4763C0.761902 14.2248 0.761902 13.9734 0.761902 13.7144Z" fill="#494949"/>
<path d="M4.57141 11.4285C4.82284 11.4285 5.07427 11.4285 5.33332 11.4285C5.33332 11.6799 5.33332 11.9313 5.33332 12.1904C5.08189 12.1904 4.83046 12.1904 4.57141 12.1904C4.57141 11.9389 4.57141 11.6875 4.57141 11.4285Z" fill="#EBB052"/>
<path d="M9.14288 9.90479C9.39431 9.90479 9.64574 9.90479 9.90479 9.90479C9.90479 10.1562 9.90479 10.4076 9.90479 10.6667C9.65336 10.6667 9.40193 10.6667 9.14288 10.6667C9.14288 10.4153 9.14288 10.1638 9.14288 9.90479Z" fill="black"/>
<path d="M9.90479 9.14282C10.1562 9.14282 10.4076 9.14282 10.6667 9.14282C10.6667 9.39425 10.6667 9.64568 10.6667 9.90473C10.4153 9.90473 10.1638 9.90473 9.90479 9.90473C9.90479 9.6533 9.90479 9.40187 9.90479 9.14282Z" fill="black"/>
<path d="M6.85712 9.14282C7.10855 9.14282 7.35997 9.14282 7.61902 9.14282C7.61902 9.39425 7.61902 9.64568 7.61902 9.90473C7.36759 9.90473 7.11616 9.90473 6.85712 9.90473C6.85712 9.6533 6.85712 9.40187 6.85712 9.14282Z" fill="#3C3C3C"/>
<path d="M10.6667 8.38086C10.9181 8.38086 11.1695 8.38086 11.4286 8.38086C11.4286 8.63229 11.4286 8.88372 11.4286 9.14276C11.1772 9.14276 10.9257 9.14276 10.6667 9.14276C10.6667 8.89134 10.6667 8.63991 10.6667 8.38086Z" fill="black"/>
<path d="M7.61902 8.38086C7.87045 8.38086 8.12188 8.38086 8.38092 8.38086C8.38092 8.63229 8.38092 8.88372 8.38092 9.14276C8.12949 9.14276 7.87807 9.14276 7.61902 9.14276C7.61902 8.89134 7.61902 8.63991 7.61902 8.38086Z" fill="#3C3C3C"/>
<path d="M11.4286 7.61914C11.68 7.61914 11.9314 7.61914 12.1905 7.61914C12.1905 7.87057 12.1905 8.122 12.1905 8.38105C11.9391 8.38105 11.6876 8.38105 11.4286 8.38105C11.4286 8.12962 11.4286 7.87819 11.4286 7.61914Z" fill="black"/>
<path d="M9.14288 6.09521C9.39431 6.09521 9.64574 6.09521 9.90479 6.09521C9.90479 6.34664 9.90479 6.59807 9.90479 6.85712C9.65336 6.85712 9.40193 6.85712 9.14288 6.85712C9.14288 6.60569 9.14288 6.35426 9.14288 6.09521Z" fill="#3C3C3C"/>
<path d="M12.9524 5.33325C13.2038 5.33325 13.4552 5.33325 13.7143 5.33325C13.7143 5.58468 13.7143 5.83611 13.7143 6.09516C13.4629 6.09516 13.2114 6.09516 12.9524 6.09516C12.9524 5.84373 12.9524 5.5923 12.9524 5.33325Z" fill="black"/>
<path d="M9.90479 5.33325C10.1562 5.33325 10.4076 5.33325 10.6667 5.33325C10.6667 5.58468 10.6667 5.83611 10.6667 6.09516C10.4153 6.09516 10.1638 6.09516 9.90479 6.09516C9.90479 5.84373 9.90479 5.5923 9.90479 5.33325Z" fill="#3C3C3C"/>
<path d="M6.85712 5.33325C7.10855 5.33325 7.35997 5.33325 7.61902 5.33325C7.61902 5.58468 7.61902 5.83611 7.61902 6.09516C7.36759 6.09516 7.11616 6.09516 6.85712 6.09516C6.85712 5.84373 6.85712 5.5923 6.85712 5.33325Z" fill="black"/>
<path d="M10.6667 4.57153C10.9181 4.57153 11.1695 4.57153 11.4286 4.57153C11.4286 4.82296 11.4286 5.07439 11.4286 5.33344C11.1772 5.33344 10.9257 5.33344 10.6667 5.33344C10.6667 5.08201 10.6667 4.83058 10.6667 4.57153Z" fill="#3C3C3C"/>
<path d="M7.61902 4.57153C7.87045 4.57153 8.12188 4.57153 8.38092 4.57153C8.38092 4.82296 8.38092 5.07439 8.38092 5.33344C8.12949 5.33344 7.87807 5.33344 7.61902 5.33344C7.61902 5.08201 7.61902 4.83058 7.61902 4.57153Z" fill="black"/>
<path d="M11.4286 3.80957C11.68 3.80957 11.9314 3.80957 12.1905 3.80957C12.1905 4.061 12.1905 4.31243 12.1905 4.57148C11.9391 4.57148 11.6876 4.57148 11.4286 4.57148C11.4286 4.32005 11.4286 4.06862 11.4286 3.80957Z" fill="#3C3C3C"/>
<path d="M8.38098 3.80957C8.63241 3.80957 8.88384 3.80957 9.14289 3.80957C9.14289 4.061 9.14289 4.31243 9.14289 4.57148C8.89146 4.57148 8.64003 4.57148 8.38098 4.57148C8.38098 4.32005 8.38098 4.06862 8.38098 3.80957Z" fill="black"/>
<path d="M12.1905 3.04761C12.4419 3.04761 12.6933 3.04761 12.9524 3.04761C12.9524 3.29904 12.9524 3.55046 12.9524 3.80951C12.701 3.80951 12.4495 3.80951 12.1905 3.80951C12.1905 3.55808 12.1905 3.30666 12.1905 3.04761Z" fill="#3C3C3C"/>
<path d="M9.14288 3.04761C9.39431 3.04761 9.64574 3.04761 9.90479 3.04761C9.90479 3.29904 9.90479 3.55046 9.90479 3.80951C9.65336 3.80951 9.40193 3.80951 9.14288 3.80951C9.14288 3.55808 9.14288 3.30666 9.14288 3.04761Z" fill="black"/>
<path d="M14.4762 0.761963C14.7276 0.761963 14.9791 0.761963 15.2381 0.761963C15.2381 1.01339 15.2381 1.26482 15.2381 1.52387C14.9867 1.52387 14.7352 1.52387 14.4762 1.52387C14.4762 1.27244 14.4762 1.02101 14.4762 0.761963Z" fill="#8F8F8F"/>
</svg>
