<svg width="16" height="16" viewBox="0 0 16 16" fill="none" xmlns="http://www.w3.org/2000/svg">
<path d="M6.73683 2.52637C7.57052 2.52637 8.4042 2.52637 9.26315 2.52637C9.26315 3.91584 9.26315 5.30531 9.26315 6.73689C10.6526 6.73689 12.0421 6.73689 13.4737 6.73689C13.4737 7.57058 13.4737 8.40426 13.4737 9.26321C12.0842 9.26321 10.6947 9.26321 9.26315 9.26321C9.26315 10.6527 9.26315 12.0422 9.26315 13.4737C8.42946 13.4737 7.59578 13.4737 6.73683 13.4737C6.73683 12.0843 6.73683 10.6948 6.73683 9.26321C5.34736 9.26321 3.95789 9.26321 2.52631 9.26321C2.52631 8.42952 2.52631 7.59584 2.52631 6.73689C3.91578 6.73689 5.30525 6.73689 6.73683 6.73689C6.73683 5.34742 6.73683 3.95795 6.73683 2.52637Z" fill="#F3F3F3"/>
<path d="M6.73685 2.52637C7.57053 2.52637 8.40422 2.52637 9.26316 2.52637C9.26316 3.91584 9.26316 5.30531 9.26316 6.73689C10.6526 6.73689 12.0421 6.73689 13.4737 6.73689C13.4737 7.57058 13.4737 8.40426 13.4737 9.26321C13.1958 9.26321 12.9179 9.26321 12.6316 9.26321C12.6316 8.70742 12.6316 8.15163 12.6316 7.579C11.2421 7.579 9.85264 7.579 8.42106 7.579C8.42106 6.18952 8.42106 4.80005 8.42106 3.36847C7.86527 3.36847 7.30948 3.36847 6.73685 3.36847C6.73685 3.09058 6.73685 2.81268 6.73685 2.52637Z" fill="#C5C5C5"/>
<path d="M15.1579 5.05273C15.4358 5.05273 15.7137 5.05273 16 5.05273C16 7.27589 16 9.49905 16 11.7896C15.7221 11.7896 15.4442 11.7896 15.1579 11.7896C15.1579 12.0675 15.1579 12.3454 15.1579 12.6317C14.88 12.6317 14.6021 12.6317 14.3158 12.6317C14.3158 12.9096 14.3158 13.1875 14.3158 13.4738C14.0379 13.4738 13.76 13.4738 13.4737 13.4738C13.4737 12.918 13.4737 12.3622 13.4737 11.7896C13.7516 11.7896 14.0295 11.7896 14.3158 11.7896C14.3158 11.5117 14.3158 11.2338 14.3158 10.9475C14.5937 10.9475 14.8716 10.9475 15.1579 10.9475C15.1579 9.00221 15.1579 7.05695 15.1579 5.05273Z" fill="#F3F3F3"/>
<path d="M0 5.05273C0.277895 5.05273 0.555789 5.05273 0.842105 5.05273C0.842105 6.998 0.842105 8.94326 0.842105 10.9475C0.56421 10.9475 0.286316 10.9475 0 10.9475C0 9.00221 0 7.05695 0 5.05273Z" fill="#F3F3F3"/>
<path d="M5.89474 15.158C7.28422 15.158 8.67369 15.158 10.1053 15.158C10.1053 15.4359 10.1053 15.7137 10.1053 16.0001C8.7158 16.0001 7.32632 16.0001 5.89474 16.0001C5.89474 15.7222 5.89474 15.4443 5.89474 15.158Z" fill="#F3F3F3"/>
<path d="M2.52631 13.4736C3.0821 13.4736 3.63788 13.4736 4.21052 13.4736C4.21052 13.7515 4.21052 14.0294 4.21052 14.3157C4.76631 14.3157 5.3221 14.3157 5.89473 14.3157C5.89473 14.5936 5.89473 14.8715 5.89473 15.1578C5.06104 15.1578 4.22736 15.1578 3.36841 15.1578C3.36841 14.8799 3.36841 14.6021 3.36841 14.3157C3.09052 14.3157 2.81262 14.3157 2.52631 14.3157C2.52631 14.0378 2.52631 13.7599 2.52631 13.4736Z" fill="#F3F3F3"/>
<path d="M10.1053 0.842041C10.9389 0.842041 11.7726 0.842041 12.6316 0.842041C12.6316 1.11994 12.6316 1.39783 12.6316 1.68415C12.9095 1.68415 13.1874 1.68415 13.4737 1.68415C13.4737 1.96204 13.4737 2.23994 13.4737 2.52625C12.9179 2.52625 12.3621 2.52625 11.7895 2.52625C11.7895 2.24836 11.7895 1.97046 11.7895 1.68415C11.2337 1.68415 10.6779 1.68415 10.1053 1.68415C10.1053 1.40625 10.1053 1.12836 10.1053 0.842041Z" fill="#C5C5C5"/>
<path d="M3.36841 0.842041C4.2021 0.842041 5.03578 0.842041 5.89473 0.842041C5.89473 1.11994 5.89473 1.39783 5.89473 1.68415C5.33894 1.68415 4.78315 1.68415 4.21052 1.68415C4.21052 1.96204 4.21052 2.23994 4.21052 2.52625C3.65473 2.52625 3.09894 2.52625 2.52631 2.52625C2.52631 2.24836 2.52631 1.97046 2.52631 1.68415C2.8042 1.68415 3.0821 1.68415 3.36841 1.68415C3.36841 1.40625 3.36841 1.12836 3.36841 0.842041Z" fill="#F3F3F3"/>
<path d="M5.89474 0C7.28422 0 8.67369 0 10.1053 0C10.1053 0.277895 10.1053 0.555789 10.1053 0.842105C8.7158 0.842105 7.32632 0.842105 5.89474 0.842105C5.89474 0.56421 5.89474 0.286316 5.89474 0Z" fill="#C5C5C5"/>
<path d="M0.842102 10.9473C1.12 10.9473 1.39789 10.9473 1.68421 10.9473C1.68421 11.2252 1.68421 11.5031 1.68421 11.7894C1.9621 11.7894 2.24 11.7894 2.52631 11.7894C2.52631 12.3452 2.52631 12.9009 2.52631 13.4736C2.24842 13.4736 1.97052 13.4736 1.68421 13.4736C1.68421 13.1957 1.68421 12.9178 1.68421 12.6315C1.40631 12.6315 1.12842 12.6315 0.842102 12.6315C0.842102 12.0757 0.842102 11.5199 0.842102 10.9473Z" fill="#F3F3F3"/>
<path d="M15.1579 5.05273C15.4358 5.05273 15.7137 5.05273 16 5.05273C16 6.16431 16 7.27589 16 8.42116C15.7221 8.42116 15.4442 8.42116 15.1579 8.42116C15.1579 7.30958 15.1579 6.198 15.1579 5.05273Z" fill="#C5C5C5"/>
<path d="M1.68421 2.52637C1.9621 2.52637 2.24 2.52637 2.52631 2.52637C2.52631 3.08216 2.52631 3.63795 2.52631 4.21058C2.24842 4.21058 1.97052 4.21058 1.68421 4.21058C1.68421 4.48847 1.68421 4.76637 1.68421 5.05268C1.40631 5.05268 1.12842 5.05268 0.842102 5.05268C0.842102 4.49689 0.842102 3.9411 0.842102 3.36847C1.12 3.36847 1.39789 3.36847 1.68421 3.36847C1.68421 3.09058 1.68421 2.81268 1.68421 2.52637Z" fill="#C5C5C5"/>
<path d="M13.4737 2.52637C13.7516 2.52637 14.0295 2.52637 14.3158 2.52637C14.3158 2.80426 14.3158 3.08216 14.3158 3.36847C14.5937 3.36847 14.8716 3.36847 15.1579 3.36847C15.1579 3.92426 15.1579 4.48005 15.1579 5.05268C14.88 5.05268 14.6021 5.05268 14.3158 5.05268C14.3158 4.77479 14.3158 4.49689 14.3158 4.21058C14.0379 4.21058 13.76 4.21058 13.4737 4.21058C13.4737 3.65479 13.4737 3.099 13.4737 2.52637Z" fill="#C5C5C5"/>
<path d="M13.4737 11.7896C14.0295 11.7896 14.5853 11.7896 15.1579 11.7896C15.1579 12.0674 15.1579 12.3453 15.1579 12.6317C14.88 12.6317 14.6021 12.6317 14.3158 12.6317C14.3158 12.9096 14.3158 13.1874 14.3158 13.4738C14.0379 13.4738 13.76 13.4738 13.4737 13.4738C13.4737 12.918 13.4737 12.3622 13.4737 11.7896Z" fill="#F3F3F3"/>
<path d="M10.1053 14.3157C10.661 14.3157 11.2168 14.3157 11.7895 14.3157C11.7895 14.5936 11.7895 14.8715 11.7895 15.1578C11.2337 15.1578 10.6779 15.1578 10.1053 15.1578C10.1053 14.8799 10.1053 14.602 10.1053 14.3157Z" fill="#F3F3F3"/>
<path d="M11.7895 13.4736C12.3452 13.4736 12.901 13.4736 13.4737 13.4736C13.4737 13.7515 13.4737 14.0294 13.4737 14.3157C12.9179 14.3157 12.3621 14.3157 11.7895 14.3157C11.7895 14.0378 11.7895 13.7599 11.7895 13.4736Z" fill="#F3F3F3"/>
<path d="M2.52631 13.4736C3.0821 13.4736 3.63788 13.4736 4.21052 13.4736C4.21052 13.7515 4.21052 14.0294 4.21052 14.3157C3.65473 14.3157 3.09894 14.3157 2.52631 14.3157C2.52631 14.0378 2.52631 13.7599 2.52631 13.4736Z" fill="#C5C5C5"/>
<path d="M0.842102 3.36841C1.12 3.36841 1.39789 3.36841 1.68421 3.36841C1.68421 3.9242 1.68421 4.47999 1.68421 5.05262C1.40631 5.05262 1.12842 5.05262 0.842102 5.05262C0.842102 4.49683 0.842102 3.94104 0.842102 3.36841Z" fill="#F3F3F3"/>
<path d="M11.7895 1.68433C12.3452 1.68433 12.901 1.68433 13.4737 1.68433C13.4737 1.96222 13.4737 2.24012 13.4737 2.52643C12.9179 2.52643 12.3621 2.52643 11.7895 2.52643C11.7895 2.24854 11.7895 1.97064 11.7895 1.68433Z" fill="#C5C5C5"/>
<path d="M2.52631 1.68433C3.0821 1.68433 3.63788 1.68433 4.21052 1.68433C4.21052 1.96222 4.21052 2.24012 4.21052 2.52643C3.65473 2.52643 3.09894 2.52643 2.52631 2.52643C2.52631 2.24854 2.52631 1.97064 2.52631 1.68433Z" fill="#C5C5C5"/>
<path d="M10.1053 14.3157C10.3831 14.3157 10.661 14.3157 10.9474 14.3157C10.9474 14.5936 10.9474 14.8715 10.9474 15.1578C10.6695 15.1578 10.3916 15.1578 10.1053 15.1578C10.1053 14.8799 10.1053 14.602 10.1053 14.3157Z" fill="#C5C5C5"/>
<path d="M2.52631 13.4736C2.8042 13.4736 3.0821 13.4736 3.36841 13.4736C3.36841 13.7515 3.36841 14.0294 3.36841 14.3157C3.09052 14.3157 2.81262 14.3157 2.52631 14.3157C2.52631 14.0378 2.52631 13.7599 2.52631 13.4736Z" fill="#F3F3F3"/>
<path d="M13.4737 12.6316C13.7516 12.6316 14.0295 12.6316 14.3158 12.6316C14.3158 12.9095 14.3158 13.1874 14.3158 13.4737C14.0379 13.4737 13.76 13.4737 13.4737 13.4737C13.4737 13.1958 13.4737 12.9179 13.4737 12.6316Z" fill="#F3F3F3"/>
<path d="M1.6842 12.6316C1.9621 12.6316 2.23999 12.6316 2.52631 12.6316C2.52631 12.9095 2.52631 13.1874 2.52631 13.4737C2.24841 13.4737 1.97052 13.4737 1.6842 13.4737C1.6842 13.1958 1.6842 12.9179 1.6842 12.6316Z" fill="#F3F3F3"/>
<path d="M13.4737 11.7896C13.7516 11.7896 14.0295 11.7896 14.3158 11.7896C14.3158 12.0674 14.3158 12.3453 14.3158 12.6317C14.0379 12.6317 13.76 12.6317 13.4737 12.6317C13.4737 12.3538 13.4737 12.0759 13.4737 11.7896Z" fill="#C5C5C5"/>
<path d="M1.6842 11.7896C1.9621 11.7896 2.23999 11.7896 2.52631 11.7896C2.52631 12.0674 2.52631 12.3453 2.52631 12.6317C2.24841 12.6317 1.97052 12.6317 1.6842 12.6317C1.6842 12.3538 1.6842 12.0759 1.6842 11.7896Z" fill="#C5C5C5"/>
<path d="M14.3158 10.9473C14.5937 10.9473 14.8716 10.9473 15.1579 10.9473C15.1579 11.2252 15.1579 11.5031 15.1579 11.7894C14.88 11.7894 14.6021 11.7894 14.3158 11.7894C14.3158 11.5115 14.3158 11.2336 14.3158 10.9473Z" fill="#C5C5C5"/>
<path d="M14.3158 4.21045C14.5937 4.21045 14.8716 4.21045 15.1579 4.21045C15.1579 4.48834 15.1579 4.76624 15.1579 5.05255C14.88 5.05255 14.6021 5.05255 14.3158 5.05255C14.3158 4.77466 14.3158 4.49676 14.3158 4.21045Z" fill="#C5C5C5"/>
<path d="M14.3158 3.36841C14.5937 3.36841 14.8716 3.36841 15.1579 3.36841C15.1579 3.6463 15.1579 3.9242 15.1579 4.21051C14.88 4.21051 14.6021 4.21051 14.3158 4.21051C14.3158 3.93262 14.3158 3.65472 14.3158 3.36841Z" fill="#F3F3F3"/>
<path d="M1.6842 2.52637C1.9621 2.52637 2.23999 2.52637 2.52631 2.52637C2.52631 2.80426 2.52631 3.08216 2.52631 3.36847C2.24841 3.36847 1.97052 3.36847 1.6842 3.36847C1.6842 3.09058 1.6842 2.81268 1.6842 2.52637Z" fill="#F3F3F3"/>
<path d="M2.52631 1.68433C2.8042 1.68433 3.0821 1.68433 3.36841 1.68433C3.36841 1.96222 3.36841 2.24012 3.36841 2.52643C3.09052 2.52643 2.81262 2.52643 2.52631 2.52643C2.52631 2.24854 2.52631 1.97064 2.52631 1.68433Z" fill="#F3F3F3"/>
<path d="M11.7895 0.842041C12.0674 0.842041 12.3452 0.842041 12.6316 0.842041C12.6316 1.11994 12.6316 1.39783 12.6316 1.68415C12.3537 1.68415 12.0758 1.68415 11.7895 1.68415C11.7895 1.40625 11.7895 1.12836 11.7895 0.842041Z" fill="#F3F3F3"/>
<path d="M9.26315 0C9.54105 0 9.81894 0 10.1053 0C10.1053 0.277895 10.1053 0.555789 10.1053 0.842105C9.82736 0.842105 9.54947 0.842105 9.26315 0.842105C9.26315 0.56421 9.26315 0.286316 9.26315 0Z" fill="#F3F3F3"/>
<path d="M5.89474 0C6.17264 0 6.45053 0 6.73685 0C6.73685 0.277895 6.73685 0.555789 6.73685 0.842105C6.45896 0.842105 6.18106 0.842105 5.89474 0.842105C5.89474 0.56421 5.89474 0.286316 5.89474 0Z" fill="#F3F3F3"/>
</svg>
