<svg width="106" height="48" viewBox="0 0 106 48" fill="none" xmlns="http://www.w3.org/2000/svg">
<path d="M13.1053 0C14.7032 0 16.3011 0 17.9474 0C17.9474 0.792 17.9474 1.584 17.9474 2.4C18.7463 2.4 19.5453 2.4 20.3684 2.4C20.3684 3.192 20.3684 3.984 20.3684 4.8C19.5695 4.8 18.7705 4.8 17.9474 4.8C17.9474 5.592 17.9474 6.384 17.9474 7.2C17.1484 7.2 16.3495 7.2 15.5263 7.2C15.5263 7.992 15.5263 8.784 15.5263 9.6C14.7274 9.6 13.9284 9.6 13.1053 9.6C13.1053 11.184 13.1053 12.768 13.1053 14.4C14.7032 14.4 16.3011 14.4 17.9474 14.4C17.9474 13.608 17.9474 12.816 17.9474 12C21.9421 12 25.9368 12 30.0526 12C30.0526 12.792 30.0526 13.584 30.0526 14.4C31.6505 14.4 33.2484 14.4 34.8947 14.4C34.8947 12.816 34.8947 11.232 34.8947 9.6C34.0958 9.6 33.2968 9.6 32.4737 9.6C32.4737 8.808 32.4737 8.016 32.4737 7.2C31.6747 7.2 30.8758 7.2 30.0526 7.2C30.0526 6.408 30.0526 5.616 30.0526 4.8C29.2537 4.8 28.4547 4.8 27.6316 4.8C27.6316 4.008 27.6316 3.216 27.6316 2.4C28.4305 2.4 29.2295 2.4 30.0526 2.4C30.0526 1.608 30.0526 0.816 30.0526 0C31.6505 0 33.2484 0 34.8947 0C34.8947 0.792 34.8947 1.584 34.8947 2.4C36.4926 2.4 38.0905 2.4 39.7368 2.4C39.7368 3.192 39.7368 3.984 39.7368 4.8C40.5358 4.8 41.3347 4.8 42.1579 4.8C42.1579 5.592 42.1579 6.384 42.1579 7.2C42.9568 7.2 43.7558 7.2 44.5789 7.2C44.5789 8.784 44.5789 10.368 44.5789 12C45.3779 12 46.1768 12 47 12C47 15.96 47 19.92 47 24C46.2011 24 45.4021 24 44.5789 24C44.5789 24.792 44.5789 25.584 44.5789 26.4C43.78 26.4 42.9811 26.4 42.1579 26.4C42.1579 30.36 42.1579 34.32 42.1579 38.4C41.3589 38.4 40.56 38.4 39.7368 38.4C39.7368 39.984 39.7368 41.568 39.7368 43.2C38.9379 43.2 38.1389 43.2 37.3158 43.2C37.3158 43.992 37.3158 44.784 37.3158 45.6C36.5168 45.6 35.7179 45.6 34.8947 45.6C34.8947 46.392 34.8947 47.184 34.8947 48C33.2968 48 31.6989 48 30.0526 48C30.0526 47.208 30.0526 46.416 30.0526 45.6C26.0579 45.6 22.0632 45.6 17.9474 45.6C17.9474 46.392 17.9474 47.184 17.9474 48C16.3495 48 14.7516 48 13.1053 48C13.1053 47.208 13.1053 46.416 13.1053 45.6C12.3063 45.6 11.5074 45.6 10.6842 45.6C10.6842 44.808 10.6842 44.016 10.6842 43.2C9.88526 43.2 9.08632 43.2 8.26316 43.2C8.26316 41.616 8.26316 40.032 8.26316 38.4C7.46421 38.4 6.66526 38.4 5.84211 38.4C5.84211 34.44 5.84211 30.48 5.84211 26.4C5.04316 26.4 4.24421 26.4 3.42105 26.4C3.42105 25.608 3.42105 24.816 3.42105 24C2.62211 24 1.82316 24 1 24C1 20.04 1 16.08 1 12C1.79895 12 2.59789 12 3.42105 12C3.42105 10.416 3.42105 8.832 3.42105 7.2C4.22 7.2 5.01895 7.2 5.84211 7.2C5.84211 6.408 5.84211 5.616 5.84211 4.8C6.64105 4.8 7.44 4.8 8.26316 4.8C8.26316 4.008 8.26316 3.216 8.26316 2.4C9.86105 2.4 11.4589 2.4 13.1053 2.4C13.1053 1.608 13.1053 0.816 13.1053 0Z" fill="#9B0000"/>
<path d="M13.1053 0C14.7032 0 16.3011 0 17.9474 0C17.9474 0.792 17.9474 1.584 17.9474 2.4C18.7463 2.4 19.5453 2.4 20.3684 2.4C20.3684 3.192 20.3684 3.984 20.3684 4.8C19.5695 4.8 18.7705 4.8 17.9474 4.8C17.9474 5.592 17.9474 6.384 17.9474 7.2C17.1484 7.2 16.3495 7.2 15.5263 7.2C15.5263 7.992 15.5263 8.784 15.5263 9.6C14.7274 9.6 13.9284 9.6 13.1053 9.6C13.1053 11.184 13.1053 12.768 13.1053 14.4C14.7032 14.4 16.3011 14.4 17.9474 14.4C17.9474 13.608 17.9474 12.816 17.9474 12C21.9421 12 25.9368 12 30.0526 12C30.0526 13.584 30.0526 15.168 30.0526 16.8C31.6505 16.8 33.2484 16.8 34.8947 16.8C34.8947 17.592 34.8947 18.384 34.8947 19.2C33.2968 19.2 31.6989 19.2 30.0526 19.2C30.0526 19.992 30.0526 20.784 30.0526 21.6C30.8516 21.6 31.6505 21.6 32.4737 21.6C32.4737 22.392 32.4737 23.184 32.4737 24C30.8758 24 29.2779 24 27.6316 24C27.6316 24.792 27.6316 25.584 27.6316 26.4C26.8326 26.4 26.0337 26.4 25.2105 26.4C25.2105 27.192 25.2105 27.984 25.2105 28.8C24.4116 28.8 23.6126 28.8 22.7895 28.8C22.7895 28.008 22.7895 27.216 22.7895 26.4C21.9905 26.4 21.1916 26.4 20.3684 26.4C20.3684 25.608 20.3684 24.816 20.3684 24C18.7705 24 17.1726 24 15.5263 24C15.5263 24.792 15.5263 25.584 15.5263 26.4C16.3253 26.4 17.1242 26.4 17.9474 26.4C17.9474 27.192 17.9474 27.984 17.9474 28.8C18.7463 28.8 19.5453 28.8 20.3684 28.8C20.3684 30.384 20.3684 31.968 20.3684 33.6C19.5695 33.6 18.7705 33.6 17.9474 33.6C17.9474 32.808 17.9474 32.016 17.9474 31.2C17.1484 31.2 16.3495 31.2 15.5263 31.2C15.5263 32.784 15.5263 34.368 15.5263 36C17.1242 36 18.7221 36 20.3684 36C20.3684 38.376 20.3684 40.752 20.3684 43.2C16.3737 43.2 12.3789 43.2 8.26316 43.2C8.26316 41.616 8.26316 40.032 8.26316 38.4C7.46421 38.4 6.66526 38.4 5.84211 38.4C5.84211 34.44 5.84211 30.48 5.84211 26.4C5.04316 26.4 4.24421 26.4 3.42105 26.4C3.42105 25.608 3.42105 24.816 3.42105 24C2.62211 24 1.82316 24 1 24C1 20.04 1 16.08 1 12C1.79895 12 2.59789 12 3.42105 12C3.42105 10.416 3.42105 8.832 3.42105 7.2C4.22 7.2 5.01895 7.2 5.84211 7.2C5.84211 6.408 5.84211 5.616 5.84211 4.8C6.64105 4.8 7.44 4.8 8.26316 4.8C8.26316 4.008 8.26316 3.216 8.26316 2.4C9.86105 2.4 11.4589 2.4 13.1053 2.4C13.1053 1.608 13.1053 0.816 13.1053 0Z" fill="#7D0000"/>
<path d="M15.5263 24C17.1242 24 18.7221 24 20.3684 24C20.3684 24.792 20.3684 25.584 20.3684 26.4C21.1674 26.4 21.9663 26.4 22.7895 26.4C22.7895 27.192 22.7895 27.984 22.7895 28.8C23.5884 28.8 24.3874 28.8 25.2105 28.8C25.2105 28.008 25.2105 27.216 25.2105 26.4C26.0095 26.4 26.8084 26.4 27.6316 26.4C27.6316 25.608 27.6316 24.816 27.6316 24C29.2295 24 30.8274 24 32.4737 24C32.4737 24.792 32.4737 25.584 32.4737 26.4C31.6747 26.4 30.8758 26.4 30.0526 26.4C30.0526 27.192 30.0526 27.984 30.0526 28.8C29.2537 28.8 28.4547 28.8 27.6316 28.8C27.6316 30.384 27.6316 31.968 27.6316 33.6C28.4305 33.6 29.2295 33.6 30.0526 33.6C30.0526 34.392 30.0526 35.184 30.0526 36C29.2537 36 28.4547 36 27.6316 36C27.6316 38.376 27.6316 40.752 27.6316 43.2C28.4305 43.2 29.2295 43.2 30.0526 43.2C30.0526 43.992 30.0526 44.784 30.0526 45.6C26.0579 45.6 22.0632 45.6 17.9474 45.6C17.9474 46.392 17.9474 47.184 17.9474 48C16.3495 48 14.7516 48 13.1053 48C13.1053 47.208 13.1053 46.416 13.1053 45.6C12.3063 45.6 11.5074 45.6 10.6842 45.6C10.6842 44.808 10.6842 44.016 10.6842 43.2C13.88 43.2 17.0758 43.2 20.3684 43.2C20.3684 40.824 20.3684 38.448 20.3684 36C18.7705 36 17.1726 36 15.5263 36C15.5263 34.416 15.5263 32.832 15.5263 31.2C16.3253 31.2 17.1242 31.2 17.9474 31.2C17.9474 31.992 17.9474 32.784 17.9474 33.6C18.7463 33.6 19.5453 33.6 20.3684 33.6C20.3684 32.016 20.3684 30.432 20.3684 28.8C19.5695 28.8 18.7705 28.8 17.9474 28.8C17.9474 28.008 17.9474 27.216 17.9474 26.4C17.1484 26.4 16.3495 26.4 15.5263 26.4C15.5263 25.608 15.5263 24.816 15.5263 24Z" fill="#2D0202"/>
<path d="M13.1053 0C14.7032 0 16.3011 0 17.9474 0C17.9474 0.792 17.9474 1.584 17.9474 2.4C18.7463 2.4 19.5453 2.4 20.3684 2.4C20.3684 3.192 20.3684 3.984 20.3684 4.8C19.5695 4.8 18.7705 4.8 17.9474 4.8C17.9474 5.592 17.9474 6.384 17.9474 7.2C17.1484 7.2 16.3495 7.2 15.5263 7.2C15.5263 7.992 15.5263 8.784 15.5263 9.6C14.7274 9.6 13.9284 9.6 13.1053 9.6C13.1053 11.184 13.1053 12.768 13.1053 14.4C12.3063 14.4 11.5074 14.4 10.6842 14.4C10.6842 12.816 10.6842 11.232 10.6842 9.6C9.88526 9.6 9.08632 9.6 8.26316 9.6C8.26316 10.392 8.26316 11.184 8.26316 12C7.46421 12 6.66526 12 5.84211 12C5.84211 16.752 5.84211 21.504 5.84211 26.4C5.04316 26.4 4.24421 26.4 3.42105 26.4C3.42105 25.608 3.42105 24.816 3.42105 24C2.62211 24 1.82316 24 1 24C1 20.04 1 16.08 1 12C1.79895 12 2.59789 12 3.42105 12C3.42105 10.416 3.42105 8.832 3.42105 7.2C4.22 7.2 5.01895 7.2 5.84211 7.2C5.84211 6.408 5.84211 5.616 5.84211 4.8C6.64105 4.8 7.44 4.8 8.26316 4.8C8.26316 4.008 8.26316 3.216 8.26316 2.4C9.86105 2.4 11.4589 2.4 13.1053 2.4C13.1053 1.608 13.1053 0.816 13.1053 0Z" fill="black"/>
<path d="M34.8947 26.4C36.4926 26.4 38.0905 26.4 39.7369 26.4C39.7369 31.944 39.7369 37.488 39.7369 43.2C38.9379 43.2 38.139 43.2 37.3158 43.2C37.3158 43.992 37.3158 44.784 37.3158 45.6C36.5169 45.6 35.7179 45.6 34.8947 45.6C34.8947 46.392 34.8947 47.184 34.8947 48C33.2969 48 31.699 48 30.0526 48C30.0526 46.416 30.0526 44.832 30.0526 43.2C29.2537 43.2 28.4547 43.2 27.6316 43.2C27.6316 40.824 27.6316 38.448 27.6316 36C29.2295 36 30.8274 36 32.4737 36C32.4737 35.208 32.4737 34.416 32.4737 33.6C33.2726 33.6 34.0716 33.6 34.8947 33.6C34.8947 31.224 34.8947 28.848 34.8947 26.4Z" fill="#9B0000"/>
<path d="M17.9474 12C21.9421 12 25.9369 12 30.0527 12C30.0527 13.584 30.0527 15.168 30.0527 16.8C31.6505 16.8 33.2484 16.8 34.8948 16.8C34.8948 17.592 34.8948 18.384 34.8948 19.2C33.2969 19.2 31.699 19.2 30.0527 19.2C30.0527 19.992 30.0527 20.784 30.0527 21.6C30.8516 21.6 31.6505 21.6 32.4737 21.6C32.4737 22.392 32.4737 23.184 32.4737 24C30.8758 24 29.2779 24 27.6316 24C27.6316 24.792 27.6316 25.584 27.6316 26.4C26.8327 26.4 26.0337 26.4 25.2105 26.4C25.2105 27.192 25.2105 27.984 25.2105 28.8C24.4116 28.8 23.6127 28.8 22.7895 28.8C22.7895 25.632 22.7895 22.464 22.7895 19.2C19.5937 19.2 16.3979 19.2 13.1053 19.2C13.1053 18.408 13.1053 17.616 13.1053 16.8C14.7032 16.8 16.3011 16.8 17.9474 16.8C17.9474 15.216 17.9474 13.632 17.9474 12Z" fill="#C94040"/>
<path d="M8.26315 9.59998C9.0621 9.59998 9.86105 9.59998 10.6842 9.59998C10.6842 11.184 10.6842 12.768 10.6842 14.4C13.081 14.4 15.4779 14.4 17.9474 14.4C17.9474 15.192 17.9474 15.984 17.9474 16.8C16.3495 16.8 14.7516 16.8 13.1053 16.8C13.1053 17.592 13.1053 18.384 13.1053 19.2C16.3011 19.2 19.4968 19.2 22.7895 19.2C22.7895 21.576 22.7895 23.952 22.7895 26.4C21.9905 26.4 21.1916 26.4 20.3684 26.4C20.3684 25.608 20.3684 24.816 20.3684 24C18.7705 24 17.1726 24 15.5263 24C15.5263 24.792 15.5263 25.584 15.5263 26.4C13.9284 26.4 12.3305 26.4 10.6842 26.4C10.6842 24.024 10.6842 21.648 10.6842 19.2C9.88526 19.2 9.08631 19.2 8.26315 19.2C8.26315 20.784 8.26315 22.368 8.26315 24C7.46421 24 6.66526 24 5.8421 24C5.8421 20.04 5.8421 16.08 5.8421 12C6.64105 12 7.44 12 8.26315 12C8.26315 11.208 8.26315 10.416 8.26315 9.59998Z" fill="#9B0000"/>
<path d="M10.6842 31.2C12.2821 31.2 13.88 31.2 15.5263 31.2C15.5263 32.784 15.5263 34.368 15.5263 36C17.1242 36 18.7221 36 20.3684 36C20.3684 38.376 20.3684 40.752 20.3684 43.2C17.1726 43.2 13.9768 43.2 10.6842 43.2C10.6842 39.24 10.6842 35.28 10.6842 31.2Z" fill="#9B0000"/>
<path d="M22.7895 14.4C25.1863 14.4 27.5832 14.4 30.0526 14.4C30.0526 15.192 30.0526 15.984 30.0526 16.8C31.6505 16.8 33.2484 16.8 34.8948 16.8C34.8948 17.592 34.8948 18.384 34.8948 19.2C33.2969 19.2 31.699 19.2 30.0526 19.2C30.0526 19.992 30.0526 20.784 30.0526 21.6C30.8516 21.6 31.6505 21.6 32.4737 21.6C32.4737 22.392 32.4737 23.184 32.4737 24C30.8758 24 29.2779 24 27.6316 24C27.6316 24.792 27.6316 25.584 27.6316 26.4C26.8326 26.4 26.0337 26.4 25.2105 26.4C25.2105 23.232 25.2105 20.064 25.2105 16.8C24.4116 16.8 23.6126 16.8 22.7895 16.8C22.7895 16.008 22.7895 15.216 22.7895 14.4Z" fill="#E05C5C"/>
<path d="M3.42105 7.19995C4.22 7.19995 5.01895 7.19995 5.84211 7.19995C5.84211 13.536 5.84211 19.872 5.84211 26.4C5.04316 26.4 4.24421 26.4 3.42105 26.4C3.42105 25.608 3.42105 24.816 3.42105 24C2.62211 24 1.82316 24 1 24C1 20.04 1 16.08 1 12C1.79895 12 2.59789 12 3.42105 12C3.42105 10.416 3.42105 8.83195 3.42105 7.19995Z" fill="#7D0000"/>
<path d="M13.1053 19.2C16.301 19.2 19.4968 19.2 22.7895 19.2C22.7895 21.576 22.7895 23.952 22.7895 26.4C21.9905 26.4 21.1916 26.4 20.3684 26.4C20.3684 25.608 20.3684 24.816 20.3684 24C18.7705 24 17.1726 24 15.5263 24C15.5263 24.792 15.5263 25.584 15.5263 26.4C13.9284 26.4 12.3305 26.4 10.6842 26.4C10.6842 24.816 10.6842 23.232 10.6842 21.6C11.4832 21.6 12.2821 21.6 13.1053 21.6C13.1053 20.808 13.1053 20.016 13.1053 19.2Z" fill="#9B0000"/>
<path d="M10.6842 43.2C17.0758 43.2 23.4674 43.2 30.0526 43.2C30.0526 43.992 30.0526 44.784 30.0526 45.6C26.0579 45.6 22.0632 45.6 17.9474 45.6C17.9474 46.392 17.9474 47.184 17.9474 48C16.3495 48 14.7516 48 13.1053 48C13.1053 47.208 13.1053 46.416 13.1053 45.6C12.3063 45.6 11.5074 45.6 10.6842 45.6C10.6842 44.808 10.6842 44.016 10.6842 43.2Z" fill="black"/>
<path d="M34.8947 26.4C36.4926 26.4 38.0905 26.4 39.7368 26.4C39.7368 30.36 39.7368 34.32 39.7368 38.4C38.9379 38.4 38.1389 38.4 37.3158 38.4C37.3158 36.024 37.3158 33.648 37.3158 31.2C36.5168 31.2 35.7179 31.2 34.8947 31.2C34.8947 29.616 34.8947 28.032 34.8947 26.4Z" fill="#C94040"/>
<path d="M27.6316 16.8C30.0284 16.8 32.4253 16.8 34.8947 16.8C34.8947 17.592 34.8947 18.384 34.8947 19.2C33.2969 19.2 31.699 19.2 30.0526 19.2C30.0526 19.992 30.0526 20.784 30.0526 21.6C30.8516 21.6 31.6505 21.6 32.4737 21.6C32.4737 22.392 32.4737 23.184 32.4737 24C30.8758 24 29.2779 24 27.6316 24C27.6316 21.624 27.6316 19.248 27.6316 16.8Z" fill="#C94040"/>
<path d="M5.8421 7.19995C8.23894 7.19995 10.6358 7.19995 13.1053 7.19995C13.1053 9.57595 13.1053 11.952 13.1053 14.4C12.3063 14.4 11.5074 14.4 10.6842 14.4C10.6842 12.816 10.6842 11.232 10.6842 9.59995C9.88526 9.59995 9.08631 9.59995 8.26315 9.59995C8.26315 10.392 8.26315 11.184 8.26315 12C7.46421 12 6.66526 12 5.8421 12C5.8421 10.416 5.8421 8.83195 5.8421 7.19995Z" fill="#7D0000"/>
<path d="M10.6842 43.2C13.081 43.2 15.4779 43.2 17.9474 43.2C17.9474 44.784 17.9474 46.368 17.9474 48C16.3495 48 14.7516 48 13.1053 48C13.1053 47.208 13.1053 46.416 13.1053 45.6C12.3063 45.6 11.5074 45.6 10.6842 45.6C10.6842 44.808 10.6842 44.016 10.6842 43.2Z" fill="#7D0000"/>
<path d="M34.8947 38.4C36.4926 38.4 38.0905 38.4 39.7368 38.4C39.7368 39.984 39.7368 41.568 39.7368 43.2C38.9379 43.2 38.1389 43.2 37.3158 43.2C37.3158 43.992 37.3158 44.784 37.3158 45.6C36.5168 45.6 35.7179 45.6 34.8947 45.6C34.8947 43.224 34.8947 40.848 34.8947 38.4Z" fill="#7D0000"/>
<path d="M39.7368 26.4C40.5358 26.4 41.3347 26.4 42.1579 26.4C42.1579 30.36 42.1579 34.32 42.1579 38.4C41.3589 38.4 40.56 38.4 39.7368 38.4C39.7368 34.44 39.7368 30.48 39.7368 26.4Z" fill="black"/>
<path d="M5.8421 26.4C6.64105 26.4 7.44 26.4 8.26315 26.4C8.26315 30.36 8.26315 34.32 8.26315 38.4C7.46421 38.4 6.66526 38.4 5.8421 38.4C5.8421 34.44 5.8421 30.48 5.8421 26.4Z" fill="black"/>
<path d="M44.579 12C45.3779 12 46.1769 12 47 12C47 15.96 47 19.92 47 24C46.2011 24 45.4021 24 44.579 24C44.579 20.04 44.579 16.08 44.579 12Z" fill="black"/>
<path d="M17.9474 12C21.9421 12 25.9369 12 30.0527 12C30.0527 12.792 30.0527 13.584 30.0527 14.4C26.0579 14.4 22.0632 14.4 17.9474 14.4C17.9474 13.608 17.9474 12.816 17.9474 12Z" fill="black"/>
<path d="M1 12C1.79895 12 2.59789 12 3.42105 12C3.42105 15.96 3.42105 19.92 3.42105 24C2.62211 24 1.82316 24 1 24C1 20.04 1 16.08 1 12Z" fill="black"/>
<path d="M34.8947 2.40002C36.4926 2.40002 38.0905 2.40002 39.7368 2.40002C39.7368 3.19202 39.7368 3.98402 39.7368 4.80002C40.5358 4.80002 41.3347 4.80002 42.1579 4.80002C42.1579 5.59202 42.1579 6.38402 42.1579 7.20002C39.761 7.20002 37.3642 7.20002 34.8947 7.20002C34.8947 5.61602 34.8947 4.03202 34.8947 2.40002Z" fill="#C94040"/>
<path d="M8.26315 2.40002C9.86105 2.40002 11.4589 2.40002 13.1053 2.40002C13.1053 3.98402 13.1053 5.56802 13.1053 7.20002C10.7084 7.20002 8.31158 7.20002 5.8421 7.20002C5.8421 6.40802 5.8421 5.61602 5.8421 4.80002C6.64105 4.80002 7.44 4.80002 8.26315 4.80002C8.26315 4.00802 8.26315 3.21602 8.26315 2.40002Z" fill="#7D0000"/>
<path d="M30.0526 0C31.6505 0 33.2484 0 34.8947 0C34.8947 0.792 34.8947 1.584 34.8947 2.4C34.0958 2.4 33.2969 2.4 32.4737 2.4C32.4737 3.984 32.4737 5.568 32.4737 7.2C31.6747 7.2 30.8758 7.2 30.0526 7.2C30.0526 6.408 30.0526 5.616 30.0526 4.8C29.2537 4.8 28.4547 4.8 27.6316 4.8C27.6316 4.008 27.6316 3.216 27.6316 2.4C28.4305 2.4 29.2295 2.4 30.0526 2.4C30.0526 1.608 30.0526 0.816 30.0526 0Z" fill="#9B0000"/>
<path d="M30.0526 26.4C30.8516 26.4 31.6505 26.4 32.4737 26.4C32.4737 27.984 32.4737 29.568 32.4737 31.2C31.6747 31.2 30.8758 31.2 30.0526 31.2C30.0526 31.992 30.0526 32.784 30.0526 33.6C29.2537 33.6 28.4547 33.6 27.6316 33.6C27.6316 32.016 27.6316 30.432 27.6316 28.8C28.4305 28.8 29.2295 28.8 30.0526 28.8C30.0526 28.008 30.0526 27.216 30.0526 26.4Z" fill="#FA0000"/>
<path d="M15.5263 26.4C16.3253 26.4 17.1242 26.4 17.9474 26.4C17.9474 27.192 17.9474 27.984 17.9474 28.8C18.7463 28.8 19.5453 28.8 20.3684 28.8C20.3684 30.384 20.3684 31.968 20.3684 33.6C19.5695 33.6 18.7705 33.6 17.9474 33.6C17.9474 32.808 17.9474 32.016 17.9474 31.2C17.1484 31.2 16.3495 31.2 15.5263 31.2C15.5263 29.616 15.5263 28.032 15.5263 26.4Z" fill="#F10A0A"/>
<path d="M27.6316 36C28.4305 36 29.2295 36 30.0526 36C30.0526 38.376 30.0526 40.752 30.0526 43.2C29.2537 43.2 28.4547 43.2 27.6316 43.2C27.6316 40.824 27.6316 38.448 27.6316 36Z" fill="#C94040"/>
<path d="M30.0526 31.2C31.6505 31.2 33.2484 31.2 34.8947 31.2C34.8947 31.992 34.8947 32.784 34.8947 33.6C34.0958 33.6 33.2968 33.6 32.4737 33.6C32.4737 34.392 32.4737 35.184 32.4737 36C31.6747 36 30.8758 36 30.0526 36C30.0526 34.416 30.0526 32.832 30.0526 31.2Z" fill="#C94040"/>
<path d="M42.1579 19.2C42.9568 19.2 43.7558 19.2 44.579 19.2C44.579 21.576 44.579 23.952 44.579 26.4C43.78 26.4 42.9811 26.4 42.1579 26.4C42.1579 24.024 42.1579 21.648 42.1579 19.2Z" fill="#7D0000"/>
<path d="M30.0526 45.6C31.6505 45.6 33.2484 45.6 34.8947 45.6C34.8947 46.392 34.8947 47.184 34.8947 48C33.2968 48 31.6989 48 30.0526 48C30.0526 47.208 30.0526 46.416 30.0526 45.6Z" fill="black"/>
<path d="M13.1053 45.6C14.7032 45.6 16.3011 45.6 17.9474 45.6C17.9474 46.392 17.9474 47.184 17.9474 48C16.3495 48 14.7516 48 13.1053 48C13.1053 47.208 13.1053 46.416 13.1053 45.6Z" fill="black"/>
<path d="M30.0526 43.2C31.6505 43.2 33.2484 43.2 34.8947 43.2C34.8947 43.992 34.8947 44.784 34.8947 45.6C33.2968 45.6 31.6989 45.6 30.0526 45.6C30.0526 44.808 30.0526 44.016 30.0526 43.2Z" fill="#7D0000"/>
<path d="M37.3158 38.4C38.1147 38.4 38.9137 38.4 39.7368 38.4C39.7368 39.984 39.7368 41.568 39.7368 43.2C38.9379 43.2 38.139 43.2 37.3158 43.2C37.3158 41.616 37.3158 40.032 37.3158 38.4Z" fill="black"/>
<path d="M8.26318 38.4C9.06213 38.4 9.86108 38.4 10.6842 38.4C10.6842 39.984 10.6842 41.568 10.6842 43.2C9.88529 43.2 9.08634 43.2 8.26318 43.2C8.26318 41.616 8.26318 40.032 8.26318 38.4Z" fill="black"/>
<path d="M17.9474 36C18.7463 36 19.5453 36 20.3684 36C20.3684 37.584 20.3684 39.168 20.3684 40.8C19.5695 40.8 18.7705 40.8 17.9474 40.8C17.9474 39.216 17.9474 37.632 17.9474 36Z" fill="#7D0000"/>
<path d="M15.5263 31.2C16.3253 31.2 17.1242 31.2 17.9474 31.2C17.9474 32.784 17.9474 34.368 17.9474 36C17.1484 36 16.3495 36 15.5263 36C15.5263 34.416 15.5263 32.832 15.5263 31.2Z" fill="#7D0000"/>
<path d="M32.4737 26.4C33.2726 26.4 34.0716 26.4 34.8947 26.4C34.8947 27.984 34.8947 29.568 34.8947 31.2C34.0958 31.2 33.2969 31.2 32.4737 31.2C32.4737 29.616 32.4737 28.032 32.4737 26.4Z" fill="#2D0202"/>
<path d="M13.1053 26.4C13.9042 26.4 14.7032 26.4 15.5263 26.4C15.5263 27.984 15.5263 29.568 15.5263 31.2C14.7274 31.2 13.9284 31.2 13.1053 31.2C13.1053 29.616 13.1053 28.032 13.1053 26.4Z" fill="#2D0202"/>
<path d="M15.5263 21.6C17.1242 21.6 18.7221 21.6 20.3684 21.6C20.3684 22.392 20.3684 23.184 20.3684 24C18.7705 24 17.1726 24 15.5263 24C15.5263 23.208 15.5263 22.416 15.5263 21.6Z" fill="#C94040"/>
<path d="M30.0526 16.8C31.6505 16.8 33.2484 16.8 34.8947 16.8C34.8947 17.592 34.8947 18.384 34.8947 19.2C33.2968 19.2 31.6989 19.2 30.0526 19.2C30.0526 18.408 30.0526 17.616 30.0526 16.8Z" fill="#E05C5C"/>
<path d="M30.0526 14.4C31.6505 14.4 33.2484 14.4 34.8947 14.4C34.8947 15.192 34.8947 15.984 34.8947 16.8C33.2968 16.8 31.6989 16.8 30.0526 16.8C30.0526 16.008 30.0526 15.216 30.0526 14.4Z" fill="black"/>
<path d="M13.1053 14.4C14.7032 14.4 16.3011 14.4 17.9474 14.4C17.9474 15.192 17.9474 15.984 17.9474 16.8C16.3495 16.8 14.7516 16.8 13.1053 16.8C13.1053 16.008 13.1053 15.216 13.1053 14.4Z" fill="black"/>
<path d="M42.1579 12C42.9568 12 43.7558 12 44.579 12C44.579 13.584 44.579 15.168 44.579 16.8C43.78 16.8 42.9811 16.8 42.1579 16.8C42.1579 15.216 42.1579 13.632 42.1579 12Z" fill="#C94040"/>
<path d="M34.8947 9.59998C35.6937 9.59998 36.4926 9.59998 37.3158 9.59998C37.3158 11.184 37.3158 12.768 37.3158 14.4C36.5168 14.4 35.7179 14.4 34.8947 14.4C34.8947 12.816 34.8947 11.232 34.8947 9.59998Z" fill="black"/>
<path d="M10.6842 9.59998C11.4832 9.59998 12.2821 9.59998 13.1053 9.59998C13.1053 11.184 13.1053 12.768 13.1053 14.4C12.3063 14.4 11.5074 14.4 10.6842 14.4C10.6842 12.816 10.6842 11.232 10.6842 9.59998Z" fill="black"/>
<path d="M8.26318 9.59998C9.06213 9.59998 9.86108 9.59998 10.6842 9.59998C10.6842 11.184 10.6842 12.768 10.6842 14.4C9.88529 14.4 9.08634 14.4 8.26318 14.4C8.26318 12.816 8.26318 11.232 8.26318 9.59998Z" fill="#C94040"/>
<path d="M42.1579 7.19995C42.9568 7.19995 43.7558 7.19995 44.579 7.19995C44.579 8.78395 44.579 10.368 44.579 12C43.78 12 42.9811 12 42.1579 12C42.1579 10.416 42.1579 8.83195 42.1579 7.19995Z" fill="black"/>
<path d="M39.7368 7.19995C40.5358 7.19995 41.3347 7.19995 42.1579 7.19995C42.1579 8.78395 42.1579 10.368 42.1579 12C41.3589 12 40.56 12 39.7368 12C39.7368 10.416 39.7368 8.83195 39.7368 7.19995Z" fill="#C94040"/>
<path d="M3.42108 7.19995C4.22003 7.19995 5.01898 7.19995 5.84213 7.19995C5.84213 8.78395 5.84213 10.368 5.84213 12C5.04319 12 4.24424 12 3.42108 12C3.42108 10.416 3.42108 8.83195 3.42108 7.19995Z" fill="black"/>
<path d="M32.4737 2.40002C33.2726 2.40002 34.0716 2.40002 34.8947 2.40002C34.8947 3.98402 34.8947 5.56802 34.8947 7.20002C34.0958 7.20002 33.2969 7.20002 32.4737 7.20002C32.4737 5.61602 32.4737 4.03202 32.4737 2.40002Z" fill="#9B0000"/>
<path d="M34.8947 2.40002C36.4926 2.40002 38.0905 2.40002 39.7368 2.40002C39.7368 3.19202 39.7368 3.98402 39.7368 4.80002C38.1389 4.80002 36.541 4.80002 34.8947 4.80002C34.8947 4.00802 34.8947 3.21602 34.8947 2.40002Z" fill="black"/>
<path d="M8.26318 2.40002C9.86108 2.40002 11.459 2.40002 13.1053 2.40002C13.1053 3.19202 13.1053 3.98402 13.1053 4.80002C11.5074 4.80002 9.9095 4.80002 8.26318 4.80002C8.26318 4.00802 8.26318 3.21602 8.26318 2.40002Z" fill="black"/>
<path d="M30.0526 0C31.6505 0 33.2484 0 34.8947 0C34.8947 0.792 34.8947 1.584 34.8947 2.4C33.2968 2.4 31.6989 2.4 30.0526 2.4C30.0526 1.608 30.0526 0.816 30.0526 0Z" fill="black"/>
<path d="M34.8947 43.2C35.6937 43.2 36.4926 43.2 37.3158 43.2C37.3158 43.992 37.3158 44.784 37.3158 45.6C36.5168 45.6 35.7179 45.6 34.8947 45.6C34.8947 44.808 34.8947 44.016 34.8947 43.2Z" fill="black"/>
<path d="M10.6842 43.2C11.4832 43.2 12.2821 43.2 13.1053 43.2C13.1053 43.992 13.1053 44.784 13.1053 45.6C12.3063 45.6 11.5074 45.6 10.6842 45.6C10.6842 44.808 10.6842 44.016 10.6842 43.2Z" fill="black"/>
<path d="M10.6842 40.8C11.4832 40.8 12.2821 40.8 13.1053 40.8C13.1053 41.592 13.1053 42.384 13.1053 43.2C12.3063 43.2 11.5074 43.2 10.6842 43.2C10.6842 42.408 10.6842 41.616 10.6842 40.8Z" fill="#7D0000"/>
<path d="M30.0526 33.6C30.8516 33.6 31.6505 33.6 32.4737 33.6C32.4737 34.392 32.4737 35.184 32.4737 36C31.6747 36 30.8758 36 30.0526 36C30.0526 35.208 30.0526 34.416 30.0526 33.6Z" fill="#C94040"/>
<path d="M30.0526 31.2C30.8516 31.2 31.6505 31.2 32.4737 31.2C32.4737 31.992 32.4737 32.784 32.4737 33.6C31.6747 33.6 30.8758 33.6 30.0526 33.6C30.0526 32.808 30.0526 32.016 30.0526 31.2Z" fill="#2D0202"/>
<path d="M27.6316 31.2C28.4305 31.2 29.2295 31.2 30.0526 31.2C30.0526 31.992 30.0526 32.784 30.0526 33.6C29.2537 33.6 28.4547 33.6 27.6316 33.6C27.6316 32.808 27.6316 32.016 27.6316 31.2Z" fill="#FA0000"/>
<path d="M17.9474 31.2C18.7463 31.2 19.5453 31.2 20.3684 31.2C20.3684 31.992 20.3684 32.784 20.3684 33.6C19.5695 33.6 18.7705 33.6 17.9474 33.6C17.9474 32.808 17.9474 32.016 17.9474 31.2Z" fill="#F10A0A"/>
<path d="M15.5263 31.2C16.3253 31.2 17.1242 31.2 17.9474 31.2C17.9474 31.992 17.9474 32.784 17.9474 33.6C17.1484 33.6 16.3495 33.6 15.5263 33.6C15.5263 32.808 15.5263 32.016 15.5263 31.2Z" fill="#2D0202"/>
<path d="M13.1053 31.2C13.9042 31.2 14.7032 31.2 15.5263 31.2C15.5263 31.992 15.5263 32.784 15.5263 33.6C14.7274 33.6 13.9284 33.6 13.1053 33.6C13.1053 32.808 13.1053 32.016 13.1053 31.2Z" fill="#7D0000"/>
<path d="M27.6316 28.8C28.4305 28.8 29.2295 28.8 30.0526 28.8C30.0526 29.592 30.0526 30.384 30.0526 31.2C29.2537 31.2 28.4547 31.2 27.6316 31.2C27.6316 30.408 27.6316 29.616 27.6316 28.8Z" fill="#FF6464"/>
<path d="M17.9474 28.8C18.7463 28.8 19.5453 28.8 20.3684 28.8C20.3684 29.592 20.3684 30.384 20.3684 31.2C19.5695 31.2 18.7705 31.2 17.9474 31.2C17.9474 30.408 17.9474 29.616 17.9474 28.8Z" fill="#FF6464"/>
<path d="M30.0526 26.4C30.8516 26.4 31.6505 26.4 32.4737 26.4C32.4737 27.192 32.4737 27.984 32.4737 28.8C31.6747 28.8 30.8758 28.8 30.0526 28.8C30.0526 28.008 30.0526 27.216 30.0526 26.4Z" fill="#FF6464"/>
<path d="M15.5263 26.4C16.3253 26.4 17.1242 26.4 17.9474 26.4C17.9474 27.192 17.9474 27.984 17.9474 28.8C17.1484 28.8 16.3495 28.8 15.5263 28.8C15.5263 28.008 15.5263 27.216 15.5263 26.4Z" fill="#FF6464"/>
<path d="M42.1579 24C42.9568 24 43.7558 24 44.579 24C44.579 24.792 44.579 25.584 44.579 26.4C43.78 26.4 42.9811 26.4 42.1579 26.4C42.1579 25.608 42.1579 24.816 42.1579 24Z" fill="black"/>
<path d="M39.7368 24C40.5358 24 41.3347 24 42.1579 24C42.1579 24.792 42.1579 25.584 42.1579 26.4C41.3589 26.4 40.56 26.4 39.7368 26.4C39.7368 25.608 39.7368 24.816 39.7368 24Z" fill="#7D0000"/>
<path d="M32.4737 24C33.2726 24 34.0716 24 34.8947 24C34.8947 24.792 34.8947 25.584 34.8947 26.4C34.0958 26.4 33.2969 26.4 32.4737 26.4C32.4737 25.608 32.4737 24.816 32.4737 24Z" fill="#C94040"/>
<path d="M13.1053 24C13.9042 24 14.7032 24 15.5263 24C15.5263 24.792 15.5263 25.584 15.5263 26.4C14.7274 26.4 13.9284 26.4 13.1053 26.4C13.1053 25.608 13.1053 24.816 13.1053 24Z" fill="#C94040"/>
<path d="M3.42108 24C4.22003 24 5.01898 24 5.84213 24C5.84213 24.792 5.84213 25.584 5.84213 26.4C5.04319 26.4 4.24424 26.4 3.42108 26.4C3.42108 25.608 3.42108 24.816 3.42108 24Z" fill="black"/>
<path d="M37.3158 19.2C38.1147 19.2 38.9137 19.2 39.7368 19.2C39.7368 19.992 39.7368 20.784 39.7368 21.6C38.9379 21.6 38.139 21.6 37.3158 21.6C37.3158 20.808 37.3158 20.016 37.3158 19.2Z" fill="#7D0000"/>
<path d="M34.8947 19.2C35.6937 19.2 36.4926 19.2 37.3158 19.2C37.3158 19.992 37.3158 20.784 37.3158 21.6C36.5168 21.6 35.7179 21.6 34.8947 21.6C34.8947 20.808 34.8947 20.016 34.8947 19.2Z" fill="#C94040"/>
<path d="M10.6842 19.2C11.4832 19.2 12.2821 19.2 13.1053 19.2C13.1053 19.992 13.1053 20.784 13.1053 21.6C12.3063 21.6 11.5074 21.6 10.6842 21.6C10.6842 20.808 10.6842 20.016 10.6842 19.2Z" fill="#C94040"/>
<path d="M34.8947 16.8C35.6937 16.8 36.4926 16.8 37.3158 16.8C37.3158 17.592 37.3158 18.384 37.3158 19.2C36.5168 19.2 35.7179 19.2 34.8947 19.2C34.8947 18.408 34.8947 17.616 34.8947 16.8Z" fill="#7D0000"/>
<path d="M10.6842 16.8C11.4832 16.8 12.2821 16.8 13.1053 16.8C13.1053 17.592 13.1053 18.384 13.1053 19.2C12.3063 19.2 11.5074 19.2 10.6842 19.2C10.6842 18.408 10.6842 17.616 10.6842 16.8Z" fill="#7D0000"/>
<path d="M10.6842 14.4C11.4832 14.4 12.2821 14.4 13.1053 14.4C13.1053 15.192 13.1053 15.984 13.1053 16.8C12.3063 16.8 11.5074 16.8 10.6842 16.8C10.6842 16.008 10.6842 15.216 10.6842 14.4Z" fill="#C94040"/>
<path d="M32.4737 7.19995C33.2726 7.19995 34.0716 7.19995 34.8947 7.19995C34.8947 7.99195 34.8947 8.78395 34.8947 9.59995C34.0958 9.59995 33.2969 9.59995 32.4737 9.59995C32.4737 8.80795 32.4737 8.01595 32.4737 7.19995Z" fill="black"/>
<path d="M13.1053 7.19995C13.9042 7.19995 14.7032 7.19995 15.5263 7.19995C15.5263 7.99195 15.5263 8.78395 15.5263 9.59995C14.7274 9.59995 13.9284 9.59995 13.1053 9.59995C13.1053 8.80795 13.1053 8.01595 13.1053 7.19995Z" fill="black"/>
<path d="M10.6842 7.19995C11.4832 7.19995 12.2821 7.19995 13.1053 7.19995C13.1053 7.99195 13.1053 8.78395 13.1053 9.59995C12.3063 9.59995 11.5074 9.59995 10.6842 9.59995C10.6842 8.80795 10.6842 8.01595 10.6842 7.19995Z" fill="#C94040"/>
<path d="M8.26318 7.19995C9.06213 7.19995 9.86108 7.19995 10.6842 7.19995C10.6842 7.99195 10.6842 8.78395 10.6842 9.59995C9.88529 9.59995 9.08634 9.59995 8.26318 9.59995C8.26318 8.80795 8.26318 8.01595 8.26318 7.19995Z" fill="#9B0000"/>
<path d="M39.7368 4.80005C40.5358 4.80005 41.3347 4.80005 42.1579 4.80005C42.1579 5.59205 42.1579 6.38405 42.1579 7.20005C41.3589 7.20005 40.56 7.20005 39.7368 7.20005C39.7368 6.40805 39.7368 5.61605 39.7368 4.80005Z" fill="black"/>
<path d="M30.0526 4.80005C30.8516 4.80005 31.6505 4.80005 32.4737 4.80005C32.4737 5.59205 32.4737 6.38405 32.4737 7.20005C31.6747 7.20005 30.8758 7.20005 30.0526 7.20005C30.0526 6.40805 30.0526 5.61605 30.0526 4.80005Z" fill="black"/>
<path d="M15.5263 4.80005C16.3253 4.80005 17.1242 4.80005 17.9474 4.80005C17.9474 5.59205 17.9474 6.38405 17.9474 7.20005C17.1484 7.20005 16.3495 7.20005 15.5263 7.20005C15.5263 6.40805 15.5263 5.61605 15.5263 4.80005Z" fill="black"/>
<path d="M13.1053 4.80005C13.9042 4.80005 14.7032 4.80005 15.5263 4.80005C15.5263 5.59205 15.5263 6.38405 15.5263 7.20005C14.7274 7.20005 13.9284 7.20005 13.1053 7.20005C13.1053 6.40805 13.1053 5.61605 13.1053 4.80005Z" fill="#C94040"/>
<path d="M10.6842 4.80005C11.4832 4.80005 12.2821 4.80005 13.1053 4.80005C13.1053 5.59205 13.1053 6.38405 13.1053 7.20005C12.3063 7.20005 11.5074 7.20005 10.6842 7.20005C10.6842 6.40805 10.6842 5.61605 10.6842 4.80005Z" fill="#9B0000"/>
<path d="M5.8421 4.80005C6.64105 4.80005 7.44 4.80005 8.26315 4.80005C8.26315 5.59205 8.26315 6.38405 8.26315 7.20005C7.46421 7.20005 6.66526 7.20005 5.8421 7.20005C5.8421 6.40805 5.8421 5.61605 5.8421 4.80005Z" fill="black"/>
<path d="M32.4737 2.40002C33.2726 2.40002 34.0716 2.40002 34.8947 2.40002C34.8947 3.19202 34.8947 3.98402 34.8947 4.80002C34.0958 4.80002 33.2969 4.80002 32.4737 4.80002C32.4737 4.00802 32.4737 3.21602 32.4737 2.40002Z" fill="#C94040"/>
<path d="M27.6316 2.40002C28.4305 2.40002 29.2295 2.40002 30.0526 2.40002C30.0526 3.19202 30.0526 3.98402 30.0526 4.80002C29.2537 4.80002 28.4547 4.80002 27.6316 4.80002C27.6316 4.00802 27.6316 3.21602 27.6316 2.40002Z" fill="black"/>
<path d="M17.9474 2.40002C18.7463 2.40002 19.5453 2.40002 20.3684 2.40002C20.3684 3.19202 20.3684 3.98402 20.3684 4.80002C19.5695 4.80002 18.7705 4.80002 17.9474 4.80002C17.9474 4.00802 17.9474 3.21602 17.9474 2.40002Z" fill="black"/>
<path d="M15.5263 2.40002C16.3253 2.40002 17.1242 2.40002 17.9474 2.40002C17.9474 3.19202 17.9474 3.98402 17.9474 4.80002C17.1484 4.80002 16.3495 4.80002 15.5263 4.80002C15.5263 4.00802 15.5263 3.21602 15.5263 2.40002Z" fill="#C94040"/>
<path d="M13.1053 2.40002C13.9042 2.40002 14.7032 2.40002 15.5263 2.40002C15.5263 3.19202 15.5263 3.98402 15.5263 4.80002C14.7274 4.80002 13.9284 4.80002 13.1053 4.80002C13.1053 4.00802 13.1053 3.21602 13.1053 2.40002Z" fill="#9B0000"/>
<path d="M46 0C49.696 0 53.392 0 57.2 0C57.2 0.931765 57.2 1.86353 57.2 2.82353C58.124 2.82353 59.048 2.82353 60 2.82353C60 1.89176 60 0.96 60 0C60.924 0 61.848 0 62.8 0C62.8 0.931765 62.8 1.86353 62.8 2.82353C63.724 2.82353 64.648 2.82353 65.6 2.82353C65.6 3.75529 65.6 4.68706 65.6 5.64706C66.524 5.64706 67.448 5.64706 68.4 5.64706C68.4 6.57882 68.4 7.51059 68.4 8.47059C69.324 8.47059 70.248 8.47059 71.2 8.47059C71.2 9.40235 71.2 10.3341 71.2 11.2941C70.276 11.2941 69.352 11.2941 68.4 11.2941C68.4 12.2259 68.4 13.1576 68.4 14.1176C69.324 14.1176 70.248 14.1176 71.2 14.1176C71.2 15.9812 71.2 17.8447 71.2 19.7647C72.124 19.7647 73.048 19.7647 74 19.7647C74 20.6965 74 21.6282 74 22.5882C73.076 22.5882 72.152 22.5882 71.2 22.5882C71.2 23.52 71.2 24.4518 71.2 25.4118C70.276 25.4118 69.352 25.4118 68.4 25.4118C68.4 27.2753 68.4 29.1388 68.4 31.0588C67.476 31.0588 66.552 31.0588 65.6 31.0588C65.6 31.9906 65.6 32.9224 65.6 33.8824C64.676 33.8824 63.752 33.8824 62.8 33.8824C62.8 34.8141 62.8 35.7459 62.8 36.7059C63.724 36.7059 64.648 36.7059 65.6 36.7059C65.6 37.6376 65.6 38.5694 65.6 39.5294C66.524 39.5294 67.448 39.5294 68.4 39.5294C68.4 40.4612 68.4 41.3929 68.4 42.3529C69.324 42.3529 70.248 42.3529 71.2 42.3529C71.2 44.2165 71.2 46.08 71.2 48C58.264 48 45.328 48 32 48C32 46.1365 32 44.2729 32 42.3529C32.924 42.3529 33.848 42.3529 34.8 42.3529C34.8 41.4212 34.8 40.4894 34.8 39.5294C35.724 39.5294 36.648 39.5294 37.6 39.5294C37.6 38.5976 37.6 37.6659 37.6 36.7059C38.524 36.7059 39.448 36.7059 40.4 36.7059C40.4 35.7741 40.4 34.8424 40.4 33.8824C39.476 33.8824 38.552 33.8824 37.6 33.8824C37.6 32.9506 37.6 32.0188 37.6 31.0588C36.676 31.0588 35.752 31.0588 34.8 31.0588C34.8 29.1953 34.8 27.3318 34.8 25.4118C33.876 25.4118 32.952 25.4118 32 25.4118C32 21.6847 32 17.9576 32 14.1176C32.924 14.1176 33.848 14.1176 34.8 14.1176C34.8 12.2541 34.8 10.3906 34.8 8.47059C35.724 8.47059 36.648 8.47059 37.6 8.47059C37.6 7.53882 37.6 6.60706 37.6 5.64706C38.524 5.64706 39.448 5.64706 40.4 5.64706C40.4 4.71529 40.4 3.78353 40.4 2.82353C42.248 2.82353 44.096 2.82353 46 2.82353C46 1.89176 46 0.96 46 0Z" fill="#0A2EA3"/>
<path d="M60 0C60.924 0 61.848 0 62.8 0C62.8 0.931765 62.8 1.86353 62.8 2.82353C63.724 2.82353 64.648 2.82353 65.6 2.82353C65.6 3.75529 65.6 4.68706 65.6 5.64706C66.524 5.64706 67.448 5.64706 68.4 5.64706C68.4 6.57882 68.4 7.51059 68.4 8.47059C69.324 8.47059 70.248 8.47059 71.2 8.47059C71.2 9.40235 71.2 10.3341 71.2 11.2941C70.276 11.2941 69.352 11.2941 68.4 11.2941C68.4 12.2259 68.4 13.1576 68.4 14.1176C69.324 14.1176 70.248 14.1176 71.2 14.1176C71.2 15.9812 71.2 17.8447 71.2 19.7647C72.124 19.7647 73.048 19.7647 74 19.7647C74 20.6965 74 21.6282 74 22.5882C73.076 22.5882 72.152 22.5882 71.2 22.5882C71.2 23.52 71.2 24.4518 71.2 25.4118C69.352 25.4118 67.504 25.4118 65.6 25.4118C65.6 24.48 65.6 23.5482 65.6 22.5882C64.676 22.5882 63.752 22.5882 62.8 22.5882C62.8 23.52 62.8 24.4518 62.8 25.4118C61.876 25.4118 60.952 25.4118 60 25.4118C60 26.3435 60 27.2753 60 28.2353C59.076 28.2353 58.152 28.2353 57.2 28.2353C57.2 27.3035 57.2 26.3718 57.2 25.4118C52.58 25.4118 47.96 25.4118 43.2 25.4118C43.2 24.48 43.2 23.5482 43.2 22.5882C42.276 22.5882 41.352 22.5882 40.4 22.5882C40.4 21.6565 40.4 20.7247 40.4 19.7647C39.476 19.7647 38.552 19.7647 37.6 19.7647C37.6 17.9012 37.6 16.0376 37.6 14.1176C38.524 14.1176 39.448 14.1176 40.4 14.1176C40.4 12.2541 40.4 10.3906 40.4 8.47059C41.324 8.47059 42.248 8.47059 43.2 8.47059C43.2 7.53882 43.2 6.60706 43.2 5.64706C47.82 5.64706 52.44 5.64706 57.2 5.64706C57.2 6.57882 57.2 7.51059 57.2 8.47059C58.124 8.47059 59.048 8.47059 60 8.47059C60 5.67529 60 2.88 60 0Z" fill="#224ACC"/>
<path d="M57.2 36.7059C59.972 36.7059 62.744 36.7059 65.6 36.7059C65.6 37.6377 65.6 38.5695 65.6 39.5295C66.524 39.5295 67.448 39.5295 68.4 39.5295C68.4 40.4612 68.4 41.393 68.4 42.353C69.324 42.353 70.248 42.353 71.2 42.353C71.2 44.2165 71.2 46.0801 71.2 48.0001C58.264 48.0001 45.328 48.0001 32 48.0001C32 46.1365 32 44.273 32 42.353C32.924 42.353 33.848 42.353 34.8 42.353C34.8 41.4212 34.8 40.4895 34.8 39.5295C42.192 39.5295 49.584 39.5295 57.2 39.5295C57.2 38.5977 57.2 37.6659 57.2 36.7059Z" fill="#EBB052"/>
<path d="M46 0C49.696 0 53.392 0 57.2 0C57.2 0.931765 57.2 1.86353 57.2 2.82353C58.124 2.82353 59.048 2.82353 60 2.82353C60 4.68706 60 6.55059 60 8.47059C59.076 8.47059 58.152 8.47059 57.2 8.47059C57.2 7.53882 57.2 6.60706 57.2 5.64706C52.58 5.64706 47.96 5.64706 43.2 5.64706C43.2 6.57882 43.2 7.51059 43.2 8.47059C42.276 8.47059 41.352 8.47059 40.4 8.47059C40.4 10.3341 40.4 12.1976 40.4 14.1176C39.476 14.1176 38.552 14.1176 37.6 14.1176C37.6 17.8447 37.6 21.5718 37.6 25.4118C38.524 25.4118 39.448 25.4118 40.4 25.4118C40.4 28.2071 40.4 31.0024 40.4 33.8824C39.476 33.8824 38.552 33.8824 37.6 33.8824C37.6 32.9506 37.6 32.0188 37.6 31.0588C36.676 31.0588 35.752 31.0588 34.8 31.0588C34.8 29.1953 34.8 27.3318 34.8 25.4118C33.876 25.4118 32.952 25.4118 32 25.4118C32 21.6847 32 17.9576 32 14.1176C32.924 14.1176 33.848 14.1176 34.8 14.1176C34.8 12.2541 34.8 10.3906 34.8 8.47059C35.724 8.47059 36.648 8.47059 37.6 8.47059C37.6 7.53882 37.6 6.60706 37.6 5.64706C38.524 5.64706 39.448 5.64706 40.4 5.64706C40.4 4.71529 40.4 3.78353 40.4 2.82353C42.248 2.82353 44.096 2.82353 46 2.82353C46 1.89176 46 0.96 46 0Z" fill="#5276EC"/>
<path d="M32 42.3529C32.924 42.3529 33.848 42.3529 34.8 42.3529C34.8 43.2847 34.8 44.2164 34.8 45.1764C45.888 45.1764 56.976 45.1764 68.4 45.1764C68.4 44.2447 68.4 43.3129 68.4 42.3529C69.324 42.3529 70.248 42.3529 71.2 42.3529C71.2 44.2164 71.2 46.08 71.2 48C58.264 48 45.328 48 32 48C32 46.1364 32 44.2729 32 42.3529Z" fill="black"/>
<path d="M60 0C60.924 0 61.848 0 62.8 0C62.8 0.931765 62.8 1.86353 62.8 2.82353C63.724 2.82353 64.648 2.82353 65.6 2.82353C65.6 3.75529 65.6 4.68706 65.6 5.64706C66.524 5.64706 67.448 5.64706 68.4 5.64706C68.4 6.57882 68.4 7.51059 68.4 8.47059C69.324 8.47059 70.248 8.47059 71.2 8.47059C71.2 9.40235 71.2 10.3341 71.2 11.2941C68.428 11.2941 65.656 11.2941 62.8 11.2941C62.8 13.1576 62.8 15.0212 62.8 16.9412C61.876 16.9412 60.952 16.9412 60 16.9412C60 16.0094 60 15.0776 60 14.1176C59.076 14.1176 58.152 14.1176 57.2 14.1176C57.2 13.1859 57.2 12.2541 57.2 11.2941C56.276 11.2941 55.352 11.2941 54.4 11.2941C54.4 10.3624 54.4 9.43059 54.4 8.47059C56.248 8.47059 58.096 8.47059 60 8.47059C60 5.67529 60 2.88 60 0Z" fill="#CAD6FF"/>
<path d="M34.8 39.5294C36.648 39.5294 38.496 39.5294 40.4 39.5294C40.4 40.4612 40.4 41.3929 40.4 42.3529C48.716 42.3529 57.032 42.3529 65.6 42.3529C65.6 43.2847 65.6 44.2165 65.6 45.1765C55.436 45.1765 45.272 45.1765 34.8 45.1765C34.8 43.3129 34.8 41.4494 34.8 39.5294Z" fill="#C38015"/>
<path d="M65.6 14.1177C67.448 14.1177 69.296 14.1177 71.2 14.1177C71.2 15.9812 71.2 17.8447 71.2 19.7647C72.124 19.7647 73.048 19.7647 74 19.7647C74 20.6965 74 21.6283 74 22.5883C73.076 22.5883 72.152 22.5883 71.2 22.5883C71.2 23.52 71.2 24.4518 71.2 25.4118C69.352 25.4118 67.504 25.4118 65.6 25.4118C65.6 24.48 65.6 23.5483 65.6 22.5883C64.676 22.5883 63.752 22.5883 62.8 22.5883C62.8 21.6565 62.8 20.7247 62.8 19.7647C63.724 19.7647 64.648 19.7647 65.6 19.7647C65.6 17.9012 65.6 16.0377 65.6 14.1177Z" fill="#CAD6FF"/>
<path d="M46 0C49.696 0 53.392 0 57.2 0C57.2 0.931765 57.2 1.86353 57.2 2.82353C58.124 2.82353 59.048 2.82353 60 2.82353C60 4.68706 60 6.55059 60 8.47059C59.076 8.47059 58.152 8.47059 57.2 8.47059C57.2 7.53882 57.2 6.60706 57.2 5.64706C53.504 5.64706 49.808 5.64706 46 5.64706C46 3.78353 46 1.92 46 0Z" fill="#6D8FFF"/>
<path d="M40.4 33.8823C42.248 33.8823 44.096 33.8823 46 33.8823C46 34.8141 46 35.7459 46 36.7059C49.696 36.7059 53.392 36.7059 57.2 36.7059C57.2 37.6376 57.2 38.5694 57.2 39.5294C50.732 39.5294 44.264 39.5294 37.6 39.5294C37.6 38.5976 37.6 37.6659 37.6 36.7059C38.524 36.7059 39.448 36.7059 40.4 36.7059C40.4 35.7741 40.4 34.8423 40.4 33.8823Z" fill="#C38015"/>
<path d="M40.4 2.82349C42.248 2.82349 44.096 2.82349 46 2.82349C46 3.75525 46 4.68702 46 5.64702C45.076 5.64702 44.152 5.64702 43.2 5.64702C43.2 6.57878 43.2 7.51055 43.2 8.47055C42.276 8.47055 41.352 8.47055 40.4 8.47055C40.4 10.3341 40.4 12.1976 40.4 14.1176C38.552 14.1176 36.704 14.1176 34.8 14.1176C34.8 12.2541 34.8 10.3905 34.8 8.47055C35.724 8.47055 36.648 8.47055 37.6 8.47055C37.6 7.53878 37.6 6.60702 37.6 5.64702C38.524 5.64702 39.448 5.64702 40.4 5.64702C40.4 4.71525 40.4 3.78349 40.4 2.82349Z" fill="#5276EC"/>
<path d="M40.4 39.5294C45.944 39.5294 51.488 39.5294 57.2 39.5294C57.2 40.4612 57.2 41.3929 57.2 42.3529C51.656 42.3529 46.112 42.3529 40.4 42.3529C40.4 41.4212 40.4 40.4894 40.4 39.5294Z" fill="#D28C1D"/>
<path d="M62.8 22.5883C63.724 22.5883 64.648 22.5883 65.6 22.5883C65.6 23.52 65.6 24.4518 65.6 25.4118C66.524 25.4118 67.448 25.4118 68.4 25.4118C68.4 27.2753 68.4 29.1388 68.4 31.0588C67.476 31.0588 66.552 31.0588 65.6 31.0588C65.6 31.9906 65.6 32.9224 65.6 33.8824C64.676 33.8824 63.752 33.8824 62.8 33.8824C62.8 30.1553 62.8 26.4283 62.8 22.5883Z" fill="#5276EC"/>
<path d="M43.2 25.4117C47.82 25.4117 52.44 25.4117 57.2 25.4117C57.2 26.3435 57.2 27.2753 57.2 28.2353C55.352 28.2353 53.504 28.2353 51.6 28.2353C51.6 29.167 51.6 30.0988 51.6 31.0588C50.676 31.0588 49.752 31.0588 48.8 31.0588C48.8 30.127 48.8 29.1953 48.8 28.2353C46.952 28.2353 45.104 28.2353 43.2 28.2353C43.2 27.3035 43.2 26.3717 43.2 25.4117Z" fill="#1239BB"/>
<path d="M34.8 25.4117C36.648 25.4117 38.496 25.4117 40.4 25.4117C40.4 28.207 40.4 31.0023 40.4 33.8823C39.476 33.8823 38.552 33.8823 37.6 33.8823C37.6 32.9506 37.6 32.0188 37.6 31.0588C36.676 31.0588 35.752 31.0588 34.8 31.0588C34.8 29.1953 34.8 27.3317 34.8 25.4117Z" fill="#5276EC"/>
<path d="M57.2 19.7646C58.124 19.7646 59.048 19.7646 60 19.7646C60 20.6964 60 21.6282 60 22.5882C60.924 22.5882 61.848 22.5882 62.8 22.5882C62.8 23.5199 62.8 24.4517 62.8 25.4117C61.876 25.4117 60.952 25.4117 60 25.4117C60 26.3435 60 27.2752 60 28.2352C59.076 28.2352 58.152 28.2352 57.2 28.2352C57.2 27.3035 57.2 26.3717 57.2 25.4117C56.276 25.4117 55.352 25.4117 54.4 25.4117C54.4 24.4799 54.4 23.5482 54.4 22.5882C55.324 22.5882 56.248 22.5882 57.2 22.5882C57.2 21.6564 57.2 20.7246 57.2 19.7646Z" fill="#5F82F5"/>
<path d="M48.8 11.2941C49.724 11.2941 50.648 11.2941 51.6 11.2941C51.6 12.2258 51.6 13.1576 51.6 14.1176C52.524 14.1176 53.448 14.1176 54.4 14.1176C54.4 15.0494 54.4 15.9811 54.4 16.9411C53.476 16.9411 52.552 16.9411 51.6 16.9411C51.6 17.8729 51.6 18.8047 51.6 19.7647C50.676 19.7647 49.752 19.7647 48.8 19.7647C48.8 18.8329 48.8 17.9011 48.8 16.9411C47.876 16.9411 46.952 16.9411 46 16.9411C46 16.0094 46 15.0776 46 14.1176C46.924 14.1176 47.848 14.1176 48.8 14.1176C48.8 13.1858 48.8 12.2541 48.8 11.2941Z" fill="#5F82F5"/>
<path d="M46 36.7059C49.696 36.7059 53.392 36.7059 57.2 36.7059C57.2 37.6377 57.2 38.5695 57.2 39.5295C53.504 39.5295 49.808 39.5295 46 39.5295C46 38.5977 46 37.6659 46 36.7059Z" fill="black"/>
<path d="M46 33.8823C49.696 33.8823 53.392 33.8823 57.2 33.8823C57.2 34.8141 57.2 35.7459 57.2 36.7059C53.504 36.7059 49.808 36.7059 46 36.7059C46 35.7741 46 34.8423 46 33.8823Z" fill="#5276EC"/>
<path d="M32 14.1177C32.924 14.1177 33.848 14.1177 34.8 14.1177C34.8 17.8447 34.8 21.5718 34.8 25.4118C33.876 25.4118 32.952 25.4118 32 25.4118C32 21.6847 32 17.9577 32 14.1177Z" fill="black"/>
<path d="M40.4 2.82349C42.248 2.82349 44.096 2.82349 46 2.82349C46 3.75525 46 4.68702 46 5.64702C45.076 5.64702 44.152 5.64702 43.2 5.64702C43.2 6.57878 43.2 7.51055 43.2 8.47055C41.352 8.47055 39.504 8.47055 37.6 8.47055C37.6 7.53878 37.6 6.60702 37.6 5.64702C38.524 5.64702 39.448 5.64702 40.4 5.64702C40.4 4.71525 40.4 3.78349 40.4 2.82349Z" fill="#5276EC"/>
<path d="M46 0C49.696 0 53.392 0 57.2 0C57.2 0.931765 57.2 1.86353 57.2 2.82353C53.504 2.82353 49.808 2.82353 46 2.82353C46 1.89176 46 0.96 46 0Z" fill="black"/>
<path d="M40.4 39.5294C43.172 39.5294 45.944 39.5294 48.8 39.5294C48.8 40.4612 48.8 41.3929 48.8 42.3529C46.028 42.3529 43.256 42.3529 40.4 42.3529C40.4 41.4212 40.4 40.4894 40.4 39.5294Z" fill="#EBB052"/>
<path d="M37.6 19.7646C38.524 19.7646 39.448 19.7646 40.4 19.7646C40.4 20.6964 40.4 21.6282 40.4 22.5882C41.324 22.5882 42.248 22.5882 43.2 22.5882C43.2 23.5199 43.2 24.4517 43.2 25.4117C41.352 25.4117 39.504 25.4117 37.6 25.4117C37.6 23.5482 37.6 21.6846 37.6 19.7646Z" fill="#1239BB"/>
<path d="M62.8 2.82349C63.724 2.82349 64.648 2.82349 65.6 2.82349C65.6 3.75525 65.6 4.68702 65.6 5.64702C66.524 5.64702 67.448 5.64702 68.4 5.64702C68.4 6.57878 68.4 7.51055 68.4 8.47055C66.552 8.47055 64.704 8.47055 62.8 8.47055C62.8 6.60702 62.8 4.74349 62.8 2.82349Z" fill="black"/>
<path d="M57.2 33.8823C59.048 33.8823 60.896 33.8823 62.8 33.8823C62.8 34.8141 62.8 35.7459 62.8 36.7059C60.952 36.7059 59.104 36.7059 57.2 36.7059C57.2 35.7741 57.2 34.8423 57.2 33.8823Z" fill="black"/>
<path d="M40.4 33.8823C42.248 33.8823 44.096 33.8823 46 33.8823C46 34.8141 46 35.7459 46 36.7059C44.152 36.7059 42.304 36.7059 40.4 36.7059C40.4 35.7741 40.4 34.8423 40.4 33.8823Z" fill="black"/>
<path d="M57.2 31.0588C59.048 31.0588 60.896 31.0588 62.8 31.0588C62.8 31.9906 62.8 32.9224 62.8 33.8824C60.952 33.8824 59.104 33.8824 57.2 33.8824C57.2 32.9506 57.2 32.0188 57.2 31.0588Z" fill="#5276EC"/>
<path d="M40.4 31.0588C42.248 31.0588 44.096 31.0588 46 31.0588C46 31.9906 46 32.9224 46 33.8824C44.152 33.8824 42.304 33.8824 40.4 33.8824C40.4 32.9506 40.4 32.0188 40.4 31.0588Z" fill="#5276EC"/>
<path d="M65.6 25.4117C66.524 25.4117 67.448 25.4117 68.4 25.4117C68.4 27.2753 68.4 29.1388 68.4 31.0588C67.476 31.0588 66.552 31.0588 65.6 31.0588C65.6 29.1953 65.6 27.3317 65.6 25.4117Z" fill="black"/>
<path d="M34.8 25.4117C35.724 25.4117 36.648 25.4117 37.6 25.4117C37.6 27.2753 37.6 29.1388 37.6 31.0588C36.676 31.0588 35.752 31.0588 34.8 31.0588C34.8 29.1953 34.8 27.3317 34.8 25.4117Z" fill="black"/>
<path d="M68.4 14.1177C69.324 14.1177 70.248 14.1177 71.2 14.1177C71.2 15.9812 71.2 17.8447 71.2 19.7647C70.276 19.7647 69.352 19.7647 68.4 19.7647C68.4 17.9012 68.4 16.0377 68.4 14.1177Z" fill="black"/>
<path d="M34.8 8.47058C35.724 8.47058 36.648 8.47058 37.6 8.47058C37.6 10.3341 37.6 12.1976 37.6 14.1176C36.676 14.1176 35.752 14.1176 34.8 14.1176C34.8 12.2541 34.8 10.3906 34.8 8.47058Z" fill="black"/>
<path d="M40.4 2.82349C42.248 2.82349 44.096 2.82349 46 2.82349C46 3.75525 46 4.68702 46 5.64702C44.152 5.64702 42.304 5.64702 40.4 5.64702C40.4 4.71525 40.4 3.78349 40.4 2.82349Z" fill="black"/>
<path d="M65.6 42.3529C66.524 42.3529 67.448 42.3529 68.4 42.3529C68.4 43.2847 68.4 44.2164 68.4 45.1764C67.476 45.1764 66.552 45.1764 65.6 45.1764C65.6 44.2447 65.6 43.3129 65.6 42.3529Z" fill="#EBB052"/>
<path d="M65.6 39.5294C66.524 39.5294 67.448 39.5294 68.4 39.5294C68.4 40.4612 68.4 41.3929 68.4 42.3529C67.476 42.3529 66.552 42.3529 65.6 42.3529C65.6 41.4212 65.6 40.4894 65.6 39.5294Z" fill="black"/>
<path d="M37.6 39.5294C38.524 39.5294 39.448 39.5294 40.4 39.5294C40.4 40.4612 40.4 41.3929 40.4 42.3529C39.476 42.3529 38.552 42.3529 37.6 42.3529C37.6 41.4212 37.6 40.4894 37.6 39.5294Z" fill="#D28C1D"/>
<path d="M34.8 39.5294C35.724 39.5294 36.648 39.5294 37.6 39.5294C37.6 40.4612 37.6 41.3929 37.6 42.3529C36.676 42.3529 35.752 42.3529 34.8 42.3529C34.8 41.4212 34.8 40.4894 34.8 39.5294Z" fill="black"/>
<path d="M62.8 36.7059C63.724 36.7059 64.648 36.7059 65.6 36.7059C65.6 37.6377 65.6 38.5695 65.6 39.5295C64.676 39.5295 63.752 39.5295 62.8 39.5295C62.8 38.5977 62.8 37.6659 62.8 36.7059Z" fill="black"/>
<path d="M57.2 36.7059C58.124 36.7059 59.048 36.7059 60 36.7059C60 37.6377 60 38.5695 60 39.5295C59.076 39.5295 58.152 39.5295 57.2 39.5295C57.2 38.5977 57.2 37.6659 57.2 36.7059Z" fill="#C38015"/>
<path d="M37.6 36.7059C38.524 36.7059 39.448 36.7059 40.4 36.7059C40.4 37.6377 40.4 38.5695 40.4 39.5295C39.476 39.5295 38.552 39.5295 37.6 39.5295C37.6 38.5977 37.6 37.6659 37.6 36.7059Z" fill="black"/>
<path d="M62.8 31.0588C63.724 31.0588 64.648 31.0588 65.6 31.0588C65.6 31.9906 65.6 32.9224 65.6 33.8824C64.676 33.8824 63.752 33.8824 62.8 33.8824C62.8 32.9506 62.8 32.0188 62.8 31.0588Z" fill="black"/>
<path d="M37.6 31.0588C38.524 31.0588 39.448 31.0588 40.4 31.0588C40.4 31.9906 40.4 32.9224 40.4 33.8824C39.476 33.8824 38.552 33.8824 37.6 33.8824C37.6 32.9506 37.6 32.0188 37.6 31.0588Z" fill="black"/>
<path d="M48.8 28.2354C49.724 28.2354 50.648 28.2354 51.6 28.2354C51.6 29.1671 51.6 30.0989 51.6 31.0589C50.676 31.0589 49.752 31.0589 48.8 31.0589C48.8 30.1271 48.8 29.1954 48.8 28.2354Z" fill="#6D8FFF"/>
<path d="M68.4 22.5883C69.324 22.5883 70.248 22.5883 71.2 22.5883C71.2 23.52 71.2 24.4518 71.2 25.4118C70.276 25.4118 69.352 25.4118 68.4 25.4118C68.4 24.48 68.4 23.5483 68.4 22.5883Z" fill="black"/>
<path d="M62.8 22.5883C63.724 22.5883 64.648 22.5883 65.6 22.5883C65.6 23.52 65.6 24.4518 65.6 25.4118C64.676 25.4118 63.752 25.4118 62.8 25.4118C62.8 24.48 62.8 23.5483 62.8 22.5883Z" fill="#1239BB"/>
<path d="M60 22.5883C60.924 22.5883 61.848 22.5883 62.8 22.5883C62.8 23.52 62.8 24.4518 62.8 25.4118C61.876 25.4118 60.952 25.4118 60 25.4118C60 24.48 60 23.5483 60 22.5883Z" fill="#5276EC"/>
<path d="M54.4 22.5883C55.324 22.5883 56.248 22.5883 57.2 22.5883C57.2 23.52 57.2 24.4518 57.2 25.4118C56.276 25.4118 55.352 25.4118 54.4 25.4118C54.4 24.48 54.4 23.5483 54.4 22.5883Z" fill="#5276EC"/>
<path d="M46 22.5883C46.924 22.5883 47.848 22.5883 48.8 22.5883C48.8 23.52 48.8 24.4518 48.8 25.4118C47.876 25.4118 46.952 25.4118 46 25.4118C46 24.48 46 23.5483 46 22.5883Z" fill="#5276EC"/>
<path d="M71.2 19.7646C72.124 19.7646 73.048 19.7646 74 19.7646C74 20.6964 74 21.6282 74 22.5882C73.076 22.5882 72.152 22.5882 71.2 22.5882C71.2 21.6564 71.2 20.7246 71.2 19.7646Z" fill="black"/>
<path d="M57.2 19.7646C58.124 19.7646 59.048 19.7646 60 19.7646C60 20.6964 60 21.6282 60 22.5882C59.076 22.5882 58.152 22.5882 57.2 22.5882C57.2 21.6564 57.2 20.7246 57.2 19.7646Z" fill="#5276EC"/>
<path d="M65.6 14.1177C66.524 14.1177 67.448 14.1177 68.4 14.1177C68.4 15.0494 68.4 15.9812 68.4 16.9412C67.476 16.9412 66.552 16.9412 65.6 16.9412C65.6 16.0094 65.6 15.0777 65.6 14.1177Z" fill="#6D8FFF"/>
<path d="M51.6 14.1177C52.524 14.1177 53.448 14.1177 54.4 14.1177C54.4 15.0494 54.4 15.9812 54.4 16.9412C53.476 16.9412 52.552 16.9412 51.6 16.9412C51.6 16.0094 51.6 15.0777 51.6 14.1177Z" fill="#5276EC"/>
<path d="M46 14.1177C46.924 14.1177 47.848 14.1177 48.8 14.1177C48.8 15.0494 48.8 15.9812 48.8 16.9412C47.876 16.9412 46.952 16.9412 46 16.9412C46 16.0094 46 15.0777 46 14.1177Z" fill="#5276EC"/>
<path d="M40.4 14.1177C41.324 14.1177 42.248 14.1177 43.2 14.1177C43.2 15.0494 43.2 15.9812 43.2 16.9412C42.276 16.9412 41.352 16.9412 40.4 16.9412C40.4 16.0094 40.4 15.0777 40.4 14.1177Z" fill="#6D8FFF"/>
<path d="M65.6 11.2941C66.524 11.2941 67.448 11.2941 68.4 11.2941C68.4 12.2258 68.4 13.1576 68.4 14.1176C67.476 14.1176 66.552 14.1176 65.6 14.1176C65.6 13.1858 65.6 12.2541 65.6 11.2941Z" fill="black"/>
<path d="M62.8 11.2941C63.724 11.2941 64.648 11.2941 65.6 11.2941C65.6 12.2258 65.6 13.1576 65.6 14.1176C64.676 14.1176 63.752 14.1176 62.8 14.1176C62.8 13.1858 62.8 12.2541 62.8 11.2941Z" fill="#5276EC"/>
<path d="M57.2 11.2941C58.124 11.2941 59.048 11.2941 60 11.2941C60 12.2258 60 13.1576 60 14.1176C59.076 14.1176 58.152 14.1176 57.2 14.1176C57.2 13.1858 57.2 12.2541 57.2 11.2941Z" fill="#6D8FFF"/>
<path d="M48.8 11.2941C49.724 11.2941 50.648 11.2941 51.6 11.2941C51.6 12.2258 51.6 13.1576 51.6 14.1176C50.676 14.1176 49.752 14.1176 48.8 14.1176C48.8 13.1858 48.8 12.2541 48.8 11.2941Z" fill="#5276EC"/>
<path d="M68.4 8.47058C69.324 8.47058 70.248 8.47058 71.2 8.47058C71.2 9.40235 71.2 10.3341 71.2 11.2941C70.276 11.2941 69.352 11.2941 68.4 11.2941C68.4 10.3623 68.4 9.43058 68.4 8.47058Z" fill="black"/>
<path d="M57.2 5.64709C58.124 5.64709 59.048 5.64709 60 5.64709C60 6.57886 60 7.51062 60 8.47062C59.076 8.47062 58.152 8.47062 57.2 8.47062C57.2 7.53886 57.2 6.60709 57.2 5.64709Z" fill="#6D8FFF"/>
<path d="M43.2 5.64709C44.124 5.64709 45.048 5.64709 46 5.64709C46 6.57886 46 7.51062 46 8.47062C45.076 8.47062 44.152 8.47062 43.2 8.47062C43.2 7.53886 43.2 6.60709 43.2 5.64709Z" fill="#6D8FFF"/>
<path d="M37.6 5.64709C38.524 5.64709 39.448 5.64709 40.4 5.64709C40.4 6.57886 40.4 7.51062 40.4 8.47062C39.476 8.47062 38.552 8.47062 37.6 8.47062C37.6 7.53886 37.6 6.60709 37.6 5.64709Z" fill="black"/>
<path d="M57.2 2.82349C58.124 2.82349 59.048 2.82349 60 2.82349C60 3.75525 60 4.68702 60 5.64702C59.076 5.64702 58.152 5.64702 57.2 5.64702C57.2 4.71525 57.2 3.78349 57.2 2.82349Z" fill="black"/>
<path d="M54.4 2.82349C55.324 2.82349 56.248 2.82349 57.2 2.82349C57.2 3.75525 57.2 4.68702 57.2 5.64702C56.276 5.64702 55.352 5.64702 54.4 5.64702C54.4 4.71525 54.4 3.78349 54.4 2.82349Z" fill="#5276EC"/>
<path d="M46 2.82349C46.924 2.82349 47.848 2.82349 48.8 2.82349C48.8 3.75525 48.8 4.68702 48.8 5.64702C47.876 5.64702 46.952 5.64702 46 5.64702C46 4.71525 46 3.78349 46 2.82349Z" fill="#5276EC"/>
<path d="M60 0C60.924 0 61.848 0 62.8 0C62.8 0.931765 62.8 1.86353 62.8 2.82353C61.876 2.82353 60.952 2.82353 60 2.82353C60 1.89176 60 0.96 60 0Z" fill="black"/>
<path d="M78.2105 7.57898C80.7116 7.57898 83.2126 7.57898 85.7894 7.57898C85.7894 11.7474 85.7894 15.9158 85.7894 20.2106C89.9579 20.2106 94.1263 20.2106 98.421 20.2106C98.421 22.7116 98.421 25.2127 98.421 27.7895C94.2526 27.7895 90.0842 27.7895 85.7894 27.7895C85.7894 31.9579 85.7894 36.1263 85.7894 40.4211C83.2884 40.4211 80.7873 40.4211 78.2105 40.4211C78.2105 36.2527 78.2105 32.0842 78.2105 27.7895C74.0421 27.7895 69.8737 27.7895 65.5789 27.7895C65.5789 25.2885 65.5789 22.7874 65.5789 20.2106C69.7473 20.2106 73.9158 20.2106 78.2105 20.2106C78.2105 16.0421 78.2105 11.8737 78.2105 7.57898Z" fill="#F3F3F3"/>
<path d="M78.2105 7.57898C80.7116 7.57898 83.2126 7.57898 85.7895 7.57898C85.7895 11.7474 85.7895 15.9158 85.7895 20.2106C89.9579 20.2106 94.1263 20.2106 98.421 20.2106C98.421 22.7116 98.421 25.2127 98.421 27.7895C97.5874 27.7895 96.7537 27.7895 95.8947 27.7895C95.8947 26.1221 95.8947 24.4548 95.8947 22.7369C91.7263 22.7369 87.5579 22.7369 83.2631 22.7369C83.2631 18.5685 83.2631 14.4 83.2631 10.1053C81.5958 10.1053 79.9284 10.1053 78.2105 10.1053C78.2105 9.27161 78.2105 8.43793 78.2105 7.57898Z" fill="#C5C5C5"/>
<path d="M103.474 15.1578C104.307 15.1578 105.141 15.1578 106 15.1578C106 21.8273 106 28.4968 106 35.3684C105.166 35.3684 104.333 35.3684 103.474 35.3684C103.474 36.202 103.474 37.0357 103.474 37.8947C102.64 37.8947 101.806 37.8947 100.947 37.8947C100.947 38.7284 100.947 39.562 100.947 40.421C100.114 40.421 99.28 40.421 98.421 40.421C98.421 38.7536 98.421 37.0863 98.421 35.3684C99.2547 35.3684 100.088 35.3684 100.947 35.3684C100.947 34.5347 100.947 33.701 100.947 32.842C101.781 32.842 102.615 32.842 103.474 32.842C103.474 27.0063 103.474 21.1705 103.474 15.1578Z" fill="#F3F3F3"/>
<path d="M58 15.1578C58.8337 15.1578 59.6674 15.1578 60.5263 15.1578C60.5263 20.9936 60.5263 26.8294 60.5263 32.842C59.6926 32.842 58.8589 32.842 58 32.842C58 27.0063 58 21.1705 58 15.1578Z" fill="#F3F3F3"/>
<path d="M75.6842 45.4736C79.8526 45.4736 84.021 45.4736 88.3158 45.4736C88.3158 46.3073 88.3158 47.141 88.3158 47.9999C84.1474 47.9999 79.9789 47.9999 75.6842 47.9999C75.6842 47.1663 75.6842 46.3326 75.6842 45.4736Z" fill="#F3F3F3"/>
<path d="M65.5789 40.421C67.2463 40.421 68.9137 40.421 70.6315 40.421C70.6315 41.2547 70.6315 42.0884 70.6315 42.9473C72.2989 42.9473 73.9663 42.9473 75.6842 42.9473C75.6842 43.781 75.6842 44.6147 75.6842 45.4737C73.1831 45.4737 70.6821 45.4737 68.1052 45.4737C68.1052 44.64 68.1052 43.8063 68.1052 42.9473C67.2715 42.9473 66.4379 42.9473 65.5789 42.9473C65.5789 42.1137 65.5789 41.28 65.5789 40.421Z" fill="#F3F3F3"/>
<path d="M88.3158 2.52637C90.8168 2.52637 93.3179 2.52637 95.8947 2.52637C95.8947 3.36005 95.8947 4.19374 95.8947 5.05268C96.7284 5.05268 97.5621 5.05268 98.4211 5.05268C98.4211 5.88637 98.4211 6.72005 98.4211 7.579C96.7537 7.579 95.0863 7.579 93.3684 7.579C93.3684 6.74531 93.3684 5.91163 93.3684 5.05268C91.7011 5.05268 90.0337 5.05268 88.3158 5.05268C88.3158 4.219 88.3158 3.38531 88.3158 2.52637Z" fill="#C5C5C5"/>
<path d="M68.1052 2.52637C70.6063 2.52637 73.1073 2.52637 75.6842 2.52637C75.6842 3.36005 75.6842 4.19374 75.6842 5.05268C74.0168 5.05268 72.3494 5.05268 70.6315 5.05268C70.6315 5.88637 70.6315 6.72005 70.6315 7.579C68.9642 7.579 67.2968 7.579 65.5789 7.579C65.5789 6.74531 65.5789 5.91163 65.5789 5.05268C66.4126 5.05268 67.2463 5.05268 68.1052 5.05268C68.1052 4.219 68.1052 3.38531 68.1052 2.52637Z" fill="#F3F3F3"/>
<path d="M75.6842 0C79.8526 0 84.021 0 88.3158 0C88.3158 0.833684 88.3158 1.66737 88.3158 2.52632C84.1474 2.52632 79.9789 2.52632 75.6842 2.52632C75.6842 1.69263 75.6842 0.858947 75.6842 0Z" fill="#C5C5C5"/>
<path d="M60.5263 32.8422C61.36 32.8422 62.1937 32.8422 63.0526 32.8422C63.0526 33.6758 63.0526 34.5095 63.0526 35.3685C63.8863 35.3685 64.72 35.3685 65.5789 35.3685C65.5789 37.0358 65.5789 38.7032 65.5789 40.4211C64.7453 40.4211 63.9116 40.4211 63.0526 40.4211C63.0526 39.5874 63.0526 38.7537 63.0526 37.8948C62.2189 37.8948 61.3853 37.8948 60.5263 37.8948C60.5263 36.2274 60.5263 34.5601 60.5263 32.8422Z" fill="#F3F3F3"/>
<path d="M103.474 15.1578C104.307 15.1578 105.141 15.1578 106 15.1578C106 18.4926 106 21.8273 106 25.2631C105.166 25.2631 104.333 25.2631 103.474 25.2631C103.474 21.9284 103.474 18.5936 103.474 15.1578Z" fill="#C5C5C5"/>
<path d="M63.0526 7.57898C63.8863 7.57898 64.72 7.57898 65.5789 7.57898C65.5789 9.24635 65.5789 10.9137 65.5789 12.6316C64.7453 12.6316 63.9116 12.6316 63.0526 12.6316C63.0526 13.4653 63.0526 14.299 63.0526 15.1579C62.2189 15.1579 61.3853 15.1579 60.5263 15.1579C60.5263 13.4906 60.5263 11.8232 60.5263 10.1053C61.36 10.1053 62.1937 10.1053 63.0526 10.1053C63.0526 9.27161 63.0526 8.43793 63.0526 7.57898Z" fill="#C5C5C5"/>
<path d="M98.421 7.57898C99.2547 7.57898 100.088 7.57898 100.947 7.57898C100.947 8.41266 100.947 9.24635 100.947 10.1053C101.781 10.1053 102.615 10.1053 103.474 10.1053C103.474 11.7727 103.474 13.44 103.474 15.1579C102.64 15.1579 101.806 15.1579 100.947 15.1579C100.947 14.3242 100.947 13.4906 100.947 12.6316C100.114 12.6316 99.28 12.6316 98.421 12.6316C98.421 10.9642 98.421 9.29687 98.421 7.57898Z" fill="#C5C5C5"/>
<path d="M98.421 35.3684C100.088 35.3684 101.756 35.3684 103.474 35.3684C103.474 36.2021 103.474 37.0358 103.474 37.8947C102.64 37.8947 101.806 37.8947 100.947 37.8947C100.947 38.7284 100.947 39.5621 100.947 40.421C100.114 40.421 99.28 40.421 98.421 40.421C98.421 38.7537 98.421 37.0863 98.421 35.3684Z" fill="#F3F3F3"/>
<path d="M88.3158 42.9474C89.9832 42.9474 91.6505 42.9474 93.3684 42.9474C93.3684 43.7811 93.3684 44.6148 93.3684 45.4737C91.7011 45.4737 90.0337 45.4737 88.3158 45.4737C88.3158 44.64 88.3158 43.8063 88.3158 42.9474Z" fill="#F3F3F3"/>
<path d="M93.3684 40.421C95.0358 40.421 96.7031 40.421 98.421 40.421C98.421 41.2547 98.421 42.0884 98.421 42.9473C96.7537 42.9473 95.0863 42.9473 93.3684 42.9473C93.3684 42.1137 93.3684 41.28 93.3684 40.421Z" fill="#F3F3F3"/>
<path d="M65.5789 40.421C67.2463 40.421 68.9137 40.421 70.6315 40.421C70.6315 41.2547 70.6315 42.0884 70.6315 42.9473C68.9642 42.9473 67.2968 42.9473 65.5789 42.9473C65.5789 42.1137 65.5789 41.28 65.5789 40.421Z" fill="#C5C5C5"/>
<path d="M60.5263 10.1052C61.36 10.1052 62.1937 10.1052 63.0526 10.1052C63.0526 11.7726 63.0526 13.44 63.0526 15.1579C62.2189 15.1579 61.3853 15.1579 60.5263 15.1579C60.5263 13.4905 60.5263 11.8231 60.5263 10.1052Z" fill="#F3F3F3"/>
<path d="M93.3684 5.05261C95.0358 5.05261 96.7031 5.05261 98.421 5.05261C98.421 5.8863 98.421 6.71998 98.421 7.57893C96.7537 7.57893 95.0863 7.57893 93.3684 7.57893C93.3684 6.74524 93.3684 5.91156 93.3684 5.05261Z" fill="#C5C5C5"/>
<path d="M65.5789 5.05261C67.2463 5.05261 68.9137 5.05261 70.6315 5.05261C70.6315 5.8863 70.6315 6.71998 70.6315 7.57893C68.9642 7.57893 67.2968 7.57893 65.5789 7.57893C65.5789 6.74524 65.5789 5.91156 65.5789 5.05261Z" fill="#C5C5C5"/>
<path d="M88.3158 42.9474C89.1495 42.9474 89.9832 42.9474 90.8421 42.9474C90.8421 43.7811 90.8421 44.6148 90.8421 45.4737C90.0084 45.4737 89.1747 45.4737 88.3158 45.4737C88.3158 44.64 88.3158 43.8063 88.3158 42.9474Z" fill="#C5C5C5"/>
<path d="M65.5789 40.421C66.4126 40.421 67.2463 40.421 68.1052 40.421C68.1052 41.2547 68.1052 42.0884 68.1052 42.9473C67.2715 42.9473 66.4379 42.9473 65.5789 42.9473C65.5789 42.1137 65.5789 41.28 65.5789 40.421Z" fill="#F3F3F3"/>
<path d="M98.421 37.8948C99.2547 37.8948 100.088 37.8948 100.947 37.8948C100.947 38.7285 100.947 39.5621 100.947 40.4211C100.114 40.4211 99.28 40.4211 98.421 40.4211C98.421 39.5874 98.421 38.7537 98.421 37.8948Z" fill="#F3F3F3"/>
<path d="M63.0526 37.8948C63.8863 37.8948 64.72 37.8948 65.5789 37.8948C65.5789 38.7285 65.5789 39.5621 65.5789 40.4211C64.7452 40.4211 63.9116 40.4211 63.0526 40.4211C63.0526 39.5874 63.0526 38.7537 63.0526 37.8948Z" fill="#F3F3F3"/>
<path d="M98.421 35.3684C99.2547 35.3684 100.088 35.3684 100.947 35.3684C100.947 36.2021 100.947 37.0358 100.947 37.8947C100.114 37.8947 99.28 37.8947 98.421 37.8947C98.421 37.061 98.421 36.2274 98.421 35.3684Z" fill="#C5C5C5"/>
<path d="M63.0526 35.3684C63.8863 35.3684 64.72 35.3684 65.5789 35.3684C65.5789 36.2021 65.5789 37.0358 65.5789 37.8947C64.7452 37.8947 63.9116 37.8947 63.0526 37.8947C63.0526 37.061 63.0526 36.2274 63.0526 35.3684Z" fill="#C5C5C5"/>
<path d="M100.947 32.8422C101.781 32.8422 102.615 32.8422 103.474 32.8422C103.474 33.6758 103.474 34.5095 103.474 35.3685C102.64 35.3685 101.806 35.3685 100.947 35.3685C100.947 34.5348 100.947 33.7011 100.947 32.8422Z" fill="#C5C5C5"/>
<path d="M100.947 12.6316C101.781 12.6316 102.615 12.6316 103.474 12.6316C103.474 13.4653 103.474 14.299 103.474 15.1579C102.64 15.1579 101.806 15.1579 100.947 15.1579C100.947 14.3242 100.947 13.4905 100.947 12.6316Z" fill="#C5C5C5"/>
<path d="M100.947 10.1052C101.781 10.1052 102.615 10.1052 103.474 10.1052C103.474 10.9389 103.474 11.7726 103.474 12.6315C102.64 12.6315 101.806 12.6315 100.947 12.6315C100.947 11.7979 100.947 10.9642 100.947 10.1052Z" fill="#F3F3F3"/>
<path d="M63.0526 7.57898C63.8863 7.57898 64.72 7.57898 65.5789 7.57898C65.5789 8.41266 65.5789 9.24635 65.5789 10.1053C64.7452 10.1053 63.9116 10.1053 63.0526 10.1053C63.0526 9.27161 63.0526 8.43793 63.0526 7.57898Z" fill="#F3F3F3"/>
<path d="M65.5789 5.05261C66.4126 5.05261 67.2463 5.05261 68.1052 5.05261C68.1052 5.8863 68.1052 6.71998 68.1052 7.57893C67.2715 7.57893 66.4379 7.57893 65.5789 7.57893C65.5789 6.74524 65.5789 5.91156 65.5789 5.05261Z" fill="#F3F3F3"/>
<path d="M93.3684 2.52637C94.2021 2.52637 95.0358 2.52637 95.8947 2.52637C95.8947 3.36005 95.8947 4.19374 95.8947 5.05268C95.061 5.05268 94.2274 5.05268 93.3684 5.05268C93.3684 4.219 93.3684 3.38531 93.3684 2.52637Z" fill="#F3F3F3"/>
<path d="M85.7895 0C86.6232 0 87.4569 0 88.3158 0C88.3158 0.833684 88.3158 1.66737 88.3158 2.52632C87.4821 2.52632 86.6484 2.52632 85.7895 2.52632C85.7895 1.69263 85.7895 0.858947 85.7895 0Z" fill="#F3F3F3"/>
<path d="M75.6842 0C76.5179 0 77.3516 0 78.2105 0C78.2105 0.833684 78.2105 1.66737 78.2105 2.52632C77.3768 2.52632 76.5432 2.52632 75.6842 2.52632C75.6842 1.69263 75.6842 0.858947 75.6842 0Z" fill="#F3F3F3"/>
</svg>
