<svg width="112" height="48" viewBox="0 0 112 48" fill="none" xmlns="http://www.w3.org/2000/svg">
<path d="M21.2609 0C23.0687 0 24.8765 0 26.7391 0C26.7391 0.609231 26.7391 1.21846 26.7391 1.84615C27.3417 1.84615 27.9443 1.84615 28.5652 1.84615C28.5652 2.45538 28.5652 3.06462 28.5652 3.69231C29.7704 3.69231 30.9757 3.69231 32.2174 3.69231C32.2174 4.30154 32.2174 4.91077 32.2174 5.53846C33.4226 5.53846 34.6278 5.53846 35.8696 5.53846C35.8696 6.14769 35.8696 6.75692 35.8696 7.38462C37.0748 7.38462 38.28 7.38462 39.5217 7.38462C39.5217 7.99385 39.5217 8.60308 39.5217 9.23077C40.1243 9.23077 40.727 9.23077 41.3478 9.23077C41.3478 9.84 41.3478 10.4492 41.3478 11.0769C41.9504 11.0769 42.553 11.0769 43.1739 11.0769C43.1739 11.6862 43.1739 12.2954 43.1739 12.9231C43.7765 12.9231 44.3791 12.9231 45 12.9231C45 20.2338 45 27.5446 45 35.0769C44.3974 35.0769 43.7948 35.0769 43.1739 35.0769C43.1739 35.6862 43.1739 36.2954 43.1739 36.9231C42.5713 36.9231 41.9687 36.9231 41.3478 36.9231C41.3478 37.5323 41.3478 38.1415 41.3478 38.7692C40.7452 38.7692 40.1426 38.7692 39.5217 38.7692C39.5217 39.3785 39.5217 39.9877 39.5217 40.6154C38.3165 40.6154 37.1113 40.6154 35.8696 40.6154C35.8696 41.2246 35.8696 41.8338 35.8696 42.4615C34.6643 42.4615 33.4591 42.4615 32.2174 42.4615C32.2174 43.0708 32.2174 43.68 32.2174 44.3077C31.0122 44.3077 29.807 44.3077 28.5652 44.3077C28.5652 44.9169 28.5652 45.5262 28.5652 46.1538C27.9626 46.1538 27.36 46.1538 26.7391 46.1538C26.7391 46.7631 26.7391 47.3723 26.7391 48C24.9313 48 23.1235 48 21.2609 48C21.2609 47.3908 21.2609 46.7815 21.2609 46.1538C20.6583 46.1538 20.0557 46.1538 19.4348 46.1538C19.4348 45.5446 19.4348 44.9354 19.4348 44.3077C18.2296 44.3077 17.0243 44.3077 15.7826 44.3077C15.7826 43.6985 15.7826 43.0892 15.7826 42.4615C14.5774 42.4615 13.3722 42.4615 12.1304 42.4615C12.1304 41.8523 12.1304 41.2431 12.1304 40.6154C10.9252 40.6154 9.72 40.6154 8.47826 40.6154C8.47826 40.0062 8.47826 39.3969 8.47826 38.7692C7.87565 38.7692 7.27304 38.7692 6.65217 38.7692C6.65217 38.16 6.65217 37.5508 6.65217 36.9231C6.04957 36.9231 5.44696 36.9231 4.82609 36.9231C4.82609 36.3138 4.82609 35.7046 4.82609 35.0769C4.22348 35.0769 3.62087 35.0769 3 35.0769C3 27.7662 3 20.4554 3 12.9231C3.60261 12.9231 4.20522 12.9231 4.82609 12.9231C4.82609 12.3138 4.82609 11.7046 4.82609 11.0769C5.4287 11.0769 6.0313 11.0769 6.65217 11.0769C6.65217 10.4677 6.65217 9.85846 6.65217 9.23077C7.25478 9.23077 7.85739 9.23077 8.47826 9.23077C8.47826 8.62154 8.47826 8.01231 8.47826 7.38462C9.68348 7.38462 10.8887 7.38462 12.1304 7.38462C12.1304 6.77538 12.1304 6.16615 12.1304 5.53846C13.3357 5.53846 14.5409 5.53846 15.7826 5.53846C15.7826 4.92923 15.7826 4.32 15.7826 3.69231C16.9878 3.69231 18.193 3.69231 19.4348 3.69231C19.4348 3.08308 19.4348 2.47385 19.4348 1.84615C20.0374 1.84615 20.64 1.84615 21.2609 1.84615C21.2609 1.23692 21.2609 0.627692 21.2609 0Z" fill="#7D0000"/>
<path d="M21.2609 0C23.0687 0 24.8765 0 26.7392 0C26.7392 0.609231 26.7392 1.21846 26.7392 1.84615C27.3418 1.84615 27.9444 1.84615 28.5652 1.84615C28.5652 2.45538 28.5652 3.06462 28.5652 3.69231C29.7705 3.69231 30.9757 3.69231 32.2174 3.69231C32.2174 4.30154 32.2174 4.91077 32.2174 5.53846C33.4226 5.53846 34.6279 5.53846 35.8696 5.53846C35.8696 6.14769 35.8696 6.75692 35.8696 7.38462C37.0748 7.38462 38.28 7.38462 39.5218 7.38462C39.5218 7.99385 39.5218 8.60308 39.5218 9.23077C40.1244 9.23077 40.727 9.23077 41.3479 9.23077C41.3479 11.6677 41.3479 14.1046 41.3479 16.6154C41.9505 16.6154 42.5531 16.6154 43.1739 16.6154C43.1739 22.0985 43.1739 27.5815 43.1739 33.2308C42.5713 33.2308 41.9687 33.2308 41.3479 33.2308C41.3479 32.6215 41.3479 32.0123 41.3479 31.3846C40.7452 31.3846 40.1426 31.3846 39.5218 31.3846C39.5218 30.7754 39.5218 30.1662 39.5218 29.5385C38.9192 29.5385 38.3165 29.5385 37.6957 29.5385C37.6957 27.7108 37.6957 25.8831 37.6957 24C36.4905 24 35.2852 24 34.0435 24C34.0435 23.3908 34.0435 22.7815 34.0435 22.1538C33.4409 22.1538 32.8383 22.1538 32.2174 22.1538C32.2174 20.9354 32.2174 19.7169 32.2174 18.4615C31.6148 18.4615 31.0122 18.4615 30.3913 18.4615C30.3913 17.8523 30.3913 17.2431 30.3913 16.6154C29.7887 16.6154 29.1861 16.6154 28.5652 16.6154C28.5652 15.3969 28.5652 14.1785 28.5652 12.9231C26.7574 12.9231 24.9496 12.9231 23.087 12.9231C23.087 14.7508 23.087 16.5785 23.087 18.4615C23.6896 18.4615 24.2922 18.4615 24.9131 18.4615C24.9131 19.0708 24.9131 19.68 24.9131 20.3077C25.5157 20.3077 26.1183 20.3077 26.7392 20.3077C26.7392 20.9169 26.7392 21.5262 26.7392 22.1538C27.3418 22.1538 27.9444 22.1538 28.5652 22.1538C28.5652 22.7631 28.5652 23.3723 28.5652 24C27.9626 24 27.36 24 26.7392 24C26.7392 25.2185 26.7392 26.4369 26.7392 27.6923C26.1365 27.6923 25.5339 27.6923 24.9131 27.6923C24.9131 28.3015 24.9131 28.9108 24.9131 29.5385C20.6948 29.5385 16.4765 29.5385 12.1305 29.5385C12.1305 28.9292 12.1305 28.32 12.1305 27.6923C11.5279 27.6923 10.9252 27.6923 10.3044 27.6923C10.3044 26.4738 10.3044 25.2554 10.3044 24C9.70176 24 9.09915 24 8.47828 24C8.47828 22.7815 8.47828 21.5631 8.47828 20.3077C7.87568 20.3077 7.27307 20.3077 6.6522 20.3077C6.6522 19.0892 6.6522 17.8708 6.6522 16.6154C6.04959 16.6154 5.44698 16.6154 4.82611 16.6154C4.82611 14.7877 4.82611 12.96 4.82611 11.0769C5.42872 11.0769 6.03133 11.0769 6.6522 11.0769C6.6522 10.4677 6.6522 9.85846 6.6522 9.23077C7.25481 9.23077 7.85742 9.23077 8.47828 9.23077C8.47828 8.62154 8.47828 8.01231 8.47828 7.38462C9.6835 7.38462 10.8887 7.38462 12.1305 7.38462C12.1305 6.77538 12.1305 6.16615 12.1305 5.53846C13.3357 5.53846 14.5409 5.53846 15.7826 5.53846C15.7826 4.92923 15.7826 4.32 15.7826 3.69231C16.9879 3.69231 18.1931 3.69231 19.4348 3.69231C19.4348 3.08308 19.4348 2.47385 19.4348 1.84615C20.0374 1.84615 20.64 1.84615 21.2609 1.84615C21.2609 1.23692 21.2609 0.627692 21.2609 0Z" fill="#9B0000"/>
<path d="M12.1304 31.3846C19.9643 31.3846 27.7983 31.3846 35.8696 31.3846C35.8696 31.9939 35.8696 32.6031 35.8696 33.2308C35.267 33.2308 34.6643 33.2308 34.0435 33.2308C34.0435 33.84 34.0435 34.4493 34.0435 35.077C33.4409 35.077 32.8383 35.077 32.2174 35.077C32.2174 36.2954 32.2174 37.5139 32.2174 38.7693C31.6148 38.7693 31.0122 38.7693 30.3913 38.7693C30.3913 39.9877 30.3913 41.2062 30.3913 42.4616C29.7887 42.4616 29.1861 42.4616 28.5652 42.4616C28.5652 43.68 28.5652 44.8985 28.5652 46.1539C27.9626 46.1539 27.36 46.1539 26.7391 46.1539C26.7391 46.7631 26.7391 47.3723 26.7391 48C24.9313 48 23.1235 48 21.2609 48C21.2609 47.3908 21.2609 46.7816 21.2609 46.1539C20.6583 46.1539 20.0556 46.1539 19.4348 46.1539C19.4348 44.3262 19.4348 42.4985 19.4348 40.6154C18.8322 40.6154 18.2296 40.6154 17.6087 40.6154C17.6087 40.0062 17.6087 39.397 17.6087 38.7693C17.0061 38.7693 16.4035 38.7693 15.7826 38.7693C15.7826 37.5508 15.7826 36.3323 15.7826 35.077C15.18 35.077 14.5774 35.077 13.9565 35.077C13.9565 34.4677 13.9565 33.8585 13.9565 33.2308C13.3539 33.2308 12.7513 33.2308 12.1304 33.2308C12.1304 32.6216 12.1304 32.0123 12.1304 31.3846Z" fill="#9B0000"/>
<path d="M3 12.9231C3.60261 12.9231 4.20522 12.9231 4.82609 12.9231C4.82609 14.1416 4.82609 15.36 4.82609 16.6154C5.4287 16.6154 6.0313 16.6154 6.65217 16.6154C6.65217 17.8339 6.65217 19.0523 6.65217 20.3077C7.25478 20.3077 7.85739 20.3077 8.47826 20.3077C8.47826 21.5262 8.47826 22.7446 8.47826 24C9.08087 24 9.68348 24 10.3043 24C10.3043 25.2185 10.3043 26.4369 10.3043 27.6923C10.907 27.6923 11.5096 27.6923 12.1304 27.6923C12.1304 29.52 12.1304 31.3477 12.1304 33.2308C12.733 33.2308 13.3357 33.2308 13.9565 33.2308C13.9565 33.84 13.9565 34.4492 13.9565 35.0769C14.5591 35.0769 15.1617 35.0769 15.7826 35.0769C15.7826 36.2954 15.7826 37.5139 15.7826 38.7692C16.3852 38.7692 16.9878 38.7692 17.6087 38.7692C17.6087 39.3785 17.6087 39.9877 17.6087 40.6154C18.2113 40.6154 18.8139 40.6154 19.4348 40.6154C19.4348 41.8339 19.4348 43.0523 19.4348 44.3077C18.2296 44.3077 17.0243 44.3077 15.7826 44.3077C15.7826 43.6985 15.7826 43.0893 15.7826 42.4616C14.5774 42.4616 13.3722 42.4616 12.1304 42.4616C12.1304 41.8523 12.1304 41.2431 12.1304 40.6154C10.9252 40.6154 9.72 40.6154 8.47826 40.6154C8.47826 40.0062 8.47826 39.3969 8.47826 38.7692C7.87565 38.7692 7.27304 38.7692 6.65217 38.7692C6.65217 38.16 6.65217 37.5508 6.65217 36.9231C6.04957 36.9231 5.44696 36.9231 4.82609 36.9231C4.82609 36.3139 4.82609 35.7046 4.82609 35.0769C4.22348 35.0769 3.62087 35.0769 3 35.0769C3 27.7662 3 20.4554 3 12.9231Z" fill="#7D0000"/>
<path d="M23.087 11.0769C29.1131 11.0769 35.1391 11.0769 41.3478 11.0769C41.3478 12.9046 41.3478 14.7323 41.3478 16.6154C41.9505 16.6154 42.5531 16.6154 43.1739 16.6154C43.1739 22.0984 43.1739 27.5815 43.1739 33.2308C42.5713 33.2308 41.9687 33.2308 41.3478 33.2308C41.3478 32.6215 41.3478 32.0123 41.3478 31.3846C40.7452 31.3846 40.1426 31.3846 39.5218 31.3846C39.5218 30.7754 39.5218 30.1661 39.5218 29.5384C38.9191 29.5384 38.3165 29.5384 37.6957 29.5384C37.6957 27.7108 37.6957 25.8831 37.6957 24C36.4905 24 35.2852 24 34.0435 24C34.0435 23.3908 34.0435 22.7815 34.0435 22.1538C33.4409 22.1538 32.8383 22.1538 32.2174 22.1538C32.2174 20.9354 32.2174 19.7169 32.2174 18.4615C31.6148 18.4615 31.0122 18.4615 30.3913 18.4615C30.3913 17.8523 30.3913 17.2431 30.3913 16.6154C29.7887 16.6154 29.1861 16.6154 28.5652 16.6154C28.5652 15.3969 28.5652 14.1784 28.5652 12.9231C26.7574 12.9231 24.9496 12.9231 23.087 12.9231C23.087 12.3138 23.087 11.7046 23.087 11.0769Z" fill="#C94040"/>
<path d="M21.2609 0C23.0687 0 24.8765 0 26.7391 0C26.7391 0.609231 26.7391 1.21846 26.7391 1.84615C27.3417 1.84615 27.9444 1.84615 28.5652 1.84615C28.5652 2.45538 28.5652 3.06462 28.5652 3.69231C29.7704 3.69231 30.9757 3.69231 32.2174 3.69231C32.2174 4.30154 32.2174 4.91077 32.2174 5.53846C33.4226 5.53846 34.6278 5.53846 35.8696 5.53846C35.8696 6.14769 35.8696 6.75692 35.8696 7.38462C37.0748 7.38462 38.28 7.38462 39.5217 7.38462C39.5217 7.99385 39.5217 8.60308 39.5217 9.23077C40.1244 9.23077 40.727 9.23077 41.3478 9.23077C41.3478 9.84 41.3478 10.4492 41.3478 11.0769C35.3217 11.0769 29.2957 11.0769 23.087 11.0769C23.087 10.4677 23.087 9.85846 23.087 9.23077C18.2661 9.23077 13.4452 9.23077 8.47827 9.23077C8.47827 8.62154 8.47827 8.01231 8.47827 7.38462C9.68349 7.38462 10.8887 7.38462 12.1304 7.38462C12.1304 6.77538 12.1304 6.16615 12.1304 5.53846C13.3357 5.53846 14.5409 5.53846 15.7826 5.53846C15.7826 4.92923 15.7826 4.32 15.7826 3.69231C16.9878 3.69231 18.1931 3.69231 19.4348 3.69231C19.4348 3.08308 19.4348 2.47385 19.4348 1.84615C20.0374 1.84615 20.64 1.84615 21.2609 1.84615C21.2609 1.23692 21.2609 0.627692 21.2609 0Z" fill="#7D0000"/>
<path d="M23.087 12.9231C24.8948 12.9231 26.7026 12.9231 28.5652 12.9231C28.5652 14.1416 28.5652 15.36 28.5652 16.6154C29.1678 16.6154 29.7705 16.6154 30.3913 16.6154C30.3913 17.2246 30.3913 17.8339 30.3913 18.4616C30.9939 18.4616 31.5965 18.4616 32.2174 18.4616C32.2174 19.68 32.2174 20.8985 32.2174 22.1539C32.82 22.1539 33.4226 22.1539 34.0435 22.1539C34.0435 22.7631 34.0435 23.3723 34.0435 24C35.2487 24 36.4539 24 37.6957 24C37.6957 25.8277 37.6957 27.6554 37.6957 29.5385C37.0931 29.5385 36.4905 29.5385 35.8696 29.5385C35.8696 28.9292 35.8696 28.32 35.8696 27.6923C35.267 27.6923 34.6644 27.6923 34.0435 27.6923C34.0435 28.3016 34.0435 28.9108 34.0435 29.5385C31.0305 29.5385 28.0174 29.5385 24.9131 29.5385C24.9131 28.9292 24.9131 28.32 24.9131 27.6923C25.5157 27.6923 26.1183 27.6923 26.7391 27.6923C26.7391 26.4739 26.7391 25.2554 26.7391 24C27.3418 24 27.9444 24 28.5652 24C28.5652 23.3908 28.5652 22.7816 28.5652 22.1539C27.9626 22.1539 27.36 22.1539 26.7391 22.1539C26.7391 21.5446 26.7391 20.9354 26.7391 20.3077C26.1365 20.3077 25.5339 20.3077 24.9131 20.3077C24.9131 19.6985 24.9131 19.0892 24.9131 18.4616C24.3105 18.4616 23.7078 18.4616 23.087 18.4616C23.087 16.6339 23.087 14.8062 23.087 12.9231Z" fill="#980000"/>
<path d="M17.6087 18.4615C18.2113 18.4615 18.8139 18.4615 19.4348 18.4615C19.4348 20.2892 19.4348 22.1169 19.4348 24C20.0374 24 20.64 24 21.2609 24C21.2609 22.7815 21.2609 21.5631 21.2609 20.3077C21.8635 20.3077 22.4661 20.3077 23.087 20.3077C23.087 19.6985 23.087 19.0892 23.087 18.4615C23.6896 18.4615 24.2922 18.4615 24.913 18.4615C24.913 19.0708 24.913 19.68 24.913 20.3077C25.5156 20.3077 26.1183 20.3077 26.7391 20.3077C26.7391 20.9169 26.7391 21.5262 26.7391 22.1539C27.3417 22.1539 27.9443 22.1539 28.5652 22.1539C28.5652 22.7631 28.5652 23.3723 28.5652 24C27.9626 24 27.36 24 26.7391 24C26.7391 25.2185 26.7391 26.4369 26.7391 27.6923C26.1365 27.6923 25.5339 27.6923 24.913 27.6923C24.913 28.3015 24.913 28.9108 24.913 29.5385C20.6948 29.5385 16.4765 29.5385 12.1304 29.5385C12.1304 28.9292 12.1304 28.32 12.1304 27.6923C12.733 27.6923 13.3356 27.6923 13.9565 27.6923C13.9565 26.4739 13.9565 25.2554 13.9565 24C14.5591 24 15.1617 24 15.7826 24C15.7826 23.3908 15.7826 22.7815 15.7826 22.1539C16.3852 22.1539 16.9878 22.1539 17.6087 22.1539C17.6087 20.9354 17.6087 19.7169 17.6087 18.4615Z" fill="#9B0000"/>
<path d="M35.8696 31.3846C36.4722 31.3846 37.0748 31.3846 37.6957 31.3846C37.6957 31.9939 37.6957 32.6031 37.6957 33.2308C38.2983 33.2308 38.9009 33.2308 39.5218 33.2308C39.5218 33.84 39.5218 34.4493 39.5218 35.077C40.1244 35.077 40.727 35.077 41.3479 35.077C41.3479 36.2954 41.3479 37.5139 41.3479 38.7693C40.7452 38.7693 40.1426 38.7693 39.5218 38.7693C39.5218 39.3785 39.5218 39.9877 39.5218 40.6154C38.3166 40.6154 37.1113 40.6154 35.8696 40.6154C35.8696 41.2246 35.8696 41.8339 35.8696 42.4616C34.6644 42.4616 33.4592 42.4616 32.2174 42.4616C32.2174 43.0708 32.2174 43.68 32.2174 44.3077C31.0122 44.3077 29.807 44.3077 28.5652 44.3077C28.5652 43.6985 28.5652 43.0893 28.5652 42.4616C29.1679 42.4616 29.7705 42.4616 30.3913 42.4616C30.3913 41.2431 30.3913 40.0246 30.3913 38.7693C30.9939 38.7693 31.5966 38.7693 32.2174 38.7693C32.2174 37.5508 32.2174 36.3323 32.2174 35.077C32.82 35.077 33.4226 35.077 34.0435 35.077C34.0435 34.4677 34.0435 33.8585 34.0435 33.2308C34.6461 33.2308 35.2487 33.2308 35.8696 33.2308C35.8696 32.6216 35.8696 32.0123 35.8696 31.3846Z" fill="#9B0000"/>
<path d="M21.2609 0C23.0687 0 24.8765 0 26.7391 0C26.7391 0.609231 26.7391 1.21846 26.7391 1.84615C25.5339 1.84615 24.3287 1.84615 23.087 1.84615C23.087 4.28308 23.087 6.72 23.087 9.23077C18.2661 9.23077 13.4452 9.23077 8.47827 9.23077C8.47827 8.62154 8.47827 8.01231 8.47827 7.38462C9.68349 7.38462 10.8887 7.38462 12.1304 7.38462C12.1304 6.77538 12.1304 6.16615 12.1304 5.53846C13.3357 5.53846 14.5409 5.53846 15.7826 5.53846C15.7826 4.92923 15.7826 4.32 15.7826 3.69231C16.9878 3.69231 18.1931 3.69231 19.4348 3.69231C19.4348 3.08308 19.4348 2.47385 19.4348 1.84615C20.0374 1.84615 20.64 1.84615 21.2609 1.84615C21.2609 1.23692 21.2609 0.627692 21.2609 0Z" fill="#9B0000"/>
<path d="M41.3479 16.6154C41.9505 16.6154 42.5531 16.6154 43.1739 16.6154C43.1739 22.0984 43.1739 27.5815 43.1739 33.2307C42.5713 33.2307 41.9687 33.2307 41.3479 33.2307C41.3479 32.6215 41.3479 32.0123 41.3479 31.3846C40.7452 31.3846 40.1426 31.3846 39.5218 31.3846C39.5218 30.7754 39.5218 30.1661 39.5218 29.5384C38.9192 29.5384 38.3165 29.5384 37.6957 29.5384C37.6957 27.7107 37.6957 25.883 37.6957 24C38.2983 24 38.9009 24 39.5218 24C39.5218 22.7815 39.5218 21.563 39.5218 20.3077C40.1244 20.3077 40.727 20.3077 41.3479 20.3077C41.3479 19.0892 41.3479 17.8707 41.3479 16.6154Z" fill="#C94040"/>
<path d="M23.087 18.4615C23.6896 18.4615 24.2922 18.4615 24.913 18.4615C24.913 19.0708 24.913 19.68 24.913 20.3077C25.5156 20.3077 26.1183 20.3077 26.7391 20.3077C26.7391 20.9169 26.7391 21.5262 26.7391 22.1539C27.3417 22.1539 27.9443 22.1539 28.5652 22.1539C28.5652 22.7631 28.5652 23.3723 28.5652 24C27.9626 24 27.36 24 26.7391 24C26.7391 25.2185 26.7391 26.4369 26.7391 27.6923C26.1365 27.6923 25.5339 27.6923 24.913 27.6923C24.913 28.3015 24.913 28.9108 24.913 29.5385C24.3104 29.5385 23.7078 29.5385 23.087 29.5385C23.087 28.9292 23.087 28.32 23.087 27.6923C22.4843 27.6923 21.8817 27.6923 21.2609 27.6923C21.2609 25.2554 21.2609 22.8185 21.2609 20.3077C21.8635 20.3077 22.4661 20.3077 23.087 20.3077C23.087 19.6985 23.087 19.0892 23.087 18.4615Z" fill="#C38015"/>
<path d="M41.3478 11.0769C41.9504 11.0769 42.5531 11.0769 43.1739 11.0769C43.1739 11.6861 43.1739 12.2954 43.1739 12.9231C43.7765 12.9231 44.3791 12.9231 45 12.9231C45 20.2338 45 27.5446 45 35.0769C44.3974 35.0769 43.7948 35.0769 43.1739 35.0769C43.1739 28.9846 43.1739 22.8923 43.1739 16.6154C42.5713 16.6154 41.9687 16.6154 41.3478 16.6154C41.3478 14.7877 41.3478 12.96 41.3478 11.0769Z" fill="black"/>
<path d="M24.913 1.84619C26.1182 1.84619 27.3235 1.84619 28.5652 1.84619C28.5652 2.45542 28.5652 3.06465 28.5652 3.69235C29.7704 3.69235 30.9756 3.69235 32.2174 3.69235C32.2174 4.30158 32.2174 4.91081 32.2174 5.5385C33.4226 5.5385 34.6278 5.5385 35.8695 5.5385C35.8695 6.75696 35.8695 7.97542 35.8695 9.23081C33.4591 9.23081 31.0487 9.23081 28.5652 9.23081C28.5652 8.62158 28.5652 8.01235 28.5652 7.38465C27.9626 7.38465 27.36 7.38465 26.7391 7.38465C26.7391 6.77542 26.7391 6.16619 26.7391 5.5385C26.1365 5.5385 25.5339 5.5385 24.913 5.5385C24.913 4.32004 24.913 3.10158 24.913 1.84619Z" fill="#C94040"/>
<path d="M3 12.9231C3.60261 12.9231 4.20522 12.9231 4.82609 12.9231C4.82609 20.2339 4.82609 27.5446 4.82609 35.0769C4.22348 35.0769 3.62087 35.0769 3 35.0769C3 27.7662 3 20.4554 3 12.9231Z" fill="black"/>
<path d="M8.47827 9.23071C13.2991 9.23071 18.12 9.23071 23.087 9.23071C23.087 9.83994 23.087 10.4492 23.087 11.0769C18.2661 11.0769 13.4452 11.0769 8.47827 11.0769C8.47827 10.4676 8.47827 9.85841 8.47827 9.23071Z" fill="#C94040"/>
<path d="M23.087 1.84619C23.6896 1.84619 24.2922 1.84619 24.9131 1.84619C24.9131 3.06465 24.9131 4.28311 24.9131 5.5385C25.5157 5.5385 26.1183 5.5385 26.7391 5.5385C26.7391 6.14773 26.7391 6.75696 26.7391 7.38465C27.3418 7.38465 27.9444 7.38465 28.5652 7.38465C28.5652 7.99388 28.5652 8.60311 28.5652 9.23081C27.36 9.23081 26.1548 9.23081 24.9131 9.23081C24.9131 9.84004 24.9131 10.4493 24.9131 11.077C24.3105 11.077 23.7078 11.077 23.087 11.077C23.087 8.03081 23.087 4.98465 23.087 1.84619Z" fill="#7D0000"/>
<path d="M23.087 18.4615C23.6896 18.4615 24.2922 18.4615 24.9131 18.4615C24.9131 19.0708 24.9131 19.68 24.9131 20.3077C25.5157 20.3077 26.1183 20.3077 26.7391 20.3077C26.7391 20.9169 26.7391 21.5262 26.7391 22.1539C27.3418 22.1539 27.9444 22.1539 28.5652 22.1539C28.5652 22.7631 28.5652 23.3723 28.5652 24C27.9626 24 27.36 24 26.7391 24C26.7391 25.2185 26.7391 26.4369 26.7391 27.6923C26.1365 27.6923 25.5339 27.6923 24.9131 27.6923C24.9131 25.8646 24.9131 24.0369 24.9131 22.1539C24.3105 22.1539 23.7078 22.1539 23.087 22.1539C23.087 20.9354 23.087 19.7169 23.087 18.4615Z" fill="#D28C1D"/>
<path d="M19.4348 44.3077C20.64 44.3077 21.8452 44.3077 23.0869 44.3077C23.0869 44.917 23.0869 45.5262 23.0869 46.1539C24.2921 46.1539 25.4974 46.1539 26.7391 46.1539C26.7391 46.7631 26.7391 47.3724 26.7391 48C24.9313 48 23.1234 48 21.2608 48C21.2608 47.3908 21.2608 46.7816 21.2608 46.1539C20.6582 46.1539 20.0556 46.1539 19.4348 46.1539C19.4348 45.5447 19.4348 44.9354 19.4348 44.3077Z" fill="black"/>
<path d="M19.4348 18.4615C20.64 18.4615 21.8452 18.4615 23.0869 18.4615C23.0869 19.0708 23.0869 19.68 23.0869 20.3077C22.4843 20.3077 21.8817 20.3077 21.2608 20.3077C21.2608 21.5262 21.2608 22.7446 21.2608 24C20.6582 24 20.0556 24 19.4348 24C19.4348 22.1723 19.4348 20.3446 19.4348 18.4615Z" fill="#9B0000"/>
<path d="M21.2608 12.9231C21.8634 12.9231 22.4661 12.9231 23.0869 12.9231C23.0869 14.7508 23.0869 16.5785 23.0869 18.4616C21.8817 18.4616 20.6765 18.4616 19.4348 18.4616C19.4348 17.8523 19.4348 17.2431 19.4348 16.6154C20.0374 16.6154 20.64 16.6154 21.2608 16.6154C21.2608 15.3969 21.2608 14.1785 21.2608 12.9231Z" fill="#9B0000"/>
<path d="M19.4348 1.84619C20.0374 1.84619 20.64 1.84619 21.2609 1.84619C21.2609 3.06465 21.2609 4.28311 21.2609 5.5385C19.453 5.5385 17.6452 5.5385 15.7826 5.5385C15.7826 4.92927 15.7826 4.32004 15.7826 3.69235C16.9878 3.69235 18.193 3.69235 19.4348 3.69235C19.4348 3.08311 19.4348 2.47388 19.4348 1.84619Z" fill="#7D0000"/>
<path d="M23.087 18.4615C23.6896 18.4615 24.2922 18.4615 24.9131 18.4615C24.9131 19.0708 24.9131 19.68 24.9131 20.3077C25.5157 20.3077 26.1183 20.3077 26.7391 20.3077C26.7391 20.9169 26.7391 21.5262 26.7391 22.1539C25.5339 22.1539 24.3287 22.1539 23.087 22.1539C23.087 20.9354 23.087 19.7169 23.087 18.4615Z" fill="#8F8F8F"/>
<path d="M41.3478 11.0769C41.9504 11.0769 42.5531 11.0769 43.1739 11.0769C43.1739 12.9046 43.1739 14.7323 43.1739 16.6154C42.5713 16.6154 41.9687 16.6154 41.3478 16.6154C41.3478 14.7877 41.3478 12.96 41.3478 11.0769Z" fill="#7D0000"/>
<path d="M24.913 5.53845C25.5156 5.53845 26.1182 5.53845 26.7391 5.53845C26.7391 6.14768 26.7391 6.75691 26.7391 7.38461C27.3417 7.38461 27.9443 7.38461 28.5652 7.38461C28.5652 7.99384 28.5652 8.60307 28.5652 9.23076C27.36 9.23076 26.1548 9.23076 24.913 9.23076C24.913 8.0123 24.913 6.79384 24.913 5.53845Z" fill="#9B0000"/>
<path d="M21.2609 0C23.0687 0 24.8765 0 26.7391 0C26.7391 0.609231 26.7391 1.21846 26.7391 1.84615C24.9313 1.84615 23.1235 1.84615 21.2609 1.84615C21.2609 1.23692 21.2609 0.627692 21.2609 0Z" fill="black"/>
<path d="M19.4348 44.3077C20.64 44.3077 21.8452 44.3077 23.0869 44.3077C23.0869 44.917 23.0869 45.5262 23.0869 46.1539C21.8817 46.1539 20.6765 46.1539 19.4348 46.1539C19.4348 45.5447 19.4348 44.9354 19.4348 44.3077Z" fill="#7D0000"/>
<path d="M28.5652 42.4615C29.7705 42.4615 30.9757 42.4615 32.2174 42.4615C32.2174 43.0708 32.2174 43.68 32.2174 44.3077C31.0122 44.3077 29.807 44.3077 28.5652 44.3077C28.5652 43.6985 28.5652 43.0892 28.5652 42.4615Z" fill="black"/>
<path d="M15.7826 42.4615C16.9878 42.4615 18.193 42.4615 19.4348 42.4615C19.4348 43.0708 19.4348 43.68 19.4348 44.3077C18.2295 44.3077 17.0243 44.3077 15.7826 44.3077C15.7826 43.6985 15.7826 43.0892 15.7826 42.4615Z" fill="black"/>
<path d="M32.2174 40.6154C33.4226 40.6154 34.6278 40.6154 35.8696 40.6154C35.8696 41.2246 35.8696 41.8338 35.8696 42.4615C34.6644 42.4615 33.4591 42.4615 32.2174 42.4615C32.2174 41.8523 32.2174 41.243 32.2174 40.6154Z" fill="black"/>
<path d="M12.1304 40.6154C13.3356 40.6154 14.5409 40.6154 15.7826 40.6154C15.7826 41.2246 15.7826 41.8338 15.7826 42.4615C14.5774 42.4615 13.3722 42.4615 12.1304 42.4615C12.1304 41.8523 12.1304 41.243 12.1304 40.6154Z" fill="black"/>
<path d="M35.8696 38.7693C37.0748 38.7693 38.28 38.7693 39.5217 38.7693C39.5217 39.3785 39.5217 39.9877 39.5217 40.6154C38.3165 40.6154 37.1113 40.6154 35.8696 40.6154C35.8696 40.0062 35.8696 39.397 35.8696 38.7693Z" fill="black"/>
<path d="M8.47827 38.7693C9.68349 38.7693 10.8887 38.7693 12.1304 38.7693C12.1304 39.3785 12.1304 39.9877 12.1304 40.6154C10.9252 40.6154 9.72001 40.6154 8.47827 40.6154C8.47827 40.0062 8.47827 39.397 8.47827 38.7693Z" fill="black"/>
<path d="M30.3913 35.0769C30.9939 35.0769 31.5965 35.0769 32.2174 35.0769C32.2174 36.2954 32.2174 37.5138 32.2174 38.7692C31.6148 38.7692 31.0122 38.7692 30.3913 38.7692C30.3913 37.5508 30.3913 36.3323 30.3913 35.0769Z" fill="#C94040"/>
<path d="M15.7826 35.0769C16.3852 35.0769 16.9878 35.0769 17.6087 35.0769C17.6087 36.2954 17.6087 37.5138 17.6087 38.7692C17.0061 38.7692 16.4035 38.7692 15.7826 38.7692C15.7826 37.5508 15.7826 36.3323 15.7826 35.0769Z" fill="#C94040"/>
<path d="M32.2174 24C32.82 24 33.4226 24 34.0435 24C34.0435 25.2185 34.0435 26.4369 34.0435 27.6923C33.4409 27.6923 32.8383 27.6923 32.2174 27.6923C32.2174 26.4738 32.2174 25.2554 32.2174 24Z" fill="#7D0000"/>
<path d="M23.087 22.1538C23.6896 22.1538 24.2922 22.1538 24.9131 22.1538C24.9131 23.3723 24.9131 24.5907 24.9131 25.8461C24.3105 25.8461 23.7078 25.8461 23.087 25.8461C23.087 24.6277 23.087 23.4092 23.087 22.1538Z" fill="black"/>
<path d="M13.9565 24C14.5592 24 15.1618 24 15.7826 24C15.7826 25.2185 15.7826 26.4369 15.7826 27.6923C15.18 27.6923 14.5774 27.6923 13.9565 27.6923C13.9565 26.4738 13.9565 25.2554 13.9565 24Z" fill="#C94040"/>
<path d="M10.3043 24C10.9069 24 11.5095 24 12.1304 24C12.1304 25.2185 12.1304 26.4369 12.1304 27.6923C11.5278 27.6923 10.9252 27.6923 10.3043 27.6923C10.3043 26.4738 10.3043 25.2554 10.3043 24Z" fill="#C94040"/>
<path d="M37.6957 20.3077C38.2983 20.3077 38.9009 20.3077 39.5218 20.3077C39.5218 21.5262 39.5218 22.7447 39.5218 24C38.9192 24 38.3165 24 37.6957 24C37.6957 22.7816 37.6957 21.5631 37.6957 20.3077Z" fill="#7D0000"/>
<path d="M8.47827 20.3077C9.08088 20.3077 9.68349 20.3077 10.3044 20.3077C10.3044 21.5262 10.3044 22.7447 10.3044 24C9.70175 24 9.09914 24 8.47827 24C8.47827 22.7816 8.47827 21.5631 8.47827 20.3077Z" fill="#C94040"/>
<path d="M28.5652 18.4615C29.1679 18.4615 29.7705 18.4615 30.3913 18.4615C30.3913 19.68 30.3913 20.8985 30.3913 22.1539C29.7887 22.1539 29.1861 22.1539 28.5652 22.1539C28.5652 20.9354 28.5652 19.7169 28.5652 18.4615Z" fill="#7D0000"/>
<path d="M17.6087 18.4615C18.2113 18.4615 18.8139 18.4615 19.4348 18.4615C19.4348 19.68 19.4348 20.8985 19.4348 22.1539C18.8322 22.1539 18.2296 22.1539 17.6087 22.1539C17.6087 20.9354 17.6087 19.7169 17.6087 18.4615Z" fill="#C94040"/>
<path d="M39.5217 16.6154C40.1243 16.6154 40.7269 16.6154 41.3478 16.6154C41.3478 17.8338 41.3478 19.0523 41.3478 20.3077C40.7452 20.3077 40.1426 20.3077 39.5217 20.3077C39.5217 19.0892 39.5217 17.8707 39.5217 16.6154Z" fill="#7D0000"/>
<path d="M6.65216 16.6154C7.25477 16.6154 7.85738 16.6154 8.47825 16.6154C8.47825 17.8338 8.47825 19.0523 8.47825 20.3077C7.87564 20.3077 7.27303 20.3077 6.65216 20.3077C6.65216 19.0892 6.65216 17.8707 6.65216 16.6154Z" fill="#C94040"/>
<path d="M26.7391 12.9231C27.3417 12.9231 27.9444 12.9231 28.5652 12.9231C28.5652 14.1416 28.5652 15.36 28.5652 16.6154C27.9626 16.6154 27.36 16.6154 26.7391 16.6154C26.7391 15.3969 26.7391 14.1785 26.7391 12.9231Z" fill="#9B0000"/>
<path d="M24.913 12.9231C25.5156 12.9231 26.1182 12.9231 26.7391 12.9231C26.7391 14.1416 26.7391 15.36 26.7391 16.6154C26.1365 16.6154 25.5339 16.6154 24.913 16.6154C24.913 15.3969 24.913 14.1785 24.913 12.9231Z" fill="#7D0000"/>
<path d="M21.2609 12.9231C21.8635 12.9231 22.4661 12.9231 23.087 12.9231C23.087 14.1416 23.087 15.36 23.087 16.6154C22.4843 16.6154 21.8817 16.6154 21.2609 16.6154C21.2609 15.3969 21.2609 14.1785 21.2609 12.9231Z" fill="#C94040"/>
<path d="M4.82611 12.9231C5.42872 12.9231 6.03133 12.9231 6.6522 12.9231C6.6522 14.1416 6.6522 15.36 6.6522 16.6154C6.04959 16.6154 5.44698 16.6154 4.82611 16.6154C4.82611 15.3969 4.82611 14.1785 4.82611 12.9231Z" fill="#C94040"/>
<path d="M23.087 11.0769C24.2922 11.0769 25.4974 11.0769 26.7391 11.0769C26.7391 11.6861 26.7391 12.2954 26.7391 12.9231C25.5339 12.9231 24.3287 12.9231 23.087 12.9231C23.087 12.3138 23.087 11.7046 23.087 11.0769Z" fill="#9B0000"/>
<path d="M35.8696 7.38464C37.0748 7.38464 38.28 7.38464 39.5217 7.38464C39.5217 7.99387 39.5217 8.60311 39.5217 9.2308C38.3165 9.2308 37.1113 9.2308 35.8696 9.2308C35.8696 8.62157 35.8696 8.01234 35.8696 7.38464Z" fill="black"/>
<path d="M8.47827 7.38464C9.68349 7.38464 10.8887 7.38464 12.1304 7.38464C12.1304 7.99387 12.1304 8.60311 12.1304 9.2308C10.9252 9.2308 9.72001 9.2308 8.47827 9.2308C8.47827 8.62157 8.47827 8.01234 8.47827 7.38464Z" fill="black"/>
<path d="M32.2174 5.53845C33.4226 5.53845 34.6278 5.53845 35.8696 5.53845C35.8696 6.14768 35.8696 6.75691 35.8696 7.38461C34.6644 7.38461 33.4591 7.38461 32.2174 7.38461C32.2174 6.77538 32.2174 6.16614 32.2174 5.53845Z" fill="black"/>
<path d="M12.1304 5.53845C13.3356 5.53845 14.5409 5.53845 15.7826 5.53845C15.7826 6.14768 15.7826 6.75691 15.7826 7.38461C14.5774 7.38461 13.3722 7.38461 12.1304 7.38461C12.1304 6.77538 12.1304 6.16614 12.1304 5.53845Z" fill="black"/>
<path d="M28.5652 3.69226C29.7705 3.69226 30.9757 3.69226 32.2174 3.69226C32.2174 4.30149 32.2174 4.91072 32.2174 5.53841C31.0122 5.53841 29.807 5.53841 28.5652 5.53841C28.5652 4.92918 28.5652 4.31995 28.5652 3.69226Z" fill="black"/>
<path d="M15.7826 3.69226C16.9878 3.69226 18.193 3.69226 19.4348 3.69226C19.4348 4.30149 19.4348 4.91072 19.4348 5.53841C18.2295 5.53841 17.0243 5.53841 15.7826 5.53841C15.7826 4.92918 15.7826 4.31995 15.7826 3.69226Z" fill="black"/>
<path d="M26.7391 44.3077C27.3417 44.3077 27.9444 44.3077 28.5652 44.3077C28.5652 44.917 28.5652 45.5262 28.5652 46.1539C27.9626 46.1539 27.36 46.1539 26.7391 46.1539C26.7391 45.5447 26.7391 44.9354 26.7391 44.3077Z" fill="black"/>
<path d="M24.913 44.3077C25.5156 44.3077 26.1182 44.3077 26.7391 44.3077C26.7391 44.917 26.7391 45.5262 26.7391 46.1539C26.1365 46.1539 25.5339 46.1539 24.913 46.1539C24.913 45.5447 24.913 44.9354 24.913 44.3077Z" fill="#9B0000"/>
<path d="M23.087 44.3077C23.6896 44.3077 24.2922 44.3077 24.9131 44.3077C24.9131 44.917 24.9131 45.5262 24.9131 46.1539C24.3105 46.1539 23.7078 46.1539 23.087 46.1539C23.087 45.5447 23.087 44.9354 23.087 44.3077Z" fill="#C94040"/>
<path d="M19.4348 44.3077C20.0374 44.3077 20.64 44.3077 21.2608 44.3077C21.2608 44.917 21.2608 45.5262 21.2608 46.1539C20.6582 46.1539 20.0556 46.1539 19.4348 46.1539C19.4348 45.5447 19.4348 44.9354 19.4348 44.3077Z" fill="black"/>
<path d="M26.7391 42.4615C27.3417 42.4615 27.9444 42.4615 28.5652 42.4615C28.5652 43.0708 28.5652 43.68 28.5652 44.3077C27.9626 44.3077 27.36 44.3077 26.7391 44.3077C26.7391 43.6985 26.7391 43.0892 26.7391 42.4615Z" fill="#9B0000"/>
<path d="M24.913 42.4615C25.5156 42.4615 26.1182 42.4615 26.7391 42.4615C26.7391 43.0708 26.7391 43.68 26.7391 44.3077C26.1365 44.3077 25.5339 44.3077 24.913 44.3077C24.913 43.6985 24.913 43.0892 24.913 42.4615Z" fill="#C94040"/>
<path d="M21.2609 42.4615C21.8635 42.4615 22.4661 42.4615 23.087 42.4615C23.087 43.0708 23.087 43.68 23.087 44.3077C22.4843 44.3077 21.8817 44.3077 21.2609 44.3077C21.2609 43.6985 21.2609 43.0892 21.2609 42.4615Z" fill="#C94040"/>
<path d="M19.4348 42.4615C20.0374 42.4615 20.64 42.4615 21.2608 42.4615C21.2608 43.0708 21.2608 43.68 21.2608 44.3077C20.6582 44.3077 20.0556 44.3077 19.4348 44.3077C19.4348 43.6985 19.4348 43.0892 19.4348 42.4615Z" fill="#7D0000"/>
<path d="M30.3913 40.6154C30.9939 40.6154 31.5965 40.6154 32.2174 40.6154C32.2174 41.2246 32.2174 41.8338 32.2174 42.4615C31.6148 42.4615 31.0122 42.4615 30.3913 42.4615C30.3913 41.8523 30.3913 41.243 30.3913 40.6154Z" fill="#7D0000"/>
<path d="M28.5652 40.6154C29.1679 40.6154 29.7705 40.6154 30.3913 40.6154C30.3913 41.2246 30.3913 41.8338 30.3913 42.4615C29.7887 42.4615 29.1861 42.4615 28.5652 42.4615C28.5652 41.8523 28.5652 41.243 28.5652 40.6154Z" fill="#9B0000"/>
<path d="M26.7391 40.6154C27.3417 40.6154 27.9444 40.6154 28.5652 40.6154C28.5652 41.2246 28.5652 41.8338 28.5652 42.4615C27.9626 42.4615 27.36 42.4615 26.7391 42.4615C26.7391 41.8523 26.7391 41.243 26.7391 40.6154Z" fill="#C94040"/>
<path d="M19.4348 40.6154C20.0374 40.6154 20.64 40.6154 21.2608 40.6154C21.2608 41.2246 21.2608 41.8338 21.2608 42.4615C20.6582 42.4615 20.0556 42.4615 19.4348 42.4615C19.4348 41.8523 19.4348 41.243 19.4348 40.6154Z" fill="#C94040"/>
<path d="M34.0435 38.7693C34.6461 38.7693 35.2487 38.7693 35.8695 38.7693C35.8695 39.3785 35.8695 39.9877 35.8695 40.6154C35.2669 40.6154 34.6643 40.6154 34.0435 40.6154C34.0435 40.0062 34.0435 39.397 34.0435 38.7693Z" fill="#7D0000"/>
<path d="M28.5652 38.7693C29.1679 38.7693 29.7705 38.7693 30.3913 38.7693C30.3913 39.3785 30.3913 39.9877 30.3913 40.6154C29.7887 40.6154 29.1861 40.6154 28.5652 40.6154C28.5652 40.0062 28.5652 39.397 28.5652 38.7693Z" fill="#C94040"/>
<path d="M17.6087 38.7693C18.2113 38.7693 18.8139 38.7693 19.4348 38.7693C19.4348 39.3785 19.4348 39.9877 19.4348 40.6154C18.8322 40.6154 18.2296 40.6154 17.6087 40.6154C17.6087 40.0062 17.6087 39.397 17.6087 38.7693Z" fill="#C94040"/>
<path d="M39.5217 36.9231C40.1243 36.9231 40.7269 36.9231 41.3478 36.9231C41.3478 37.5323 41.3478 38.1416 41.3478 38.7692C40.7452 38.7692 40.1426 38.7692 39.5217 38.7692C39.5217 38.16 39.5217 37.5508 39.5217 36.9231Z" fill="black"/>
<path d="M37.6957 36.9231C38.2983 36.9231 38.9009 36.9231 39.5218 36.9231C39.5218 37.5323 39.5218 38.1416 39.5218 38.7692C38.9192 38.7692 38.3165 38.7692 37.6957 38.7692C37.6957 38.16 37.6957 37.5508 37.6957 36.9231Z" fill="#7D0000"/>
<path d="M6.65216 36.9231C7.25477 36.9231 7.85738 36.9231 8.47825 36.9231C8.47825 37.5323 8.47825 38.1416 8.47825 38.7692C7.87564 38.7692 7.27303 38.7692 6.65216 38.7692C6.65216 38.16 6.65216 37.5508 6.65216 36.9231Z" fill="black"/>
<path d="M41.3478 35.0769C41.9504 35.0769 42.5531 35.0769 43.1739 35.0769C43.1739 35.6861 43.1739 36.2954 43.1739 36.9231C42.5713 36.9231 41.9687 36.9231 41.3478 36.9231C41.3478 36.3138 41.3478 35.7046 41.3478 35.0769Z" fill="black"/>
<path d="M4.82611 35.0769C5.42872 35.0769 6.03133 35.0769 6.6522 35.0769C6.6522 35.6861 6.6522 36.2954 6.6522 36.9231C6.04959 36.9231 5.44698 36.9231 4.82611 36.9231C4.82611 36.3138 4.82611 35.7046 4.82611 35.0769Z" fill="black"/>
<path d="M41.3478 33.2307C41.9504 33.2307 42.5531 33.2307 43.1739 33.2307C43.1739 33.8399 43.1739 34.4492 43.1739 35.0769C42.5713 35.0769 41.9687 35.0769 41.3478 35.0769C41.3478 34.4676 41.3478 33.8584 41.3478 33.2307Z" fill="#9B0000"/>
<path d="M32.2174 33.2307C32.82 33.2307 33.4226 33.2307 34.0435 33.2307C34.0435 33.8399 34.0435 34.4492 34.0435 35.0769C33.4409 35.0769 32.8383 35.0769 32.2174 35.0769C32.2174 34.4676 32.2174 33.8584 32.2174 33.2307Z" fill="#C94040"/>
<path d="M13.9565 33.2307C14.5592 33.2307 15.1618 33.2307 15.7826 33.2307C15.7826 33.8399 15.7826 34.4492 15.7826 35.0769C15.18 35.0769 14.5774 35.0769 13.9565 35.0769C13.9565 34.4676 13.9565 33.8584 13.9565 33.2307Z" fill="#C94040"/>
<path d="M6.65216 33.2307C7.25477 33.2307 7.85738 33.2307 8.47825 33.2307C8.47825 33.8399 8.47825 34.4492 8.47825 35.0769C7.87564 35.0769 7.27303 35.0769 6.65216 35.0769C6.65216 34.4676 6.65216 33.8584 6.65216 33.2307Z" fill="#9B0000"/>
<path d="M39.5217 31.3846C40.1243 31.3846 40.7269 31.3846 41.3478 31.3846C41.3478 31.9939 41.3478 32.6031 41.3478 33.2308C40.7452 33.2308 40.1426 33.2308 39.5217 33.2308C39.5217 32.6216 39.5217 32.0123 39.5217 31.3846Z" fill="#9B0000"/>
<path d="M34.0435 31.3846C34.6461 31.3846 35.2487 31.3846 35.8695 31.3846C35.8695 31.9939 35.8695 32.6031 35.8695 33.2308C35.2669 33.2308 34.6643 33.2308 34.0435 33.2308C34.0435 32.6216 34.0435 32.0123 34.0435 31.3846Z" fill="#C94040"/>
<path d="M12.1304 31.3846C12.733 31.3846 13.3356 31.3846 13.9565 31.3846C13.9565 31.9939 13.9565 32.6031 13.9565 33.2308C13.3539 33.2308 12.7513 33.2308 12.1304 33.2308C12.1304 32.6216 12.1304 32.0123 12.1304 31.3846Z" fill="#C94040"/>
<path d="M8.47827 31.3846C9.08088 31.3846 9.68349 31.3846 10.3044 31.3846C10.3044 31.9939 10.3044 32.6031 10.3044 33.2308C9.70175 33.2308 9.09914 33.2308 8.47827 33.2308C8.47827 32.6216 8.47827 32.0123 8.47827 31.3846Z" fill="#9B0000"/>
<path d="M37.6957 29.5385C38.2983 29.5385 38.9009 29.5385 39.5218 29.5385C39.5218 30.1477 39.5218 30.7569 39.5218 31.3846C38.9192 31.3846 38.3165 31.3846 37.6957 31.3846C37.6957 30.7754 37.6957 30.1661 37.6957 29.5385Z" fill="#9B0000"/>
<path d="M10.3043 29.5385C10.9069 29.5385 11.5095 29.5385 12.1304 29.5385C12.1304 30.1477 12.1304 30.7569 12.1304 31.3846C11.5278 31.3846 10.9252 31.3846 10.3043 31.3846C10.3043 30.7754 10.3043 30.1661 10.3043 29.5385Z" fill="#9B0000"/>
<path d="M35.8696 27.6923C36.4722 27.6923 37.0748 27.6923 37.6957 27.6923C37.6957 28.3015 37.6957 28.9107 37.6957 29.5384C37.093 29.5384 36.4904 29.5384 35.8696 29.5384C35.8696 28.9292 35.8696 28.32 35.8696 27.6923Z" fill="#9B0000"/>
<path d="M23.087 27.6923C23.6896 27.6923 24.2922 27.6923 24.9131 27.6923C24.9131 28.3015 24.9131 28.9107 24.9131 29.5384C24.3105 29.5384 23.7078 29.5384 23.087 29.5384C23.087 28.9292 23.087 28.32 23.087 27.6923Z" fill="#C94040"/>
<path d="M12.1304 27.6923C12.733 27.6923 13.3356 27.6923 13.9565 27.6923C13.9565 28.3015 13.9565 28.9107 13.9565 29.5384C13.3539 29.5384 12.7513 29.5384 12.1304 29.5384C12.1304 28.9292 12.1304 28.32 12.1304 27.6923Z" fill="#C94040"/>
<path d="M24.913 25.8462C25.5156 25.8462 26.1182 25.8462 26.7391 25.8462C26.7391 26.4554 26.7391 27.0647 26.7391 27.6923C26.1365 27.6923 25.5339 27.6923 24.913 27.6923C24.913 27.0831 24.913 26.4739 24.913 25.8462Z" fill="#C94040"/>
<path d="M23.087 25.8462C23.6896 25.8462 24.2922 25.8462 24.9131 25.8462C24.9131 26.4554 24.9131 27.0647 24.9131 27.6923C24.3105 27.6923 23.7078 27.6923 23.087 27.6923C23.087 27.0831 23.087 26.4739 23.087 25.8462Z" fill="#C38015"/>
<path d="M21.2609 25.8462C21.8635 25.8462 22.4661 25.8462 23.087 25.8462C23.087 26.4554 23.087 27.0647 23.087 27.6923C22.4843 27.6923 21.8817 27.6923 21.2609 27.6923C21.2609 27.0831 21.2609 26.4739 21.2609 25.8462Z" fill="#C94040"/>
<path d="M8.47827 24C9.08088 24 9.68349 24 10.3044 24C10.3044 24.6092 10.3044 25.2185 10.3044 25.8462C9.70175 25.8462 9.09914 25.8462 8.47827 25.8462C8.47827 25.2369 8.47827 24.6277 8.47827 24Z" fill="#9B0000"/>
<path d="M30.3913 22.1538C30.9939 22.1538 31.5965 22.1538 32.2174 22.1538C32.2174 22.763 32.2174 23.3723 32.2174 24C31.6148 24 31.0122 24 30.3913 24C30.3913 23.3907 30.3913 22.7815 30.3913 22.1538Z" fill="#7D0000"/>
<path d="M26.7391 22.1538C27.3417 22.1538 27.9444 22.1538 28.5652 22.1538C28.5652 22.763 28.5652 23.3723 28.5652 24C27.9626 24 27.36 24 26.7391 24C26.7391 23.3907 26.7391 22.7815 26.7391 22.1538Z" fill="#C94040"/>
<path d="M23.087 22.1538C23.6896 22.1538 24.2922 22.1538 24.9131 22.1538C24.9131 22.763 24.9131 23.3723 24.9131 24C24.3105 24 23.7078 24 23.087 24C23.087 23.3907 23.087 22.7815 23.087 22.1538Z" fill="#292929"/>
<path d="M19.4348 22.1538C20.0374 22.1538 20.64 22.1538 21.2608 22.1538C21.2608 22.763 21.2608 23.3723 21.2608 24C20.6582 24 20.0556 24 19.4348 24C19.4348 23.3907 19.4348 22.7815 19.4348 22.1538Z" fill="#7D0000"/>
<path d="M15.7826 22.1538C16.3852 22.1538 16.9878 22.1538 17.6087 22.1538C17.6087 22.763 17.6087 23.3723 17.6087 24C17.0061 24 16.4035 24 15.7826 24C15.7826 23.3907 15.7826 22.7815 15.7826 22.1538Z" fill="#C94040"/>
<path d="M10.3043 22.1538C10.9069 22.1538 11.5095 22.1538 12.1304 22.1538C12.1304 22.763 12.1304 23.3723 12.1304 24C11.5278 24 10.9252 24 10.3043 24C10.3043 23.3907 10.3043 22.7815 10.3043 22.1538Z" fill="#7D0000"/>
<path d="M24.913 20.3077C25.5156 20.3077 26.1182 20.3077 26.7391 20.3077C26.7391 20.917 26.7391 21.5262 26.7391 22.1539C26.1365 22.1539 25.5339 22.1539 24.913 22.1539C24.913 21.5447 24.913 20.9354 24.913 20.3077Z" fill="#EBB052"/>
<path d="M21.2609 20.3077C21.8635 20.3077 22.4661 20.3077 23.087 20.3077C23.087 20.917 23.087 21.5262 23.087 22.1539C22.4843 22.1539 21.8817 22.1539 21.2609 22.1539C21.2609 21.5447 21.2609 20.9354 21.2609 20.3077Z" fill="#D28C1D"/>
<path d="M6.65216 20.3077C7.25477 20.3077 7.85738 20.3077 8.47825 20.3077C8.47825 20.917 8.47825 21.5262 8.47825 22.1539C7.87564 22.1539 7.27303 22.1539 6.65216 22.1539C6.65216 21.5447 6.65216 20.9354 6.65216 20.3077Z" fill="#9B0000"/>
<path d="M24.913 18.4615C25.5156 18.4615 26.1182 18.4615 26.7391 18.4615C26.7391 19.0708 26.7391 19.68 26.7391 20.3077C26.1365 20.3077 25.5339 20.3077 24.913 20.3077C24.913 19.6985 24.913 19.0892 24.913 18.4615Z" fill="#7D0000"/>
<path d="M23.087 18.4615C23.6896 18.4615 24.2922 18.4615 24.9131 18.4615C24.9131 19.0708 24.9131 19.68 24.9131 20.3077C24.3105 20.3077 23.7078 20.3077 23.087 20.3077C23.087 19.6985 23.087 19.0892 23.087 18.4615Z" fill="#EBB052"/>
<path d="M21.2609 18.4615C21.8635 18.4615 22.4661 18.4615 23.087 18.4615C23.087 19.0708 23.087 19.68 23.087 20.3077C22.4843 20.3077 21.8817 20.3077 21.2609 20.3077C21.2609 19.6985 21.2609 19.0892 21.2609 18.4615Z" fill="#7D0000"/>
<path d="M8.47827 18.4615C9.08088 18.4615 9.68349 18.4615 10.3044 18.4615C10.3044 19.0708 10.3044 19.68 10.3044 20.3077C9.70175 20.3077 9.09914 20.3077 8.47827 20.3077C8.47827 19.6985 8.47827 19.0892 8.47827 18.4615Z" fill="#7D0000"/>
<path d="M26.7391 16.6154C27.3417 16.6154 27.9444 16.6154 28.5652 16.6154C28.5652 17.2246 28.5652 17.8338 28.5652 18.4615C27.9626 18.4615 27.36 18.4615 26.7391 18.4615C26.7391 17.8523 26.7391 17.243 26.7391 16.6154Z" fill="#7D0000"/>
<path d="M23.087 16.6154C23.6896 16.6154 24.2922 16.6154 24.9131 16.6154C24.9131 17.2246 24.9131 17.8338 24.9131 18.4615C24.3105 18.4615 23.7078 18.4615 23.087 18.4615C23.087 17.8523 23.087 17.243 23.087 16.6154Z" fill="#7D0000"/>
<path d="M19.4348 16.6154C20.0374 16.6154 20.64 16.6154 21.2608 16.6154C21.2608 17.2246 21.2608 17.8338 21.2608 18.4615C20.6582 18.4615 20.0556 18.4615 19.4348 18.4615C19.4348 17.8523 19.4348 17.243 19.4348 16.6154Z" fill="#C94040"/>
<path d="M6.65216 14.7693C7.25477 14.7693 7.85738 14.7693 8.47825 14.7693C8.47825 15.3785 8.47825 15.9877 8.47825 16.6154C7.87564 16.6154 7.27303 16.6154 6.65216 16.6154C6.65216 16.0062 6.65216 15.397 6.65216 14.7693Z" fill="#7D0000"/>
<path d="M41.3478 11.0769C41.9504 11.0769 42.5531 11.0769 43.1739 11.0769C43.1739 11.6861 43.1739 12.2954 43.1739 12.9231C42.5713 12.9231 41.9687 12.9231 41.3478 12.9231C41.3478 12.3138 41.3478 11.7046 41.3478 11.0769Z" fill="black"/>
<path d="M23.087 11.0769C23.6896 11.0769 24.2922 11.0769 24.9131 11.0769C24.9131 11.6861 24.9131 12.2954 24.9131 12.9231C24.3105 12.9231 23.7078 12.9231 23.087 12.9231C23.087 12.3138 23.087 11.7046 23.087 11.0769Z" fill="#C94040"/>
<path d="M4.82611 11.0769C5.42872 11.0769 6.03133 11.0769 6.6522 11.0769C6.6522 11.6861 6.6522 12.2954 6.6522 12.9231C6.04959 12.9231 5.44698 12.9231 4.82611 12.9231C4.82611 12.3138 4.82611 11.7046 4.82611 11.0769Z" fill="black"/>
<path d="M39.5217 9.23071C40.1243 9.23071 40.7269 9.23071 41.3478 9.23071C41.3478 9.83994 41.3478 10.4492 41.3478 11.0769C40.7452 11.0769 40.1426 11.0769 39.5217 11.0769C39.5217 10.4676 39.5217 9.85841 39.5217 9.23071Z" fill="black"/>
<path d="M23.087 9.23071C23.6896 9.23071 24.2922 9.23071 24.9131 9.23071C24.9131 9.83994 24.9131 10.4492 24.9131 11.0769C24.3105 11.0769 23.7078 11.0769 23.087 11.0769C23.087 10.4676 23.087 9.85841 23.087 9.23071Z" fill="#9B0000"/>
<path d="M6.65216 9.23071C7.25477 9.23071 7.85738 9.23071 8.47825 9.23071C8.47825 9.83994 8.47825 10.4492 8.47825 11.0769C7.87564 11.0769 7.27303 11.0769 6.65216 11.0769C6.65216 10.4676 6.65216 9.85841 6.65216 9.23071Z" fill="black"/>
<path d="M12.1304 7.38464C12.733 7.38464 13.3356 7.38464 13.9565 7.38464C13.9565 7.99387 13.9565 8.60311 13.9565 9.2308C13.3539 9.2308 12.7513 9.2308 12.1304 9.2308C12.1304 8.62157 12.1304 8.01234 12.1304 7.38464Z" fill="#7D0000"/>
<path d="M15.7826 5.53845C16.3852 5.53845 16.9878 5.53845 17.6087 5.53845C17.6087 6.14768 17.6087 6.75691 17.6087 7.38461C17.0061 7.38461 16.4035 7.38461 15.7826 7.38461C15.7826 6.77538 15.7826 6.16614 15.7826 5.53845Z" fill="#7D0000"/>
<path d="M26.7391 1.84619C27.3417 1.84619 27.9444 1.84619 28.5652 1.84619C28.5652 2.45542 28.5652 3.06465 28.5652 3.69235C27.9626 3.69235 27.36 3.69235 26.7391 3.69235C26.7391 3.08311 26.7391 2.47388 26.7391 1.84619Z" fill="black"/>
<path d="M19.4348 1.84619C20.0374 1.84619 20.64 1.84619 21.2608 1.84619C21.2608 2.45542 21.2608 3.06465 21.2608 3.69235C20.6582 3.69235 20.0556 3.69235 19.4348 3.69235C19.4348 3.08311 19.4348 2.47388 19.4348 1.84619Z" fill="black"/>
<path d="M51.4 0C54.436 0 57.472 0 60.6 0C60.6 0.754286 60.6 1.50857 60.6 2.28571C61.359 2.28571 62.118 2.28571 62.9 2.28571C62.9 3.79429 62.9 5.30286 62.9 6.85714C63.659 6.85714 64.418 6.85714 65.2 6.85714C65.2 6.10286 65.2 5.34857 65.2 4.57143C65.959 4.57143 66.718 4.57143 67.5 4.57143C67.5 3.81714 67.5 3.06286 67.5 2.28571C69.018 2.28571 70.536 2.28571 72.1 2.28571C72.1 3.04 72.1 3.79429 72.1 4.57143C72.859 4.57143 73.618 4.57143 74.4 4.57143C74.4 5.32571 74.4 6.08 74.4 6.85714C75.159 6.85714 75.918 6.85714 76.7 6.85714C76.7 7.61143 76.7 8.36572 76.7 9.14286C77.459 9.14286 78.218 9.14286 79 9.14286C79 13.6686 79 18.1943 79 22.8571C78.241 22.8571 77.482 22.8571 76.7 22.8571C76.7 23.6114 76.7 24.3657 76.7 25.1429C75.941 25.1429 75.182 25.1429 74.4 25.1429C74.4 26.6514 74.4 28.16 74.4 29.7143C75.159 29.7143 75.918 29.7143 76.7 29.7143C76.7 30.4686 76.7 31.2229 76.7 32C77.459 32 78.218 32 79 32C79 35.7714 79 39.5429 79 43.4286C78.241 43.4286 77.482 43.4286 76.7 43.4286C76.7 44.1829 76.7 44.9371 76.7 45.7143C74.423 45.7143 72.146 45.7143 69.8 45.7143C69.8 46.4686 69.8 47.2229 69.8 48C60.692 48 51.584 48 42.2 48C42.2 47.2457 42.2 46.4914 42.2 45.7143C39.923 45.7143 37.646 45.7143 35.3 45.7143C35.3 44.96 35.3 44.2057 35.3 43.4286C34.541 43.4286 33.782 43.4286 33 43.4286C33 39.6571 33 35.8857 33 32C33.759 32 34.518 32 35.3 32C35.3 31.2457 35.3 30.4914 35.3 29.7143C36.059 29.7143 36.818 29.7143 37.6 29.7143C37.6 28.2057 37.6 26.6971 37.6 25.1429C36.841 25.1429 36.082 25.1429 35.3 25.1429C35.3 24.3886 35.3 23.6343 35.3 22.8571C34.541 22.8571 33.782 22.8571 33 22.8571C33 18.3314 33 13.8057 33 9.14286C33.759 9.14286 34.518 9.14286 35.3 9.14286C35.3 8.38857 35.3 7.63429 35.3 6.85714C36.059 6.85714 36.818 6.85714 37.6 6.85714C37.6 6.10286 37.6 5.34857 37.6 4.57143C38.359 4.57143 39.118 4.57143 39.9 4.57143C39.9 3.81714 39.9 3.06286 39.9 2.28571C41.418 2.28571 42.936 2.28571 44.5 2.28571C44.5 3.04 44.5 3.79429 44.5 4.57143C45.259 4.57143 46.018 4.57143 46.8 4.57143C46.8 5.32571 46.8 6.08 46.8 6.85714C47.559 6.85714 48.318 6.85714 49.1 6.85714C49.1 5.34857 49.1 3.84 49.1 2.28571C49.859 2.28571 50.618 2.28571 51.4 2.28571C51.4 1.53143 51.4 0.777143 51.4 0Z" fill="#C38015"/>
<path d="M39.9 2.28577C41.418 2.28577 42.936 2.28577 44.5 2.28577C44.5 3.04005 44.5 3.79434 44.5 4.57148C45.259 4.57148 46.018 4.57148 46.8 4.57148C46.8 5.32577 46.8 6.08005 46.8 6.8572C47.559 6.8572 48.318 6.8572 49.1 6.8572C49.1 7.61148 49.1 8.36577 49.1 9.14291C47.582 9.14291 46.064 9.14291 44.5 9.14291C44.5 9.8972 44.5 10.6515 44.5 11.4286C43.741 11.4286 42.982 11.4286 42.2 11.4286C42.2 12.1829 42.2 12.9372 42.2 13.7143C41.441 13.7143 40.682 13.7143 39.9 13.7143C39.9 15.9772 39.9 18.2401 39.9 20.5715C42.177 20.5715 44.454 20.5715 46.8 20.5715C46.8 21.3258 46.8 22.0801 46.8 22.8572C48.318 22.8572 49.836 22.8572 51.4 22.8572C51.4 23.6115 51.4 24.3658 51.4 25.1429C47.605 25.1429 43.81 25.1429 39.9 25.1429C39.9 31.1772 39.9 37.2115 39.9 43.4286C41.418 43.4286 42.936 43.4286 44.5 43.4286C44.5 41.1658 44.5 38.9029 44.5 36.5715C45.259 36.5715 46.018 36.5715 46.8 36.5715C46.8 38.8343 46.8 41.0972 46.8 43.4286C48.318 43.4286 49.836 43.4286 51.4 43.4286C51.4 44.1829 51.4 44.9372 51.4 45.7143C54.436 45.7143 57.472 45.7143 60.6 45.7143C60.6 44.9601 60.6 44.2058 60.6 43.4286C62.118 43.4286 63.636 43.4286 65.2 43.4286C65.2 41.1658 65.2 38.9029 65.2 36.5715C65.959 36.5715 66.718 36.5715 67.5 36.5715C67.5 38.0801 67.5 39.5886 67.5 41.1429C68.259 41.1429 69.018 41.1429 69.8 41.1429C69.8 39.6343 69.8 38.1258 69.8 36.5715C70.559 36.5715 71.318 36.5715 72.1 36.5715C72.1 32.0458 72.1 27.5201 72.1 22.8572C69.823 22.8572 67.546 22.8572 65.2 22.8572C65.2 22.1029 65.2 21.3486 65.2 20.5715C67.477 20.5715 69.754 20.5715 72.1 20.5715C72.1 18.3086 72.1 16.0458 72.1 13.7143C71.341 13.7143 70.582 13.7143 69.8 13.7143C69.8 12.9601 69.8 12.2058 69.8 11.4286C69.041 11.4286 68.282 11.4286 67.5 11.4286C67.5 10.6743 67.5 9.92005 67.5 9.14291C65.982 9.14291 64.464 9.14291 62.9 9.14291C62.9 8.38862 62.9 7.63434 62.9 6.8572C63.659 6.8572 64.418 6.8572 65.2 6.8572C65.2 6.10291 65.2 5.34862 65.2 4.57148C65.959 4.57148 66.718 4.57148 67.5 4.57148C67.5 3.8172 67.5 3.06291 67.5 2.28577C69.018 2.28577 70.536 2.28577 72.1 2.28577C72.1 3.04005 72.1 3.79434 72.1 4.57148C72.859 4.57148 73.618 4.57148 74.4 4.57148C74.4 5.32577 74.4 6.08005 74.4 6.8572C75.159 6.8572 75.918 6.8572 76.7 6.8572C76.7 7.61148 76.7 8.36577 76.7 9.14291C77.459 9.14291 78.218 9.14291 79 9.14291C79 13.6686 79 18.1943 79 22.8572C78.241 22.8572 77.482 22.8572 76.7 22.8572C76.7 23.6115 76.7 24.3658 76.7 25.1429C75.941 25.1429 75.182 25.1429 74.4 25.1429C74.4 26.6515 74.4 28.1601 74.4 29.7143C75.159 29.7143 75.918 29.7143 76.7 29.7143C76.7 30.4686 76.7 31.2229 76.7 32.0001C77.459 32.0001 78.218 32.0001 79 32.0001C79 35.7715 79 39.5429 79 43.4286C78.241 43.4286 77.482 43.4286 76.7 43.4286C76.7 44.1829 76.7 44.9372 76.7 45.7143C74.423 45.7143 72.146 45.7143 69.8 45.7143C69.8 46.4686 69.8 47.2229 69.8 48.0001C60.692 48.0001 51.584 48.0001 42.2 48.0001C42.2 47.2458 42.2 46.4915 42.2 45.7143C39.923 45.7143 37.646 45.7143 35.3 45.7143C35.3 44.9601 35.3 44.2058 35.3 43.4286C34.541 43.4286 33.782 43.4286 33 43.4286C33 39.6572 33 35.8858 33 32.0001C33.759 32.0001 34.518 32.0001 35.3 32.0001C35.3 31.2458 35.3 30.4915 35.3 29.7143C36.059 29.7143 36.818 29.7143 37.6 29.7143C37.6 28.2058 37.6 26.6972 37.6 25.1429C36.841 25.1429 36.082 25.1429 35.3 25.1429C35.3 24.3886 35.3 23.6343 35.3 22.8572C34.541 22.8572 33.782 22.8572 33 22.8572C33 18.3315 33 13.8058 33 9.14291C33.759 9.14291 34.518 9.14291 35.3 9.14291C35.3 8.38862 35.3 7.63434 35.3 6.8572C36.059 6.8572 36.818 6.8572 37.6 6.8572C37.6 6.10291 37.6 5.34862 37.6 4.57148C38.359 4.57148 39.118 4.57148 39.9 4.57148C39.9 3.8172 39.9 3.06291 39.9 2.28577Z" fill="black"/>
<path d="M67.5 2.28577C69.018 2.28577 70.536 2.28577 72.1 2.28577C72.1 3.04005 72.1 3.79434 72.1 4.57148C72.859 4.57148 73.618 4.57148 74.4 4.57148C74.4 5.32577 74.4 6.08005 74.4 6.85719C75.159 6.85719 75.918 6.85719 76.7 6.85719C76.7 7.61148 76.7 8.36577 76.7 9.14291C77.459 9.14291 78.218 9.14291 79 9.14291C79 13.6686 79 18.1943 79 22.8572C78.241 22.8572 77.482 22.8572 76.7 22.8572C76.7 23.6115 76.7 24.3658 76.7 25.1429C75.941 25.1429 75.182 25.1429 74.4 25.1429C74.4 26.6515 74.4 28.1601 74.4 29.7143C75.159 29.7143 75.918 29.7143 76.7 29.7143C76.7 30.4686 76.7 31.2229 76.7 32C77.459 32 78.218 32 79 32C79 35.7715 79 39.5429 79 43.4286C78.241 43.4286 77.482 43.4286 76.7 43.4286C76.7 44.1829 76.7 44.9372 76.7 45.7143C71.387 45.7143 66.074 45.7143 60.6 45.7143C60.6 44.96 60.6 44.2058 60.6 43.4286C62.118 43.4286 63.636 43.4286 65.2 43.4286C65.2 41.1658 65.2 38.9029 65.2 36.5715C65.959 36.5715 66.718 36.5715 67.5 36.5715C67.5 38.0801 67.5 39.5886 67.5 41.1429C68.259 41.1429 69.018 41.1429 69.8 41.1429C69.8 39.6343 69.8 38.1258 69.8 36.5715C70.559 36.5715 71.318 36.5715 72.1 36.5715C72.1 32.0458 72.1 27.5201 72.1 22.8572C69.823 22.8572 67.546 22.8572 65.2 22.8572C65.2 22.1029 65.2 21.3486 65.2 20.5715C67.477 20.5715 69.754 20.5715 72.1 20.5715C72.1 18.3086 72.1 16.0458 72.1 13.7143C71.341 13.7143 70.582 13.7143 69.8 13.7143C69.8 12.9601 69.8 12.2058 69.8 11.4286C69.041 11.4286 68.282 11.4286 67.5 11.4286C67.5 10.6743 67.5 9.92005 67.5 9.14291C65.982 9.14291 64.464 9.14291 62.9 9.14291C62.9 8.38862 62.9 7.63434 62.9 6.85719C63.659 6.85719 64.418 6.85719 65.2 6.85719C65.2 6.10291 65.2 5.34862 65.2 4.57148C65.959 4.57148 66.718 4.57148 67.5 4.57148C67.5 3.8172 67.5 3.06291 67.5 2.28577Z" fill="black"/>
<path d="M51.4 0C54.436 0 57.472 0 60.6 0C60.6 0.754286 60.6 1.50857 60.6 2.28571C61.359 2.28571 62.118 2.28571 62.9 2.28571C62.9 4.54857 62.9 6.81143 62.9 9.14286C64.418 9.14286 65.936 9.14286 67.5 9.14286C67.5 9.89714 67.5 10.6514 67.5 11.4286C68.259 11.4286 69.018 11.4286 69.8 11.4286C69.8 12.1829 69.8 12.9371 69.8 13.7143C70.559 13.7143 71.318 13.7143 72.1 13.7143C72.1 15.9771 72.1 18.24 72.1 20.5714C70.582 20.5714 69.064 20.5714 67.5 20.5714C67.5 19.8171 67.5 19.0629 67.5 18.2857C66.741 18.2857 65.982 18.2857 65.2 18.2857C65.2 17.5314 65.2 16.7771 65.2 16C64.441 16 63.682 16 62.9 16C62.9 15.2457 62.9 14.4914 62.9 13.7143C60.623 13.7143 58.346 13.7143 56 13.7143C56 12.96 56 12.2057 56 11.4286C54.482 11.4286 52.964 11.4286 51.4 11.4286C51.4 10.6743 51.4 9.92 51.4 9.14286C50.641 9.14286 49.882 9.14286 49.1 9.14286C49.1 6.88 49.1 4.61714 49.1 2.28571C49.859 2.28571 50.618 2.28571 51.4 2.28571C51.4 1.53143 51.4 0.777143 51.4 0Z" fill="#CC8719"/>
<path d="M67.5 2.28577C69.018 2.28577 70.536 2.28577 72.1 2.28577C72.1 3.04005 72.1 3.79434 72.1 4.57148C72.859 4.57148 73.618 4.57148 74.4 4.57148C74.4 5.32577 74.4 6.08005 74.4 6.85719C75.159 6.85719 75.918 6.85719 76.7 6.85719C76.7 7.61148 76.7 8.36577 76.7 9.14291C77.459 9.14291 78.218 9.14291 79 9.14291C79 13.6686 79 18.1943 79 22.8572C77.482 22.8572 75.964 22.8572 74.4 22.8572C74.4 19.8401 74.4 16.8229 74.4 13.7143C72.882 13.7143 71.364 13.7143 69.8 13.7143C69.8 12.9601 69.8 12.2058 69.8 11.4286C69.041 11.4286 68.282 11.4286 67.5 11.4286C67.5 10.6743 67.5 9.92005 67.5 9.14291C65.982 9.14291 64.464 9.14291 62.9 9.14291C62.9 8.38862 62.9 7.63434 62.9 6.85719C63.659 6.85719 64.418 6.85719 65.2 6.85719C65.2 6.10291 65.2 5.34862 65.2 4.57148C65.959 4.57148 66.718 4.57148 67.5 4.57148C67.5 3.8172 67.5 3.06291 67.5 2.28577Z" fill="#A6590D"/>
<path d="M39.9 2.28577C41.418 2.28577 42.936 2.28577 44.5 2.28577C44.5 3.04005 44.5 3.79434 44.5 4.57148C45.259 4.57148 46.018 4.57148 46.8 4.57148C46.8 5.32577 46.8 6.08005 46.8 6.85719C47.559 6.85719 48.318 6.85719 49.1 6.85719C49.1 7.61148 49.1 8.36577 49.1 9.14291C47.582 9.14291 46.064 9.14291 44.5 9.14291C44.5 9.89719 44.5 10.6515 44.5 11.4286C43.741 11.4286 42.982 11.4286 42.2 11.4286C42.2 12.1829 42.2 12.9372 42.2 13.7143C40.682 13.7143 39.164 13.7143 37.6 13.7143C37.6 16.7315 37.6 19.7486 37.6 22.8572C36.082 22.8572 34.564 22.8572 33 22.8572C33 18.3315 33 13.8058 33 9.14291C33.759 9.14291 34.518 9.14291 35.3 9.14291C35.3 8.38862 35.3 7.63434 35.3 6.85719C36.059 6.85719 36.818 6.85719 37.6 6.85719C37.6 6.10291 37.6 5.34862 37.6 4.57148C38.359 4.57148 39.118 4.57148 39.9 4.57148C39.9 3.8172 39.9 3.06291 39.9 2.28577Z" fill="#C38015"/>
<path d="M46.8 36.5714C52.872 36.5714 58.944 36.5714 65.2 36.5714C65.2 38.8343 65.2 41.0971 65.2 43.4286C63.682 43.4286 62.164 43.4286 60.6 43.4286C60.6 44.1828 60.6 44.9371 60.6 45.7143C57.564 45.7143 54.528 45.7143 51.4 45.7143C51.4 44.96 51.4 44.2057 51.4 43.4286C49.882 43.4286 48.364 43.4286 46.8 43.4286C46.8 41.1657 46.8 38.9028 46.8 36.5714Z" fill="#D28C1D"/>
<path d="M65.2 22.8572C67.477 22.8572 69.754 22.8572 72.1 22.8572C72.1 27.3829 72.1 31.9086 72.1 36.5715C71.341 36.5715 70.582 36.5715 69.8 36.5715C69.8 38.08 69.8 39.5886 69.8 41.1429C69.041 41.1429 68.282 41.1429 67.5 41.1429C67.5 39.6343 67.5 38.1257 67.5 36.5715C66.741 36.5715 65.982 36.5715 65.2 36.5715C65.2 35.0629 65.2 33.5543 65.2 32C65.959 32 66.718 32 67.5 32C67.5 31.2457 67.5 30.4915 67.5 29.7143C66.741 29.7143 65.982 29.7143 65.2 29.7143C65.2 27.4515 65.2 25.1886 65.2 22.8572Z" fill="#D08A1C"/>
<path d="M51.4 0C54.436 0 57.472 0 60.6 0C60.6 0.754286 60.6 1.50857 60.6 2.28571C61.359 2.28571 62.118 2.28571 62.9 2.28571C62.9 3.79429 62.9 5.30286 62.9 6.85714C58.346 6.85714 53.792 6.85714 49.1 6.85714C49.1 5.34857 49.1 3.84 49.1 2.28571C49.859 2.28571 50.618 2.28571 51.4 2.28571C51.4 1.53143 51.4 0.777143 51.4 0Z" fill="#A6590D"/>
<path d="M46.8 36.5714C48.318 36.5714 49.836 36.5714 51.4 36.5714C51.4 37.3257 51.4 38.08 51.4 38.8571C52.159 38.8571 52.918 38.8571 53.7 38.8571C53.7 39.6114 53.7 40.3657 53.7 41.1428C54.459 41.1428 55.218 41.1428 56 41.1428C56 41.8971 56 42.6514 56 43.4286C56.759 43.4286 57.518 43.4286 58.3 43.4286C58.3 42.6743 58.3 41.92 58.3 41.1428C59.059 41.1428 59.818 41.1428 60.6 41.1428C60.6 42.6514 60.6 44.16 60.6 45.7143C57.564 45.7143 54.528 45.7143 51.4 45.7143C51.4 44.96 51.4 44.2057 51.4 43.4286C49.882 43.4286 48.364 43.4286 46.8 43.4286C46.8 41.1657 46.8 38.9028 46.8 36.5714Z" fill="#C38015"/>
<path d="M33 9.14282C35.277 9.14282 37.554 9.14282 39.9 9.14282C39.9 10.6514 39.9 12.16 39.9 13.7143C39.141 13.7143 38.382 13.7143 37.6 13.7143C37.6 16.7314 37.6 19.7485 37.6 22.8571C36.082 22.8571 34.564 22.8571 33 22.8571C33 18.3314 33 13.8057 33 9.14282Z" fill="#C38015"/>
<path d="M42.2 45.7142C51.308 45.7142 60.416 45.7142 69.8 45.7142C69.8 46.4685 69.8 47.2228 69.8 47.9999C60.692 47.9999 51.584 47.9999 42.2 47.9999C42.2 47.2457 42.2 46.4914 42.2 45.7142Z" fill="black"/>
<path d="M65.2 36.5714C65.959 36.5714 66.718 36.5714 67.5 36.5714C67.5 38.08 67.5 39.5886 67.5 41.1428C68.259 41.1428 69.018 41.1428 69.8 41.1428C69.8 39.6343 69.8 38.1257 69.8 36.5714C70.559 36.5714 71.318 36.5714 72.1 36.5714C72.1 38.8343 72.1 41.0971 72.1 43.4286C71.341 43.4286 70.582 43.4286 69.8 43.4286C69.8 44.1828 69.8 44.9371 69.8 45.7143C66.764 45.7143 63.728 45.7143 60.6 45.7143C60.6 44.96 60.6 44.2057 60.6 43.4286C62.118 43.4286 63.636 43.4286 65.2 43.4286C65.2 41.1657 65.2 38.9028 65.2 36.5714Z" fill="#A6590D"/>
<path d="M74.4 32C75.918 32 77.436 32 79 32C79 35.7714 79 39.5429 79 43.4286C77.482 43.4286 75.964 43.4286 74.4 43.4286C74.4 39.6571 74.4 35.8857 74.4 32Z" fill="#A6590D"/>
<path d="M33 32C34.518 32 36.036 32 37.6 32C37.6 35.7714 37.6 39.5429 37.6 43.4286C36.082 43.4286 34.564 43.4286 33 43.4286C33 39.6571 33 35.8857 33 32Z" fill="#A6590D"/>
<path d="M39.9 29.7142C40.659 29.7142 41.418 29.7142 42.2 29.7142C42.2 31.2228 42.2 32.7314 42.2 34.2857C42.959 34.2857 43.718 34.2857 44.5 34.2857C44.5 37.3028 44.5 40.3199 44.5 43.4285C42.982 43.4285 41.464 43.4285 39.9 43.4285C39.9 38.9028 39.9 34.3771 39.9 29.7142Z" fill="#A6590D"/>
<path d="M46.8 34.2858C52.872 34.2858 58.944 34.2858 65.2 34.2858C65.2 35.0401 65.2 35.7943 65.2 36.5715C59.128 36.5715 53.056 36.5715 46.8 36.5715C46.8 35.8172 46.8 35.0629 46.8 34.2858Z" fill="black"/>
<path d="M67.5 2.28577C69.018 2.28577 70.536 2.28577 72.1 2.28577C72.1 3.04005 72.1 3.79434 72.1 4.57148C72.859 4.57148 73.618 4.57148 74.4 4.57148C74.4 5.32577 74.4 6.08005 74.4 6.8572C72.123 6.8572 69.846 6.8572 67.5 6.8572C67.5 7.61148 67.5 8.36577 67.5 9.14291C65.982 9.14291 64.464 9.14291 62.9 9.14291C62.9 8.38862 62.9 7.63434 62.9 6.8572C63.659 6.8572 64.418 6.8572 65.2 6.8572C65.2 6.10291 65.2 5.34862 65.2 4.57148C65.959 4.57148 66.718 4.57148 67.5 4.57148C67.5 3.8172 67.5 3.06291 67.5 2.28577Z" fill="#C38015"/>
<path d="M49.1 2.28577C49.859 2.28577 50.618 2.28577 51.4 2.28577C51.4 3.04005 51.4 3.79434 51.4 4.57148C54.436 4.57148 57.472 4.57148 60.6 4.57148C60.6 3.8172 60.6 3.06291 60.6 2.28577C61.359 2.28577 62.118 2.28577 62.9 2.28577C62.9 3.79434 62.9 5.30291 62.9 6.8572C58.346 6.8572 53.792 6.8572 49.1 6.8572C49.1 5.34862 49.1 3.84005 49.1 2.28577Z" fill="black"/>
<path d="M44.5 36.5714C45.259 36.5714 46.018 36.5714 46.8 36.5714C46.8 38.8343 46.8 41.0971 46.8 43.4286C48.318 43.4286 49.836 43.4286 51.4 43.4286C51.4 44.1828 51.4 44.9371 51.4 45.7143C48.364 45.7143 45.328 45.7143 42.2 45.7143C42.2 44.96 42.2 44.2057 42.2 43.4286C42.959 43.4286 43.718 43.4286 44.5 43.4286C44.5 41.1657 44.5 38.9028 44.5 36.5714Z" fill="#A6590D"/>
<path d="M76.7 9.14282C77.459 9.14282 78.218 9.14282 79 9.14282C79 13.6685 79 18.1943 79 22.8571C78.241 22.8571 77.482 22.8571 76.7 22.8571C76.7 18.3314 76.7 13.8057 76.7 9.14282Z" fill="black"/>
<path d="M74.4 9.14282C75.159 9.14282 75.918 9.14282 76.7 9.14282C76.7 13.6685 76.7 18.1943 76.7 22.8571C75.941 22.8571 75.182 22.8571 74.4 22.8571C74.4 18.3314 74.4 13.8057 74.4 9.14282Z" fill="#C38015"/>
<path d="M33 9.14282C33.759 9.14282 34.518 9.14282 35.3 9.14282C35.3 13.6685 35.3 18.1943 35.3 22.8571C34.541 22.8571 33.782 22.8571 33 22.8571C33 18.3314 33 13.8057 33 9.14282Z" fill="black"/>
<path d="M76.7 32C77.459 32 78.218 32 79 32C79 35.7714 79 39.5429 79 43.4286C78.241 43.4286 77.482 43.4286 76.7 43.4286C76.7 39.6571 76.7 35.8857 76.7 32Z" fill="black"/>
<path d="M33 32C33.759 32 34.518 32 35.3 32C35.3 35.7714 35.3 39.5429 35.3 43.4286C34.541 43.4286 33.782 43.4286 33 43.4286C33 39.6571 33 35.8857 33 32Z" fill="black"/>
<path d="M60.6 22.8572C62.118 22.8572 63.636 22.8572 65.2 22.8572C65.2 24.3657 65.2 25.8743 65.2 27.4286C62.923 27.4286 60.646 27.4286 58.3 27.4286C58.3 26.6743 58.3 25.92 58.3 25.1429C59.059 25.1429 59.818 25.1429 60.6 25.1429C60.6 24.3886 60.6 23.6343 60.6 22.8572Z" fill="#A6590D"/>
<path d="M53.7 22.8572C54.459 22.8572 55.218 22.8572 56 22.8572C56 24.3657 56 25.8743 56 27.4286C56.759 27.4286 57.518 27.4286 58.3 27.4286C58.3 28.1829 58.3 28.9372 58.3 29.7143C56.782 29.7143 55.264 29.7143 53.7 29.7143C53.7 28.96 53.7 28.2057 53.7 27.4286C52.941 27.4286 52.182 27.4286 51.4 27.4286C51.4 26.6743 51.4 25.92 51.4 25.1429C52.159 25.1429 52.918 25.1429 53.7 25.1429C53.7 24.3886 53.7 23.6343 53.7 22.8572Z" fill="#494949"/>
<path d="M39.9 22.8572C43.695 22.8572 47.49 22.8572 51.4 22.8572C51.4 23.6115 51.4 24.3657 51.4 25.1429C47.605 25.1429 43.81 25.1429 39.9 25.1429C39.9 24.3886 39.9 23.6343 39.9 22.8572Z" fill="#A6590D"/>
<path d="M69.8 13.7142C70.559 13.7142 71.318 13.7142 72.1 13.7142C72.1 15.9771 72.1 18.2399 72.1 20.5714C70.582 20.5714 69.064 20.5714 67.5 20.5714C67.5 19.8171 67.5 19.0628 67.5 18.2857C68.259 18.2857 69.018 18.2857 69.8 18.2857C69.8 16.7771 69.8 15.2685 69.8 13.7142Z" fill="#D28C1D"/>
<path d="M51.4 0C54.436 0 57.472 0 60.6 0C60.6 0.754286 60.6 1.50857 60.6 2.28571C57.564 2.28571 54.528 2.28571 51.4 2.28571C51.4 1.53143 51.4 0.777143 51.4 0Z" fill="black"/>
<path d="M65.2 36.5714C65.959 36.5714 66.718 36.5714 67.5 36.5714C67.5 38.8343 67.5 41.0971 67.5 43.4286C66.741 43.4286 65.982 43.4286 65.2 43.4286C65.2 41.1657 65.2 38.9028 65.2 36.5714Z" fill="black"/>
<path d="M44.5 36.5714C45.259 36.5714 46.018 36.5714 46.8 36.5714C46.8 38.8343 46.8 41.0971 46.8 43.4286C46.041 43.4286 45.282 43.4286 44.5 43.4286C44.5 41.1657 44.5 38.9028 44.5 36.5714Z" fill="black"/>
<path d="M65.2 22.8572C67.477 22.8572 69.754 22.8572 72.1 22.8572C72.1 23.6115 72.1 24.3657 72.1 25.1429C69.823 25.1429 67.546 25.1429 65.2 25.1429C65.2 24.3886 65.2 23.6343 65.2 22.8572Z" fill="#A6590D"/>
<path d="M62.9 13.7142C64.418 13.7142 65.936 13.7142 67.5 13.7142C67.5 15.2228 67.5 16.7314 67.5 18.2857C66.741 18.2857 65.982 18.2857 65.2 18.2857C65.2 17.5314 65.2 16.7771 65.2 15.9999C64.441 15.9999 63.682 15.9999 62.9 15.9999C62.9 15.2457 62.9 14.4914 62.9 13.7142Z" fill="#D28C1D"/>
<path d="M56 11.4286C58.277 11.4286 60.554 11.4286 62.9 11.4286C62.9 12.1829 62.9 12.9372 62.9 13.7143C60.623 13.7143 58.346 13.7143 56 13.7143C56 12.96 56 12.2057 56 11.4286Z" fill="#D28C1D"/>
<path d="M67.5 9.14282C69.018 9.14282 70.536 9.14282 72.1 9.14282C72.1 10.6514 72.1 12.16 72.1 13.7143C71.341 13.7143 70.582 13.7143 69.8 13.7143C69.8 12.96 69.8 12.2057 69.8 11.4285C69.041 11.4285 68.282 11.4285 67.5 11.4285C67.5 10.6743 67.5 9.91997 67.5 9.14282Z" fill="black"/>
<path d="M39.9 9.14282C41.418 9.14282 42.936 9.14282 44.5 9.14282C44.5 9.89711 44.5 10.6514 44.5 11.4285C43.741 11.4285 42.982 11.4285 42.2 11.4285C42.2 12.1828 42.2 12.9371 42.2 13.7143C41.441 13.7143 40.682 13.7143 39.9 13.7143C39.9 12.2057 39.9 10.6971 39.9 9.14282Z" fill="black"/>
<path d="M65.2 4.57141C65.959 4.57141 66.718 4.57141 67.5 4.57141C67.5 6.07998 67.5 7.58855 67.5 9.14284C65.982 9.14284 64.464 9.14284 62.9 9.14284C62.9 8.38855 62.9 7.63427 62.9 6.85713C63.659 6.85713 64.418 6.85713 65.2 6.85713C65.2 6.10284 65.2 5.34855 65.2 4.57141Z" fill="black"/>
<path d="M44.5 4.57141C45.259 4.57141 46.018 4.57141 46.8 4.57141C46.8 5.3257 46.8 6.07998 46.8 6.85713C47.559 6.85713 48.318 6.85713 49.1 6.85713C49.1 7.61141 49.1 8.3657 49.1 9.14284C47.582 9.14284 46.064 9.14284 44.5 9.14284C44.5 7.63427 44.5 6.1257 44.5 4.57141Z" fill="black"/>
<path d="M67.5 36.5714C68.259 36.5714 69.018 36.5714 69.8 36.5714C69.8 38.08 69.8 39.5886 69.8 41.1428C69.041 41.1428 68.282 41.1428 67.5 41.1428C67.5 39.6343 67.5 38.1257 67.5 36.5714Z" fill="#C38015"/>
<path d="M60.6 22.8572C62.118 22.8572 63.636 22.8572 65.2 22.8572C65.2 23.6115 65.2 24.3657 65.2 25.1429C63.682 25.1429 62.164 25.1429 60.6 25.1429C60.6 24.3886 60.6 23.6343 60.6 22.8572Z" fill="black"/>
<path d="M56 22.8572C56.759 22.8572 57.518 22.8572 58.3 22.8572C58.3 24.3657 58.3 25.8743 58.3 27.4286C57.541 27.4286 56.782 27.4286 56 27.4286C56 25.92 56 24.4115 56 22.8572Z" fill="#8F8F8F"/>
<path d="M46.8 22.8572C48.318 22.8572 49.836 22.8572 51.4 22.8572C51.4 23.6115 51.4 24.3657 51.4 25.1429C49.882 25.1429 48.364 25.1429 46.8 25.1429C46.8 24.3886 46.8 23.6343 46.8 22.8572Z" fill="black"/>
<path d="M74.4 18.2858C75.159 18.2858 75.918 18.2858 76.7 18.2858C76.7 19.7943 76.7 21.3029 76.7 22.8572C75.941 22.8572 75.182 22.8572 74.4 22.8572C74.4 21.3486 74.4 19.8401 74.4 18.2858Z" fill="#A6590D"/>
<path d="M35.3 18.2858C36.059 18.2858 36.818 18.2858 37.6 18.2858C37.6 19.7943 37.6 21.3029 37.6 22.8572C36.841 22.8572 36.082 22.8572 35.3 22.8572C35.3 21.3486 35.3 19.8401 35.3 18.2858Z" fill="#A6590D"/>
<path d="M67.5 13.7142C68.259 13.7142 69.018 13.7142 69.8 13.7142C69.8 15.2228 69.8 16.7314 69.8 18.2857C69.041 18.2857 68.282 18.2857 67.5 18.2857C67.5 16.7771 67.5 15.2685 67.5 13.7142Z" fill="#C38015"/>
<path d="M72.1 9.14282C72.859 9.14282 73.618 9.14282 74.4 9.14282C74.4 10.6514 74.4 12.16 74.4 13.7143C73.641 13.7143 72.882 13.7143 72.1 13.7143C72.1 12.2057 72.1 10.6971 72.1 9.14282Z" fill="#A6590D"/>
<path d="M62.9 9.14282C64.418 9.14282 65.936 9.14282 67.5 9.14282C67.5 9.89711 67.5 10.6514 67.5 11.4285C65.982 11.4285 64.464 11.4285 62.9 11.4285C62.9 10.6743 62.9 9.91997 62.9 9.14282Z" fill="#D28C1D"/>
<path d="M44.5 9.14282C46.018 9.14282 47.536 9.14282 49.1 9.14282C49.1 9.89711 49.1 10.6514 49.1 11.4285C47.582 11.4285 46.064 11.4285 44.5 11.4285C44.5 10.6743 44.5 9.91997 44.5 9.14282Z" fill="#D28C1D"/>
<path d="M37.6 9.14282C38.359 9.14282 39.118 9.14282 39.9 9.14282C39.9 10.6514 39.9 12.16 39.9 13.7143C39.141 13.7143 38.382 13.7143 37.6 13.7143C37.6 12.2057 37.6 10.6971 37.6 9.14282Z" fill="#A6590D"/>
<path d="M39.9 6.85718C41.418 6.85718 42.936 6.85718 44.5 6.85718C44.5 7.61146 44.5 8.36575 44.5 9.14289C42.982 9.14289 41.464 9.14289 39.9 9.14289C39.9 8.38861 39.9 7.63432 39.9 6.85718Z" fill="#A6590D"/>
<path d="M35.3 6.85718C36.818 6.85718 38.336 6.85718 39.9 6.85718C39.9 7.61146 39.9 8.36575 39.9 9.14289C38.382 9.14289 36.864 9.14289 35.3 9.14289C35.3 8.38861 35.3 7.63432 35.3 6.85718Z" fill="#C38015"/>
<path d="M67.5 2.28577C69.018 2.28577 70.536 2.28577 72.1 2.28577C72.1 3.04005 72.1 3.79434 72.1 4.57148C70.582 4.57148 69.064 4.57148 67.5 4.57148C67.5 3.8172 67.5 3.06291 67.5 2.28577Z" fill="black"/>
<path d="M39.9 2.28577C41.418 2.28577 42.936 2.28577 44.5 2.28577C44.5 3.04005 44.5 3.79434 44.5 4.57148C42.982 4.57148 41.464 4.57148 39.9 4.57148C39.9 3.8172 39.9 3.06291 39.9 2.28577Z" fill="black"/>
<path d="M42.2 41.1428C42.959 41.1428 43.718 41.1428 44.5 41.1428C44.5 41.8971 44.5 42.6514 44.5 43.4285C43.741 43.4285 42.982 43.4285 42.2 43.4285C42.2 42.6743 42.2 41.92 42.2 41.1428Z" fill="#C38015"/>
<path d="M60.6 38.8572C61.359 38.8572 62.118 38.8572 62.9 38.8572C62.9 39.6115 62.9 40.3657 62.9 41.1429C62.141 41.1429 61.382 41.1429 60.6 41.1429C60.6 40.3886 60.6 39.6343 60.6 38.8572Z" fill="#C38015"/>
<path d="M56 38.8572C56.759 38.8572 57.518 38.8572 58.3 38.8572C58.3 39.6115 58.3 40.3657 58.3 41.1429C57.541 41.1429 56.782 41.1429 56 41.1429C56 40.3886 56 39.6343 56 38.8572Z" fill="#C38015"/>
<path d="M42.2 36.5714C42.959 36.5714 43.718 36.5714 44.5 36.5714C44.5 37.3257 44.5 38.08 44.5 38.8571C43.741 38.8571 42.982 38.8571 42.2 38.8571C42.2 38.1028 42.2 37.3486 42.2 36.5714Z" fill="#C38015"/>
<path d="M65.2 34.2858C65.959 34.2858 66.718 34.2858 67.5 34.2858C67.5 35.0401 67.5 35.7943 67.5 36.5715C66.741 36.5715 65.982 36.5715 65.2 36.5715C65.2 35.8172 65.2 35.0629 65.2 34.2858Z" fill="#C38015"/>
<path d="M74.4 32C75.159 32 75.918 32 76.7 32C76.7 32.7543 76.7 33.5086 76.7 34.2857C75.941 34.2857 75.182 34.2857 74.4 34.2857C74.4 33.5314 74.4 32.7771 74.4 32Z" fill="#C38015"/>
<path d="M65.2 32C65.959 32 66.718 32 67.5 32C67.5 32.7543 67.5 33.5086 67.5 34.2857C66.741 34.2857 65.982 34.2857 65.2 34.2857C65.2 33.5314 65.2 32.7771 65.2 32Z" fill="#D28C1D"/>
<path d="M35.3 32C36.059 32 36.818 32 37.6 32C37.6 32.7543 37.6 33.5086 37.6 34.2857C36.841 34.2857 36.082 34.2857 35.3 34.2857C35.3 33.5314 35.3 32.7771 35.3 32Z" fill="#C38015"/>
<path d="M67.5 27.4286C68.259 27.4286 69.018 27.4286 69.8 27.4286C69.8 28.1829 69.8 28.9372 69.8 29.7143C69.041 29.7143 68.282 29.7143 67.5 29.7143C67.5 28.96 67.5 28.2057 67.5 27.4286Z" fill="#C38015"/>
<path d="M58.3 27.4286C59.059 27.4286 59.818 27.4286 60.6 27.4286C60.6 28.1829 60.6 28.9372 60.6 29.7143C59.841 29.7143 59.082 29.7143 58.3 29.7143C58.3 28.96 58.3 28.2057 58.3 27.4286Z" fill="#A6590D"/>
<path d="M51.4 27.4286C52.159 27.4286 52.918 27.4286 53.7 27.4286C53.7 28.1829 53.7 28.9372 53.7 29.7143C52.941 29.7143 52.182 29.7143 51.4 29.7143C51.4 28.96 51.4 28.2057 51.4 27.4286Z" fill="#A6590D"/>
<path d="M65.2 25.1428C65.959 25.1428 66.718 25.1428 67.5 25.1428C67.5 25.8971 67.5 26.6514 67.5 27.4285C66.741 27.4285 65.982 27.4285 65.2 27.4285C65.2 26.6743 65.2 25.92 65.2 25.1428Z" fill="#C38015"/>
<path d="M58.3 25.1428C59.059 25.1428 59.818 25.1428 60.6 25.1428C60.6 25.8971 60.6 26.6514 60.6 27.4285C59.841 27.4285 59.082 27.4285 58.3 27.4285C58.3 26.6743 58.3 25.92 58.3 25.1428Z" fill="black"/>
<path d="M51.4 25.1428C52.159 25.1428 52.918 25.1428 53.7 25.1428C53.7 25.8971 53.7 26.6514 53.7 27.4285C52.941 27.4285 52.182 27.4285 51.4 27.4285C51.4 26.6743 51.4 25.92 51.4 25.1428Z" fill="black"/>
<path d="M49.1 25.1428C49.859 25.1428 50.618 25.1428 51.4 25.1428C51.4 25.8971 51.4 26.6514 51.4 27.4285C50.641 27.4285 49.882 27.4285 49.1 27.4285C49.1 26.6743 49.1 25.92 49.1 25.1428Z" fill="#A6590D"/>
<path d="M74.4 16C75.159 16 75.918 16 76.7 16C76.7 16.7543 76.7 17.5086 76.7 18.2857C75.941 18.2857 75.182 18.2857 74.4 18.2857C74.4 17.5314 74.4 16.7771 74.4 16Z" fill="#C38015"/>
<path d="M35.3 16C36.059 16 36.818 16 37.6 16C37.6 16.7543 37.6 17.5086 37.6 18.2857C36.841 18.2857 36.082 18.2857 35.3 18.2857C35.3 17.5314 35.3 16.7771 35.3 16Z" fill="#C38015"/>
<path d="M74.4 13.7142C75.159 13.7142 75.918 13.7142 76.7 13.7142C76.7 14.4685 76.7 15.2228 76.7 15.9999C75.941 15.9999 75.182 15.9999 74.4 15.9999C74.4 15.2457 74.4 14.4914 74.4 13.7142Z" fill="#A6590D"/>
<path d="M35.3 13.7142C36.059 13.7142 36.818 13.7142 37.6 13.7142C37.6 14.4685 37.6 15.2228 37.6 15.9999C36.841 15.9999 36.082 15.9999 35.3 15.9999C35.3 15.2457 35.3 14.4914 35.3 13.7142Z" fill="#A6590D"/>
<path d="M67.5 11.4286C68.259 11.4286 69.018 11.4286 69.8 11.4286C69.8 12.1829 69.8 12.9372 69.8 13.7143C69.041 13.7143 68.282 13.7143 67.5 13.7143C67.5 12.96 67.5 12.2057 67.5 11.4286Z" fill="#D28C1D"/>
<path d="M74.4 6.85718C75.159 6.85718 75.918 6.85718 76.7 6.85718C76.7 7.61146 76.7 8.36575 76.7 9.14289C75.941 9.14289 75.182 9.14289 74.4 9.14289C74.4 8.38861 74.4 7.63432 74.4 6.85718Z" fill="black"/>
<path d="M72.1 6.85718C72.859 6.85718 73.618 6.85718 74.4 6.85718C74.4 7.61146 74.4 8.36575 74.4 9.14289C73.641 9.14289 72.882 9.14289 72.1 9.14289C72.1 8.38861 72.1 7.63432 72.1 6.85718Z" fill="#C38015"/>
<path d="M35.3 6.85718C36.059 6.85718 36.818 6.85718 37.6 6.85718C37.6 7.61146 37.6 8.36575 37.6 9.14289C36.841 9.14289 36.082 9.14289 35.3 9.14289C35.3 8.38861 35.3 7.63432 35.3 6.85718Z" fill="black"/>
<path d="M72.1 4.57141C72.859 4.57141 73.618 4.57141 74.4 4.57141C74.4 5.3257 74.4 6.07998 74.4 6.85713C73.641 6.85713 72.882 6.85713 72.1 6.85713C72.1 6.10284 72.1 5.34855 72.1 4.57141Z" fill="black"/>
<path d="M37.6 4.57141C38.359 4.57141 39.118 4.57141 39.9 4.57141C39.9 5.3257 39.9 6.07998 39.9 6.85713C39.141 6.85713 38.382 6.85713 37.6 6.85713C37.6 6.10284 37.6 5.34855 37.6 4.57141Z" fill="black"/>
<path d="M58.3 2.28577C59.059 2.28577 59.818 2.28577 60.6 2.28577C60.6 3.04005 60.6 3.79434 60.6 4.57148C59.841 4.57148 59.082 4.57148 58.3 4.57148C58.3 3.8172 58.3 3.06291 58.3 2.28577Z" fill="#C38015"/>
<path d="M69.8421 0C73.8368 0 77.8316 0 81.9474 0C81.9474 0.792 81.9474 1.584 81.9474 2.4C82.7463 2.4 83.5453 2.4 84.3684 2.4C84.3684 1.608 84.3684 0.816 84.3684 0C85.9663 0 87.5642 0 89.2105 0C89.2105 0.792 89.2105 1.584 89.2105 2.4C90.0095 2.4 90.8084 2.4 91.6316 2.4C91.6316 3.192 91.6316 3.984 91.6316 4.8C92.4305 4.8 93.2295 4.8 94.0526 4.8C94.0526 6.384 94.0526 7.968 94.0526 9.6C94.8516 9.6 95.6505 9.6 96.4737 9.6C96.4737 11.976 96.4737 14.352 96.4737 16.8C97.2726 16.8 98.0716 16.8 98.8947 16.8C98.8947 16.008 98.8947 15.216 98.8947 14.4C101.292 14.4 103.688 14.4 106.158 14.4C106.158 15.192 106.158 15.984 106.158 16.8C106.957 16.8 107.756 16.8 108.579 16.8C108.579 17.592 108.579 18.384 108.579 19.2C109.378 19.2 110.177 19.2 111 19.2C111 19.992 111 20.784 111 21.6C110.201 21.6 109.402 21.6 108.579 21.6C108.579 22.392 108.579 23.184 108.579 24C106.981 24 105.383 24 103.737 24C103.737 25.584 103.737 27.168 103.737 28.8C102.938 28.8 102.139 28.8 101.316 28.8C101.316 30.384 101.316 31.968 101.316 33.6C100.517 33.6 99.7179 33.6 98.8947 33.6C98.8947 34.392 98.8947 35.184 98.8947 36C100.493 36 102.091 36 103.737 36C103.737 36.792 103.737 37.584 103.737 38.4C104.536 38.4 105.335 38.4 106.158 38.4C106.158 39.192 106.158 39.984 106.158 40.8C106.957 40.8 107.756 40.8 108.579 40.8C108.579 41.592 108.579 42.384 108.579 43.2C107.78 43.2 106.981 43.2 106.158 43.2C106.158 43.992 106.158 44.784 106.158 45.6C102.962 45.6 99.7663 45.6 96.4737 45.6C96.4737 46.392 96.4737 47.184 96.4737 48C95.6747 48 94.8758 48 94.0526 48C94.0526 47.208 94.0526 46.416 94.0526 45.6C92.4547 45.6 90.8568 45.6 89.2105 45.6C89.2105 44.808 89.2105 44.016 89.2105 43.2C87.6126 43.2 86.0147 43.2 84.3684 43.2C84.3684 43.992 84.3684 44.784 84.3684 45.6C80.3737 45.6 76.3789 45.6 72.2632 45.6C72.2632 44.808 72.2632 44.016 72.2632 43.2C70.6653 43.2 69.0674 43.2 67.4211 43.2C67.4211 42.408 67.4211 41.616 67.4211 40.8C66.6221 40.8 65.8232 40.8 65 40.8C65 40.008 65 39.216 65 38.4C65.7989 38.4 66.5979 38.4 67.4211 38.4C67.4211 37.608 67.4211 36.816 67.4211 36C69.8179 36 72.2147 36 74.6842 36C74.6842 35.208 74.6842 34.416 74.6842 33.6C76.2821 33.6 77.88 33.6 79.5263 33.6C79.5263 31.224 79.5263 28.848 79.5263 26.4C78.7274 26.4 77.9284 26.4 77.1053 26.4C77.1053 24.024 77.1053 21.648 77.1053 19.2C76.3063 19.2 75.5074 19.2 74.6842 19.2C74.6842 16.824 74.6842 14.448 74.6842 12C73.8853 12 73.0863 12 72.2632 12C72.2632 9.624 72.2632 7.248 72.2632 4.8C71.4642 4.8 70.6653 4.8 69.8421 4.8C69.8421 3.216 69.8421 1.632 69.8421 0Z" fill="#C8C8C8"/>
<path d="M69.8421 0C73.8368 0 77.8316 0 81.9474 0C81.9474 0.792 81.9474 1.584 81.9474 2.4C82.7463 2.4 83.5453 2.4 84.3684 2.4C84.3684 1.608 84.3684 0.816 84.3684 0C85.9663 0 87.5642 0 89.2105 0C89.2105 0.792 89.2105 1.584 89.2105 2.4C90.0095 2.4 90.8084 2.4 91.6316 2.4C91.6316 3.192 91.6316 3.984 91.6316 4.8C92.4305 4.8 93.2295 4.8 94.0526 4.8C94.0526 6.384 94.0526 7.968 94.0526 9.6C94.8516 9.6 95.6505 9.6 96.4737 9.6C96.4737 11.976 96.4737 14.352 96.4737 16.8C97.2726 16.8 98.0716 16.8 98.8947 16.8C98.8947 16.008 98.8947 15.216 98.8947 14.4C101.292 14.4 103.688 14.4 106.158 14.4C106.158 15.192 106.158 15.984 106.158 16.8C106.957 16.8 107.756 16.8 108.579 16.8C108.579 17.592 108.579 18.384 108.579 19.2C109.378 19.2 110.177 19.2 111 19.2C111 19.992 111 20.784 111 21.6C110.201 21.6 109.402 21.6 108.579 21.6C108.579 22.392 108.579 23.184 108.579 24C106.981 24 105.383 24 103.737 24C103.737 25.584 103.737 27.168 103.737 28.8C102.938 28.8 102.139 28.8 101.316 28.8C101.316 27.216 101.316 25.632 101.316 24C100.517 24 99.7179 24 98.8947 24C98.8947 22.416 98.8947 20.832 98.8947 19.2C97.2968 19.2 95.6989 19.2 94.0526 19.2C94.0526 19.992 94.0526 20.784 94.0526 21.6C92.4547 21.6 90.8568 21.6 89.2105 21.6C89.2105 20.808 89.2105 20.016 89.2105 19.2C88.4116 19.2 87.6126 19.2 86.7895 19.2C86.7895 16.824 86.7895 14.448 86.7895 12C85.9905 12 85.1916 12 84.3684 12C84.3684 9.624 84.3684 7.248 84.3684 4.8C83.5695 4.8 82.7705 4.8 81.9474 4.8C81.9474 7.968 81.9474 11.136 81.9474 14.4C81.1484 14.4 80.3495 14.4 79.5263 14.4C79.5263 15.192 79.5263 15.984 79.5263 16.8C78.7274 16.8 77.9284 16.8 77.1053 16.8C77.1053 17.592 77.1053 18.384 77.1053 19.2C76.3063 19.2 75.5074 19.2 74.6842 19.2C74.6842 16.824 74.6842 14.448 74.6842 12C73.8853 12 73.0863 12 72.2632 12C72.2632 9.624 72.2632 7.248 72.2632 4.8C71.4642 4.8 70.6653 4.8 69.8421 4.8C69.8421 3.216 69.8421 1.632 69.8421 0Z" fill="#C8C8C8"/>
<path d="M94.0527 33.6C95.6505 33.6 97.2484 33.6 98.8948 33.6C98.8948 34.392 98.8948 35.184 98.8948 36C100.493 36 102.091 36 103.737 36C103.737 36.792 103.737 37.584 103.737 38.4C104.536 38.4 105.335 38.4 106.158 38.4C106.158 39.192 106.158 39.984 106.158 40.8C106.957 40.8 107.756 40.8 108.579 40.8C108.579 41.592 108.579 42.384 108.579 43.2C107.78 43.2 106.981 43.2 106.158 43.2C106.158 43.992 106.158 44.784 106.158 45.6C102.962 45.6 99.7663 45.6 96.4737 45.6C96.4737 46.392 96.4737 47.184 96.4737 48C95.6748 48 94.8758 48 94.0527 48C94.0527 47.208 94.0527 46.416 94.0527 45.6C92.4548 45.6 90.8569 45.6 89.2105 45.6C89.2105 44.808 89.2105 44.016 89.2105 43.2C87.6127 43.2 86.0148 43.2 84.3684 43.2C84.3684 42.408 84.3684 41.616 84.3684 40.8C83.5695 40.8 82.7705 40.8 81.9474 40.8C81.9474 40.008 81.9474 39.216 81.9474 38.4C82.7463 38.4 83.5453 38.4 84.3684 38.4C84.3684 37.608 84.3684 36.816 84.3684 36C86.7653 36 89.1621 36 91.6316 36C91.6316 37.584 91.6316 39.168 91.6316 40.8C94.0284 40.8 96.4253 40.8 98.8948 40.8C98.8948 40.008 98.8948 39.216 98.8948 38.4C97.2969 38.4 95.699 38.4 94.0527 38.4C94.0527 36.816 94.0527 35.232 94.0527 33.6Z" fill="#C4913E"/>
<path d="M94.0526 9.59998C94.8516 9.59998 95.6505 9.59998 96.4737 9.59998C96.4737 11.976 96.4737 14.352 96.4737 16.8C97.2726 16.8 98.0716 16.8 98.8947 16.8C98.8947 16.008 98.8947 15.216 98.8947 14.4C101.292 14.4 103.688 14.4 106.158 14.4C106.158 15.192 106.158 15.984 106.158 16.8C106.957 16.8 107.756 16.8 108.579 16.8C108.579 17.592 108.579 18.384 108.579 19.2C109.378 19.2 110.177 19.2 111 19.2C111 19.992 111 20.784 111 21.6C110.201 21.6 109.402 21.6 108.579 21.6C108.579 22.392 108.579 23.184 108.579 24C106.981 24 105.383 24 103.737 24C103.737 25.584 103.737 27.168 103.737 28.8C102.938 28.8 102.139 28.8 101.316 28.8C101.316 27.216 101.316 25.632 101.316 24C100.517 24 99.7179 24 98.8947 24C98.8947 22.416 98.8947 20.832 98.8947 19.2C97.2968 19.2 95.6989 19.2 94.0526 19.2C94.0526 16.032 94.0526 12.864 94.0526 9.59998Z" fill="#C8C8C8"/>
<path d="M86.7895 2.40002C88.3874 2.40002 89.9853 2.40002 91.6316 2.40002C91.6316 3.19202 91.6316 3.98402 91.6316 4.80002C92.4305 4.80002 93.2295 4.80002 94.0526 4.80002C94.0526 10.344 94.0526 15.888 94.0526 21.6C92.4548 21.6 90.8569 21.6 89.2105 21.6C89.2105 20.808 89.2105 20.016 89.2105 19.2C88.4116 19.2 87.6126 19.2 86.7895 19.2C86.7895 13.656 86.7895 8.11202 86.7895 2.40002Z" fill="#B4B4B4"/>
<path d="M81.9474 4.80005C82.7463 4.80005 83.5453 4.80005 84.3684 4.80005C84.3684 7.17605 84.3684 9.55205 84.3684 12C85.1674 12 85.9663 12 86.7895 12C86.7895 14.376 86.7895 16.752 86.7895 19.2C87.5884 19.2 88.3874 19.2 89.2105 19.2C89.2105 19.992 89.2105 20.784 89.2105 21.6C88.4116 21.6 87.6127 21.6 86.7895 21.6C86.7895 22.392 86.7895 23.184 86.7895 24C85.1916 24 83.5937 24 81.9474 24C81.9474 23.208 81.9474 22.416 81.9474 21.6C81.1484 21.6 80.3495 21.6 79.5263 21.6C79.5263 20.8081 79.5263 20.016 79.5263 19.2C78.7274 19.2 77.9284 19.2 77.1053 19.2C77.1053 18.408 77.1053 17.616 77.1053 16.8C77.9042 16.8 78.7032 16.8 79.5263 16.8C79.5263 16.008 79.5263 15.216 79.5263 14.4C80.3253 14.4 81.1242 14.4 81.9474 14.4C81.9474 11.232 81.9474 8.06405 81.9474 4.80005Z" fill="#B4B4B4"/>
<path d="M94.0526 19.2C95.6505 19.2 97.2484 19.2 98.8947 19.2C98.8947 20.784 98.8947 22.368 98.8947 24C99.6937 24 100.493 24 101.316 24C101.316 27.168 101.316 30.336 101.316 33.6C99.7179 33.6 98.12 33.6 96.4737 33.6C96.4737 31.224 96.4737 28.848 96.4737 26.4C95.6747 26.4 94.8758 26.4 94.0526 26.4C94.0526 24.024 94.0526 21.648 94.0526 19.2Z" fill="#D8D8D8"/>
<path d="M77.1053 19.2C77.9042 19.2 78.7032 19.2 79.5263 19.2C79.5263 19.992 79.5263 20.784 79.5263 21.6C80.3253 21.6 81.1242 21.6 81.9474 21.6C81.9474 22.392 81.9474 23.184 81.9474 24C82.7463 24 83.5453 24 84.3684 24C84.3684 24.792 84.3684 25.584 84.3684 26.4C85.1674 26.4 85.9663 26.4 86.7895 26.4C86.7895 27.192 86.7895 27.984 86.7895 28.8C85.9905 28.8 85.1916 28.8 84.3684 28.8C84.3684 29.592 84.3684 30.384 84.3684 31.2C83.5695 31.2 82.7705 31.2 81.9474 31.2C81.9474 31.992 81.9474 32.784 81.9474 33.6C81.1484 33.6 80.3495 33.6 79.5263 33.6C79.5263 31.224 79.5263 28.848 79.5263 26.4C78.7274 26.4 77.9284 26.4 77.1053 26.4C77.1053 24.024 77.1053 21.648 77.1053 19.2Z" fill="#B4B4B4"/>
<path d="M67.4211 36C69.8179 36 72.2147 36 74.6842 36C74.6842 37.584 74.6842 39.168 74.6842 40.8C73.8853 40.8 73.0863 40.8 72.2632 40.8C72.2632 41.592 72.2632 42.384 72.2632 43.2C70.6653 43.2 69.0674 43.2 67.4211 43.2C67.4211 42.408 67.4211 41.616 67.4211 40.8C66.6221 40.8 65.8232 40.8 65 40.8C65 40.008 65 39.216 65 38.4C65.7989 38.4 66.5979 38.4 67.4211 38.4C67.4211 37.608 67.4211 36.816 67.4211 36Z" fill="#C8C8C8"/>
<path d="M84.3684 36C86.7653 36 89.1621 36 91.6316 36C91.6316 36.792 91.6316 37.584 91.6316 38.4C90.8327 38.4 90.0337 38.4 89.2105 38.4C89.2105 39.984 89.2105 41.568 89.2105 43.2C87.6127 43.2 86.0148 43.2 84.3684 43.2C84.3684 42.408 84.3684 41.616 84.3684 40.8C83.5695 40.8 82.7705 40.8 81.9474 40.8C81.9474 40.008 81.9474 39.216 81.9474 38.4C82.7463 38.4 83.5453 38.4 84.3684 38.4C84.3684 37.608 84.3684 36.816 84.3684 36Z" fill="black"/>
<path d="M103.737 38.4C104.536 38.4 105.335 38.4 106.158 38.4C106.158 39.192 106.158 39.984 106.158 40.8C106.957 40.8 107.756 40.8 108.579 40.8C108.579 41.592 108.579 42.384 108.579 43.2C107.78 43.2 106.981 43.2 106.158 43.2C106.158 43.992 106.158 44.784 106.158 45.6C102.962 45.6 99.7663 45.6 96.4737 45.6C96.4737 44.808 96.4737 44.016 96.4737 43.2C98.8705 43.2 101.267 43.2 103.737 43.2C103.737 41.616 103.737 40.032 103.737 38.4Z" fill="black"/>
<path d="M84.3684 0C85.9663 0 87.5642 0 89.2105 0C89.2105 0.792 89.2105 1.584 89.2105 2.4C88.4116 2.4 87.6127 2.4 86.7895 2.4C86.7895 5.568 86.7895 8.736 86.7895 12C85.9905 12 85.1916 12 84.3684 12C84.3684 9.624 84.3684 7.248 84.3684 4.8C83.5695 4.8 82.7705 4.8 81.9474 4.8C81.9474 4.008 81.9474 3.216 81.9474 2.4C82.7463 2.4 83.5453 2.4 84.3684 2.4C84.3684 1.608 84.3684 0.816 84.3684 0Z" fill="#B4B4B4"/>
<path d="M94.0526 33.6C95.6505 33.6 97.2484 33.6 98.8947 33.6C98.8947 34.392 98.8947 35.184 98.8947 36C100.493 36 102.091 36 103.737 36C103.737 36.792 103.737 37.584 103.737 38.4C100.541 38.4 97.3452 38.4 94.0526 38.4C94.0526 36.816 94.0526 35.232 94.0526 33.6Z" fill="black"/>
<path d="M84.3684 12C85.1674 12 85.9663 12 86.7895 12C86.7895 14.376 86.7895 16.752 86.7895 19.2C87.5884 19.2 88.3874 19.2 89.2105 19.2C89.2105 19.992 89.2105 20.784 89.2105 21.6C87.6127 21.6 86.0148 21.6 84.3684 21.6C84.3684 20.808 84.3684 20.016 84.3684 19.2C83.5695 19.2 82.7705 19.2 81.9474 19.2C81.9474 18.408 81.9474 17.616 81.9474 16.8C82.7463 16.8 83.5453 16.8 84.3684 16.8C84.3684 15.216 84.3684 13.632 84.3684 12Z" fill="#D8D8D8"/>
<path d="M69.8421 0C73.8368 0 77.8316 0 81.9474 0C81.9474 0.792 81.9474 1.584 81.9474 2.4C78.7516 2.4 75.5558 2.4 72.2632 2.4C72.2632 3.192 72.2632 3.984 72.2632 4.8C71.4642 4.8 70.6653 4.8 69.8421 4.8C69.8421 3.216 69.8421 1.632 69.8421 0Z" fill="black"/>
<path d="M72.2632 43.2C76.2579 43.2 80.2527 43.2 84.3684 43.2C84.3684 43.992 84.3684 44.784 84.3684 45.6C80.3737 45.6 76.379 45.6 72.2632 45.6C72.2632 44.808 72.2632 44.016 72.2632 43.2Z" fill="black"/>
<path d="M94.0526 9.59998C94.8516 9.59998 95.6505 9.59998 96.4737 9.59998C96.4737 11.976 96.4737 14.352 96.4737 16.8C97.2726 16.8 98.0716 16.8 98.8947 16.8C98.8947 17.592 98.8947 18.384 98.8947 19.2C97.2968 19.2 95.6989 19.2 94.0526 19.2C94.0526 16.032 94.0526 12.864 94.0526 9.59998Z" fill="black"/>
<path d="M72.2632 2.40002C75.459 2.40002 78.6548 2.40002 81.9474 2.40002C81.9474 3.19202 81.9474 3.98402 81.9474 4.80002C78.7516 4.80002 75.5558 4.80002 72.2632 4.80002C72.2632 4.00802 72.2632 3.21602 72.2632 2.40002Z" fill="#D8D8D8"/>
<path d="M103.737 38.4C104.536 38.4 105.335 38.4 106.158 38.4C106.158 39.192 106.158 39.984 106.158 40.8C106.957 40.8 107.756 40.8 108.579 40.8C108.579 41.592 108.579 42.384 108.579 43.2C106.981 43.2 105.383 43.2 103.737 43.2C103.737 41.616 103.737 40.032 103.737 38.4Z" fill="#7D0000"/>
<path d="M91.6316 38.4C94.0284 38.4 96.4253 38.4 98.8947 38.4C98.8947 39.192 98.8947 39.984 98.8947 40.8C96.4979 40.8 94.1011 40.8 91.6316 40.8C91.6316 40.008 91.6316 39.216 91.6316 38.4Z" fill="#D5A04B"/>
<path d="M79.5263 38.4C80.3253 38.4 81.1242 38.4 81.9474 38.4C81.9474 39.192 81.9474 39.984 81.9474 40.8C82.7463 40.8 83.5453 40.8 84.3684 40.8C84.3684 41.592 84.3684 42.384 84.3684 43.2C82.7705 43.2 81.1726 43.2 79.5263 43.2C79.5263 41.616 79.5263 40.032 79.5263 38.4Z" fill="#B4B4B4"/>
<path d="M67.4211 36C69.8179 36 72.2148 36 74.6842 36C74.6842 36.792 74.6842 37.584 74.6842 38.4C72.2874 38.4 69.8906 38.4 67.4211 38.4C67.4211 37.608 67.4211 36.816 67.4211 36Z" fill="black"/>
<path d="M79.5263 26.4C80.3253 26.4 81.1242 26.4 81.9474 26.4C81.9474 28.776 81.9474 31.152 81.9474 33.6C81.1484 33.6 80.3495 33.6 79.5263 33.6C79.5263 31.224 79.5263 28.848 79.5263 26.4Z" fill="black"/>
<path d="M77.1053 19.2C77.9042 19.2 78.7032 19.2 79.5263 19.2C79.5263 21.576 79.5263 23.952 79.5263 26.4C78.7274 26.4 77.9284 26.4 77.1053 26.4C77.1053 24.024 77.1053 21.648 77.1053 19.2Z" fill="black"/>
<path d="M98.8947 14.4C101.292 14.4 103.688 14.4 106.158 14.4C106.158 15.192 106.158 15.984 106.158 16.8C103.761 16.8 101.364 16.8 98.8947 16.8C98.8947 16.008 98.8947 15.216 98.8947 14.4Z" fill="black"/>
<path d="M86.7895 12C87.5884 12 88.3874 12 89.2105 12C89.2105 14.376 89.2105 16.752 89.2105 19.2C88.4116 19.2 87.6126 19.2 86.7895 19.2C86.7895 16.824 86.7895 14.448 86.7895 12Z" fill="black"/>
<path d="M74.6842 12C75.4832 12 76.2821 12 77.1053 12C77.1053 14.376 77.1053 16.752 77.1053 19.2C76.3063 19.2 75.5074 19.2 74.6842 19.2C74.6842 16.824 74.6842 14.448 74.6842 12Z" fill="black"/>
<path d="M84.3684 4.80005C85.1674 4.80005 85.9663 4.80005 86.7895 4.80005C86.7895 7.17605 86.7895 9.55205 86.7895 12C85.9905 12 85.1916 12 84.3684 12C84.3684 9.62405 84.3684 7.24805 84.3684 4.80005Z" fill="black"/>
<path d="M81.9474 4.80005C82.7463 4.80005 83.5453 4.80005 84.3684 4.80005C84.3684 7.17605 84.3684 9.55205 84.3684 12C83.5695 12 82.7705 12 81.9474 12C81.9474 9.62405 81.9474 7.24805 81.9474 4.80005Z" fill="#D8D8D8"/>
<path d="M72.2632 4.80005C73.0621 4.80005 73.8611 4.80005 74.6842 4.80005C74.6842 7.17605 74.6842 9.55205 74.6842 12C73.8853 12 73.0863 12 72.2632 12C72.2632 9.62405 72.2632 7.24805 72.2632 4.80005Z" fill="black"/>
<path d="M89.2105 43.2C90.8084 43.2 92.4063 43.2 94.0526 43.2C94.0526 43.992 94.0526 44.784 94.0526 45.6C92.4547 45.6 90.8568 45.6 89.2105 45.6C89.2105 44.808 89.2105 44.016 89.2105 43.2Z" fill="black"/>
<path d="M67.4211 40.8C69.019 40.8 70.6169 40.8 72.2632 40.8C72.2632 41.592 72.2632 42.384 72.2632 43.2C70.6653 43.2 69.0674 43.2 67.4211 43.2C67.4211 42.408 67.4211 41.616 67.4211 40.8Z" fill="black"/>
<path d="M98.8947 38.4C100.493 38.4 102.091 38.4 103.737 38.4C103.737 39.192 103.737 39.984 103.737 40.8C102.139 40.8 100.541 40.8 98.8947 40.8C98.8947 40.008 98.8947 39.216 98.8947 38.4Z" fill="#D5A04B"/>
<path d="M74.6842 33.6C76.2821 33.6 77.88 33.6 79.5263 33.6C79.5263 34.392 79.5263 35.184 79.5263 36C77.9284 36 76.3305 36 74.6842 36C74.6842 35.208 74.6842 34.416 74.6842 33.6Z" fill="black"/>
<path d="M98.8947 28.8C99.6937 28.8 100.493 28.8 101.316 28.8C101.316 30.384 101.316 31.968 101.316 33.6C100.517 33.6 99.7179 33.6 98.8947 33.6C98.8947 32.016 98.8947 30.432 98.8947 28.8Z" fill="black"/>
<path d="M101.316 24C102.115 24 102.914 24 103.737 24C103.737 25.584 103.737 27.168 103.737 28.8C102.938 28.8 102.139 28.8 101.316 28.8C101.316 27.216 101.316 25.632 101.316 24Z" fill="black"/>
<path d="M103.737 21.6C105.335 21.6 106.933 21.6 108.579 21.6C108.579 22.392 108.579 23.184 108.579 24C106.981 24 105.383 24 103.737 24C103.737 23.208 103.737 22.416 103.737 21.6Z" fill="black"/>
<path d="M89.2105 19.2C90.8084 19.2 92.4063 19.2 94.0526 19.2C94.0526 19.992 94.0526 20.784 94.0526 21.6C92.4547 21.6 90.8568 21.6 89.2105 21.6C89.2105 20.808 89.2105 20.016 89.2105 19.2Z" fill="black"/>
<path d="M91.6316 9.59998C92.4305 9.59998 93.2295 9.59998 94.0526 9.59998C94.0526 11.184 94.0526 12.768 94.0526 14.4C93.2537 14.4 92.4547 14.4 91.6316 14.4C91.6316 12.816 91.6316 11.232 91.6316 9.59998Z" fill="#C8C8C8"/>
<path d="M91.6316 4.80005C92.4305 4.80005 93.2295 4.80005 94.0526 4.80005C94.0526 6.38405 94.0526 7.96805 94.0526 9.60005C93.2537 9.60005 92.4547 9.60005 91.6316 9.60005C91.6316 8.01605 91.6316 6.43205 91.6316 4.80005Z" fill="black"/>
<path d="M84.3684 0C85.9663 0 87.5642 0 89.2105 0C89.2105 0.792 89.2105 1.584 89.2105 2.4C87.6126 2.4 86.0147 2.4 84.3684 2.4C84.3684 1.608 84.3684 0.816 84.3684 0Z" fill="black"/>
<path d="M94.0526 45.6C94.8516 45.6 95.6505 45.6 96.4737 45.6C96.4737 46.392 96.4737 47.184 96.4737 48C95.6747 48 94.8758 48 94.0526 48C94.0526 47.208 94.0526 46.416 94.0526 45.6Z" fill="black"/>
<path d="M94.0526 43.2C94.8516 43.2 95.6505 43.2 96.4737 43.2C96.4737 43.992 96.4737 44.784 96.4737 45.6C95.6747 45.6 94.8758 45.6 94.0526 45.6C94.0526 44.808 94.0526 44.016 94.0526 43.2Z" fill="#FCDEDE"/>
<path d="M106.158 40.8C106.957 40.8 107.756 40.8 108.579 40.8C108.579 41.592 108.579 42.384 108.579 43.2C107.78 43.2 106.981 43.2 106.158 43.2C106.158 42.408 106.158 41.616 106.158 40.8Z" fill="black"/>
<path d="M72.2632 40.8C73.0621 40.8 73.8611 40.8 74.6842 40.8C74.6842 41.592 74.6842 42.384 74.6842 43.2C73.8853 43.2 73.0863 43.2 72.2632 43.2C72.2632 42.408 72.2632 41.616 72.2632 40.8Z" fill="#B4B4B4"/>
<path d="M103.737 38.4C104.536 38.4 105.335 38.4 106.158 38.4C106.158 39.192 106.158 39.984 106.158 40.8C105.359 40.8 104.56 40.8 103.737 40.8C103.737 40.008 103.737 39.216 103.737 38.4Z" fill="black"/>
<path d="M96.4737 38.4C97.2726 38.4 98.0716 38.4 98.8947 38.4C98.8947 39.192 98.8947 39.984 98.8947 40.8C98.0958 40.8 97.2969 40.8 96.4737 40.8C96.4737 40.008 96.4737 39.216 96.4737 38.4Z" fill="#FCDEDE"/>
<path d="M86.7895 38.4C87.5884 38.4 88.3874 38.4 89.2105 38.4C89.2105 39.192 89.2105 39.984 89.2105 40.8C88.4116 40.8 87.6126 40.8 86.7895 40.8C86.7895 40.008 86.7895 39.216 86.7895 38.4Z" fill="#7D0000"/>
<path d="M74.6842 38.4C75.4832 38.4 76.2821 38.4 77.1053 38.4C77.1053 39.192 77.1053 39.984 77.1053 40.8C76.3063 40.8 75.5074 40.8 74.6842 40.8C74.6842 40.008 74.6842 39.216 74.6842 38.4Z" fill="#B4B4B4"/>
<path d="M65 38.4C65.7989 38.4 66.5979 38.4 67.4211 38.4C67.4211 39.192 67.4211 39.984 67.4211 40.8C66.6221 40.8 65.8232 40.8 65 40.8C65 40.008 65 39.216 65 38.4Z" fill="black"/>
<path d="M91.6316 36C92.4305 36 93.2295 36 94.0526 36C94.0526 36.792 94.0526 37.584 94.0526 38.4C93.2537 38.4 92.4547 38.4 91.6316 38.4C91.6316 37.608 91.6316 36.816 91.6316 36Z" fill="#FCDEDE"/>
<path d="M81.9474 36C82.7463 36 83.5453 36 84.3684 36C84.3684 36.792 84.3684 37.584 84.3684 38.4C83.5695 38.4 82.7705 38.4 81.9474 38.4C81.9474 37.608 81.9474 36.816 81.9474 36Z" fill="#B4B4B4"/>
<path d="M91.6316 33.6C92.4305 33.6 93.2295 33.6 94.0526 33.6C94.0526 34.392 94.0526 35.184 94.0526 36C93.2537 36 92.4547 36 91.6316 36C91.6316 35.208 91.6316 34.416 91.6316 33.6Z" fill="#B4B4B4"/>
<path d="M91.6316 21.6C92.4305 21.6 93.2295 21.6 94.0526 21.6C94.0526 22.392 94.0526 23.184 94.0526 24C93.2537 24 92.4547 24 91.6316 24C91.6316 23.208 91.6316 22.416 91.6316 21.6Z" fill="#B4B4B4"/>
<path d="M81.9474 21.6C82.7463 21.6 83.5453 21.6 84.3684 21.6C84.3684 22.392 84.3684 23.184 84.3684 24C83.5695 24 82.7705 24 81.9474 24C81.9474 23.208 81.9474 22.416 81.9474 21.6Z" fill="#C8C8C8"/>
<path d="M108.579 19.2C109.378 19.2 110.177 19.2 111 19.2C111 19.992 111 20.784 111 21.6C110.201 21.6 109.402 21.6 108.579 21.6C108.579 20.808 108.579 20.016 108.579 19.2Z" fill="black"/>
<path d="M106.158 19.2C106.957 19.2 107.756 19.2 108.579 19.2C108.579 19.992 108.579 20.784 108.579 21.6C107.78 21.6 106.981 21.6 106.158 21.6C106.158 20.808 106.158 20.016 106.158 19.2Z" fill="#FCDEDE"/>
<path d="M94.0526 19.2C94.8516 19.2 95.6505 19.2 96.4737 19.2C96.4737 19.992 96.4737 20.784 96.4737 21.6C95.6747 21.6 94.8758 21.6 94.0526 21.6C94.0526 20.808 94.0526 20.016 94.0526 19.2Z" fill="#B4B4B4"/>
<path d="M86.7895 19.2C87.5884 19.2 88.3874 19.2 89.2105 19.2C89.2105 19.992 89.2105 20.784 89.2105 21.6C88.4116 21.6 87.6126 21.6 86.7895 21.6C86.7895 20.808 86.7895 20.016 86.7895 19.2Z" fill="#D8D8D8"/>
<path d="M84.3684 19.2C85.1674 19.2 85.9663 19.2 86.7895 19.2C86.7895 19.992 86.7895 20.784 86.7895 21.6C85.9905 21.6 85.1916 21.6 84.3684 21.6C84.3684 20.808 84.3684 20.016 84.3684 19.2Z" fill="#C8C8C8"/>
<path d="M79.5263 19.2C80.3253 19.2 81.1242 19.2 81.9474 19.2C81.9474 19.992 81.9474 20.784 81.9474 21.6C81.1484 21.6 80.3495 21.6 79.5263 21.6C79.5263 20.808 79.5263 20.016 79.5263 19.2Z" fill="#C8C8C8"/>
<path d="M106.158 16.8C106.957 16.8 107.756 16.8 108.579 16.8C108.579 17.592 108.579 18.384 108.579 19.2C107.78 19.2 106.981 19.2 106.158 19.2C106.158 18.408 106.158 17.616 106.158 16.8Z" fill="black"/>
<path d="M98.8947 16.8C99.6937 16.8 100.493 16.8 101.316 16.8C101.316 17.592 101.316 18.384 101.316 19.2C100.517 19.2 99.7179 19.2 98.8947 19.2C98.8947 18.408 98.8947 17.616 98.8947 16.8Z" fill="#D8D8D8"/>
<path d="M81.9474 16.8C82.7463 16.8 83.5453 16.8 84.3684 16.8C84.3684 17.592 84.3684 18.384 84.3684 19.2C83.5695 19.2 82.7705 19.2 81.9474 19.2C81.9474 18.408 81.9474 17.616 81.9474 16.8Z" fill="#C8C8C8"/>
<path d="M77.1053 14.4C77.9042 14.4 78.7032 14.4 79.5263 14.4C79.5263 15.192 79.5263 15.984 79.5263 16.8C78.7274 16.8 77.9284 16.8 77.1053 16.8C77.1053 16.008 77.1053 15.216 77.1053 14.4Z" fill="#C8C8C8"/>
<path d="M79.5263 12C80.3253 12 81.1242 12 81.9474 12C81.9474 12.792 81.9474 13.584 81.9474 14.4C81.1484 14.4 80.3495 14.4 79.5263 14.4C79.5263 13.608 79.5263 12.816 79.5263 12Z" fill="#C8C8C8"/>
<path d="M77.1053 12C77.9042 12 78.7032 12 79.5263 12C79.5263 12.792 79.5263 13.584 79.5263 14.4C78.7274 14.4 77.9284 14.4 77.1053 14.4C77.1053 13.608 77.1053 12.816 77.1053 12Z" fill="#B4B4B4"/>
<path d="M79.5263 9.59998C80.3253 9.59998 81.1242 9.59998 81.9474 9.59998C81.9474 10.392 81.9474 11.184 81.9474 12C81.1484 12 80.3495 12 79.5263 12C79.5263 11.208 79.5263 10.416 79.5263 9.59998Z" fill="#B4B4B4"/>
<path d="M77.1053 9.59998C77.9042 9.59998 78.7032 9.59998 79.5263 9.59998C79.5263 10.392 79.5263 11.184 79.5263 12C78.7274 12 77.9284 12 77.1053 12C77.1053 11.208 77.1053 10.416 77.1053 9.59998Z" fill="#C8C8C8"/>
<path d="M74.6842 9.59998C75.4832 9.59998 76.2821 9.59998 77.1053 9.59998C77.1053 10.392 77.1053 11.184 77.1053 12C76.3063 12 75.5074 12 74.6842 12C74.6842 11.208 74.6842 10.416 74.6842 9.59998Z" fill="#B4B4B4"/>
<path d="M79.5263 7.19995C80.3253 7.19995 81.1242 7.19995 81.9474 7.19995C81.9474 7.99195 81.9474 8.78395 81.9474 9.59995C81.1484 9.59995 80.3495 9.59995 79.5263 9.59995C79.5263 8.80795 79.5263 8.01595 79.5263 7.19995Z" fill="#C8C8C8"/>
<path d="M77.1053 7.19995C77.9042 7.19995 78.7032 7.19995 79.5263 7.19995C79.5263 7.99195 79.5263 8.78395 79.5263 9.59995C78.7274 9.59995 77.9284 9.59995 77.1053 9.59995C77.1053 8.80795 77.1053 8.01595 77.1053 7.19995Z" fill="#B4B4B4"/>
<path d="M74.6842 7.19995C75.4832 7.19995 76.2821 7.19995 77.1053 7.19995C77.1053 7.99195 77.1053 8.78395 77.1053 9.59995C76.3063 9.59995 75.5074 9.59995 74.6842 9.59995C74.6842 8.80795 74.6842 8.01595 74.6842 7.19995Z" fill="#C8C8C8"/>
<path d="M89.2105 4.80005C90.0095 4.80005 90.8084 4.80005 91.6316 4.80005C91.6316 5.59205 91.6316 6.38405 91.6316 7.20005C90.8326 7.20005 90.0337 7.20005 89.2105 7.20005C89.2105 6.40805 89.2105 5.61605 89.2105 4.80005Z" fill="#C8C8C8"/>
<path d="M79.5263 4.80005C80.3253 4.80005 81.1242 4.80005 81.9474 4.80005C81.9474 5.59205 81.9474 6.38405 81.9474 7.20005C81.1484 7.20005 80.3495 7.20005 79.5263 7.20005C79.5263 6.40805 79.5263 5.61605 79.5263 4.80005Z" fill="#B4B4B4"/>
<path d="M74.6842 4.80005C75.4832 4.80005 76.2821 4.80005 77.1053 4.80005C77.1053 5.59205 77.1053 6.38405 77.1053 7.20005C76.3063 7.20005 75.5074 7.20005 74.6842 7.20005C74.6842 6.40805 74.6842 5.61605 74.6842 4.80005Z" fill="#B4B4B4"/>
<path d="M89.2105 2.40002C90.0095 2.40002 90.8084 2.40002 91.6316 2.40002C91.6316 3.19202 91.6316 3.98402 91.6316 4.80002C90.8326 4.80002 90.0337 4.80002 89.2105 4.80002C89.2105 4.00802 89.2105 3.21602 89.2105 2.40002Z" fill="black"/>
<path d="M86.7895 2.40002C87.5884 2.40002 88.3874 2.40002 89.2105 2.40002C89.2105 3.19202 89.2105 3.98402 89.2105 4.80002C88.4116 4.80002 87.6126 4.80002 86.7895 4.80002C86.7895 4.00802 86.7895 3.21602 86.7895 2.40002Z" fill="#C8C8C8"/>
<path d="M81.9474 2.40002C82.7463 2.40002 83.5453 2.40002 84.3684 2.40002C84.3684 3.19202 84.3684 3.98402 84.3684 4.80002C83.5695 4.80002 82.7705 4.80002 81.9474 4.80002C81.9474 4.00802 81.9474 3.21602 81.9474 2.40002Z" fill="black"/>
</svg>
